<svg width="150" height="137" viewBox="0 0 150 137" fill="none" xmlns="http://www.w3.org/2000/svg">
<g clip-path="url(#clip0_42:3767)">
<path d="M137.559 136.897C139.239 136.897 140.902 136.556 142.447 135.896C143.992 135.236 145.387 134.27 146.549 133.056C147.71 131.842 148.614 130.405 149.205 128.832C149.796 127.26 150.062 125.584 149.988 123.905C149.578 114.648 143.695 101.381 127.659 89.3984C105.409 72.7732 120.079 34.8111 90.8712 30.8478C42.8632 24.3322 51.9453 66.9434 22.3016 82.4786C3.43213 92.3678 0.00124515 111.717 0 124.475C0.00303692 127.772 1.31526 130.933 3.6481 133.262C5.98094 135.591 9.1434 136.899 12.44 136.897H137.559Z" fill="#F3F5FD"/>
<path d="M123.984 135.573C128.112 134.294 132.116 132.623 135.763 127.945C136.512 126.986 137.216 125.758 136.806 124.611C136.497 123.747 135.604 123.194 134.696 123.053C134.358 123.004 134.015 122.994 133.675 123.025C133.673 123.025 133.672 123.025 133.671 123.025C133.148 123.078 132.631 123.18 132.127 123.328L131.983 123.369C129.575 124.053 127.281 125.089 125.175 126.444C124.984 126.565 124.758 126.619 124.533 126.595C124.308 126.572 124.097 126.473 123.935 126.315C123.773 126.157 123.67 125.949 123.641 125.724C123.613 125.5 123.661 125.272 123.779 125.079C123.994 124.728 124.244 124.4 124.526 124.1C124.941 123.666 125.395 123.272 125.883 122.922C126.532 122.449 127.224 122.026 127.902 121.594C130.42 119.99 132.806 118.187 135.037 116.202C136.629 114.784 138.186 113.21 138.943 111.216C139.291 110.299 139.449 109.242 139.034 108.353C138.35 106.893 136.411 106.485 134.825 106.788C132.048 107.32 129.829 109.356 127.861 111.385C126.229 113.072 124.4 114.939 122.056 115.043C121.656 115.08 121.254 115 120.9 114.811C120.231 114.406 120.059 113.466 120.298 112.722C120.536 111.978 121.088 111.381 121.62 110.81C124.715 107.49 127.76 104.036 129.77 99.9677C131.779 95.8993 132.67 91.0965 131.273 86.7776C130.864 85.5148 130.248 84.2873 129.289 83.3689C128.329 82.4505 126.983 81.8762 125.666 82.052C123.871 82.2883 122.52 83.8032 121.61 85.3668C118.484 90.7337 118.675 97.3091 117.795 103.457C117.548 105.177 117.19 106.943 116.165 108.359C116.071 108.495 115.948 108.61 115.806 108.695C114.962 109.183 114.205 108.198 113.888 107.362C112.638 104.056 112.325 100.274 110.087 97.5367C109.233 96.495 108.023 95.6241 106.677 95.6326C105.031 95.6438 103.623 97.0182 103.143 98.5921C102.662 100.166 102.95 101.876 103.464 103.438C104.419 106.336 106.13 108.939 108.146 111.228C109.209 112.436 110.412 113.656 110.73 115.232C110.828 115.768 110.787 116.32 110.611 116.835C110.436 117.351 110.131 117.813 109.727 118.177C109.538 118.342 109.318 118.467 109.08 118.545C108.842 118.623 108.59 118.652 108.341 118.631C107.804 118.542 107.293 118.34 106.841 118.038C106.644 117.926 106.445 117.812 106.246 117.7C105.46 117.251 104.673 116.803 103.887 116.355C101.887 115.214 99.4729 114.049 97.3903 115.031C96.3264 115.533 95.6311 116.52 95.3036 117.654C95.0105 118.682 95.0105 119.771 95.3036 120.8C95.924 122.938 99.834 128.889 101.447 130.424C103.331 132.217 109.863 139.95 123.984 135.573Z" fill="#C1D8ED"/>
<path d="M35.9245 68.2212C40.8927 90.1079 45.3914 112.142 48.9415 134.306L43.951 135.332C38.4646 113.567 33.9006 91.546 29.8265 69.4755L35.9245 68.2212Z" fill="#E98862"/>
<path d="M25.655 69.5771C26.1112 91.3204 26.0784 113.112 25.0895 134.841H19.9946C19.0062 113.113 18.9736 91.3202 19.4293 69.5771H25.655Z" fill="#E98862"/>
<path d="M31.6813 136.85C31.8219 136.849 31.9609 136.82 32.0895 136.763C32.2182 136.706 32.3338 136.623 32.429 136.52C32.5243 136.416 32.5972 136.294 32.6432 136.162C32.6892 136.029 32.7073 135.888 32.6963 135.748C32.6812 135.553 32.6108 135.367 32.4935 135.211C32.3762 135.056 32.2168 134.937 32.0342 134.869L25.9474 132.83C25.8294 132.791 25.7044 132.778 25.5809 132.792C25.4575 132.805 25.3384 132.846 25.2319 132.91C24.3952 133.49 23.3943 133.787 22.3763 133.756C21.5834 133.7 20.8222 133.422 20.1796 132.954C20.1232 132.908 20.0547 132.878 19.9822 132.869C19.9097 132.86 19.8361 132.872 19.7702 132.904C19.7042 132.935 19.6485 132.984 19.6095 133.046C19.5706 133.108 19.5501 133.18 19.5503 133.253V136.229C19.5503 136.317 19.5677 136.404 19.6013 136.485C19.635 136.566 19.6844 136.64 19.7466 136.702C19.8088 136.764 19.8827 136.813 19.9639 136.846C20.0451 136.879 20.1321 136.896 20.22 136.896L31.6813 136.85Z" fill="#C1D8ED"/>
<path d="M55.0236 136.85C55.1642 136.849 55.3032 136.82 55.4319 136.763C55.5606 136.706 55.6761 136.623 55.7714 136.52C55.8667 136.417 55.9396 136.295 55.9855 136.162C56.0315 136.029 56.0496 135.888 56.0386 135.748V135.748C56.0235 135.553 55.9531 135.367 55.8359 135.212C55.7186 135.056 55.5593 134.937 55.3767 134.869L49.2897 132.83C49.1718 132.791 49.0468 132.778 48.9234 132.792C48.7999 132.805 48.6809 132.846 48.5745 132.91C47.7376 133.49 46.7366 133.787 45.7186 133.756C44.9257 133.7 44.1646 133.422 43.5222 132.954C43.4657 132.908 43.3972 132.878 43.3247 132.869C43.2522 132.861 43.1786 132.872 43.1127 132.904C43.0467 132.935 42.9909 132.985 42.952 133.046C42.913 133.108 42.8924 133.18 42.8926 133.253V136.229C42.8926 136.317 42.9099 136.404 42.9436 136.485C42.9773 136.566 43.0267 136.64 43.0889 136.702C43.1511 136.764 43.225 136.813 43.3062 136.846C43.3874 136.879 43.4744 136.896 43.5622 136.896L55.0236 136.85Z" fill="#C1D8ED"/>
<path d="M16.2731 60.1905C16.2731 60.1905 13.4444 72.8589 13.4444 83.5131C13.4444 94.1673 10.196 110.667 10.196 110.667C10.196 110.667 19.4019 109.178 25.6468 110.667C36.4071 113.232 46.0553 107.646 46.0553 107.646L35.2185 61.3592L16.2731 60.1905Z" fill="#262626"/>
<path d="M22.1295 34.1594C22.1295 34.1594 24.055 33.1384 23.6252 27.8945L27.6037 27.1569C27.6037 27.1569 27.1554 31.8584 29.1696 33.3508L22.1295 34.1594Z" fill="#E98862"/>
<g opacity="0.15">
<path opacity="0.15" d="M28.3543 32.3681L25.0491 29.8395L27.645 29.8126C27.7202 30.7012 27.9607 31.5679 28.3543 32.3681V32.3681Z" fill="black"/>
</g>
<path d="M21.3667 25.8612C21.6421 27.4523 22.5103 28.9589 23.9138 29.4721C25.4434 30.0793 27.0984 30.303 28.7343 30.1236C33.0898 29.7665 32.2281 19.8636 30.1605 17.9393C28.0928 16.0151 22.0249 17.2343 21.2865 20.4518C20.9048 22.1158 21.1055 24.3471 21.3667 25.8612Z" fill="#E98862"/>
<path d="M27.5982 24.636C27.7975 24.636 27.959 24.4744 27.959 24.2751C27.959 24.0759 27.7975 23.9143 27.5982 23.9143C27.3989 23.9143 27.2374 24.0759 27.2374 24.2751C27.2374 24.4744 27.3989 24.636 27.5982 24.636Z" fill="#0F1011"/>
<path d="M30.4448 24.4024C30.6441 24.4024 30.8057 24.2409 30.8057 24.0416C30.8057 23.8423 30.6441 23.6807 30.4448 23.6807C30.2456 23.6807 30.084 23.8423 30.084 24.0416C30.084 24.2409 30.2456 24.4024 30.4448 24.4024Z" fill="#0F1011"/>
<path d="M31.0702 23.2726H31.0679L30.1119 23.2606C30.067 23.26 30.0241 23.2416 29.9927 23.2094C29.9613 23.1773 29.944 23.134 29.9445 23.089C29.9471 23.0447 29.9661 23.0029 29.9979 22.972C30.0297 22.941 30.072 22.923 30.1164 22.9217L31.0724 22.9336C31.1162 22.9356 31.1576 22.9544 31.1878 22.9862C31.218 23.018 31.2347 23.0603 31.2345 23.1042C31.2342 23.148 31.2169 23.1901 31.1863 23.2215C31.1556 23.2529 31.114 23.2712 31.0702 23.2726V23.2726Z" fill="#0F1011"/>
<path d="M26.8205 23.6212C26.779 23.6212 26.7389 23.6059 26.7079 23.5783C26.6769 23.5507 26.6571 23.5128 26.6522 23.4716C26.6474 23.4304 26.6578 23.3888 26.6815 23.3547C26.7052 23.3207 26.7405 23.2965 26.7809 23.2868L27.7234 23.0599C27.7672 23.0494 27.8133 23.0567 27.8517 23.0802C27.8901 23.1037 27.9175 23.1415 27.928 23.1853C27.9385 23.229 27.9312 23.2752 27.9077 23.3135C27.8842 23.3519 27.8464 23.3794 27.8026 23.3899L26.8603 23.6165C26.8473 23.6196 26.8339 23.6212 26.8205 23.6212V23.6212Z" fill="#0F1011"/>
<path d="M23.8585 29.2826C23.7758 29.5471 23.7181 29.6624 23.4797 29.521C22.5441 28.9651 20.6884 27.7558 19.9712 23.2248C19.3284 19.1656 21.8329 17.4906 23.8311 16.8932C25.5527 16.3782 29.137 16.742 31.0712 17.7939C32.5058 18.5741 31.4562 20.6662 31.4562 20.6662C30.738 20.6993 30.8951 18.7933 29.201 18.7933C27.8911 18.7933 26.7373 20.7315 25.5108 20.783C24.3882 20.8301 24.1576 21.5144 24.1975 21.9522C24.438 24.6133 24.1509 28.3473 23.8585 29.2826Z" fill="#0F1011"/>
<path d="M25.721 25.158C25.7404 25.3598 25.7194 25.5634 25.6594 25.757C25.5994 25.9506 25.5015 26.1304 25.3714 26.2859C25.2413 26.4413 25.0816 26.5694 24.9016 26.6626C24.7215 26.7558 24.5248 26.8123 24.3227 26.8288C24.1207 26.8453 23.9174 26.8215 23.7246 26.7587C23.5319 26.696 23.3535 26.5955 23.1999 26.4632C23.0463 26.3309 22.9205 26.1694 22.8299 25.9881C22.7392 25.8068 22.6855 25.6093 22.6719 25.407C22.652 25.2061 22.6726 25.0033 22.7328 24.8106C22.7929 24.6179 22.8911 24.4392 23.0217 24.2853C23.1523 24.1314 23.3126 24.0053 23.4929 23.9146C23.6732 23.8239 23.87 23.7705 24.0714 23.7574C25.1617 23.7228 25.652 24.316 25.721 25.158Z" fill="#E98862"/>
<g opacity="0.15">
<path opacity="0.15" d="M29.2 26.2766C29.2123 26.2766 29.2245 26.2748 29.2363 26.2711L30.1052 26.0042C30.122 25.999 30.1376 25.9903 30.1509 25.9786C30.1641 25.9669 30.1747 25.9526 30.182 25.9365C30.1893 25.9204 30.1931 25.903 30.1931 25.8853C30.1931 25.8676 30.1894 25.8502 30.1821 25.8341L29.6109 24.5623C29.6043 24.5472 29.5948 24.5335 29.5829 24.5221C29.571 24.5107 29.557 24.5017 29.5416 24.4958C29.5262 24.4899 29.5098 24.487 29.4933 24.4875C29.4769 24.4879 29.4606 24.4916 29.4456 24.4984C29.4306 24.5051 29.417 24.5148 29.4058 24.5268C29.3945 24.5389 29.3857 24.553 29.38 24.5685C29.3742 24.5839 29.3716 24.6003 29.3722 24.6168C29.3729 24.6333 29.3768 24.6494 29.3837 24.6644L29.8972 25.8077L29.1633 26.0331C29.1348 26.0418 29.1104 26.0605 29.0945 26.0858C29.0786 26.111 29.0723 26.1411 29.0767 26.1706C29.0812 26.2001 29.0961 26.227 29.1187 26.2465C29.1413 26.2659 29.1701 26.2766 29.2 26.2766V26.2766Z" fill="black"/>
</g>
<path d="M27.765 27.1168C27.765 27.1168 29.0971 27.2573 30.0312 26.9311C30.0312 26.9311 30.0237 27.8084 28.9699 27.8948C27.916 27.9812 27.765 27.1168 27.765 27.1168Z" fill="white"/>
<path d="M31.1895 17.9286C32.4804 18.7933 32.2264 20.4498 31.9841 21.8882H30.3858L29.7155 19.5618L28.8979 21.8882L22.6667 22.1036L23.418 19.0134" fill="#0F1011"/>
<path d="M19.4714 30.6448C21.3977 30.6448 22.9593 29.0833 22.9593 27.1569C22.9593 25.2306 21.3977 23.669 19.4714 23.669C17.5451 23.669 15.9835 25.2306 15.9835 27.1569C15.9835 29.0833 17.5451 30.6448 19.4714 30.6448Z" fill="#0F1011"/>
<path d="M41.8205 40.6548C41.8205 40.6548 43.685 37.6929 43.6086 36.8908C43.5321 36.0886 41.2019 35.2773 41.2019 35.2773C41.2019 35.2773 41.5391 34.5678 41.8395 33.7893C42.1864 32.8911 42.4842 31.9004 42.1592 31.8018C41.8454 31.7067 41.3698 32.5223 40.9337 33.4703C40.3737 34.6873 39.8793 36.122 39.8793 36.122C39.8793 36.122 39.828 34.705 39.3038 34.7952C39.0887 34.8323 38.9975 35.0883 38.9968 36.1041C38.9968 37.2613 38.816 39.0655 38.816 39.0655L41.8205 40.6548Z" fill="#E98862"/>
<path d="M35.9011 53.9336C36.4412 53.9336 36.9691 53.7725 37.4172 53.4708C37.8652 53.1691 38.2131 52.7407 38.4163 52.2402L43.2973 40.2205L38.2669 38.1785L36.7894 41.8178L35.6294 36.0206L30.3049 37.086L33.2397 51.7523C33.3542 52.3248 33.6502 52.8452 34.0838 53.2362C34.5174 53.6271 35.0656 53.8679 35.6468 53.9226C35.7308 53.9293 35.8162 53.9336 35.9011 53.9336Z" fill="#367CFF"/>
<path d="M44.7123 44.1886L41.6935 43.7069C41.5749 43.688 41.4616 43.6442 41.3611 43.5785C41.2605 43.5127 41.175 43.4265 41.11 43.3254C41.0451 43.2243 41.0023 43.1107 40.9843 42.9919C40.9663 42.8731 40.9736 42.7519 41.0057 42.6361L42.9051 35.8194C42.9614 35.6175 43.09 35.4434 43.2665 35.3302C43.4429 35.2171 43.6548 35.1728 43.8618 35.2058L46.8803 35.6874C46.9989 35.7064 47.1122 35.7502 47.2128 35.8159C47.3133 35.8816 47.3989 35.9679 47.4638 36.069C47.5287 36.17 47.5716 36.2837 47.5896 36.4025C47.6075 36.5213 47.6002 36.6425 47.5681 36.7583L45.6688 43.5749C45.6126 43.7769 45.484 43.951 45.3076 44.0642C45.1311 44.1774 44.9192 44.2216 44.7123 44.1886Z" fill="#C1D8ED"/>
<path d="M39.8507 42.4023L41.6313 44.8178C41.6313 44.8178 46.4164 43.8588 46.8654 40.1722C46.9169 39.7488 46.8721 38.5734 46.3464 38.7311C44.9767 39.1415 43.2724 41.243 42.0773 41.5227C42.35 41.0343 42.6827 40.3445 42.468 40.2185C41.9037 39.8866 40.3859 41.888 39.8507 42.4023Z" fill="#E98862"/>
<path d="M15.7837 34.8156C16.9218 33.6775 18.8866 32.9429 21.2823 32.9404C21.4616 34.3375 29.9436 34.3424 30.0083 32.9728C30.332 32.9778 30.5836 32.9827 30.7405 32.9902C36.4975 33.2392 36.4806 37.8782 35.914 43.0062L40.6511 40.9171L42.8425 45.8852L35.3034 49.21C35.2987 49.3594 35.2947 49.5088 35.293 49.6583C35.1958 57.7418 37.3798 59.2658 36.304 61.7362C35.2606 64.1344 14.758 65.1305 14.484 60.9119C14.3097 58.2274 16.6755 55.884 16.6755 50.6519C16.6755 45.4198 11.8615 38.7378 15.7837 34.8156Z" fill="#367CFF"/>
<path d="M30.0081 32.9728C29.9433 34.3424 29.1987 36.3571 26.9002 36.509C23.8371 36.7107 21.4614 34.3375 21.2821 32.9404H21.2895C24.3053 32.9404 28.2502 32.9454 30.0081 32.9728Z" fill="#E98862"/>
<path d="M107.409 0L98.8488 8.51557L87.255 5.14122L107.409 0Z" fill="#C1D8ED"/>
<path d="M107.409 0L110.636 12.647L90.4809 17.7882L87.255 5.14122L98.8488 8.51557L107.409 0Z" fill="#DEE8F5"/>
<path d="M87.0109 14.1927C87.0109 14.1927 66.2299 17.0207 52.5876 28.4847" stroke="#C1D8ED" stroke-linecap="round" stroke-linejoin="round"/>
<path d="M85.0847 9.87453C77.5936 11.0827 70.2921 13.2628 63.3649 16.3595" stroke="#C1D8ED" stroke-linecap="round" stroke-linejoin="round"/>
</g>
<defs>
<clipPath id="clip0_42:3767">
<rect width="150" height="136.897" fill="white"/>
</clipPath>
</defs>
</svg>
