<svg width="150" height="143" viewBox="0 0 150 143" fill="none" xmlns="http://www.w3.org/2000/svg">
<g clip-path="url(#clip0_42:3417)">
<path d="M134.9 142.995L84.7587 143.013L84.7622 113.379H134.9V142.995Z" fill="#EFEFEF"/>
<path d="M131.156 119.936H88.5071C88.4515 119.936 88.4074 119.869 88.4074 119.787C88.4074 119.704 88.4525 119.638 88.5071 119.638H131.156C131.211 119.638 131.255 119.705 131.255 119.787C131.255 119.869 131.211 119.936 131.156 119.936Z" fill="white"/>
<path d="M131.156 125.834H88.5071C88.4515 125.834 88.4074 125.767 88.4074 125.685C88.4074 125.603 88.4525 125.536 88.5071 125.536H131.156C131.211 125.536 131.255 125.602 131.255 125.685C131.255 125.767 131.211 125.834 131.156 125.834Z" fill="white"/>
<path d="M131.156 131.732H88.5071C88.4515 131.732 88.4074 131.665 88.4074 131.583C88.4074 131.5 88.4525 131.434 88.5071 131.434H131.156C131.211 131.434 131.255 131.5 131.255 131.583C131.255 131.665 131.211 131.732 131.156 131.732Z" fill="white"/>
<path d="M109.889 137.63H88.5071C88.4515 137.63 88.4074 137.563 88.4074 137.481C88.4074 137.398 88.4525 137.332 88.5071 137.332H109.889C109.945 137.332 109.989 137.398 109.989 137.481C109.989 137.563 109.945 137.63 109.889 137.63Z" fill="white"/>
<path d="M131.982 135.497C131.929 135.497 131.879 135.476 131.841 135.439C131.56 135.158 131.102 130.001 129.868 114.647C129.363 108.362 128.886 102.428 128.538 98.8203C128.513 98.5628 128.413 98.5326 128.38 98.523C127.908 98.3812 126.454 99.5218 125.645 100.523C125.612 100.564 125.564 100.59 125.511 100.595C125.458 100.601 125.406 100.585 125.365 100.552C125.323 100.519 125.297 100.471 125.292 100.418C125.286 100.365 125.302 100.313 125.335 100.272C125.87 99.6102 127.614 97.8774 128.495 98.1408C128.672 98.1941 128.894 98.3489 128.934 98.782C129.282 102.393 129.759 108.329 130.265 114.615C131.015 123.945 131.864 134.515 132.143 135.181C132.165 135.211 132.178 135.246 132.18 135.283C132.183 135.319 132.176 135.356 132.159 135.389C132.142 135.421 132.117 135.449 132.085 135.468C132.054 135.487 132.018 135.497 131.981 135.497H131.982Z" fill="#494949"/>
<path d="M128.025 105.439C131.336 102.785 132.433 98.6542 130.476 96.2127C128.519 93.7711 124.248 93.9432 120.938 96.597C117.627 99.2507 116.53 103.381 118.487 105.823C120.444 108.264 124.714 108.092 128.025 105.439Z" fill="#0CBC8B"/>
<path opacity="0.2" d="M128.025 105.439C131.336 102.785 132.433 98.6542 130.476 96.2127C128.519 93.7711 124.248 93.9432 120.938 96.597C117.627 99.2507 116.53 103.381 118.487 105.823C120.444 108.264 124.714 108.092 128.025 105.439Z" fill="white"/>
<path d="M119.415 106.444C119.396 106.444 119.378 106.438 119.362 106.428C119.346 106.418 119.333 106.403 119.325 106.386C119.317 106.369 119.314 106.35 119.316 106.331C119.319 106.312 119.326 106.295 119.338 106.28L128.773 94.9022C128.782 94.8919 128.792 94.8833 128.804 94.877C128.815 94.8707 128.828 94.8667 128.841 94.8654C128.854 94.864 128.868 94.8653 128.88 94.8692C128.893 94.8731 128.905 94.8794 128.915 94.8879C128.925 94.8964 128.934 94.9068 128.94 94.9185C128.946 94.9303 128.95 94.9431 128.951 94.9563C128.952 94.9695 128.95 94.9828 128.946 94.9954C128.942 95.008 128.936 95.0197 128.927 95.0297L119.492 106.408C119.483 106.419 119.471 106.428 119.458 106.434C119.444 106.44 119.43 106.444 119.415 106.444Z" fill="white"/>
<path d="M134.04 133.058C134.008 133.058 133.977 133.05 133.949 133.035C133.92 133.021 133.896 133 133.878 132.974C133.859 132.948 133.847 132.918 133.843 132.886C133.838 132.855 133.841 132.823 133.852 132.793L137.396 122.601C137.5 122.301 137.678 122.033 137.913 121.82C138.148 121.607 138.433 121.456 138.741 121.382C139.049 121.307 139.371 121.312 139.678 121.394C139.984 121.476 140.265 121.634 140.494 121.853L142.368 123.643C142.388 123.661 142.404 123.682 142.415 123.707C142.427 123.731 142.433 123.757 142.434 123.784C142.435 123.811 142.431 123.837 142.421 123.862C142.412 123.887 142.398 123.91 142.379 123.93C142.361 123.949 142.338 123.964 142.314 123.975C142.289 123.986 142.263 123.991 142.236 123.991C142.209 123.991 142.183 123.986 142.158 123.976C142.133 123.966 142.111 123.95 142.092 123.931L140.218 122.142C140.037 121.969 139.815 121.844 139.573 121.779C139.331 121.714 139.077 121.711 138.834 121.77C138.59 121.829 138.366 121.948 138.18 122.116C137.995 122.284 137.854 122.496 137.772 122.732L134.228 132.924C134.214 132.963 134.189 132.997 134.155 133.021C134.122 133.045 134.081 133.058 134.04 133.058Z" fill="#494949"/>
<path d="M147.603 129.285C150.056 127.343 149.91 123.072 147.277 119.745C144.644 116.418 140.52 115.295 138.066 117.237C135.613 119.18 135.759 123.451 138.392 126.778C141.025 130.105 145.149 131.227 147.603 129.285Z" fill="#0CBC8B"/>
<path d="M130.372 134.847C130.327 134.847 130.284 134.832 130.249 134.804C130.214 134.776 130.189 134.737 130.178 134.694L124.231 109.826C124.19 109.656 124.103 109.501 123.98 109.378C123.857 109.254 123.703 109.167 123.533 109.126C123.364 109.085 123.186 109.091 123.02 109.144C122.854 109.197 122.706 109.295 122.592 109.427L120.759 111.545C120.724 111.584 120.675 111.607 120.623 111.61C120.571 111.613 120.52 111.596 120.481 111.562C120.442 111.528 120.417 111.48 120.413 111.428C120.408 111.376 120.424 111.325 120.457 111.284L122.291 109.165C122.453 108.978 122.663 108.839 122.899 108.764C123.135 108.688 123.387 108.679 123.628 108.738C123.868 108.797 124.088 108.92 124.263 109.096C124.438 109.271 124.561 109.491 124.619 109.732L130.566 134.6C130.579 134.652 130.57 134.706 130.542 134.751C130.515 134.796 130.47 134.829 130.419 134.841C130.404 134.845 130.388 134.847 130.372 134.847Z" fill="#494949"/>
<path d="M128.179 117.07C128.902 112.889 126.988 109.067 123.905 108.534C120.822 108.001 117.736 110.958 117.013 115.139C116.29 119.32 118.203 123.141 121.287 123.675C124.37 124.208 127.456 121.251 128.179 117.07Z" fill="#0CBC8B"/>
<path d="M131.983 135.497C131.974 135.497 131.966 135.497 131.958 135.495C131.906 135.489 131.858 135.462 131.825 135.42C131.793 135.379 131.778 135.326 131.784 135.273L135.582 104.437C135.624 104.101 135.761 103.784 135.978 103.525C136.196 103.265 136.483 103.074 136.806 102.973C137.13 102.873 137.475 102.869 137.801 102.96C138.127 103.051 138.419 103.235 138.643 103.489L142.984 108.405C143.001 108.425 143.015 108.448 143.023 108.473C143.032 108.497 143.035 108.524 143.034 108.55C143.032 108.576 143.025 108.602 143.014 108.625C143.002 108.649 142.986 108.67 142.967 108.687C142.947 108.704 142.924 108.718 142.899 108.726C142.874 108.735 142.848 108.738 142.822 108.737C142.796 108.735 142.77 108.728 142.747 108.717C142.723 108.705 142.702 108.689 142.685 108.67L138.344 103.753C138.171 103.557 137.945 103.415 137.693 103.344C137.441 103.274 137.174 103.277 136.924 103.355C136.674 103.432 136.452 103.58 136.284 103.78C136.117 103.981 136.01 104.226 135.978 104.486L132.18 135.322C132.174 135.37 132.151 135.415 132.115 135.447C132.078 135.479 132.031 135.497 131.983 135.497Z" fill="#494949"/>
<path d="M147.436 111.137C148.951 108.399 147.169 104.515 143.456 102.461C139.743 100.407 135.506 100.962 133.991 103.7C132.476 106.438 134.258 110.323 137.971 112.377C141.684 114.43 145.922 113.876 147.436 111.137Z" fill="#0CBC8B"/>
<path opacity="0.2" d="M147.603 129.285C150.056 127.343 149.91 123.072 147.277 119.745C144.644 116.418 140.52 115.295 138.066 117.237C135.613 119.18 135.759 123.451 138.392 126.778C141.025 130.105 145.149 131.227 147.603 129.285Z" fill="white"/>
<path opacity="0.5" d="M128.179 117.07C128.902 112.889 126.988 109.067 123.905 108.534C120.822 108.001 117.736 110.958 117.013 115.139C116.29 119.32 118.203 123.141 121.287 123.675C124.37 124.208 127.456 121.251 128.179 117.07Z" fill="white"/>
<path opacity="0.5" d="M147.436 111.137C148.951 108.399 147.169 104.515 143.456 102.461C139.743 100.407 135.506 100.962 133.991 103.7C132.476 106.438 134.258 110.323 137.971 112.377C141.684 114.43 145.922 113.876 147.436 111.137Z" fill="white"/>
<path d="M136.84 161.662H127.124L125.515 130.577H138.45L136.84 161.662Z" fill="#292A2E"/>
<path opacity="0.3" d="M136.84 161.662H127.124L125.515 130.577H138.45L136.84 161.662Z" fill="white"/>
<path d="M147.603 129.384C147.588 129.384 147.573 129.381 147.559 129.374C147.546 129.368 147.534 129.358 147.525 129.346L137.988 117.298C137.972 117.278 137.964 117.251 137.967 117.225C137.97 117.199 137.983 117.175 138.004 117.158C138.025 117.142 138.051 117.134 138.078 117.137C138.104 117.14 138.128 117.154 138.144 117.175L147.681 129.223C147.697 129.243 147.705 129.27 147.702 129.296C147.699 129.322 147.685 129.346 147.665 129.362C147.647 129.376 147.625 129.384 147.603 129.384Z" fill="white"/>
<path d="M146.802 112.103C146.78 112.103 146.76 112.096 146.743 112.083L134.539 103.172C134.528 103.165 134.518 103.155 134.511 103.144C134.504 103.133 134.499 103.12 134.496 103.107C134.494 103.093 134.494 103.08 134.497 103.067C134.5 103.053 134.506 103.041 134.514 103.03C134.522 103.019 134.532 103.01 134.544 103.003C134.555 102.996 134.568 102.992 134.581 102.99C134.595 102.988 134.608 102.989 134.621 102.993C134.634 102.997 134.647 103.003 134.657 103.011L146.861 111.923C146.878 111.935 146.891 111.953 146.897 111.973C146.903 111.992 146.903 112.014 146.896 112.034C146.89 112.053 146.877 112.071 146.861 112.083C146.844 112.095 146.823 112.102 146.803 112.102L146.802 112.103Z" fill="white"/>
<path d="M120.791 123.545C120.782 123.544 120.773 123.543 120.765 123.541C120.739 123.534 120.717 123.518 120.704 123.495C120.691 123.472 120.687 123.445 120.694 123.419L124.579 108.864C124.582 108.851 124.588 108.839 124.596 108.829C124.604 108.819 124.614 108.81 124.625 108.803C124.637 108.797 124.649 108.792 124.662 108.791C124.675 108.789 124.688 108.79 124.701 108.793C124.714 108.797 124.725 108.802 124.736 108.81C124.746 108.818 124.755 108.828 124.762 108.84C124.768 108.851 124.772 108.863 124.774 108.876C124.776 108.889 124.775 108.903 124.772 108.915L120.887 123.471C120.881 123.492 120.869 123.511 120.851 123.524C120.834 123.537 120.813 123.545 120.791 123.545Z" fill="white"/>
<path d="M88.7138 78.3691L150 78.4596V55.7732H88.7138V78.3691Z" fill="#EFEFEF"/>
<path d="M144.723 62.0655H93.9905C93.9408 62.0655 93.8932 62.0457 93.8581 62.0106C93.8229 61.9755 93.8032 61.9278 93.8032 61.8781C93.8032 61.8285 93.8229 61.7808 93.8581 61.7457C93.8932 61.7105 93.9408 61.6908 93.9905 61.6908H144.723C144.773 61.6908 144.821 61.7105 144.856 61.7457C144.891 61.7808 144.911 61.8285 144.911 61.8781C144.911 61.9278 144.891 61.9755 144.856 62.0106C144.821 62.0457 144.773 62.0655 144.723 62.0655Z" fill="white"/>
<path d="M144.723 67.6843H93.9905C93.9659 67.6843 93.9416 67.6795 93.9188 67.6701C93.8961 67.6606 93.8755 67.6468 93.8581 67.6294C93.8407 67.6121 93.8269 67.5914 93.8175 67.5687C93.808 67.5459 93.8032 67.5216 93.8032 67.497C93.8032 67.4724 93.808 67.448 93.8175 67.4253C93.8269 67.4026 93.8407 67.3819 93.8581 67.3645C93.8755 67.3471 93.8961 67.3333 93.9188 67.3239C93.9416 67.3145 93.9659 67.3096 93.9905 67.3096H144.723C144.773 67.3096 144.821 67.3294 144.856 67.3645C144.891 67.3996 144.911 67.4473 144.911 67.497C144.911 67.5467 144.891 67.5943 144.856 67.6294C144.821 67.6646 144.773 67.6843 144.723 67.6843Z" fill="white"/>
<path d="M144.723 73.3032H114.593C114.543 73.3032 114.496 73.2835 114.461 73.2483C114.425 73.2132 114.406 73.1656 114.406 73.1159C114.406 73.0662 114.425 73.0185 114.461 72.9834C114.496 72.9483 114.543 72.9285 114.593 72.9285H144.723C144.773 72.9285 144.821 72.9483 144.856 72.9834C144.891 73.0185 144.911 73.0662 144.911 73.1159C144.911 73.1656 144.891 73.2132 144.856 73.2483C144.821 73.2835 144.773 73.3032 144.723 73.3032Z" fill="white"/>
<path d="M79.8118 45.6172L5.64642 45.6354L5.65181 16.0013H79.8118V45.6172Z" fill="#EFEFEF"/>
<path d="M74.2729 22.5585H11.1907C11.1512 22.5585 11.1133 22.5428 11.0853 22.5149C11.0574 22.4869 11.0417 22.449 11.0417 22.4095C11.0417 22.37 11.0574 22.3321 11.0853 22.3041C11.1133 22.2762 11.1512 22.2605 11.1907 22.2605H74.2729C74.3124 22.2605 74.3503 22.2762 74.3783 22.3041C74.4062 22.3321 74.4219 22.37 74.4219 22.4095C74.4219 22.449 74.4062 22.4869 74.3783 22.5149C74.3503 22.5428 74.3124 22.5585 74.2729 22.5585Z" fill="white"/>
<path d="M74.2729 28.4563H11.1907C11.1512 28.4563 11.1133 28.4406 11.0853 28.4127C11.0574 28.3847 11.0417 28.3468 11.0417 28.3073C11.0417 28.2678 11.0574 28.2299 11.0853 28.2019C11.1133 28.174 11.1512 28.1583 11.1907 28.1583H74.2729C74.3124 28.1583 74.3503 28.174 74.3783 28.2019C74.4062 28.2299 74.4219 28.2678 74.4219 28.3073C74.4219 28.3468 74.4062 28.3847 74.3783 28.4127C74.3503 28.4406 74.3124 28.4563 74.2729 28.4563Z" fill="white"/>
<path d="M74.2729 34.3543H11.1907C11.1512 34.3543 11.1133 34.3386 11.0853 34.3107C11.0574 34.2827 11.0417 34.2448 11.0417 34.2053C11.0417 34.1658 11.0574 34.1279 11.0853 34.0999C11.1133 34.072 11.1512 34.0563 11.1907 34.0563H74.2729C74.3124 34.0563 74.3503 34.072 74.3783 34.0999C74.4062 34.1279 74.4219 34.1658 74.4219 34.2053C74.4219 34.2448 74.4062 34.2827 74.3783 34.3107C74.3503 34.3386 74.3124 34.3543 74.2729 34.3543Z" fill="white"/>
<path d="M42.8173 40.2521H11.1907C11.1512 40.2521 11.1133 40.2364 11.0853 40.2085C11.0574 40.1805 11.0417 40.1426 11.0417 40.1031C11.0417 40.0636 11.0574 40.0257 11.0853 39.9977C11.1133 39.9698 11.1512 39.9541 11.1907 39.9541H42.8173C42.8568 39.9541 42.8947 39.9698 42.9227 39.9977C42.9506 40.0257 42.9663 40.0636 42.9663 40.1031C42.9663 40.1426 42.9506 40.1805 42.9227 40.2085C42.8947 40.2364 42.8568 40.2521 42.8173 40.2521Z" fill="white"/>
<path d="M111.763 0H61.9849C57.8669 0 54.5287 3.33825 54.5287 7.4562V124.473C54.5287 128.591 57.8669 131.929 61.9849 131.929H111.763C115.881 131.929 119.219 128.591 119.219 124.473V7.4562C119.219 3.33825 115.881 0 111.763 0Z" fill="#292A2E"/>
<path d="M111.739 2.32831H62.0082C59.1806 2.32831 56.8883 4.62056 56.8883 7.44821V124.307C56.8883 127.134 59.1806 129.427 62.0082 129.427H111.739C114.567 129.427 116.859 127.134 116.859 124.307V7.44821C116.859 4.62056 114.567 2.32831 111.739 2.32831Z" fill="white"/>
<path d="M74.5913 1.36566H99.1563V3.90746C99.1563 4.63645 98.8667 5.33559 98.3512 5.85107C97.8357 6.36655 97.1366 6.65615 96.4076 6.65615H77.34C76.611 6.65615 75.9118 6.36655 75.3964 5.85107C74.8809 5.33559 74.5913 4.63645 74.5913 3.90746V1.36566Z" fill="#292A2E"/>
<path opacity="0.2" d="M63.6905 93.713C68.3791 92.4729 69.9598 87.0706 73.2913 87.0668C76.4968 87.0632 77.0267 93.3547 82.8922 93.713C77.5475 94.5205 77.1177 100.371 73.2913 100.371C70.0975 100.371 69.3333 95.1054 63.6905 93.713Z" fill="#367CFF"/>
<path opacity="0.2" d="M69.4209 93.7112C75.9987 91.9711 78.2178 84.391 82.8922 84.3858C87.3902 84.3808 88.1336 93.2085 96.3637 93.7112C88.8644 94.8443 88.2613 103.053 82.8922 103.053C78.411 103.052 77.3388 95.6645 69.4209 93.7112Z" fill="#367CFF"/>
<path opacity="0.2" d="M87.7939 93.715C90.8019 92.9192 91.8169 89.4527 93.9546 89.4503C96.0116 89.4481 96.3516 93.4852 100.115 93.715C96.6857 94.2338 96.41 97.9872 93.9546 97.9872C91.9052 97.9872 91.4148 94.6091 87.7939 93.715Z" fill="#367CFF"/>
<path opacity="0.2" d="M93.5332 93.7138C97.5674 92.6466 98.9283 87.9978 101.795 87.9946C104.554 87.9914 105.01 93.4054 110.057 93.7138C105.458 94.4085 105.088 99.4428 101.795 99.4428C99.0468 99.4428 98.3892 94.9121 93.5332 93.7138Z" fill="#367CFF"/>
<path opacity="0.2" d="M112.663 93.6266H61.0853V93.8107H112.663V93.6266Z" fill="#367CFF"/>
<path opacity="0.7" d="M86.8737 64.8656C95.5776 64.8656 102.633 57.6628 102.633 48.7777C102.633 39.8926 95.5776 32.6898 86.8737 32.6898C78.1699 32.6898 71.114 39.8926 71.114 48.7777C71.114 57.6628 78.1699 64.8656 86.8737 64.8656Z" fill="#367CFF"/>
<path d="M86.8739 38.6931H86.8737C84.8956 38.6931 83.292 40.2967 83.292 42.2748V49.5255C83.292 51.5036 84.8956 53.1072 86.8737 53.1072H86.8739C88.852 53.1072 90.4556 51.5036 90.4556 49.5255V42.2748C90.4556 40.2967 88.852 38.6931 86.8739 38.6931Z" fill="white"/>
<path d="M92.7392 49.6955V47.7891C92.7403 47.7403 92.7317 47.6918 92.7138 47.6463C92.6959 47.6009 92.6691 47.5595 92.635 47.5246C92.6009 47.4897 92.5601 47.4619 92.5151 47.443C92.4701 47.424 92.4218 47.4143 92.373 47.4143C92.3242 47.4143 92.2758 47.424 92.2308 47.443C92.1858 47.4619 92.1451 47.4897 92.111 47.5246C92.0769 47.5595 92.0501 47.6009 92.0322 47.6463C92.0143 47.6918 92.0056 47.7403 92.0068 47.7891V49.6955C92.0068 52.5848 89.7042 54.9355 86.8737 54.9355C84.0432 54.9355 81.7405 52.5848 81.7405 49.6955V47.7891C81.7405 47.692 81.7019 47.5989 81.6332 47.5303C81.5646 47.4616 81.4715 47.423 81.3744 47.423C81.2773 47.423 81.1841 47.4616 81.1155 47.5303C81.0468 47.5989 81.0083 47.692 81.0083 47.7891V49.6955C81.0083 52.8713 83.4435 55.4764 86.5076 55.6701V58.4573H82.7887C82.6911 58.4595 82.5982 58.4999 82.5299 58.5698C82.4617 58.6396 82.4235 58.7334 82.4235 58.8311C82.4235 58.9287 82.4617 59.0225 82.5299 59.0924C82.5982 59.1622 82.6911 59.2026 82.7887 59.2049H90.9589C91.0566 59.2026 91.1495 59.1622 91.2177 59.0924C91.286 59.0225 91.3242 58.9287 91.3242 58.8311C91.3242 58.7334 91.286 58.6396 91.2177 58.5698C91.1495 58.4999 91.0566 58.4595 90.9589 58.4573H87.24V55.6701C90.3041 55.4764 92.7392 52.8709 92.7392 49.6955Z" fill="white"/>
<path opacity="0.3" d="M86.8739 69.7599C75.5402 69.7599 66.3195 60.3473 66.3195 48.7777C66.3195 37.2082 75.5402 27.7953 86.8739 27.7953C98.2076 27.7953 107.428 37.208 107.428 48.7777C107.428 60.3475 98.2074 69.7599 86.8739 69.7599ZM86.8739 28.0328C75.6685 28.0328 66.5521 37.3389 66.5521 48.7777C66.5521 60.2166 75.6685 69.5227 86.8739 69.5227C98.0793 69.5227 107.195 60.2164 107.195 48.7777C107.195 37.3391 98.0793 28.0328 86.8739 28.0328Z" fill="#367CFF"/>
<path d="M132.055 32.7896H115.402L110.784 36.3201V14.9982H132.055V32.7896Z" fill="#367CFF"/>
<path d="M125.273 17.8474C125.273 17.7528 125.251 17.6595 125.207 17.5757C125.163 17.4919 125.099 17.4201 125.021 17.3666C124.944 17.314 124.855 17.2815 124.762 17.2722C124.669 17.2628 124.575 17.2769 124.489 17.3131L119.058 19.6141C118.954 19.6591 118.865 19.7337 118.803 19.8287C118.741 19.9237 118.708 20.0349 118.709 20.1484V25.912C118.476 25.8088 118.223 25.7556 117.968 25.7555C117.588 25.7477 117.215 25.8531 116.895 26.0585C116.575 26.2639 116.324 26.5598 116.173 26.9087C116.022 27.2575 115.978 27.6434 116.048 28.017C116.117 28.3907 116.296 28.7353 116.562 29.0069C116.828 29.2784 117.169 29.4646 117.541 29.5416C117.913 29.6187 118.3 29.5832 118.651 29.4396C119.003 29.296 119.305 29.0509 119.517 28.7354C119.729 28.42 119.842 28.0485 119.842 27.6685V20.5345L124.14 18.7143V23.2433C123.907 23.1402 123.654 23.0869 123.399 23.0869C123.019 23.079 122.646 23.1845 122.326 23.3899C122.006 23.5953 121.755 23.8913 121.604 24.2402C121.453 24.589 121.409 24.9749 121.479 25.3486C121.548 25.7222 121.727 26.0668 121.993 26.3383C122.259 26.6098 122.6 26.796 122.972 26.873C123.344 26.95 123.731 26.9145 124.083 26.7708C124.435 26.6272 124.736 26.382 124.948 26.0666C125.16 25.7511 125.273 25.3797 125.273 24.9996C125.273 24.9912 125.272 24.983 125.272 24.9747C125.272 24.9705 125.273 24.9665 125.273 24.9621V17.8474Z" fill="white"/>
<path d="M11.5805 67.599C11.5805 67.599 11.6328 66.1954 11.6218 69.3794C11.5805 81.2562 11.9761 155.757 11.9761 155.757L22.9545 155.665L29.6049 67.1161L11.5805 67.599Z" fill="#262626"/>
<path d="M41.5938 68.5213C41.5938 68.5213 42.9653 109.113 42.8228 111.097L41.5332 155.449L30.7361 155.649L28.9952 109.493C28.9952 109.493 27.854 96.7608 24.7777 84.938C23.2038 78.8702 22.2566 72.6569 21.951 66.3957L41.5938 68.5213Z" fill="#262626"/>
<path d="M27.3502 97.301L28.2504 83.5328C28.2504 83.5328 29.1752 89.2567 29.1752 94.1902C29.1752 96.6017 28.6786 106.149 28.6786 106.149L27.3502 97.301Z" fill="#0A0A0A"/>
<path d="M11.4612 67.5977L11.4253 67.5997C11.4253 67.5997 11.452 66.9074 11.4612 67.5977Z" fill="#333333"/>
<path d="M11.5063 67.5978L11.4704 67.5998C11.4704 67.5998 11.4963 66.9075 11.5063 67.5978Z" fill="#333333"/>
<path d="M71.665 34.6506C71.5989 34.5196 71.4938 34.4124 71.3641 34.3438C71.2345 34.2751 71.0867 34.2484 70.9412 34.2674C70.9425 34.2586 70.9416 34.2496 70.9386 34.2413C70.9356 34.2329 70.9307 34.2254 70.9242 34.2194C70.9176 34.2134 70.9097 34.2091 70.9012 34.2069C70.8926 34.2046 70.8836 34.2045 70.875 34.2065L71.366 33.8548C71.5129 33.7542 71.6185 33.6038 71.6632 33.4314C71.7078 33.2591 71.6886 33.0763 71.609 32.917C71.5254 32.7622 71.3872 32.644 71.2212 32.5853C71.0553 32.5267 70.8735 32.5318 70.7112 32.5996C70.7126 32.5926 70.7078 32.5861 70.7068 32.5797L70.9085 32.4352C71.0465 32.3399 71.1473 32.1999 71.1939 32.0388C71.2405 31.8777 71.23 31.7054 71.1643 31.5512C71.121 31.4553 71.057 31.3702 70.9769 31.3021C70.8968 31.2339 70.8026 31.1844 70.701 31.157C70.5994 31.1297 70.493 31.1253 70.3895 31.144C70.286 31.1628 70.188 31.2042 70.1025 31.2655L69.637 31.5993C69.6356 31.5965 69.637 31.5933 69.6352 31.5907C69.6334 31.5881 69.6282 31.5871 69.6256 31.5843C69.7325 31.4641 69.7953 31.3111 69.8038 31.1505C69.8122 30.9898 69.7659 30.8311 69.6723 30.7003C69.4528 30.3467 68.9455 30.4189 68.6444 30.6346L65.9047 32.5272L66.3943 31.7026C66.4927 31.5439 66.5274 31.3538 66.4912 31.1706C66.455 30.9873 66.3507 30.8246 66.1994 30.7152C66.1192 30.6616 66.0289 30.6248 65.9341 30.6073C65.8392 30.5897 65.7418 30.5916 65.6477 30.6129C65.5536 30.6342 65.4648 30.6744 65.3868 30.7311C65.3088 30.7879 65.2431 30.8599 65.1938 30.9429L62.5204 35.4445C62.2066 35.9725 62.1112 36.6021 62.2543 37.1994C62.3974 37.7967 62.7678 38.3147 63.2867 38.6433C63.8885 39.0244 64.5905 39.2171 65.3025 39.1966C66.0146 39.1762 66.7044 38.9436 67.2833 38.5285L71.4208 35.563C71.5584 35.4607 71.6574 35.3149 71.7017 35.1493C71.7461 34.9837 71.7331 34.808 71.665 34.6506Z" fill="#E98862"/>
<g opacity="0.25">
<path opacity="0.25" d="M66.9252 33.4691C66.9353 33.483 66.9504 33.4923 66.9673 33.4952C66.9842 33.4981 67.0015 33.4942 67.0156 33.4845L69.6188 31.6815C69.6331 31.6716 69.6429 31.6564 69.646 31.6393C69.6491 31.6222 69.6453 31.6046 69.6354 31.5903C69.6255 31.576 69.6103 31.5662 69.5932 31.5631C69.5761 31.56 69.5585 31.5638 69.5442 31.5737L66.941 33.3767C66.9267 33.3866 66.917 33.4018 66.9139 33.4189C66.9107 33.436 66.9145 33.4536 66.9244 33.4679L66.9252 33.4691Z" fill="#0C0C0C"/>
</g>
<g opacity="0.25">
<path opacity="0.25" d="M67.6887 34.6393C67.6989 34.6531 67.714 34.6624 67.7308 34.6652C67.7477 34.6681 67.765 34.6643 67.7791 34.6546L70.6843 32.6423C70.6913 32.6374 70.6974 32.6312 70.7021 32.624C70.7067 32.6167 70.7099 32.6086 70.7115 32.6002C70.713 32.5917 70.7128 32.583 70.711 32.5746C70.7092 32.5662 70.7057 32.5582 70.7008 32.5511C70.6906 32.5373 70.6754 32.5279 70.6585 32.5249C70.6416 32.5218 70.6241 32.5253 70.6096 32.5346L67.7045 34.5469C67.6902 34.5568 67.6805 34.572 67.6774 34.589C67.6743 34.6061 67.6781 34.6238 67.6879 34.6381L67.6887 34.6393Z" fill="#0C0C0C"/>
</g>
<g opacity="0.25">
<path opacity="0.25" d="M68.5085 35.9124C68.5186 35.9262 68.5337 35.9355 68.5505 35.9383C68.5674 35.9411 68.5847 35.9373 68.5987 35.9275L70.9163 34.3224C70.9305 34.3125 70.9403 34.2974 70.9434 34.2803C70.9465 34.2632 70.9427 34.2455 70.9328 34.2313C70.9229 34.217 70.9078 34.2072 70.8907 34.2041C70.8736 34.201 70.8559 34.2048 70.8416 34.2147L68.5241 35.8198C68.5098 35.8297 68.5001 35.8449 68.497 35.8619C68.4939 35.879 68.4977 35.8967 68.5075 35.911L68.5085 35.9124Z" fill="#0C0C0C"/>
</g>
<path d="M60.9422 34.4188L53.0904 47.7925L43.5088 35.2248L35.5516 42.3987L49.14 59.9979L49.229 60.1232C49.773 60.8682 50.4976 61.4624 51.3347 61.8499C52.1718 62.2374 53.0938 62.4053 54.0137 62.338C54.9337 62.2707 55.8214 61.9702 56.5931 61.465C57.3649 60.9597 57.9953 60.2663 58.425 59.4501L69.5913 39.2286L60.9422 34.4188Z" fill="#367CFF"/>
<path d="M52.3199 49.4008C52.3028 49.4008 52.2859 49.3965 52.271 49.3881C52.2561 49.3798 52.2435 49.3678 52.2346 49.3532C52.2257 49.3386 52.2206 49.3219 52.22 49.3049C52.2193 49.2878 52.2231 49.2708 52.2309 49.2556L53.0008 47.7472C53.0065 47.7352 53.0146 47.7244 53.0246 47.7155C53.0345 47.7066 53.0462 47.6998 53.0588 47.6956C53.0715 47.6913 53.0848 47.6895 53.0982 47.6905C53.1115 47.6915 53.1245 47.6951 53.1363 47.7012C53.1482 47.7073 53.1588 47.7157 53.1673 47.7259C53.1759 47.7361 53.1824 47.748 53.1863 47.7607C53.1902 47.7735 53.1915 47.7869 53.1902 47.8002C53.1888 47.8135 53.1848 47.8263 53.1784 47.838L52.4087 49.3463C52.4003 49.3627 52.3876 49.3765 52.3719 49.3861C52.3563 49.3957 52.3382 49.4008 52.3199 49.4008Z" fill="#0C0C0C"/>
<path d="M18.5761 16.3202C18.5761 16.3202 17.7062 20.9554 16.4522 22.525C12.8427 27.0436 11.3094 32.4288 13.997 35.6593C16.6847 38.8899 36.0099 41.2407 38.263 34.8186C40.1598 29.4118 37.5847 28.4982 37.4895 23.8394C37.446 21.7315 37.1645 17.2886 37.1645 17.2886" fill="#0A0A0A"/>
<path d="M34.2536 32.3678C34.2199 32.3634 33.847 38.5509 26.6589 38.0116C21.6827 37.6387 19.9082 32.359 19.7943 32.359C20.3308 32.2451 21.2344 32.0797 21.4726 31.952C22.2561 31.531 23.2257 31.0929 23.4783 29.5712C23.6237 28.6934 23.3769 24.2071 23.453 23.3199L31.0915 25.0247C30.9848 26.8989 30.2378 31.2435 32.856 32.0127C33.2917 32.1397 33.761 32.2567 34.2536 32.3678Z" fill="#E98862"/>
<path opacity="0.52" d="M31.1986 30.237C31.0789 29.8514 31.0019 29.4539 30.9688 29.0515C30.8848 28.1333 30.9015 27.2086 31.0187 26.294C29.4662 26.0844 28.0035 25.4436 26.797 24.4443C26.6551 24.9683 25.875 27.2575 26.0911 27.7549C26.4993 28.696 28.4178 30.237 31.1986 30.237Z" fill="#0C0C0C"/>
<path d="M29.8428 28.742C26.818 28.6738 23.0919 27.0152 22.7665 22.9362L22.473 19.2566C22.1476 15.1785 24.0256 11.7018 27.8652 11.3958C31.7048 11.0893 34.8386 14.1662 35.164 18.2443L35.2941 19.8733C35.4188 21.4387 35.2398 28.8635 29.8428 28.742Z" fill="#E98862"/>
<path opacity="0.52" d="M31.6306 23.3292H31.6382C31.7938 23.3156 31.9485 23.2935 32.1016 23.263C32.3307 23.2157 32.6331 23.1291 32.617 22.9252C32.5984 22.6928 31.7619 20.2366 31.6665 19.9573C31.6624 19.9452 31.6559 19.9341 31.6475 19.9245C31.6391 19.9149 31.6288 19.9071 31.6174 19.9014C31.6059 19.8958 31.5934 19.8925 31.5807 19.8917C31.568 19.8909 31.5552 19.8926 31.5431 19.8967C31.531 19.9009 31.5199 19.9073 31.5103 19.9158C31.5007 19.9242 31.4929 19.9344 31.4873 19.9459C31.4817 19.9573 31.4783 19.9698 31.4775 19.9825C31.4767 19.9953 31.4784 20.0081 31.4826 20.0201C31.8395 21.0662 32.4107 22.7842 32.4231 22.9408C32.3905 23.009 32.0087 23.1046 31.6226 23.1355C31.5972 23.1371 31.5734 23.1485 31.5564 23.1674C31.5393 23.1863 31.5303 23.2111 31.5314 23.2365C31.5324 23.2619 31.5434 23.2859 31.562 23.3033C31.5805 23.3208 31.6052 23.3302 31.6306 23.3296V23.3292Z" fill="#0C0C0C"/>
<path opacity="0.52" d="M30.8874 24.9946C31.5098 24.9809 32.1202 24.8213 32.6696 24.5287C32.6926 24.5171 32.7101 24.4967 32.7181 24.4722C32.7261 24.4477 32.724 24.421 32.7123 24.3981C32.7007 24.3751 32.6804 24.3576 32.6558 24.3496C32.6313 24.3416 32.6047 24.3437 32.5817 24.3554C31.396 24.9577 30.2827 24.9557 29.3621 24.3498C29.3436 24.337 29.3243 24.3252 29.3045 24.3145C29.2814 24.304 29.2552 24.3029 29.2314 24.3115C29.2076 24.32 29.1881 24.3376 29.177 24.3603C29.1659 24.383 29.1641 24.4092 29.172 24.4333C29.1799 24.4573 29.1968 24.4773 29.2193 24.489C29.2267 24.493 29.2392 24.5012 29.2552 24.5124C29.7392 24.8319 30.3075 24.9998 30.8874 24.9946Z" fill="#0C0C0C"/>
<path d="M19.327 20.1907L22.7668 19.9359C25.4329 19.1778 26.6825 14.8386 26.6825 14.8386C26.6825 14.8386 29.4593 18.1976 37.1645 17.2884C37.1645 17.2884 36.7876 6.63879 25.3493 8.48987C21.6611 9.08622 18.7012 12.4187 18.5011 17.2778C18.361 20.6829 19.327 20.1907 19.327 20.1907Z" fill="#0A0A0A"/>
<path d="M23.1036 24.161C21.9369 24.254 20.8912 23.0812 20.7982 21.9143C20.7053 20.7473 21.5997 20.0285 22.7664 19.9353L23.4302 20.6693L24.107 24.081L23.1036 24.161Z" fill="#E98862"/>
<path d="M32.5617 18.12C32.9184 17.9405 33.3169 17.8603 33.7153 17.8879C33.9116 17.9003 34.1048 17.9421 34.2887 18.0118C34.4709 18.0802 34.6438 18.1712 34.8032 18.2828C34.8248 18.2976 34.8398 18.3201 34.8451 18.3457C34.8504 18.3713 34.8457 18.398 34.8319 18.4201C34.818 18.4423 34.7962 18.4583 34.7709 18.4648C34.7455 18.4713 34.7187 18.4678 34.6959 18.4549L34.6891 18.4509C34.5407 18.3572 34.3811 18.2823 34.2141 18.2281C34.0491 18.1738 33.8768 18.1447 33.7031 18.1419C33.3589 18.1336 33.0185 18.2166 32.7167 18.3825L32.707 18.3881C32.6719 18.4082 32.6302 18.4135 32.5912 18.4029C32.5522 18.3922 32.519 18.3665 32.4989 18.3314C32.4788 18.2963 32.4735 18.2547 32.4841 18.2157C32.4947 18.1766 32.5204 18.1434 32.5555 18.1233L32.5617 18.12Z" fill="#0C0C0C"/>
<path d="M29.4771 18.5038C29.1533 18.3865 28.8042 18.3569 28.4653 18.4182C28.2942 18.4477 28.1285 18.503 27.9739 18.5822C27.8172 18.6615 27.6711 18.7601 27.539 18.8757L27.533 18.8805C27.5125 18.897 27.4864 18.905 27.4601 18.9026C27.4339 18.9002 27.4096 18.8878 27.3924 18.8678C27.3752 18.8479 27.3664 18.8221 27.3679 18.7958C27.3694 18.7695 27.381 18.7448 27.4003 18.7269C27.5407 18.5922 27.6974 18.4757 27.8668 18.3801C28.0377 18.2828 28.2222 18.2117 28.4142 18.1693C28.8037 18.0806 29.2098 18.0983 29.59 18.2205C29.6096 18.2263 29.6278 18.236 29.6436 18.249C29.6593 18.262 29.6723 18.2781 29.6818 18.2962C29.6913 18.3143 29.697 18.3341 29.6987 18.3545C29.7003 18.3749 29.6979 18.3953 29.6914 18.4148C29.685 18.4342 29.6748 18.4521 29.6613 18.4674C29.6478 18.4828 29.6314 18.4953 29.613 18.5042C29.5946 18.5131 29.5746 18.5182 29.5542 18.5193C29.5338 18.5203 29.5134 18.5172 29.4942 18.5102L29.4882 18.508L29.4771 18.5038Z" fill="#0C0C0C"/>
<path opacity="0.52" d="M30.9199 25.9167C31.0325 25.9161 31.1448 25.9058 31.2557 25.8862C31.2811 25.8818 31.3037 25.8674 31.3185 25.8464C31.3334 25.8253 31.3392 25.7992 31.3348 25.7738C31.3304 25.7484 31.3161 25.7258 31.295 25.7109C31.2739 25.6961 31.2478 25.6902 31.2224 25.6947C30.5554 25.811 30.2142 25.5249 30.2001 25.5125C30.1805 25.4968 30.1557 25.4893 30.1307 25.4915C30.1057 25.4936 30.0825 25.5054 30.066 25.5242C30.0494 25.5431 30.0408 25.5676 30.0419 25.5927C30.043 25.6177 30.0537 25.6414 30.0718 25.6588C30.3163 25.8401 30.6159 25.9312 30.9199 25.9167Z" fill="#0C0C0C"/>
<path d="M22.7788 19.893L22.7555 19.7961C27.1946 18.7227 26.6017 14.416 26.5953 14.3725L26.6938 14.3578C26.7006 14.402 27.3079 18.7979 22.7788 19.893Z" fill="#0C0C0C"/>
<path opacity="0.1" d="M28.5663 23.2963C29.0654 23.2963 29.4701 22.9995 29.4701 22.6333C29.4701 22.2672 29.0654 21.9704 28.5663 21.9704C28.0671 21.9704 27.6625 22.2672 27.6625 22.6333C27.6625 22.9995 28.0671 23.2963 28.5663 23.2963Z" fill="#0C0C0C"/>
<path opacity="0.1" d="M33.9384 22.4751C33.9384 22.8408 34.3438 23.1373 34.8427 23.1381C34.929 23.1381 35.0151 23.1291 35.0995 23.1114C35.1737 22.6842 35.2246 22.271 35.2577 21.8868C35.1252 21.8363 34.9844 21.811 34.8425 21.8124C34.3434 21.8116 33.9388 22.108 33.9384 22.4751Z" fill="#0C0C0C"/>
<path d="M43.1844 45.9899C42.9579 48.65 41.8566 65.2449 41.6389 68.5213H11.6378C11.4682 65.5663 10.7073 52.6449 10.0646 46.8664C9.45112 41.3522 8.24746 38.5916 9.1297 36.9614C10.5714 34.2971 14.511 32.7576 17.1972 32.3939C18.8376 32.1718 21.3046 32.0126 21.3046 32.0126C21.3046 32.0126 21.5135 36.2383 26.4945 36.4735C33.275 36.7928 32.8223 32.0126 32.8558 32.0126C33.9543 32.0126 40.2294 32.7079 41.7646 33.6179C45.9478 36.0953 43.665 40.3531 43.1844 45.9899Z" fill="#367CFF"/>
<path d="M43.424 59.0491C43.4146 58.9027 43.36 58.7628 43.2678 58.6487C43.1755 58.5347 43.0501 58.4521 42.9088 58.4124C42.9151 58.401 42.9176 58.388 42.916 58.3751C42.9132 58.3645 42.9077 58.3547 42.8999 58.3469C42.8922 58.339 42.8825 58.3334 42.8719 58.3304L43.4615 58.1995C43.6361 58.1648 43.7922 58.068 43.9009 57.9271C44.0097 57.7862 44.0637 57.6107 44.053 57.433C44.0369 57.2579 43.9563 57.0951 43.8268 56.9761C43.6974 56.8571 43.5284 56.7904 43.3526 56.789C43.3564 56.783 43.3548 56.775 43.3565 56.769L43.5988 56.7154C43.7631 56.6819 43.9109 56.5927 44.017 56.4628C44.1231 56.333 44.1811 56.1704 44.1811 56.0027C44.179 55.8975 44.1536 55.7942 44.1067 55.7C44.0598 55.6059 43.9925 55.5233 43.9099 55.4583C43.8272 55.3933 43.7311 55.3475 43.6285 55.3241C43.526 55.3007 43.4195 55.3004 43.3168 55.3232L42.7582 55.4473C42.7582 55.4441 42.7606 55.4417 42.76 55.4387C42.7594 55.4357 42.755 55.4327 42.7536 55.4291C42.8991 55.3605 43.017 55.2444 43.0879 55.1C43.1588 54.9556 43.1786 54.7913 43.1439 54.6342C43.0806 54.2228 42.5852 54.0902 42.2241 54.1704L38.9613 54.8351L39.7354 54.2691C39.8884 54.162 39.9951 54.0007 40.0338 53.8179C40.0724 53.6351 40.0402 53.4445 39.9437 53.2845C39.891 53.2037 39.8224 53.1345 39.7421 53.0811C39.6618 53.0276 39.5715 52.9911 39.4766 52.9738C39.3817 52.9564 39.2843 52.9585 39.1903 52.9801C39.0963 53.0016 39.0076 53.0421 38.9298 53.099L34.7031 56.1892C34.2072 56.5517 33.8722 57.0933 33.7693 57.6988C33.6663 58.3043 33.8036 58.9262 34.1518 59.4321C34.5557 60.019 35.1257 60.4718 35.7886 60.7326C36.4515 60.9934 37.1773 61.0503 37.8727 60.896L42.8422 59.7928C43.0089 59.7527 43.157 59.6573 43.2626 59.5223C43.3683 59.3873 43.4251 59.2205 43.424 59.0491Z" fill="#E98862"/>
<g opacity="0.25">
<path opacity="0.25" d="M39.5293 56.1016C39.5331 56.1183 39.5433 56.1328 39.5577 56.1421C39.5721 56.1513 39.5895 56.1546 39.6063 56.1511L42.7083 55.5151C42.7247 55.511 42.7389 55.5007 42.7479 55.4864C42.757 55.4721 42.7601 55.4548 42.7567 55.4382C42.7533 55.4217 42.7436 55.407 42.7297 55.3974C42.7158 55.3878 42.6987 55.3839 42.682 55.3866L39.58 56.0232C39.5715 56.025 39.5635 56.0283 39.5564 56.0331C39.5493 56.0379 39.5432 56.0441 39.5384 56.0513C39.5337 56.0584 39.5304 56.0665 39.5288 56.0749C39.5271 56.0833 39.5272 56.092 39.5289 56.1005L39.5293 56.1016Z" fill="#0C0C0C"/>
</g>
<g opacity="0.25">
<path opacity="0.25" d="M39.7721 57.4775C39.7759 57.4942 39.7861 57.5087 39.8005 57.5179C39.8149 57.5272 39.8324 57.5304 39.8491 57.527L43.3111 56.8171C43.3195 56.8154 43.3275 56.812 43.3346 56.8072C43.3417 56.8023 43.3478 56.7961 43.3526 56.789C43.3573 56.7818 43.3605 56.7737 43.3622 56.7653C43.3638 56.7568 43.3637 56.7481 43.3619 56.7397C43.3579 56.723 43.3477 56.7084 43.3334 56.6989C43.3191 56.6895 43.3017 56.6858 43.2847 56.6886L39.8228 57.3987C39.8058 57.4022 39.7908 57.4123 39.7812 57.4268C39.7717 57.4413 39.7682 57.4591 39.7717 57.4761L39.7721 57.4775Z" fill="#0C0C0C"/>
</g>
<g opacity="0.25">
<path opacity="0.25" d="M40.0265 58.9692C40.0303 58.9859 40.0405 59.0004 40.0549 59.0096C40.0693 59.0189 40.0867 59.0221 40.1035 59.0187L42.8649 58.4525C42.8814 58.4484 42.8955 58.4381 42.9046 58.4238C42.9136 58.4095 42.9167 58.3922 42.9133 58.3756C42.9099 58.3591 42.9002 58.3444 42.8863 58.3348C42.8724 58.3252 42.8553 58.3213 42.8386 58.324L40.0771 58.8902C40.0601 58.8937 40.0452 58.9039 40.0356 58.9184C40.026 58.9329 40.0226 58.9506 40.0261 58.9676L40.0265 58.9692Z" fill="#0C0C0C"/>
</g>
<path d="M37.5649 62.8619L10.6017 67.7346C9.76032 67.8262 8.90914 67.7216 8.11498 67.4289C7.32082 67.1363 6.60528 66.6636 6.0245 66.0479C5.44373 65.4322 5.01352 64.6904 4.76764 63.8805C4.52176 63.0706 4.4669 62.2148 4.60736 61.3802L8.38194 38.9435C8.50079 38.2337 8.75836 37.5543 9.13991 36.9441C9.52147 36.3339 10.0195 35.8048 10.6056 35.3872C11.1918 34.9695 11.8544 34.6715 12.5558 34.5101C13.2571 34.3487 13.9834 34.327 14.6931 34.4464C15.4029 34.5658 16.0821 34.8239 16.692 35.2059C17.3019 35.588 17.8306 36.0864 18.2478 36.6729C18.665 37.2593 18.9625 37.9222 19.1234 38.6237C19.2843 39.3252 19.3053 40.0515 19.1854 40.7611L16.6116 56.2064L36.3796 53.7238L37.5649 62.8619Z" fill="#367CFF"/>
<path d="M10.6015 67.8344C10.5766 67.8344 10.5527 67.825 10.5343 67.8082C10.516 67.7914 10.5046 67.7683 10.5024 67.7435C10.5002 67.7187 10.5073 67.694 10.5224 67.6742C10.5375 67.6544 10.5595 67.6409 10.584 67.6365L37.4538 62.7808L36.2934 53.8354L16.624 56.3054C16.6086 56.3074 16.5929 56.3058 16.5782 56.3007C16.5636 56.2955 16.5503 56.2869 16.5396 56.2756C16.5288 56.2644 16.5208 56.2509 16.5162 56.236C16.5116 56.2211 16.5105 56.2054 16.5131 56.19L18.1491 46.3185C18.1509 46.3053 18.1553 46.2926 18.1621 46.2811C18.1689 46.2696 18.178 46.2596 18.1887 46.2517C18.1995 46.2437 18.2117 46.238 18.2247 46.2349C18.2377 46.2318 18.2511 46.2313 18.2643 46.2335C18.2775 46.2357 18.2901 46.2405 18.3014 46.2477C18.3126 46.2548 18.3224 46.2642 18.33 46.2752C18.3376 46.2861 18.3429 46.2985 18.3456 46.3116C18.3483 46.3247 18.3484 46.3382 18.3458 46.3513L16.7316 56.0907L36.3668 53.6249C36.393 53.6216 36.4194 53.6288 36.4402 53.6449C36.4611 53.661 36.4747 53.6848 36.4782 53.7109L37.6637 62.8486C37.667 62.874 37.6604 62.8998 37.6452 62.9205C37.6301 62.9412 37.6075 62.9552 37.5823 62.9597L10.6195 67.8326C10.6136 67.8337 10.6076 67.8343 10.6015 67.8344Z" fill="#0C0C0C"/>
<path d="M16.596 56.1082L14.8616 56.3858L14.8931 56.583L16.6276 56.3054L16.596 56.1082Z" fill="#0C0C0C"/>
<path d="M34.0249 20.7462C34.287 20.7462 34.4994 20.5337 34.4994 20.2717C34.4994 20.0097 34.287 19.7973 34.0249 19.7973C33.7629 19.7973 33.5505 20.0097 33.5505 20.2717C33.5505 20.5337 33.7629 20.7462 34.0249 20.7462Z" fill="#0C0C0C"/>
<path d="M29.2292 20.7761C29.4913 20.7761 29.7037 20.5636 29.7037 20.3016C29.7037 20.0396 29.4913 19.8272 29.2292 19.8272C28.9672 19.8272 28.7548 20.0396 28.7548 20.3016C28.7548 20.5636 28.9672 20.7761 29.2292 20.7761Z" fill="#0C0C0C"/>
<path d="M42.9554 47.7162L42.7157 51.9403L42.9148 51.9516L43.1545 47.7275L42.9554 47.7162Z" fill="#0C0C0C"/>
</g>
<defs>
<clipPath id="clip0_42:3417">
<rect width="150" height="161.662" fill="white"/>
</clipPath>
</defs>
</svg>
