<svg width="38" height="38" viewBox="0 0 38 38" fill="none" xmlns="http://www.w3.org/2000/svg">
<path d="M23.0833 8.33329C24.7112 8.6509 26.2073 9.44705 27.3801 10.6199C28.5529 11.7926 29.3491 13.2887 29.6667 14.9166M23.0833 1.66663C26.4655 2.04235 29.6193 3.55692 32.0271 5.96164C34.4348 8.36636 35.9533 11.5183 36.3333 14.9M34.6667 28.2V33.2C34.6686 33.6641 34.5735 34.1236 34.3875 34.5489C34.2016 34.9742 33.9288 35.3559 33.5868 35.6697C33.2448 35.9835 32.841 36.2224 32.4012 36.3711C31.9615 36.5198 31.4956 36.5751 31.0333 36.5333C25.9047 35.976 20.9783 34.2235 16.65 31.4166C12.623 28.8577 9.20889 25.4436 6.65 21.4166C3.8333 17.0686 2.08041 12.1183 1.53333 6.96663C1.49168 6.50574 1.54646 6.04123 1.69417 5.60267C1.84188 5.16411 2.07929 4.76111 2.39128 4.41933C2.70327 4.07755 3.08301 3.80447 3.50632 3.6175C3.92963 3.43052 4.38723 3.33373 4.85 3.33329H9.85C10.6588 3.32533 11.443 3.61176 12.0563 4.13918C12.6696 4.6666 13.0701 5.39904 13.1833 6.19996C13.3944 7.80007 13.7858 9.37117 14.35 10.8833C14.5742 11.4798 14.6228 12.1282 14.4898 12.7514C14.3569 13.3747 14.0481 13.9468 13.6 14.4L11.4833 16.5166C13.8559 20.6892 17.3108 24.144 21.4833 26.5166L23.6 24.4C24.0531 23.9519 24.6253 23.643 25.2485 23.5101C25.8718 23.3772 26.5201 23.4257 27.1167 23.65C28.6288 24.2142 30.1999 24.6056 31.8 24.8166C32.6096 24.9308 33.349 25.3386 33.8776 25.9624C34.4061 26.5863 34.6869 27.3826 34.6667 28.2Z" stroke="#392B23" stroke-width="2" stroke-linecap="round" stroke-linejoin="round"/>
</svg>
