<svg width="150" height="159" viewBox="0 0 150 159" fill="none" xmlns="http://www.w3.org/2000/svg">
<g clip-path="url(#clip0_42:3526)">
<path d="M98.7401 121.257H134.211L139.587 125.283V108.235C139.587 107.379 139.247 106.557 138.641 105.952C138.035 105.346 137.214 105.006 136.358 105.006H98.7401C97.8836 105.006 97.0622 105.346 96.4566 105.952C95.8509 106.557 95.5107 107.379 95.5107 108.235V118.027C95.5106 118.451 95.5941 118.871 95.7564 119.263C95.9186 119.655 96.1565 120.011 96.4564 120.311C96.7563 120.61 97.1123 120.848 97.5041 121.011C97.896 121.173 98.316 121.257 98.7401 121.257Z" fill="#F4F4F4"/>
<path d="M135.792 109.531H99.3055C99.2706 109.53 99.2376 109.515 99.2134 109.49C99.1892 109.465 99.1756 109.432 99.1756 109.397C99.1756 109.362 99.1892 109.328 99.2134 109.303C99.2376 109.278 99.2706 109.263 99.3055 109.262H135.792C135.826 109.263 135.859 109.278 135.884 109.303C135.908 109.328 135.921 109.362 135.921 109.397C135.921 109.432 135.908 109.465 135.884 109.49C135.859 109.515 135.826 109.53 135.792 109.531Z" fill="white"/>
<path d="M135.792 113.572H99.3055C99.2706 113.571 99.2376 113.556 99.2134 113.531C99.1892 113.506 99.1756 113.473 99.1756 113.438C99.1756 113.403 99.1892 113.369 99.2134 113.344C99.2376 113.319 99.2706 113.304 99.3055 113.303H135.792C135.826 113.304 135.859 113.319 135.884 113.344C135.908 113.369 135.921 113.403 135.921 113.438C135.921 113.473 135.908 113.506 135.884 113.531C135.859 113.556 135.826 113.571 135.792 113.572Z" fill="white"/>
<path d="M135.792 117.613H114.122C114.087 117.613 114.052 117.599 114.027 117.574C114.002 117.549 113.988 117.514 113.988 117.479C113.988 117.443 114.002 117.409 114.027 117.383C114.052 117.358 114.087 117.344 114.122 117.344H135.792C135.827 117.344 135.862 117.358 135.887 117.383C135.912 117.409 135.926 117.443 135.926 117.479C135.926 117.514 135.912 117.549 135.887 117.574C135.862 117.599 135.827 117.613 135.792 117.613Z" fill="white"/>
<path d="M117.933 113.524L117.548 113.566L122.295 156.948L122.68 156.906L117.933 113.524Z" fill="#292A2E"/>
<path d="M130.228 132.462L127.893 155.567L128.278 155.606L130.613 132.501L130.228 132.462Z" fill="#292A2E"/>
<path d="M134.244 152.774H116.915V158.398H134.244V152.774Z" fill="#292A2E"/>
<path opacity="0.2" d="M134.244 152.774H116.915V158.398H134.244V152.774Z" fill="white"/>
<path d="M144.691 142.419C147.974 138.056 146.409 131.339 141.195 127.417C135.982 123.494 129.095 123.851 125.812 128.214C122.529 132.577 124.094 139.294 129.307 143.216C134.521 147.139 141.408 146.782 144.691 142.419Z" fill="#0CBC8B"/>
<path opacity="0.2" d="M144.691 142.419C147.974 138.056 146.409 131.339 141.195 127.417C135.982 123.494 129.095 123.851 125.812 128.214C122.529 132.577 124.094 139.294 129.307 143.216C134.521 147.139 141.408 146.782 144.691 142.419Z" fill="white"/>
<path opacity="0.5" d="M144.69 142.419C144.47 142.714 144.229 142.993 143.971 143.254C140.357 145.562 135.023 145.199 130.791 142.014C125.579 138.093 124.014 131.376 127.297 127.013C127.518 126.72 127.758 126.441 128.015 126.179C131.631 123.868 136.963 124.234 141.196 127.417C146.409 131.34 147.974 138.056 144.69 142.419Z" fill="white"/>
<path d="M120.507 125.866C125.671 121.879 127.075 115.042 123.642 110.595C120.209 106.147 113.239 105.774 108.075 109.76C102.91 113.747 101.507 120.584 104.94 125.031C108.373 129.479 115.342 129.852 120.507 125.866Z" fill="#0CBC8B"/>
<path opacity="0.2" d="M118.871 124.722C114.871 127.811 109.788 128.282 106.103 126.271C105.677 125.895 105.288 125.48 104.94 125.03C101.507 120.584 102.91 113.746 108.075 109.76C112.074 106.673 117.157 106.2 120.84 108.21C121.267 108.585 121.658 109.001 122.005 109.452C125.439 113.898 124.035 120.736 118.871 124.722Z" fill="white"/>
<path d="M146.771 60.5989H101.142L95.3609 64.9291V42.008C95.3609 41.1515 95.7012 40.3301 96.3069 39.7244C96.9126 39.1188 97.734 38.7786 98.5905 38.7786H146.771C147.627 38.7786 148.448 39.1188 149.054 39.7244C149.66 40.3301 150 41.1515 150 42.008V57.3698C150 58.2262 149.66 59.0476 149.054 59.6531C148.448 60.2587 147.627 60.5989 146.771 60.5989Z" fill="#F4F4F4"/>
<path d="M145.919 43.6347H99.4422C99.4241 43.6353 99.4061 43.6323 99.3892 43.6258C99.3722 43.6194 99.3568 43.6096 99.3438 43.597C99.3307 43.5844 99.3204 43.5694 99.3133 43.5527C99.3062 43.536 99.3026 43.5181 99.3026 43.5C99.3026 43.4819 99.3062 43.464 99.3133 43.4473C99.3204 43.4306 99.3307 43.4156 99.3438 43.403C99.3568 43.3904 99.3722 43.3806 99.3892 43.3741C99.4061 43.3677 99.4241 43.3647 99.4422 43.3653H145.919C145.954 43.3666 145.987 43.3813 146.011 43.4064C146.036 43.4316 146.049 43.4651 146.049 43.5C146.049 43.5349 146.036 43.5684 146.011 43.5935C145.987 43.6187 145.954 43.6334 145.919 43.6347Z" fill="white"/>
<path d="M145.919 47.98H99.4422C99.4241 47.9807 99.4061 47.9777 99.3892 47.9712C99.3722 47.9647 99.3568 47.9549 99.3438 47.9423C99.3307 47.9298 99.3204 47.9147 99.3133 47.898C99.3062 47.8814 99.3026 47.8635 99.3026 47.8454C99.3026 47.8272 99.3062 47.8093 99.3133 47.7927C99.3204 47.776 99.3307 47.7609 99.3438 47.7484C99.3568 47.7358 99.3722 47.726 99.3892 47.7195C99.4061 47.713 99.4241 47.71 99.4422 47.7107H145.919C145.954 47.712 145.987 47.7267 146.011 47.7518C146.036 47.7769 146.049 47.8105 146.049 47.8454C146.049 47.8802 146.036 47.9138 146.011 47.9389C145.987 47.964 145.954 47.9788 145.919 47.98Z" fill="white"/>
<path d="M145.919 52.3255H99.4422C99.4065 52.3255 99.3722 52.3113 99.3469 52.2861C99.3216 52.2608 99.3075 52.2265 99.3075 52.1908C99.3075 52.155 99.3216 52.1208 99.3469 52.0955C99.3722 52.0702 99.4065 52.056 99.4422 52.056H145.919C145.955 52.056 145.989 52.0702 146.014 52.0955C146.04 52.1208 146.054 52.155 146.054 52.1908C146.054 52.2265 146.04 52.2608 146.014 52.2861C145.989 52.3113 145.955 52.3255 145.919 52.3255Z" fill="white"/>
<path d="M137.838 56.6709H99.4422C99.4241 56.6716 99.4061 56.6686 99.3892 56.6621C99.3722 56.6556 99.3568 56.6458 99.3438 56.6332C99.3307 56.6207 99.3204 56.6056 99.3133 56.5889C99.3062 56.5723 99.3026 56.5544 99.3026 56.5362C99.3026 56.5181 99.3062 56.5002 99.3133 56.4836C99.3204 56.4669 99.3307 56.4518 99.3438 56.4392C99.3568 56.4267 99.3722 56.4169 99.3892 56.4104C99.4061 56.4039 99.4241 56.4009 99.4422 56.4016H137.838C137.856 56.4009 137.874 56.4039 137.891 56.4104C137.908 56.4169 137.923 56.4267 137.936 56.4392C137.949 56.4518 137.96 56.4669 137.967 56.4836C137.974 56.5002 137.978 56.5181 137.978 56.5362C137.978 56.5544 137.974 56.5723 137.967 56.5889C137.96 56.6056 137.949 56.6207 137.936 56.6332C137.923 56.6458 137.908 56.6556 137.891 56.6621C137.874 56.6686 137.856 56.6716 137.838 56.6709H137.838Z" fill="white"/>
<path d="M5.54245 105.468H41.0125L46.3887 109.495V92.447C46.3887 91.5904 46.0485 90.769 45.4429 90.1633C44.8372 89.5577 44.0158 89.2174 43.1593 89.2173H5.54245C4.6859 89.2173 3.86444 89.5576 3.25876 90.1633C2.65309 90.7689 2.31283 91.5904 2.31283 92.447V102.238C2.31279 102.663 2.39629 103.083 2.55857 103.474C2.72085 103.866 2.95874 104.222 3.25864 104.522C3.55854 104.822 3.91459 105.06 4.30645 105.222C4.6983 105.385 5.1183 105.468 5.54245 105.468Z" fill="#F4F4F4"/>
<path d="M42.5937 93.7433H6.10784C6.0721 93.7433 6.03782 93.7291 6.01255 93.7038C5.98728 93.6785 5.97308 93.6442 5.97308 93.6085C5.97308 93.5728 5.98728 93.5385 6.01255 93.5132C6.03782 93.4879 6.0721 93.4738 6.10784 93.4738H42.5937C42.6295 93.4738 42.6637 93.4879 42.689 93.5132C42.7143 93.5385 42.7285 93.5728 42.7285 93.6085C42.7285 93.6442 42.7143 93.6785 42.689 93.7038C42.6637 93.7291 42.6295 93.7433 42.5937 93.7433Z" fill="white"/>
<path d="M42.5937 97.7841H6.10784C6.07296 97.7828 6.03994 97.7681 6.01572 97.743C5.99149 97.7179 5.97796 97.6843 5.97796 97.6494C5.97796 97.6145 5.99149 97.581 6.01572 97.5559C6.03994 97.5307 6.07296 97.516 6.10784 97.5147H42.5937C42.6118 97.5141 42.6299 97.5171 42.6468 97.5236C42.6637 97.53 42.6791 97.5398 42.6922 97.5524C42.7052 97.565 42.7156 97.58 42.7227 97.5967C42.7297 97.6134 42.7334 97.6313 42.7334 97.6494C42.7334 97.6675 42.7297 97.6854 42.7227 97.7021C42.7156 97.7188 42.7052 97.7339 42.6922 97.7464C42.6791 97.759 42.6637 97.7688 42.6468 97.7753C42.6299 97.7818 42.6118 97.7848 42.5937 97.7841Z" fill="white"/>
<path d="M42.5937 101.825H20.9248C20.9067 101.826 20.8886 101.823 20.8717 101.816C20.8548 101.81 20.8394 101.8 20.8263 101.787C20.8133 101.775 20.8029 101.76 20.7959 101.743C20.7888 101.726 20.7851 101.709 20.7851 101.69C20.7851 101.672 20.7888 101.654 20.7959 101.638C20.8029 101.621 20.8133 101.606 20.8263 101.593C20.8394 101.581 20.8548 101.571 20.8717 101.565C20.8886 101.558 20.9067 101.555 20.9248 101.556H42.5937C42.6118 101.555 42.6299 101.558 42.6468 101.565C42.6637 101.571 42.6791 101.581 42.6922 101.593C42.7052 101.606 42.7156 101.621 42.7226 101.638C42.7297 101.654 42.7334 101.672 42.7334 101.69C42.7334 101.709 42.7297 101.726 42.7226 101.743C42.7156 101.76 42.7052 101.775 42.6922 101.787C42.6791 101.8 42.6637 101.81 42.6468 101.816C42.6299 101.823 42.6118 101.826 42.5937 101.825Z" fill="white"/>
<path d="M63.799 26.768H7.09165L0 32.0804V3.22944C0 2.37294 0.340244 1.55152 0.945881 0.945881C1.55152 0.340244 2.37294 0 3.22944 0L63.799 0C64.6555 0 65.4769 0.340244 66.0826 0.945881C66.6882 1.55152 67.0284 2.37294 67.0284 3.22944V23.5386C67.0284 24.3951 66.6881 25.2165 66.0825 25.8221C65.4769 26.4277 64.6555 26.768 63.799 26.768Z" fill="#F4F4F4"/>
<path d="M62.0222 5.92674H5.00624C4.9705 5.92674 4.93623 5.91254 4.91095 5.88727C4.88568 5.862 4.87148 5.82772 4.87148 5.79198C4.87148 5.75624 4.88568 5.72197 4.91095 5.6967C4.93623 5.67142 4.9705 5.65723 5.00624 5.65723H62.0224C62.0581 5.65723 62.0924 5.67142 62.1177 5.6967C62.1429 5.72197 62.1571 5.75624 62.1571 5.79198C62.1571 5.82772 62.1429 5.862 62.1177 5.88727C62.0924 5.91254 62.0581 5.92674 62.0224 5.92674H62.0222Z" fill="white"/>
<path d="M62.0222 11.2573H5.00624C4.98815 11.258 4.9701 11.255 4.95319 11.2485C4.93628 11.242 4.92085 11.2322 4.90781 11.2197C4.89478 11.2071 4.88441 11.192 4.87733 11.1754C4.87025 11.1587 4.8666 11.1408 4.8666 11.1227C4.8666 11.1046 4.87025 11.0866 4.87733 11.07C4.88441 11.0533 4.89478 11.0382 4.90781 11.0257C4.92085 11.0131 4.93628 11.0033 4.95319 10.9968C4.9701 10.9903 4.98815 10.9873 5.00624 10.988H62.0224C62.0405 10.9873 62.0585 10.9903 62.0754 10.9968C62.0923 11.0033 62.1078 11.0131 62.1208 11.0257C62.1338 11.0382 62.1442 11.0533 62.1513 11.07C62.1584 11.0866 62.162 11.1046 62.162 11.1227C62.162 11.1408 62.1584 11.1587 62.1513 11.1754C62.1442 11.192 62.1338 11.2071 62.1208 11.2197C62.1078 11.2322 62.0923 11.242 62.0754 11.2485C62.0585 11.255 62.0405 11.258 62.0224 11.2573H62.0222Z" fill="white"/>
<path d="M62.0222 16.5884H5.00624C4.98815 16.5891 4.9701 16.5861 4.95319 16.5796C4.93628 16.5732 4.92085 16.5633 4.90781 16.5508C4.89478 16.5382 4.88441 16.5231 4.87733 16.5065C4.87025 16.4898 4.8666 16.4719 4.8666 16.4538C4.8666 16.4357 4.87025 16.4177 4.87733 16.4011C4.88441 16.3844 4.89478 16.3693 4.90781 16.3568C4.92085 16.3442 4.93628 16.3344 4.95319 16.3279C4.9701 16.3214 4.98815 16.3184 5.00624 16.3191H62.0224C62.0405 16.3184 62.0585 16.3214 62.0754 16.3279C62.0923 16.3344 62.1078 16.3442 62.1208 16.3568C62.1338 16.3693 62.1442 16.3844 62.1513 16.4011C62.1584 16.4177 62.162 16.4357 62.162 16.4538C62.162 16.4719 62.1584 16.4898 62.1513 16.5065C62.1442 16.5231 62.1338 16.5382 62.1208 16.5508C62.1078 16.5633 62.0923 16.5732 62.0754 16.5796C62.0585 16.5861 62.0405 16.5891 62.0224 16.5884H62.0222Z" fill="white"/>
<path d="M33.5916 21.9188H5.00624C4.98815 21.9195 4.9701 21.9165 4.95319 21.91C4.93628 21.9036 4.92085 21.8937 4.90781 21.8812C4.89478 21.8686 4.88441 21.8535 4.87733 21.8369C4.87025 21.8202 4.8666 21.8023 4.8666 21.7842C4.8666 21.7661 4.87025 21.7481 4.87733 21.7315C4.88441 21.7148 4.89478 21.6997 4.90781 21.6872C4.92085 21.6746 4.93628 21.6648 4.95319 21.6583C4.9701 21.6518 4.98815 21.6488 5.00624 21.6495H33.5916C33.6265 21.6508 33.6595 21.6655 33.6837 21.6906C33.7079 21.7157 33.7215 21.7493 33.7215 21.7842C33.7215 21.8191 33.7079 21.8526 33.6837 21.8777C33.6595 21.9028 33.6265 21.9176 33.5916 21.9188Z" fill="white"/>
<path d="M28.0571 21.3501C28.0571 21.3501 26.0893 19.6467 25.817 16.011C25.6062 13.196 28.0571 15.1747 28.0571 15.1747C28.0571 15.1747 27.9252 13.1464 29.376 13.4441C30.8269 13.7417 31.5062 15.9086 31.5062 15.9086" fill="#0C0C0C"/>
<path d="M36.9317 14.1867C36.9317 14.1867 44.1472 15.4529 40.8605 25.1257H38.9031" fill="#0C0C0C"/>
<path d="M28.805 35.1816C28.837 35.1776 29.1925 41.0746 36.0431 40.5605C40.7858 40.2052 42.4768 35.1733 42.5865 35.1733C42.075 35.0647 41.4432 34.8997 41.192 34.8431C40.6447 34.7161 40.149 34.4255 39.7709 34.0098C39.3927 33.5942 39.1501 33.0732 39.0753 32.5163C38.9367 31.6806 39.1719 27.4042 39.0996 26.5585L31.8196 28.1834C31.9213 29.9695 32.6331 34.1103 30.1379 34.8431C29.7218 34.9643 29.2745 35.0759 28.805 35.1816Z" fill="#E98862"/>
<path opacity="0.52" d="M31.7166 33.1509C31.8307 32.7834 31.9041 32.4045 31.9356 32.021C32.0156 31.1459 31.9997 30.2647 31.888 29.393C33.3677 29.1933 34.7616 28.5826 35.9115 27.6302C36.0468 28.1294 36.7901 30.3109 36.5844 30.7854C36.1952 31.6823 34.3669 33.1509 31.7166 33.1509Z" fill="#0C0C0C"/>
<path d="M33.0087 31.7267C35.8913 31.6616 39.4427 30.081 39.7528 26.1944L40.0326 22.6874C40.3428 18.8005 38.5531 15.4868 34.8936 15.1949C31.2342 14.9029 28.2476 17.8352 27.9374 21.7218L27.8136 23.2744C27.7804 23.8082 27.7836 24.3436 27.8231 24.877C27.9174 26.2874 28.0661 28.4317 28.9185 29.9335C29.7232 31.3509 31.167 31.7676 33.0087 31.7267Z" fill="#E98862"/>
<path opacity="0.52" d="M31.9174 28.0815C31.3242 28.0685 30.7423 27.9164 30.2187 27.6374C30.1973 27.626 30.1811 27.6067 30.1738 27.5835C30.1665 27.5603 30.1685 27.5352 30.1795 27.5136C30.1906 27.4919 30.2096 27.4754 30.2327 27.4677C30.2557 27.46 30.2809 27.4616 30.3027 27.4723C31.4326 28.0463 32.4935 28.0445 33.3711 27.4669C33.3887 27.4547 33.407 27.4434 33.4259 27.4332C33.4368 27.4278 33.4487 27.4247 33.4609 27.4239C33.473 27.4232 33.4852 27.4248 33.4967 27.4288C33.5082 27.4328 33.5188 27.4389 33.528 27.447C33.5371 27.4551 33.5445 27.4649 33.5499 27.4758C33.5552 27.4867 33.5583 27.4986 33.5591 27.5108C33.5598 27.5229 33.5582 27.5351 33.5542 27.5466C33.5503 27.5581 33.5441 27.5687 33.536 27.5779C33.528 27.587 33.5182 27.5944 33.5072 27.5998C33.5002 27.6036 33.4896 27.6113 33.4729 27.6219C33.0117 27.9265 32.4701 28.0865 31.9174 28.0815Z" fill="#0C0C0C"/>
<path opacity="0.52" d="M31.8859 28.9595C31.7786 28.959 31.6716 28.9493 31.566 28.9305C31.5537 28.9288 31.5419 28.9245 31.5313 28.9181C31.5207 28.9117 31.5115 28.9032 31.5042 28.8932C31.497 28.8832 31.4918 28.8718 31.489 28.8597C31.4862 28.8476 31.4859 28.8351 31.488 28.8229C31.4901 28.8107 31.4947 28.7991 31.5014 28.7886C31.5081 28.7782 31.5168 28.7693 31.5271 28.7623C31.5373 28.7553 31.5489 28.7504 31.561 28.748C31.5731 28.7455 31.5857 28.7456 31.5978 28.748C32.2334 28.8589 32.5584 28.586 32.5721 28.5744C32.5905 28.5582 32.6147 28.55 32.6392 28.5516C32.6638 28.5532 32.6866 28.5645 32.7028 28.583C32.7191 28.6014 32.7273 28.6256 32.7256 28.6501C32.724 28.6746 32.7127 28.6975 32.6943 28.7137C32.4613 28.8866 32.1757 28.9734 31.8859 28.9595Z" fill="#0C0C0C"/>
<path d="M29.0229 23.5351C29.2725 23.5351 29.4749 23.3327 29.4749 23.083C29.4749 22.8334 29.2725 22.631 29.0229 22.631C28.7732 22.631 28.5709 22.8334 28.5709 23.083C28.5709 23.3327 28.7732 23.5351 29.0229 23.5351Z" fill="#0C0C0C"/>
<path d="M33.2133 23.5635C33.463 23.5635 33.6653 23.3612 33.6653 23.1115C33.6653 22.8619 33.463 22.6595 33.2133 22.6595C32.9637 22.6595 32.7613 22.8619 32.7613 23.1115C32.7613 23.3612 32.9637 23.5635 33.2133 23.5635Z" fill="#0C0C0C"/>
<path d="M39.4311 27.3598C40.5432 27.4482 41.5395 26.3307 41.6283 25.2187C41.7171 24.1067 40.8645 23.4214 39.7525 23.3326L39.1199 24.032L38.4749 27.2834L39.4311 27.3598Z" fill="#E98862"/>
<path d="M38.4436 25.497C38.4436 25.497 38.4366 19.9677 36.7904 19.516C35.694 19.2154 32.8927 20.6112 30.4278 19.9677C29.349 19.6861 28.2944 19.887 28.1544 20.396C28.0988 20.5974 27.6152 17.6161 29.4749 15.5026C30.9557 13.8199 35.4462 13.6176 37.4349 14.3354C42.9414 16.3223 39.9658 23.5906 39.9658 23.5906L39.5882 25.4714L38.4436 25.497Z" fill="#0C0C0C"/>
<g opacity="0.52">
<path opacity="0.52" d="M31.3316 26.7374H31.3246C30.9661 26.7099 30.368 26.6236 30.3883 26.3553C30.406 26.1332 31.1988 23.7818 31.2892 23.5144C31.2974 23.492 31.3141 23.4736 31.3357 23.4633C31.3572 23.453 31.3819 23.4515 31.4046 23.4592C31.4272 23.4669 31.4459 23.483 31.4568 23.5043C31.4676 23.5256 31.4698 23.5503 31.4627 23.5731C31.1106 24.6144 30.5827 26.2184 30.5708 26.3694C30.6013 26.4354 30.9673 26.5263 31.3384 26.5549C31.3618 26.557 31.3835 26.5679 31.3991 26.5856C31.4146 26.6032 31.4228 26.6261 31.422 26.6496C31.4211 26.6731 31.4112 26.6953 31.3944 26.7117C31.3776 26.7282 31.3551 26.7375 31.3316 26.7378V26.7374Z" fill="#0C0C0C"/>
</g>
<path d="M30.2943 21.695C30.0049 21.5756 29.6893 21.5346 29.3791 21.5759C29.221 21.5957 29.0669 21.6394 28.9219 21.7054C28.7739 21.772 28.6348 21.8569 28.5079 21.9581L28.498 21.9655C28.465 21.9868 28.4254 21.9951 28.3867 21.989C28.3479 21.9828 28.3129 21.9626 28.2881 21.9321C28.2634 21.9017 28.2508 21.8632 28.2527 21.824C28.2546 21.7849 28.2709 21.7478 28.2985 21.7199C28.4391 21.5893 28.5956 21.4769 28.7643 21.3855C28.9354 21.292 29.1196 21.2246 29.3106 21.1856C29.502 21.1446 29.698 21.1301 29.8933 21.1423C30.0944 21.1528 30.293 21.192 30.483 21.2587C30.5418 21.2802 30.5897 21.324 30.6164 21.3807C30.6431 21.4373 30.6465 21.5022 30.6257 21.5613C30.6049 21.6203 30.5616 21.6688 30.5053 21.6962C30.449 21.7236 30.3842 21.7278 30.3249 21.7077C30.319 21.7057 30.3135 21.7034 30.3081 21.7011L30.2943 21.695Z" fill="#0C0C0C"/>
<path d="M32.947 21.2963C33.324 21.1667 33.7291 21.1416 34.1193 21.2236C34.3104 21.2626 34.4945 21.33 34.6656 21.4235C34.8343 21.515 34.9907 21.6274 35.1312 21.7581C35.1617 21.7851 35.1807 21.8229 35.184 21.8635C35.1874 21.9041 35.175 21.9445 35.1493 21.9761C35.1237 22.0078 35.0868 22.0284 35.0464 22.0336C35.0059 22.0387 34.9651 22.0281 34.9323 22.0039L34.9219 21.9961C34.795 21.8949 34.656 21.81 34.508 21.7434C34.363 21.6773 34.2088 21.6336 34.0507 21.6138C33.8935 21.5919 33.7341 21.5919 33.5769 21.6138C33.4249 21.6333 33.2762 21.6732 33.1348 21.7324L33.1215 21.7383C33.0929 21.7509 33.0621 21.7578 33.0309 21.7586C32.9996 21.7593 32.9685 21.7539 32.9394 21.7427C32.9102 21.7314 32.8835 21.7145 32.8609 21.6929C32.8383 21.6714 32.8201 21.6456 32.8074 21.617C32.7948 21.5884 32.7879 21.5576 32.7871 21.5263C32.7864 21.4951 32.7918 21.464 32.8031 21.4348C32.8143 21.4056 32.8312 21.379 32.8528 21.3563C32.8744 21.3337 32.9002 21.3155 32.9288 21.3029C32.9358 21.3008 32.9419 21.2985 32.947 21.2963Z" fill="#0C0C0C"/>
<path d="M33.3342 15.7866C33.6688 14.5909 33.2816 13.4373 32.4693 13.21C31.6571 12.9827 30.7273 13.7677 30.3927 14.9633C30.0581 16.159 30.4453 17.3125 31.2576 17.5399C32.0699 17.7672 32.9996 16.9822 33.3342 15.7866Z" fill="#0C0C0C"/>
<path d="M40.3999 134.805C40.3999 134.805 45.1041 137.409 44.1594 141.475C43.2147 145.541 46.6542 145.616 46.6542 145.616L51.172 130.348L43.5438 128.091L40.3999 134.805Z" fill="#367CFF"/>
<path d="M22.3399 69.6379C22.3399 69.6379 13.6011 104.283 16.0052 109.411C18.3686 114.453 42.8429 136.853 42.8429 136.853L47.2519 128.659L28.5111 106.034C28.5111 106.034 33.8362 93.7779 36.9061 84.3547C38.7568 78.6743 40.7649 73.5795 41.0606 67.6126L22.3399 69.6379Z" fill="#262626"/>
<path d="M35.2287 113.971L32.7058 111.098L33.3624 127.964L36.1745 130.637L35.2287 113.971Z" fill="#0A0A0A"/>
<path d="M34.8617 90.3246C34.8617 90.3246 35.3215 80.9095 34.446 82.7157C32.8663 85.9764 32.4536 96.4889 32.4536 96.4889L34.8617 90.3246Z" fill="#0A0A0A"/>
<path d="M38.1626 149.938C38.1626 149.938 37.304 154.389 33.1373 154.637C28.9705 154.884 29.8742 158.204 29.8742 158.204H45.7968V150.249L38.1626 149.938Z" fill="#367CFF"/>
<path d="M50.7674 68.7589C50.7674 68.7589 50.8381 68.431 50.8798 70.3484C51.1265 81.665 46.4996 152.778 46.4996 152.778L36.0367 152.689L33.2356 68.2991L50.7674 68.7589Z" fill="#262626"/>
<path d="M20.2934 48.1645C20.5092 50.6994 22.0895 66.5154 22.297 69.6378H50.8897C51.0512 66.8217 51.2459 54.507 51.8585 48.9996C52.4432 43.7443 53.5902 40.923 52.7495 39.3694C51.3754 36.83 47.6209 35.553 45.0608 35.2064C43.4974 34.9942 41.1461 34.843 41.1461 34.843C41.1461 34.843 40.9469 38.8704 36.1998 39.0946C29.7377 39.3995 30.1692 34.843 30.1372 34.843C27.7909 34.843 23.3506 35.4043 21.6465 36.563C17.8149 39.1689 19.8354 42.7922 20.2934 48.1645Z" fill="#367CFF"/>
<path d="M21.9871 38.2841L15.3289 45.1724L9.26548 42.7218L2.83878 58.623L2.79899 58.718C2.35785 59.8162 2.31767 61.0348 2.6855 62.1597C3.05334 63.2846 3.80568 64.244 4.81045 64.8695C5.81522 65.4949 7.00821 65.7465 8.17997 65.5799C9.35173 65.4134 10.4274 64.8394 11.2181 63.9587L28.6731 44.5126L21.9871 38.2841Z" fill="#367CFF"/>
<path d="M27.8495 36.1874C27.7976 36.105 27.7294 36.0341 27.6491 35.9789C27.5689 35.9237 27.4782 35.8855 27.3827 35.8665C27.2872 35.8475 27.1888 35.8482 27.0936 35.8685C26.9983 35.8888 26.9082 35.9283 26.8287 35.9845C26.6787 36.0988 26.5776 36.2658 26.546 36.4518C26.5143 36.6377 26.5545 36.8287 26.6582 36.9862L26.9893 37.4674L23.3497 35.1753C23.2746 35.128 23.1909 35.0959 23.1034 35.0809C23.0159 35.066 22.9262 35.0684 22.8397 35.0881C22.7531 35.1077 22.6712 35.1442 22.5987 35.1955C22.5263 35.2468 22.4646 35.3119 22.4173 35.3871C22.37 35.4622 22.3379 35.5459 22.323 35.6334C22.308 35.7209 22.3104 35.8105 22.3301 35.8971C22.3497 35.9837 22.3863 36.0656 22.4376 36.138C22.4889 36.2105 22.554 36.2722 22.6291 36.3195L24.1447 37.2745C24.1408 37.2778 24.1373 37.2815 24.1342 37.2856C23.9607 37.2204 23.7686 37.225 23.5983 37.2984C23.428 37.3718 23.2928 37.5083 23.221 37.6793C23.1587 37.8367 23.1527 38.0108 23.204 38.1722C23.2554 38.3335 23.3609 38.4721 23.5027 38.5646L23.7045 38.7013C23.703 38.7094 23.703 38.7177 23.7045 38.7259C23.5475 38.6655 23.3742 38.6623 23.215 38.7168C23.0558 38.7714 22.921 38.8803 22.834 39.0244C22.7424 39.1893 22.7169 39.3828 22.7625 39.5658C22.8081 39.7488 22.9216 39.9076 23.0799 40.0101L23.5773 40.3472C23.5664 40.3476 23.5557 40.3507 23.5462 40.3563C23.5367 40.3618 23.5288 40.3697 23.5231 40.3791C23.517 40.3898 23.5141 40.4021 23.5149 40.4144C23.363 40.3995 23.2103 40.4335 23.0791 40.5115C22.9479 40.5895 22.8451 40.7074 22.7858 40.8481C22.7235 41.0055 22.7175 41.1796 22.7688 41.3409C22.8202 41.5023 22.9257 41.6409 23.0675 41.7334L25.7611 43.5652C26.3564 43.9684 27.0586 44.1848 27.7777 44.1864C28.4968 44.188 29.2 43.9748 29.7971 43.5742L31.7198 42.2842L27.8495 36.1874Z" fill="#E98862"/>
<g opacity="0.2">
<path opacity="0.2" d="M25.6567 38.3014C25.649 38.2998 25.6416 38.2969 25.6348 38.2928L24.1517 37.3827C24.1442 37.3781 24.1377 37.372 24.1325 37.3648C24.1273 37.3576 24.1236 37.3495 24.1215 37.3409C24.1174 37.3235 24.1204 37.3052 24.1297 37.2899C24.1391 37.2747 24.1542 37.2639 24.1715 37.2597C24.1889 37.2556 24.2073 37.2585 24.2225 37.2679L25.7054 38.178C25.7191 38.1862 25.7294 38.1989 25.7346 38.214C25.7398 38.2291 25.7394 38.2456 25.7336 38.2604C25.7278 38.2753 25.7169 38.2876 25.7028 38.2952C25.6888 38.3027 25.6725 38.3051 25.6569 38.3018L25.6567 38.3014Z" fill="#0C0C0C"/>
<path opacity="0.2" d="M24.918 39.5026C24.9101 39.5009 24.9025 39.4979 24.8956 39.4936L23.7356 38.7685C23.7219 38.7585 23.7125 38.7436 23.7092 38.727C23.7059 38.7103 23.7091 38.693 23.718 38.6786C23.727 38.6641 23.7411 38.6536 23.7574 38.6491C23.7738 38.6446 23.7913 38.6464 23.8064 38.6542L24.9663 39.3793C24.9801 39.3875 24.9906 39.4003 24.9958 39.4155C25.0011 39.4307 25.0007 39.4472 24.9948 39.4622C24.9889 39.4771 24.9778 39.4894 24.9636 39.4969C24.9494 39.5044 24.933 39.5066 24.9173 39.5031L24.918 39.5026Z" fill="#0C0C0C"/>
<path opacity="0.2" d="M24.1243 40.8081C24.1169 40.8066 24.1098 40.8038 24.1033 40.7999L23.5475 40.4706C23.5394 40.4664 23.5324 40.4605 23.5267 40.4534C23.521 40.4463 23.5168 40.4381 23.5144 40.4294C23.5119 40.4206 23.5113 40.4114 23.5125 40.4024C23.5137 40.3934 23.5167 40.3847 23.5213 40.3769C23.5259 40.3691 23.5321 40.3623 23.5394 40.3569C23.5468 40.3515 23.5551 40.3477 23.564 40.3456C23.5728 40.3436 23.582 40.3433 23.591 40.3449C23.5999 40.3465 23.6085 40.3498 23.6161 40.3548L24.1717 40.6841C24.1852 40.6923 24.1954 40.705 24.2005 40.7199C24.2056 40.7348 24.2053 40.751 24.1996 40.7658C24.194 40.7805 24.1834 40.7928 24.1696 40.8005C24.1559 40.8082 24.1398 40.8108 24.1243 40.8079V40.8081Z" fill="#0C0C0C"/>
</g>
<path d="M15.9976 45.1634H21.6493C21.7952 45.1634 21.9393 45.131 22.0712 45.0686C22.2031 45.0063 22.3195 44.9154 22.4121 44.8026C22.5046 44.6898 22.571 44.5579 22.6065 44.4164C22.6419 44.2749 22.6455 44.1272 22.617 43.9841L20.381 32.747C20.3361 32.5217 20.2141 32.3192 20.0359 32.1742C19.8578 32.0293 19.6346 31.951 19.4049 31.9529L13.8971 31.9992C13.753 32.0005 13.6109 32.0333 13.4808 32.0954C13.3507 32.1575 13.2358 32.2473 13.1441 32.3586C13.0525 32.4698 12.9863 32.5998 12.9503 32.7394C12.9143 32.879 12.9093 33.0247 12.9356 33.1665L15.0277 44.3571C15.0698 44.5836 15.1898 44.7882 15.367 44.9355C15.5441 45.0827 15.7672 45.1633 15.9976 45.1634Z" fill="#262626"/>
<path d="M20.3509 38.9054C20.2644 38.7755 20.1384 38.6768 19.9916 38.6239C19.8447 38.571 19.6848 38.5667 19.5353 38.6116C19.5351 38.6025 19.5328 38.5936 19.5284 38.5856C19.524 38.5776 19.5177 38.5708 19.5101 38.5658C19.5025 38.5608 19.4937 38.5577 19.4846 38.5569C19.4756 38.556 19.4664 38.5574 19.458 38.5609L19.8968 38.1232C20.0355 37.9903 20.1186 37.8098 20.1293 37.6181C20.14 37.4263 20.0775 37.2376 19.9544 37.0902C19.8399 36.9625 19.684 36.8793 19.5141 36.8551C19.3443 36.831 19.1714 36.8674 19.0258 36.9581C19.0258 36.9508 19.0201 36.9448 19.0178 36.9378L19.1986 36.7577C19.3227 36.6381 19.4017 36.4793 19.4223 36.3081C19.4428 36.1369 19.4036 35.9639 19.3112 35.8183C19.2514 35.7282 19.1724 35.6525 19.0798 35.5967C18.9872 35.5408 18.8834 35.5062 18.7758 35.4954C18.6682 35.4845 18.5596 35.4977 18.4577 35.5339C18.3558 35.5701 18.2632 35.6284 18.1866 35.7048L17.7698 36.1205C17.768 36.1181 17.7687 36.1145 17.7666 36.1122C17.7645 36.1099 17.759 36.1097 17.7558 36.1074C17.8443 35.9677 17.8826 35.8021 17.8646 35.6377C17.8466 35.4733 17.7732 35.3199 17.6566 35.2027C17.3749 34.8805 16.8723 35.038 16.6028 35.3069L14.0595 37.7976L14.1371 37.6814L14.497 36.7637C14.5708 36.5864 14.5745 36.3877 14.5073 36.2078C14.4402 36.0278 14.3073 35.8801 14.1354 35.7944C14.0451 35.7533 13.9474 35.731 13.8483 35.7289C13.7491 35.7268 13.6506 35.7449 13.5587 35.7821C13.4667 35.8193 13.3834 35.8749 13.3136 35.9454C13.2439 36.0159 13.1892 36.0998 13.153 36.1922L11.0485 41.3982C11.0485 41.3982 15.4715 44.5992 16.5322 43.5411L20.2386 39.845C20.3628 39.7253 20.4418 39.5664 20.4623 39.3952C20.4828 39.224 20.4434 39.0509 20.3509 38.9054Z" fill="#E98862"/>
<g opacity="0.2">
<path opacity="0.2" d="M15.3291 38.4682C15.3417 38.4805 15.3586 38.4874 15.3761 38.4874C15.3937 38.4874 15.4106 38.4805 15.4232 38.4682L17.7648 36.207C17.7715 36.201 17.7769 36.1936 17.7807 36.1854C17.7844 36.1772 17.7865 36.1684 17.7868 36.1594C17.7871 36.1504 17.7856 36.1414 17.7824 36.133C17.7791 36.1246 17.7742 36.1169 17.768 36.1104C17.7617 36.1039 17.7542 36.0987 17.7459 36.0952C17.7376 36.0917 17.7287 36.0898 17.7197 36.0898C17.7107 36.0898 17.7017 36.0916 17.6934 36.0951C17.6851 36.0985 17.6776 36.1037 17.6713 36.1101L15.3296 38.3718C15.3233 38.378 15.3182 38.3853 15.3146 38.3935C15.3111 38.4016 15.3092 38.4103 15.3091 38.4192C15.3089 38.428 15.3105 38.4368 15.3138 38.445C15.317 38.4533 15.3219 38.4608 15.328 38.4672L15.3291 38.4682Z" fill="#0C0C0C"/>
<path opacity="0.2" d="M16.2979 39.5284C16.3105 39.5407 16.3273 39.5476 16.3449 39.5476C16.3625 39.5476 16.3794 39.5407 16.392 39.5284L19.0053 37.005C19.0116 36.9988 19.0167 36.9915 19.0203 36.9834C19.0238 36.9753 19.0257 36.9665 19.0259 36.9577C19.0261 36.9488 19.0245 36.94 19.0212 36.9318C19.018 36.9235 19.0132 36.916 19.007 36.9096C18.9943 36.8973 18.9774 36.8903 18.9597 36.89C18.942 36.8897 18.9248 36.8962 18.9117 36.9081L16.2984 39.4321C16.2856 39.4445 16.2782 39.4615 16.2779 39.4794C16.2776 39.4973 16.2844 39.5145 16.2968 39.5274L16.2979 39.5284Z" fill="#0C0C0C"/>
<path opacity="0.2" d="M17.3406 40.6829C17.3532 40.6952 17.37 40.702 17.3876 40.702C17.4052 40.702 17.4221 40.6952 17.4347 40.6829L19.5194 38.6698C19.526 38.6637 19.5314 38.6564 19.5352 38.6482C19.5389 38.64 19.541 38.6311 19.5413 38.6221C19.5416 38.6131 19.5401 38.6041 19.5368 38.5957C19.5335 38.5873 19.5286 38.5796 19.5224 38.5731C19.5161 38.5667 19.5086 38.5615 19.5003 38.558C19.492 38.5545 19.483 38.5526 19.474 38.5526C19.465 38.5526 19.4561 38.5544 19.4477 38.558C19.4394 38.5615 19.4319 38.5666 19.4256 38.5731L17.3411 40.5869C17.3283 40.5993 17.3209 40.6163 17.3205 40.6342C17.3202 40.652 17.327 40.6693 17.3393 40.6822L17.3406 40.6829Z" fill="#0C0C0C"/>
</g>
<path d="M10.3267 40.0123L18.4301 43.1747L12.2657 60.9726L2.7783 58.4953L10.3267 40.0123Z" fill="#367CFF"/>
<path d="M37.7106 64.1264C36.8182 64.1263 35.9418 63.8899 35.1704 63.4411C34.3991 62.9923 33.7604 62.3472 33.3194 61.5714L24.1608 44.5037L31.7884 39.6285L37.6176 49.4985L43.9182 38.6118L52.0997 44.6144L42.1461 61.4922C41.7153 62.2824 41.0813 62.9432 40.3095 63.4061C39.5377 63.8691 38.6562 64.1174 37.7562 64.1255L37.7106 64.1264Z" fill="#367CFF"/>
<path d="M37.7106 64.1936C36.8065 64.1925 35.9188 63.9525 35.1374 63.4979C34.3559 63.0432 33.7086 62.3901 33.2609 61.6047L24.1013 44.5354C24.0933 44.5204 24.0913 44.503 24.0956 44.4866C24.0999 44.4702 24.1102 44.4561 24.1245 44.447L31.7522 39.5718C31.7598 39.5668 31.7683 39.5635 31.7773 39.562C31.7862 39.5605 31.7954 39.5609 31.8042 39.5631C31.813 39.5652 31.8212 39.569 31.8285 39.5744C31.8357 39.5797 31.8418 39.5865 31.8464 39.5942L37.6172 49.3657L41.9392 41.9753C41.9483 41.9599 41.963 41.9487 41.9803 41.9441C41.9976 41.9396 42.016 41.9421 42.0315 41.9512C42.0469 41.9602 42.0581 41.975 42.0626 41.9923C42.0672 42.0096 42.0646 42.028 42.0556 42.0434L37.6756 49.5326C37.6696 49.5427 37.6612 49.5511 37.651 49.557C37.6408 49.5628 37.6293 49.5659 37.6176 49.5659C37.6059 49.5659 37.5943 49.5628 37.5842 49.557C37.574 49.5512 37.5655 49.5429 37.5596 49.5328L31.766 39.7228L24.2499 44.5267L33.3792 61.5396C33.8151 62.304 34.4454 62.9397 35.2061 63.3821C35.9668 63.8246 36.8309 64.0581 37.7109 64.059H37.756C38.644 64.0506 39.5136 63.8053 40.275 63.3485C41.0364 62.8916 41.662 62.2397 42.0872 61.4602L51.0013 46.2623C51.0104 46.2469 51.0251 46.2357 51.0424 46.2311C51.0597 46.2266 51.0781 46.2291 51.0935 46.2382C51.109 46.2472 51.1202 46.262 51.1247 46.2793C51.1292 46.2966 51.1267 46.315 51.1177 46.3304L42.2045 61.5263C41.7677 62.3265 41.1252 62.9955 40.3434 63.4644C39.5616 63.9332 38.6688 64.1849 37.7573 64.1934L37.7106 64.1936Z" fill="#0C0C0C"/>
<path d="M39.7792 53.3907C39.7673 53.3907 39.7556 53.3875 39.7453 53.3815C39.735 53.3755 39.7265 53.3668 39.7207 53.3564L37.5588 49.531C37.5506 49.5155 37.5488 49.4974 37.5537 49.4806C37.5587 49.4637 37.57 49.4495 37.5852 49.4408C37.6005 49.4322 37.6185 49.4299 37.6355 49.4343C37.6525 49.4388 37.667 49.4497 37.6761 49.4647L39.8379 53.2901C39.8467 53.3057 39.849 53.3241 39.8442 53.3414C39.8394 53.3586 39.828 53.3732 39.8124 53.3821C39.8023 53.3877 39.7908 53.3907 39.7792 53.3907Z" fill="#0C0C0C"/>
<path d="M13.985 56.5335C13.9744 56.5336 13.9639 56.5311 13.9544 56.5262C13.9448 56.5214 13.9366 56.5144 13.9304 56.5057C13.9242 56.4971 13.9201 56.487 13.9185 56.4765C13.917 56.4659 13.9179 56.4552 13.9214 56.4451L18.5071 43.2051C18.51 43.1967 18.5145 43.189 18.5204 43.1824C18.5263 43.1758 18.5334 43.1704 18.5414 43.1666C18.5493 43.1627 18.558 43.1605 18.5668 43.1599C18.5756 43.1594 18.5845 43.1606 18.5929 43.1636C18.6012 43.1665 18.6089 43.171 18.6155 43.1769C18.6221 43.1827 18.6275 43.1899 18.6314 43.1978C18.6353 43.2058 18.6375 43.2144 18.638 43.2233C18.6385 43.2321 18.6373 43.241 18.6344 43.2493L14.0487 56.4891C14.044 56.5022 14.0353 56.5134 14.0239 56.5214C14.0125 56.5293 13.9989 56.5336 13.985 56.5335Z" fill="#0C0C0C"/>
<path d="M20.625 53.5676C20.608 53.5675 20.5917 53.5611 20.5793 53.5495C20.5668 53.5379 20.5592 53.5221 20.558 53.5052L20.2927 49.8739C20.2915 49.8561 20.2973 49.8385 20.309 49.825C20.3206 49.8116 20.3372 49.8032 20.355 49.8019C20.3727 49.8009 20.3902 49.8069 20.4036 49.8185C20.4171 49.8301 20.4255 49.8465 20.4271 49.8642L20.6924 53.4953C20.6937 53.5131 20.6878 53.5307 20.6761 53.5442C20.6644 53.5578 20.6478 53.5661 20.63 53.5674L20.625 53.5676Z" fill="#0C0C0C"/>
<path d="M146.164 158.392H11.2524C11.2343 158.393 11.2162 158.39 11.1993 158.384C11.1824 158.377 11.167 158.367 11.1539 158.355C11.1409 158.342 11.1305 158.327 11.1235 158.31C11.1164 158.294 11.1127 158.276 11.1127 158.258C11.1127 158.24 11.1164 158.222 11.1235 158.205C11.1305 158.188 11.1409 158.173 11.1539 158.161C11.167 158.148 11.1824 158.138 11.1993 158.132C11.2162 158.125 11.2343 158.122 11.2524 158.123H146.164C146.183 158.122 146.201 158.125 146.218 158.132C146.234 158.138 146.25 158.148 146.263 158.161C146.276 158.173 146.286 158.188 146.293 158.205C146.3 158.222 146.304 158.24 146.304 158.258C146.304 158.276 146.3 158.294 146.293 158.31C146.286 158.327 146.276 158.342 146.263 158.355C146.25 158.367 146.234 158.377 146.218 158.384C146.201 158.39 146.183 158.393 146.164 158.392Z" fill="#292A2E"/>
<path d="M110.631 10.9418H58.7668C54.4763 10.9418 50.9981 14.42 50.9981 18.7105V140.632C50.9981 144.922 54.4763 148.4 58.7668 148.4H110.631C114.922 148.4 118.4 144.922 118.4 140.632V18.7105C118.4 14.42 114.922 10.9418 110.631 10.9418Z" fill="#292A2E"/>
<path d="M110.607 13.3678H58.7913C55.8452 13.3678 53.4569 15.7562 53.4569 18.7023V140.459C53.4569 143.405 55.8452 145.793 58.7913 145.793H110.607C113.553 145.793 115.941 143.405 115.941 140.459V18.7023C115.941 15.7562 113.553 13.3678 110.607 13.3678Z" fill="white"/>
<path d="M71.9019 12.3648H97.4969V15.0131C97.4969 15.3893 97.4228 15.7618 97.2788 16.1093C97.1348 16.4568 96.9237 16.7726 96.6577 17.0385C96.3916 17.3045 96.0758 17.5154 95.7282 17.6593C95.3806 17.8031 95.0081 17.8771 94.6319 17.877H74.7658C74.0062 17.877 73.2778 17.5752 72.7407 17.0382C72.2036 16.5011 71.9019 15.7726 71.9019 15.0131V12.3648Z" fill="#292A2E"/>
<path d="M100.463 42.992H61.3951L56.4341 46.7078V27.1248C56.4341 26.7496 56.508 26.378 56.6516 26.0314C56.7952 25.6848 57.0057 25.3698 57.271 25.1045C57.5363 24.8392 57.8513 24.6288 58.1979 24.4852C58.5446 24.3416 58.9161 24.2677 59.2913 24.2678H100.463C100.838 24.2677 101.21 24.3416 101.556 24.4852C101.903 24.6288 102.218 24.8392 102.483 25.1045C102.748 25.3698 102.959 25.6848 103.102 26.0314C103.246 26.378 103.32 26.7496 103.32 27.1248V40.1347C103.32 40.5099 103.246 40.8815 103.103 41.2281C102.959 41.5748 102.749 41.8898 102.483 42.1551C102.218 42.4205 101.903 42.631 101.556 42.7745C101.21 42.9181 100.838 42.992 100.463 42.992Z" fill="#367CFF"/>
<path opacity="0.49" d="M103.32 42.9917H61.3951L56.4341 46.7074V24.2678H103.32V42.9917Z" fill="white"/>
<path d="M99.8182 28.4433H59.9359C59.903 28.4433 59.8714 28.4303 59.8481 28.407C59.8248 28.3837 59.8117 28.3521 59.8117 28.3191C59.8117 28.2862 59.8248 28.2546 59.8481 28.2313C59.8714 28.208 59.903 28.1949 59.9359 28.1949H99.8182C99.8511 28.1949 99.8827 28.208 99.906 28.2313C99.9293 28.2546 99.9424 28.2862 99.9424 28.3191C99.9424 28.3521 99.9293 28.3837 99.906 28.407C99.8827 28.4303 99.8511 28.4433 99.8182 28.4433Z" fill="white"/>
<path d="M99.8182 32.1722H59.9359C59.903 32.1722 59.8714 32.1591 59.8481 32.1358C59.8248 32.1125 59.8117 32.0809 59.8117 32.048C59.8117 32.015 59.8248 31.9834 59.8481 31.9601C59.8714 31.9368 59.903 31.9237 59.9359 31.9237H99.8182C99.8511 31.9237 99.8827 31.9368 99.906 31.9601C99.9293 31.9834 99.9424 32.015 99.9424 32.048C99.9424 32.0809 99.9293 32.1125 99.906 32.1358C99.8827 32.1591 99.8511 32.1722 99.8182 32.1722Z" fill="white"/>
<path d="M99.8182 35.9004H59.9359C59.9029 35.9004 59.8713 35.8873 59.848 35.8639C59.8247 35.8406 59.8116 35.809 59.8116 35.776C59.8116 35.7431 59.8247 35.7114 59.848 35.6881C59.8713 35.6648 59.9029 35.6517 59.9359 35.6517H99.8182C99.8512 35.6517 99.8828 35.6648 99.9061 35.6881C99.9294 35.7114 99.9425 35.7431 99.9425 35.776C99.9425 35.809 99.9294 35.8406 99.9061 35.8639C99.8828 35.8873 99.8512 35.9004 99.8182 35.9004Z" fill="white"/>
<path d="M79.9312 39.6299H59.9359C59.9029 39.6299 59.8713 39.6168 59.848 39.5935C59.8247 39.5702 59.8116 39.5386 59.8116 39.5056C59.8116 39.4726 59.8247 39.441 59.848 39.4177C59.8713 39.3944 59.9029 39.3813 59.9359 39.3813H79.9312C79.9641 39.3813 79.9958 39.3944 80.0191 39.4177C80.0424 39.441 80.0555 39.4726 80.0555 39.5056C80.0555 39.5386 80.0424 39.5702 80.0191 39.5935C79.9958 39.6168 79.9641 39.6299 79.9312 39.6299Z" fill="white"/>
<path d="M74.6335 122.749H107.487L112.448 126.465V110.611C112.447 109.853 112.146 109.127 111.611 108.591C111.075 108.055 110.348 107.754 109.59 107.754H74.6335C73.8757 107.754 73.149 108.055 72.6132 108.591C72.0773 109.127 71.7763 109.854 71.7763 110.611V119.892C71.7764 120.65 72.0774 121.377 72.6132 121.912C73.149 122.448 73.8757 122.749 74.6335 122.749Z" fill="#367CFF"/>
<path opacity="0.11" d="M74.6335 122.749H107.487L112.448 126.465V110.611C112.447 109.853 112.146 109.127 111.611 108.591C111.075 108.055 110.348 107.754 109.59 107.754H74.6335C73.8757 107.754 73.149 108.055 72.6132 108.591C72.0773 109.127 71.7763 109.854 71.7763 110.611V119.892C71.7764 120.65 72.0774 121.377 72.6132 121.912C73.149 122.448 73.8757 122.749 74.6335 122.749Z" fill="white"/>
<path d="M108.946 111.93H75.2781C75.2453 111.93 75.2138 111.917 75.1906 111.893C75.1673 111.87 75.1543 111.839 75.1543 111.806C75.1543 111.773 75.1673 111.742 75.1906 111.718C75.2138 111.695 75.2453 111.682 75.2781 111.682H108.946C108.979 111.682 109.01 111.695 109.033 111.718C109.056 111.742 109.07 111.773 109.07 111.806C109.07 111.839 109.056 111.87 109.033 111.893C109.01 111.917 108.979 111.93 108.946 111.93Z" fill="white"/>
<path d="M108.946 115.659H75.2781C75.2451 115.659 75.2135 115.646 75.1902 115.623C75.1669 115.6 75.1538 115.568 75.1538 115.535C75.1538 115.502 75.1669 115.47 75.1902 115.447C75.2135 115.424 75.2451 115.411 75.2781 115.411H108.946C108.979 115.411 109.01 115.424 109.034 115.447C109.057 115.47 109.07 115.502 109.07 115.535C109.07 115.568 109.057 115.6 109.034 115.623C109.01 115.646 108.979 115.659 108.946 115.659Z" fill="white"/>
<path d="M108.946 119.387H88.9505C88.9175 119.387 88.8859 119.374 88.8626 119.351C88.8392 119.328 88.8261 119.296 88.8261 119.263C88.8261 119.23 88.8392 119.199 88.8626 119.175C88.8859 119.152 88.9175 119.139 88.9505 119.139H108.946C108.979 119.139 109.01 119.152 109.034 119.175C109.057 119.199 109.07 119.23 109.07 119.263C109.07 119.296 109.057 119.328 109.034 119.351C109.01 119.374 108.979 119.387 108.946 119.387Z" fill="white"/>
<path d="M74.6335 71.6179H107.487L112.448 75.3336V55.9428C112.448 55.1851 112.146 54.4583 111.611 53.9225C111.075 53.3867 110.348 53.0857 109.59 53.0857H74.6335C73.8757 53.0857 73.149 53.3867 72.6132 53.9225C72.0773 54.4583 71.7763 55.1851 71.7763 55.9428V68.7607C71.7763 69.5185 72.0773 70.2452 72.6132 70.781C73.149 71.3168 73.8757 71.6179 74.6335 71.6179Z" fill="#367CFF"/>
<path opacity="0.11" d="M74.6335 71.6179H107.487L112.448 75.3336V55.9428C112.448 55.1851 112.146 54.4583 111.611 53.9225C111.075 53.3867 110.348 53.0857 109.59 53.0857H74.6335C73.8757 53.0857 73.149 53.3867 72.6132 53.9225C72.0773 54.4583 71.7763 55.1851 71.7763 55.9428V68.7607C71.7763 69.5185 72.0773 70.2452 72.6132 70.781C73.149 71.3168 73.8757 71.6179 74.6335 71.6179Z" fill="white"/>
<path d="M108.946 60.7984H75.2781C75.2453 60.7984 75.2138 60.7854 75.1906 60.7621C75.1673 60.7389 75.1543 60.7074 75.1543 60.6746C75.1543 60.6418 75.1673 60.6103 75.1906 60.5871C75.2138 60.5639 75.2453 60.5508 75.2781 60.5508H108.946C108.962 60.5508 108.978 60.554 108.993 60.5602C109.008 60.5665 109.022 60.5756 109.033 60.5871C109.045 60.5986 109.054 60.6122 109.06 60.6272C109.066 60.6423 109.07 60.6584 109.07 60.6746C109.07 60.6909 109.066 60.707 109.06 60.722C109.054 60.737 109.045 60.7506 109.033 60.7621C109.022 60.7736 109.008 60.7828 108.993 60.789C108.978 60.7952 108.962 60.7984 108.946 60.7984Z" fill="white"/>
<path d="M108.946 57.2614H75.2781C75.2453 57.2614 75.2138 57.2484 75.1906 57.2252C75.1673 57.2019 75.1543 57.1705 75.1543 57.1376C75.1543 57.1048 75.1673 57.0733 75.1906 57.0501C75.2138 57.0269 75.2453 57.0138 75.2781 57.0138H108.946C108.979 57.0138 109.01 57.0269 109.033 57.0501C109.056 57.0733 109.07 57.1048 109.07 57.1376C109.07 57.1705 109.056 57.2019 109.033 57.2252C109.01 57.2484 108.979 57.2614 108.946 57.2614Z" fill="white"/>
<path d="M108.946 64.5273H75.2781C75.2451 64.5273 75.2135 64.5142 75.1902 64.4909C75.1669 64.4675 75.1538 64.4359 75.1538 64.4029C75.1538 64.37 75.1669 64.3384 75.1902 64.315C75.2135 64.2917 75.2451 64.2786 75.2781 64.2786H108.946C108.979 64.2786 109.01 64.2917 109.034 64.315C109.057 64.3384 109.07 64.37 109.07 64.4029C109.07 64.4359 109.057 64.4675 109.034 64.4909C109.01 64.5142 108.979 64.5273 108.946 64.5273Z" fill="white"/>
<path d="M108.946 68.2561H88.9505C88.9175 68.2561 88.8859 68.243 88.8626 68.2197C88.8392 68.1964 88.8261 68.1648 88.8261 68.1318C88.8261 68.0988 88.8392 68.0672 88.8626 68.0439C88.8859 68.0206 88.9175 68.0075 88.9505 68.0075H108.946C108.979 68.0075 109.01 68.0206 109.034 68.0439C109.057 68.0672 109.07 68.0988 109.07 68.1318C109.07 68.1648 109.057 68.1964 109.034 68.2197C109.01 68.243 108.979 68.2561 108.946 68.2561Z" fill="white"/>
<path d="M100.463 97.7347H61.3951L56.4341 101.451V85.2235C56.4341 84.4658 56.7351 83.739 57.271 83.2032C57.8068 82.6674 58.5335 82.3664 59.2913 82.3664H100.463C101.221 82.3664 101.947 82.6674 102.483 83.2032C103.019 83.739 103.32 84.4658 103.32 85.2235V94.8777C103.32 95.2529 103.246 95.6245 103.102 95.9711C102.959 96.3177 102.748 96.6327 102.483 96.898C102.218 97.1633 101.903 97.3737 101.556 97.5173C101.21 97.6609 100.838 97.7348 100.463 97.7347Z" fill="#367CFF"/>
<path opacity="0.49" d="M103.32 97.7347H61.3951L56.4341 101.451V82.3667H103.32V97.7347Z" fill="white"/>
<path d="M99.8182 86.5424H59.9359C59.9029 86.5424 59.8713 86.5294 59.848 86.506C59.8247 86.4827 59.8116 86.4511 59.8116 86.4181C59.8116 86.3852 59.8247 86.3535 59.848 86.3302C59.8713 86.3069 59.9029 86.2938 59.9359 86.2938H99.8182C99.8512 86.2938 99.8828 86.3069 99.9061 86.3302C99.9294 86.3535 99.9425 86.3852 99.9425 86.4181C99.9425 86.4511 99.9294 86.4827 99.9061 86.506C99.8828 86.5294 99.8512 86.5424 99.8182 86.5424Z" fill="white"/>
<path d="M99.8182 90.2714H59.9359C59.9029 90.2714 59.8713 90.2583 59.848 90.2349C59.8247 90.2116 59.8116 90.18 59.8116 90.147C59.8116 90.1141 59.8247 90.0824 59.848 90.0591C59.8713 90.0358 59.9029 90.0227 59.9359 90.0227H99.8182C99.8512 90.0227 99.8828 90.0358 99.9061 90.0591C99.9294 90.0824 99.9425 90.1141 99.9425 90.147C99.9425 90.18 99.9294 90.2116 99.9061 90.2349C99.8828 90.2583 99.8512 90.2714 99.8182 90.2714Z" fill="white"/>
<path d="M79.9312 94.0718H59.9359C59.9031 94.0718 59.8716 94.0588 59.8484 94.0356C59.8252 94.0124 59.8121 93.9809 59.8121 93.948C59.8121 93.9152 59.8252 93.8837 59.8484 93.8605C59.8716 93.8373 59.9031 93.8242 59.9359 93.8242H79.9312C79.964 93.8242 79.9955 93.8373 80.0187 93.8605C80.0419 93.8837 80.055 93.9152 80.055 93.948C80.055 93.9809 80.0419 94.0124 80.0187 94.0356C79.9955 94.0588 79.964 94.0718 79.9312 94.0718Z" fill="white"/>
<path d="M110.787 140.094H58.3443C57.6121 140.094 56.9099 139.803 56.3922 139.285C55.8745 138.768 55.5836 138.065 55.5836 137.333V134.565C55.5836 133.833 55.8745 133.131 56.3923 132.613C56.9101 132.095 57.6124 131.804 58.3446 131.804H110.787C111.519 131.804 112.221 132.095 112.739 132.613C113.257 133.131 113.548 133.833 113.548 134.565V137.333C113.548 138.065 113.257 138.768 112.739 139.286C112.221 139.803 111.519 140.094 110.787 140.094ZM58.3443 132.053C58.0143 132.053 57.6876 132.118 57.3827 132.244C57.0778 132.37 56.8008 132.556 56.5674 132.789C56.3341 133.022 56.149 133.299 56.0226 133.604C55.8963 133.909 55.8313 134.235 55.8312 134.565V137.333C55.8313 138 56.096 138.639 56.5672 139.11C57.0384 139.581 57.6774 139.846 58.3437 139.846H110.787C111.453 139.846 112.092 139.581 112.563 139.11C113.034 138.639 113.299 138 113.299 137.333V134.565C113.299 133.899 113.034 133.26 112.563 132.789C112.092 132.318 111.453 132.053 110.787 132.053H58.3443Z" fill="#367CFF"/>
<path d="M106.336 134.164L107.299 135.773L111.03 134.152L107.667 136.387L108.815 138.305L111.733 133.818L106.336 134.164Z" fill="#0CBC8B"/>
</g>
<defs>
<clipPath id="clip0_42:3526">
<rect width="150" height="158.398" fill="white"/>
</clipPath>
</defs>
</svg>
