<svg width="40" height="40" viewBox="0 0 40 40" fill="none" xmlns="http://www.w3.org/2000/svg">
<path d="M30 13.3333C32.7614 13.3333 35 11.0947 35 8.33331C35 5.57189 32.7614 3.33331 30 3.33331C27.2386 3.33331 25 5.57189 25 8.33331C25 11.0947 27.2386 13.3333 30 13.3333Z" stroke="#392B23" stroke-width="2" stroke-linecap="round" stroke-linejoin="round"/>
<path d="M10 25C12.7614 25 15 22.7614 15 20C15 17.2386 12.7614 15 10 15C7.23858 15 5 17.2386 5 20C5 22.7614 7.23858 25 10 25Z" stroke="#392B23" stroke-width="2" stroke-linecap="round" stroke-linejoin="round"/>
<path d="M30 36.6667C32.7614 36.6667 35 34.4281 35 31.6667C35 28.9053 32.7614 26.6667 30 26.6667C27.2386 26.6667 25 28.9053 25 31.6667C25 34.4281 27.2386 36.6667 30 36.6667Z" stroke="#392B23" stroke-width="2" stroke-linecap="round" stroke-linejoin="round"/>
<path d="M14.3167 22.5167L25.7 29.15" stroke="#392B23" stroke-width="2" stroke-linecap="round" stroke-linejoin="round"/>
<path d="M25.6833 10.85L14.3167 17.4833" stroke="#392B23" stroke-width="2" stroke-linecap="round" stroke-linejoin="round"/>
</svg>
