<svg width="40" height="40" viewBox="0 0 40 40" fill="none" xmlns="http://www.w3.org/2000/svg">
<path d="M19.8889 19.2222C22.8889 19.2222 25.2222 16.7778 25.2222 13.7778C25.2222 10.7778 22.7778 8.44446 19.7778 8.44446C16.7778 8.44446 14.4444 10.8889 14.4444 13.7778C14.4444 16.7778 16.8889 19.2222 19.8889 19.2222ZM19.7778 10.6667C19.8889 10.6667 19.8889 10.6667 19.7778 10.6667C21.5555 10.6667 23 12.1111 23 13.8889C23 15.6667 21.5555 17 19.7778 17C18 17 16.6667 15.5556 16.6667 13.8889C16.6667 12.1111 18.1111 10.6667 19.7778 10.6667Z" fill="#392B23"/>
<path d="M36.3333 18.5555C34.2222 16.6667 31.4445 15.6667 28.5556 15.7778H27.6667C27.4444 16.6667 27.1111 17.4444 26.6667 18.1111C27.3333 18 27.8889 18 28.5556 18C30.6667 17.8889 32.7778 18.5555 34.4444 19.7778V27.7778H36.6667V18.8889L36.3333 18.5555Z" fill="#392B23"/>
<path d="M26 8.66672C26.5556 7.33339 28.1111 6.66672 29.5556 7.22228C30.8889 7.77783 31.5556 9.33339 31 10.7778C30.5556 11.7778 29.5556 12.4445 28.5556 12.4445C28.3333 12.4445 28 12.4445 27.7778 12.3334C27.8889 12.8889 27.8889 13.4445 27.8889 13.8889V14.5556C28.1111 14.5556 28.3333 14.6667 28.5556 14.6667C31.3333 14.6667 33.5556 12.4445 33.5556 9.77783C33.5556 7.00005 31.3333 4.77783 28.6667 4.77783C26.8889 4.77783 25.3333 5.66672 24.4444 7.22228C25 7.55561 25.5556 8.00005 26 8.66672Z" fill="#392B23"/>
<path d="M13.3333 18.2222C12.8889 17.5555 12.5556 16.7778 12.3333 15.8889H11.4444C8.55556 15.7778 5.77778 16.7778 3.66667 18.5555L3.33334 18.8889V27.7778H5.55556V19.7778C7.33334 18.5555 9.33334 17.8889 11.4444 18C12.1111 18 12.7778 18.1111 13.3333 18.2222Z" fill="#392B23"/>
<path d="M11.4444 14.5556C11.6667 14.5556 11.8889 14.5556 12.1111 14.4445V13.7778C12.1111 13.2223 12.1111 12.6667 12.2222 12.2223C12 12.3334 11.6667 12.3334 11.4444 12.3334C10 12.3334 8.77778 11.1112 8.77778 9.66671C8.77778 8.22226 10 7.00004 11.4444 7.00004C12.5556 7.00004 13.5556 7.66671 14 8.66671C14.4444 8.11115 15.1111 7.5556 15.6667 7.11115C14.2222 4.77782 11.2222 4.00004 8.88889 5.44449C6.55556 6.88893 5.77778 9.88893 7.22223 12.2223C8.11112 13.6667 9.66667 14.5556 11.4444 14.5556Z" fill="#392B23"/>
<path d="M29 25.2222L28.7778 24.8889C26.5555 22.4444 23.4444 21 20.1111 21.1111C16.7778 21 13.5556 22.4444 11.3333 24.8889L11.1111 25.2222V33.6666C11.1111 34.6666 11.8889 35.5555 13 35.5555H27.2222C28.2222 35.5555 29.1111 34.6666 29.1111 33.6666V25.2222H29ZM26.7778 33.3333H13.3333V26C15.1111 24.2222 17.5556 23.3333 20.1111 23.3333C22.5556 23.2222 25 24.2222 26.7778 26V33.3333Z" fill="#392B23"/>
</svg>
