<svg width="150" height="150" viewBox="0 0 150 150" fill="none" xmlns="http://www.w3.org/2000/svg">
<path opacity="0.05" d="M137.303 22.1012H106.795C106.275 22.1012 105.854 22.5224 105.854 23.0421V44.106C105.854 44.6256 106.275 45.0469 106.795 45.0469H137.303C137.822 45.0469 138.244 44.6256 138.244 44.106V23.0421C138.244 22.5224 137.822 22.1012 137.303 22.1012Z" fill="#292A2E"/>
<path opacity="0.05" d="M119.494 29.0628C120.789 29.0628 121.838 28.0135 121.838 26.7192C121.838 25.4248 120.789 24.3755 119.494 24.3755C118.2 24.3755 117.151 25.4248 117.151 26.7192C117.151 28.0135 118.2 29.0628 119.494 29.0628Z" fill="#292A2E"/>
<path opacity="0.05" d="M120.378 37.4449L127.172 29.8657C127.596 29.3925 128.19 29.1055 128.824 29.0672C129.458 29.0288 130.082 29.2421 130.56 29.6607L138.244 36.3879V44.1095C138.244 44.3581 138.145 44.5965 137.969 44.7723C137.793 44.9481 137.555 45.0469 137.306 45.0469H128.956" fill="#292A2E"/>
<path opacity="0.1" d="M128.956 45.0469L114.224 31.9914C113.789 31.6055 113.229 31.3899 112.647 31.384C112.066 31.3782 111.501 31.5825 111.058 31.9595L105.854 36.3879V44.1992C105.854 44.3105 105.876 44.4208 105.919 44.5236C105.962 44.6265 106.024 44.72 106.103 44.7987C106.181 44.8774 106.275 44.9398 106.378 44.9824C106.481 45.025 106.591 45.0469 106.702 45.0469H128.956Z" fill="#292A2E"/>
<path opacity="0.05" d="M58.615 23.4268H31.1748C30.7075 23.4268 30.3286 23.8057 30.3286 24.273V43.2191C30.3286 43.6864 30.7075 44.0653 31.1748 44.0653H58.615C59.0824 44.0653 59.4612 43.6864 59.4612 43.2191V24.273C59.4612 23.8057 59.0824 23.4268 58.615 23.4268Z" fill="#292A2E"/>
<path opacity="0.05" d="M42.5971 29.6882C43.7613 29.6882 44.705 28.7445 44.705 27.5803C44.705 26.4161 43.7613 25.4724 42.5971 25.4724C41.4329 25.4724 40.4892 26.4161 40.4892 27.5803C40.4892 28.7445 41.4329 29.6882 42.5971 29.6882Z" fill="#292A2E"/>
<path opacity="0.05" d="M43.392 37.2276L49.5028 30.4105C49.8843 29.9849 50.4182 29.7268 50.9887 29.6923C51.5592 29.6578 52.1203 29.8496 52.5503 30.2262L59.4612 36.277V43.2212C59.4612 43.4449 59.3724 43.6593 59.2143 43.8175C59.0561 43.9756 58.8417 44.0644 58.618 44.0644H51.1075" fill="#292A2E"/>
<path opacity="0.1" d="M51.1075 44.0661L37.8567 32.3241C37.4652 31.9771 36.9615 31.7831 36.4383 31.7779C35.9151 31.7726 35.4076 31.9564 35.0092 32.2955L30.3297 36.2787V43.3044C30.3297 43.5067 30.4101 43.7006 30.5531 43.8437C30.6961 43.9867 30.89 44.067 31.0923 44.067L51.1075 44.0661Z" fill="#292A2E"/>
<path d="M22.7238 24.1554C21.1653 24.1444 19.6658 23.5576 18.5137 22.5079C17.3616 21.4581 16.6383 20.0194 16.4829 18.4686C16.3275 16.9177 16.7509 15.3642 17.6717 14.1067C18.5926 12.8491 19.9458 11.9764 21.4712 11.6564C21.0648 9.34774 21.5048 6.96992 22.7104 4.95956C23.5854 3.48083 24.8388 2.26212 26.3415 1.42898C27.8442 0.595841 29.5419 0.178405 31.2596 0.219677C32.9773 0.26095 34.653 0.759437 36.1139 1.66378C37.5749 2.56813 38.7683 3.84563 39.5713 5.36468C40.5157 4.71583 41.6593 4.42212 42.7996 4.53556C43.9398 4.64901 45.0031 5.16228 45.8013 5.98449C46.5744 6.77978 47.0577 7.81192 47.1735 8.91502C48.6198 9.01283 50.0084 9.52007 51.1773 10.3775C52.3461 11.2349 53.2469 12.4072 53.7745 13.7574C54.3021 15.1076 54.4347 16.58 54.1568 18.0027C53.8789 19.4255 53.202 20.7398 52.2052 21.7922C51.5216 22.5178 50.7004 23.1001 49.7896 23.5051C48.8787 23.9102 47.8963 24.1299 46.8996 24.1515L22.7238 24.1554Z" fill="#292A2E"/>
<path d="M20.9214 24.1554C19.3628 24.1444 17.8633 23.5576 16.7112 22.5079C15.5591 21.4581 14.8358 20.0194 14.6804 18.4686C14.525 16.9177 14.9484 15.3642 15.8693 14.1066C16.7901 12.8491 18.1433 11.9764 19.6688 11.6564C19.2622 9.34776 19.7021 6.96995 20.9077 4.95955C21.7828 3.48083 23.0362 2.26213 24.5389 1.429C26.0416 0.595867 27.7393 0.178436 29.457 0.219708C31.1747 0.26098 32.8504 0.759462 34.3114 1.6638C35.7724 2.56814 36.9658 3.84563 37.7688 5.36468C38.7133 4.71583 39.8569 4.42212 40.9971 4.53556C42.1374 4.649 43.2007 5.16227 43.9988 5.98449C44.7719 6.77984 45.2551 7.81194 45.371 8.91501C46.8173 9.01283 48.206 9.52006 49.3748 10.3775C50.5436 11.2349 51.4444 12.4072 51.972 13.7574C52.4996 15.1076 52.6322 16.58 52.3543 18.0027C52.0765 19.4255 51.3996 20.7398 50.4028 21.7922C49.7191 22.5178 48.898 23.1 47.9871 23.5051C47.0762 23.9101 46.0938 24.1299 45.0972 24.1515L20.9214 24.1554Z" fill="white"/>
<path d="M20.9214 24.372C19.1962 24.3641 17.5446 23.6722 16.3289 22.4481C15.1133 21.224 14.4328 19.5676 14.4368 17.8424C14.4187 16.3738 14.9031 14.943 15.8098 13.7875C16.7164 12.632 17.9908 11.821 19.4216 11.4892C19.071 9.19216 19.5306 6.84475 20.7214 4.84951C21.6055 3.35479 22.8681 2.11955 24.3817 1.26828C25.8954 0.417013 27.6067 -0.0201976 29.3432 0.000716601C31.0797 0.0216308 32.78 0.49993 34.2727 1.38741C35.7654 2.27488 36.9978 3.54017 37.8457 5.05575C38.8285 4.44712 39.9897 4.19253 41.137 4.33418C42.2842 4.47582 43.3487 5.00519 44.1539 5.83458C44.9172 6.62004 45.411 7.6279 45.5638 8.71246C47.0333 8.84574 48.4356 9.39005 49.6102 10.2831C50.7847 11.1762 51.6842 12.3819 52.2055 13.7622C52.7268 15.1426 52.8489 16.6418 52.5579 18.0884C52.2669 19.5349 51.5746 20.8703 50.56 21.9417C49.8567 22.688 49.0119 23.2868 48.0748 23.7034C47.1377 24.12 46.1272 24.3459 45.1019 24.3681L20.9214 24.372ZM29.227 0.434331C27.8392 0.44151 26.4696 0.751492 25.2139 1.34264C23.9582 1.93379 22.8467 2.79186 21.9569 3.85695C21.067 4.92205 20.4204 6.16851 20.0621 7.50933C19.7037 8.85015 19.6423 10.253 19.8821 11.62L19.9183 11.828L19.7114 11.8696C18.3338 12.1428 17.0953 12.8897 16.211 13.9808C15.3266 15.0718 14.8522 16.4381 14.8701 17.8424C14.866 19.4527 15.5007 20.999 16.6352 22.1418C17.7696 23.2847 19.3111 23.931 20.9214 23.9387L45.0972 23.9357C46.0644 23.9141 47.0178 23.7003 47.9016 23.3068C48.7855 22.9133 49.5823 22.3479 50.2457 21.6436C51.2141 20.6211 51.8716 19.3441 52.1416 17.9619C52.4116 16.5796 52.2828 15.1491 51.7703 13.8373C51.2579 12.5255 50.3828 11.3865 49.2474 10.5533C48.1119 9.72007 46.7629 9.22701 45.3578 9.13166L45.1745 9.12083L45.1554 8.9382C45.0444 7.88367 44.5825 6.89697 43.8437 6.13636C43.0813 5.35077 42.0655 4.86031 40.9761 4.75183C39.8868 4.64334 38.7942 4.92383 37.8919 5.54363L37.6917 5.68163L37.5775 5.46715C36.774 3.94889 35.5722 2.67817 34.101 1.79147C32.6297 0.904775 30.9448 0.435599 29.227 0.434331Z" fill="#292A2E"/>
<path d="M33.7018 20.6471C33.6443 20.6471 33.5892 20.6243 33.5486 20.5836C33.508 20.543 33.4851 20.4879 33.4851 20.4304V7.8472C33.4851 7.78974 33.508 7.73464 33.5486 7.69401C33.5892 7.65338 33.6443 7.63055 33.7018 7.63055C33.7592 7.63055 33.8143 7.65338 33.855 7.69401C33.8956 7.73464 33.9184 7.78974 33.9184 7.8472V20.4304C33.9184 20.4879 33.8956 20.543 33.855 20.5836C33.8143 20.6243 33.7592 20.6471 33.7018 20.6471Z" fill="#292A2E"/>
<path d="M38.4541 12.8159C38.4256 12.8159 38.3974 12.8104 38.3711 12.7995C38.3448 12.7886 38.321 12.7726 38.3009 12.7524L33.7018 8.15351L29.1029 12.7524C29.062 12.7919 29.0073 12.8137 28.9505 12.8132C28.8937 12.8127 28.8394 12.7899 28.7992 12.7498C28.759 12.7096 28.7363 12.6553 28.7358 12.5984C28.7353 12.5416 28.7571 12.4869 28.7966 12.4461L33.5484 7.69401C33.5899 7.6549 33.6447 7.63312 33.7017 7.63312C33.7587 7.63312 33.8135 7.6549 33.8549 7.69401L38.607 12.4461C38.6373 12.4764 38.6579 12.515 38.6663 12.557C38.6746 12.599 38.6703 12.6425 38.6539 12.6821C38.6376 12.7217 38.6098 12.7555 38.5742 12.7793C38.5386 12.8032 38.4967 12.8159 38.4538 12.8159H38.4541Z" fill="#292A2E"/>
<path opacity="0.05" d="M148.497 77.0742H101.192C100.386 77.0742 99.7333 77.7274 99.7333 78.5331V111.195C99.7333 112 100.386 112.653 101.192 112.653H148.497C149.302 112.653 149.956 112 149.956 111.195V78.5331C149.956 77.7274 149.302 77.0742 148.497 77.0742Z" fill="#292A2E"/>
<path opacity="0.05" d="M120.883 87.8689C122.89 87.8689 124.517 86.2419 124.517 84.2349C124.517 82.2279 122.89 80.601 120.883 80.601C118.876 80.601 117.249 82.2279 117.249 84.2349C117.249 86.2419 118.876 87.8689 120.883 87.8689Z" fill="#292A2E"/>
<path opacity="0.05" d="M122.253 100.866L132.788 89.1137C133.446 88.38 134.366 87.9351 135.35 87.8756C136.333 87.8161 137.301 88.1468 138.042 88.7959L149.956 99.227V111.2C149.956 111.585 149.802 111.955 149.53 112.228C149.257 112.5 148.887 112.653 148.502 112.653H135.554" fill="#292A2E"/>
<path opacity="0.1" d="M135.554 112.653L112.711 92.4097C112.036 91.8115 111.168 91.4771 110.266 91.468C109.364 91.4589 108.489 91.7758 107.802 92.3603L99.7333 99.2279V111.34C99.7333 111.512 99.7673 111.683 99.8333 111.843C99.8994 112.002 99.9962 112.147 100.118 112.269C100.24 112.391 100.385 112.488 100.545 112.554C100.704 112.62 100.875 112.654 101.048 112.654L135.554 112.653Z" fill="#292A2E"/>
<path opacity="0.05" d="M55.9858 107.988H7.9432C7.12492 107.988 6.46158 108.651 6.46158 109.469V142.64C6.46158 143.459 7.12492 144.122 7.9432 144.122H55.9858C56.8041 144.122 57.4675 143.459 57.4675 142.64V109.469C57.4675 108.651 56.8041 107.988 55.9858 107.988Z" fill="#292A2E"/>
<path opacity="0.05" d="M27.9415 118.951C29.9798 118.951 31.6322 117.298 31.6322 115.26C31.6322 113.222 29.9798 111.569 27.9415 111.569C25.9032 111.569 24.2508 113.222 24.2508 115.26C24.2508 117.298 25.9032 118.951 27.9415 118.951Z" fill="#292A2E"/>
<path opacity="0.05" d="M29.3334 132.151L40.0327 120.214C40.7007 119.469 41.6354 119.017 42.6342 118.957C43.633 118.896 44.6154 119.232 45.3682 119.891L57.4679 130.485V142.645C57.4679 142.838 57.4297 143.03 57.3555 143.21C57.2814 143.389 57.1726 143.551 57.0355 143.688C56.8985 143.826 56.7357 143.934 56.5566 144.008C56.3775 144.083 56.1856 144.121 55.9917 144.121H42.8415" fill="#292A2E"/>
<path opacity="0.1" d="M42.8415 144.122L19.6419 123.562C18.9563 122.955 18.0744 122.615 17.1584 122.606C16.2424 122.597 15.3539 122.919 14.6563 123.512L6.46158 130.485V142.786C6.46158 143.14 6.60222 143.479 6.85258 143.73C7.10293 143.98 7.44248 144.121 7.79653 144.121L42.8415 144.122Z" fill="#292A2E"/>
<path d="M130.215 145.238C130.163 145.238 130.113 145.217 130.076 145.181C129.799 144.903 129.347 139.817 128.13 124.675C127.632 118.479 127.162 112.626 126.818 109.07C126.794 108.816 126.695 108.786 126.663 108.776C126.193 108.634 124.764 109.761 123.966 110.748C123.933 110.787 123.886 110.811 123.834 110.816C123.783 110.821 123.732 110.805 123.692 110.773C123.652 110.741 123.627 110.694 123.621 110.643C123.615 110.592 123.629 110.541 123.66 110.5C124.188 109.848 125.907 108.137 126.776 108.399C126.951 108.451 127.169 108.604 127.209 109.031C127.553 112.591 128.023 118.445 128.522 124.642C129.261 133.844 130.099 144.269 130.374 144.926C130.395 144.955 130.408 144.99 130.411 145.026C130.413 145.062 130.406 145.098 130.389 145.13C130.373 145.163 130.348 145.19 130.317 145.208C130.286 145.227 130.251 145.237 130.215 145.237L130.215 145.238Z" fill="#494949"/>
<path d="M126.313 115.597C129.578 112.98 130.66 108.907 128.73 106.499C126.8 104.091 122.589 104.261 119.324 106.878C116.059 109.495 114.977 113.568 116.907 115.976C118.837 118.384 123.048 118.214 126.313 115.597Z" fill="#0CBC8B"/>
<path opacity="0.2" d="M126.313 115.597C129.578 112.98 130.66 108.907 128.73 106.499C126.8 104.091 122.589 104.261 119.324 106.878C116.059 109.495 114.977 113.568 116.907 115.976C118.837 118.384 123.048 118.214 126.313 115.597Z" fill="white"/>
<path d="M117.822 116.588C117.803 116.588 117.785 116.583 117.769 116.573C117.753 116.563 117.741 116.548 117.733 116.531C117.725 116.514 117.722 116.496 117.724 116.477C117.727 116.459 117.734 116.441 117.746 116.427L127.051 105.206C127.068 105.186 127.092 105.174 127.118 105.171C127.144 105.169 127.169 105.177 127.19 105.193C127.21 105.21 127.222 105.234 127.225 105.26C127.227 105.286 127.219 105.312 127.203 105.332L117.897 116.553C117.888 116.564 117.876 116.573 117.863 116.579C117.85 116.585 117.836 116.588 117.822 116.588Z" fill="white"/>
<path d="M132.245 142.833C132.223 142.833 132.201 142.83 132.18 142.822C132.13 142.805 132.09 142.769 132.067 142.722C132.045 142.675 132.041 142.621 132.059 142.572L135.553 132.521C135.656 132.226 135.831 131.961 136.063 131.751C136.295 131.541 136.576 131.393 136.88 131.319C137.184 131.246 137.501 131.25 137.803 131.332C138.105 131.413 138.382 131.569 138.608 131.785L140.456 133.55C140.474 133.568 140.489 133.589 140.5 133.613C140.51 133.636 140.516 133.662 140.516 133.687C140.517 133.713 140.512 133.739 140.503 133.763C140.494 133.787 140.48 133.809 140.462 133.828C140.444 133.847 140.423 133.862 140.399 133.872C140.375 133.882 140.35 133.888 140.324 133.889C140.298 133.889 140.273 133.885 140.249 133.875C140.224 133.866 140.202 133.852 140.184 133.834L138.336 132.069C138.157 131.899 137.939 131.776 137.701 131.711C137.462 131.647 137.211 131.644 136.971 131.702C136.731 131.76 136.51 131.877 136.327 132.043C136.144 132.209 136.005 132.418 135.924 132.651L132.429 142.703C132.416 142.741 132.39 142.774 132.357 142.798C132.324 142.821 132.285 142.833 132.245 142.833Z" fill="#494949"/>
<path d="M145.619 139.113C148.039 137.198 147.895 132.986 145.298 129.705C142.701 126.424 138.634 125.317 136.215 127.232C133.795 129.147 133.939 133.36 136.536 136.64C139.133 139.921 143.2 141.028 145.619 139.113Z" fill="#0CBC8B"/>
<path d="M128.627 144.598C128.583 144.598 128.54 144.583 128.506 144.555C128.471 144.528 128.446 144.489 128.436 144.446L122.571 119.922C122.531 119.755 122.446 119.602 122.325 119.48C122.203 119.358 122.051 119.272 121.884 119.232C121.717 119.191 121.542 119.197 121.378 119.249C121.214 119.301 121.068 119.398 120.955 119.528L119.147 121.617C119.113 121.657 119.065 121.681 119.013 121.685C118.961 121.689 118.909 121.672 118.87 121.637C118.83 121.603 118.806 121.555 118.802 121.503C118.798 121.451 118.816 121.399 118.85 121.36L120.658 119.271C120.817 119.086 121.025 118.949 121.258 118.874C121.491 118.8 121.74 118.791 121.977 118.849C122.214 118.907 122.431 119.029 122.604 119.203C122.776 119.376 122.897 119.593 122.954 119.831L128.819 144.355C128.826 144.384 128.826 144.414 128.82 144.443C128.813 144.472 128.801 144.499 128.782 144.522C128.764 144.546 128.74 144.565 128.713 144.578C128.687 144.59 128.657 144.597 128.628 144.597L128.627 144.598Z" fill="#494949"/>
<path d="M126.464 127.067C127.177 122.944 125.29 119.175 122.249 118.649C119.209 118.124 116.166 121.04 115.453 125.163C114.74 129.286 116.627 133.054 119.668 133.58C122.708 134.106 125.751 131.19 126.464 127.067Z" fill="#0CBC8B"/>
<path d="M130.216 145.238C130.208 145.238 130.199 145.238 130.191 145.237C130.14 145.23 130.092 145.204 130.06 145.163C130.028 145.121 130.014 145.069 130.02 145.017L133.765 114.608C133.806 114.277 133.942 113.965 134.156 113.709C134.37 113.453 134.654 113.265 134.972 113.166C135.291 113.067 135.632 113.062 135.953 113.152C136.274 113.243 136.563 113.423 136.784 113.673L141.065 118.522C141.083 118.541 141.097 118.564 141.106 118.588C141.115 118.613 141.119 118.639 141.117 118.666C141.116 118.692 141.11 118.718 141.098 118.741C141.087 118.765 141.071 118.786 141.051 118.804C141.031 118.821 141.008 118.834 140.983 118.843C140.958 118.851 140.932 118.854 140.906 118.852C140.879 118.85 140.854 118.843 140.83 118.831C140.807 118.819 140.786 118.802 140.77 118.782L136.489 113.933C136.318 113.74 136.095 113.6 135.847 113.53C135.598 113.461 135.335 113.464 135.089 113.541C134.842 113.617 134.623 113.763 134.458 113.961C134.292 114.158 134.187 114.4 134.156 114.656L130.411 145.066C130.405 145.114 130.382 145.157 130.346 145.189C130.31 145.221 130.264 145.238 130.216 145.238Z" fill="#494949"/>
<path d="M145.455 121.217C146.949 118.517 145.191 114.686 141.53 112.661C137.869 110.635 133.69 111.182 132.196 113.883C130.702 116.583 132.46 120.414 136.121 122.439C139.783 124.464 143.962 123.917 145.455 121.217Z" fill="#0CBC8B"/>
<path opacity="0.2" d="M145.619 139.113C148.039 137.198 147.895 132.986 145.298 129.705C142.701 126.424 138.634 125.317 136.215 127.232C133.795 129.147 133.939 133.36 136.536 136.64C139.133 139.921 143.2 141.028 145.619 139.113Z" fill="white"/>
<path opacity="0.5" d="M126.464 127.067C127.177 122.944 125.29 119.175 122.249 118.649C119.209 118.124 116.166 121.04 115.453 125.163C114.74 129.286 116.627 133.054 119.668 133.58C122.708 134.106 125.751 131.19 126.464 127.067Z" fill="white"/>
<path opacity="0.5" d="M145.455 121.217C146.949 118.517 145.191 114.686 141.53 112.661C137.869 110.635 133.69 111.182 132.196 113.883C130.702 116.583 132.46 120.414 136.121 122.439C139.783 124.464 143.962 123.917 145.455 121.217Z" fill="white"/>
<path d="M135.006 171.041H125.425L123.837 140.387H136.593L135.006 171.041Z" fill="#292A2E"/>
<path opacity="0.3" d="M135.006 171.041H125.425L123.837 140.387H136.593L135.006 171.041Z" fill="white"/>
<path d="M145.619 139.211C145.604 139.211 145.59 139.207 145.576 139.201C145.563 139.194 145.551 139.185 145.542 139.173L136.138 127.292C136.13 127.282 136.124 127.271 136.121 127.258C136.117 127.246 136.116 127.233 136.118 127.22C136.119 127.207 136.123 127.195 136.129 127.183C136.136 127.172 136.144 127.162 136.154 127.154C136.164 127.146 136.176 127.14 136.188 127.137C136.201 127.133 136.214 127.132 136.227 127.134C136.239 127.135 136.252 127.139 136.263 127.145C136.274 127.152 136.284 127.16 136.292 127.17L145.697 139.051C145.708 139.066 145.716 139.083 145.718 139.101C145.72 139.12 145.717 139.139 145.709 139.155C145.7 139.172 145.688 139.186 145.672 139.196C145.656 139.206 145.638 139.211 145.62 139.211H145.619Z" fill="white"/>
<path d="M144.83 122.169C144.809 122.169 144.789 122.162 144.772 122.15L132.737 113.363C132.726 113.355 132.718 113.345 132.711 113.334C132.704 113.323 132.7 113.311 132.698 113.298C132.696 113.285 132.696 113.272 132.699 113.26C132.702 113.247 132.708 113.235 132.716 113.225C132.723 113.215 132.733 113.206 132.744 113.199C132.755 113.192 132.767 113.188 132.78 113.186C132.793 113.184 132.806 113.184 132.818 113.188C132.831 113.191 132.843 113.196 132.853 113.204L144.888 121.991C144.904 122.003 144.917 122.02 144.923 122.04C144.93 122.06 144.93 122.081 144.923 122.101C144.917 122.121 144.904 122.138 144.887 122.15C144.87 122.162 144.85 122.169 144.829 122.169H144.83Z" fill="white"/>
<path d="M119.179 133.453C119.17 133.453 119.162 133.452 119.153 133.45C119.128 133.443 119.107 133.426 119.093 133.404C119.08 133.381 119.077 133.354 119.084 133.329L122.915 118.976C122.918 118.963 122.923 118.951 122.931 118.94C122.939 118.93 122.949 118.921 122.96 118.914C122.971 118.907 122.984 118.903 122.997 118.901C123.01 118.899 123.023 118.9 123.036 118.904C123.048 118.907 123.06 118.913 123.071 118.921C123.081 118.929 123.09 118.939 123.096 118.95C123.102 118.962 123.106 118.975 123.108 118.988C123.109 119.001 123.108 119.014 123.105 119.026L119.274 133.38C119.268 133.401 119.256 133.419 119.239 133.432C119.221 133.446 119.2 133.453 119.179 133.453Z" fill="white"/>
<path d="M108.641 10.2346H53.6097C49.0571 10.2346 45.3665 13.9252 45.3665 18.4778V147.845C45.3665 152.397 49.0571 156.088 53.6097 156.088H108.641C113.194 156.088 116.884 152.397 116.884 147.845V18.4778C116.884 13.9252 113.194 10.2346 108.641 10.2346Z" fill="#292A2E"/>
<path d="M108.616 12.8085H53.6355C50.5094 12.8085 47.9753 15.3427 47.9753 18.4688V147.661C47.9753 150.787 50.5094 153.321 53.6355 153.321H108.616C111.742 153.321 114.276 150.787 114.276 147.661V18.4688C114.276 15.3427 111.742 12.8085 108.616 12.8085Z" fill="white"/>
<path d="M67.5468 11.7444H94.7044V14.5545C94.7042 15.3603 94.3839 16.133 93.814 16.7027C93.2442 17.2724 92.4714 17.5924 91.6656 17.5924H70.5862C69.7803 17.5924 69.0074 17.2723 68.4375 16.7024C67.8676 16.1325 67.5474 15.3595 67.5474 14.5536V11.7444H67.5468Z" fill="#292A2E"/>
<path d="M91.6749 39.3297H70.5763C67.8706 39.3297 65.6771 41.5231 65.6771 44.2288V65.3274C65.6771 68.0332 67.8706 70.2266 70.5763 70.2266H91.6749C94.3806 70.2266 96.574 68.0332 96.574 65.3274V44.2288C96.574 41.5231 94.3806 39.3297 91.6749 39.3297Z" fill="white"/>
<path d="M91.6747 70.4432H70.5763C69.2199 70.4417 67.9196 69.9023 66.9605 68.9432C66.0014 67.9841 65.462 66.6838 65.4605 65.3274V44.2288C65.462 42.8725 66.0015 41.5722 66.9606 40.6131C67.9196 39.6541 69.22 39.1146 70.5763 39.113H91.6747C93.031 39.1146 94.3313 39.6541 95.2904 40.6131C96.2494 41.5722 96.7889 42.8725 96.7905 44.2288V65.3274C96.789 66.6838 96.2495 67.9841 95.2904 68.9432C94.3314 69.9023 93.031 70.4417 91.6747 70.4432ZM70.5763 39.5463C69.3348 39.5478 68.1447 40.0416 67.2668 40.9194C66.389 41.7972 65.8952 42.9874 65.8938 44.2288V65.3274C65.8952 66.5689 66.389 67.7591 67.2668 68.6369C68.1447 69.5147 69.3348 70.0085 70.5763 70.0099H91.6747C92.9161 70.0086 94.1063 69.5148 94.9842 68.6369C95.862 67.7591 96.3558 66.5689 96.3572 65.3274V44.2288C96.3558 42.9874 95.862 41.7972 94.9842 40.9193C94.1063 40.0415 92.9161 39.5477 91.6747 39.5463H70.5763Z" fill="#292A2E"/>
<path opacity="0.6" d="M90.2721 95.4986V99.5368H60.4339C59.8984 99.5368 59.3849 99.3241 59.0062 98.9454C58.6276 98.5668 58.4148 98.0532 58.4148 97.5177C58.4148 96.9822 58.6276 96.4686 59.0062 96.09C59.3849 95.7113 59.8984 95.4986 60.4339 95.4986H90.2721Z" fill="#367CFF"/>
<path d="M101.817 99.7539H60.4346C60.1391 99.7568 59.8459 99.7011 59.5721 99.59C59.2983 99.479 59.0491 99.3147 58.8392 99.1068C58.6292 98.8989 58.4625 98.6514 58.3487 98.3786C58.235 98.1059 58.1764 97.8133 58.1764 97.5178C58.1764 97.2223 58.235 96.9297 58.3487 96.657C58.4625 96.3842 58.6292 96.1367 58.8392 95.9288C59.0491 95.7209 59.2983 95.5566 59.5721 95.4456C59.8459 95.3345 60.1391 95.2788 60.4346 95.2817H101.817C102.406 95.2875 102.969 95.5257 103.384 95.9444C103.798 96.3631 104.031 96.9285 104.031 97.5178C104.031 98.1071 103.798 98.6725 103.384 99.0912C102.969 99.5099 102.406 99.7481 101.817 99.7539ZM60.4346 95.715C60.1962 95.7124 59.9596 95.7571 59.7386 95.8465C59.5176 95.936 59.3165 96.0683 59.147 96.236C58.9775 96.4037 58.8429 96.6033 58.7511 96.8233C58.6592 97.0433 58.6119 97.2794 58.6119 97.5178C58.6119 97.7562 58.6592 97.9923 58.7511 98.2123C58.8429 98.4323 58.9775 98.6319 59.147 98.7996C59.3165 98.9673 59.5176 99.0997 59.7386 99.1891C59.9596 99.2785 60.1962 99.3232 60.4346 99.3206H101.817C102.291 99.3154 102.745 99.1232 103.079 98.7856C103.412 98.4481 103.6 97.9925 103.6 97.5178C103.6 97.0431 103.412 96.5875 103.079 96.25C102.745 95.9124 102.291 95.7202 101.817 95.715H60.4346Z" fill="#292A2E"/>
<path opacity="0.8" d="M95.5918 113.308H66.6594C64.9545 113.308 63.5724 114.69 63.5724 116.395V124.683C63.5724 126.388 64.9545 127.77 66.6594 127.77H95.5918C97.2967 127.77 98.6787 126.388 98.6787 124.683V116.395C98.6787 114.69 97.2967 113.308 95.5918 113.308Z" fill="#367CFF"/>
<path d="M98.6778 124.684V126.104C98.6778 126.923 98.3527 127.708 97.7739 128.287C97.1951 128.865 96.4101 129.191 95.5916 129.191H66.6592C65.8406 129.191 65.0556 128.865 64.4768 128.287C63.898 127.708 63.5729 126.923 63.5729 126.104V124.684C63.5729 125.503 63.898 126.288 64.4768 126.866C65.0556 127.445 65.8406 127.77 66.6592 127.77H95.5916C96.4101 127.77 97.1951 127.445 97.7738 126.866C98.3526 126.288 98.6778 125.503 98.6778 124.684Z" fill="#367CFF"/>
<path d="M79.1967 124.812C79.0757 124.812 78.9586 124.768 78.8668 124.69L75.5552 121.852C75.5046 121.808 75.463 121.755 75.4329 121.696C75.4027 121.637 75.3846 121.572 75.3795 121.505C75.3743 121.439 75.3824 121.372 75.403 121.309C75.4237 121.246 75.4567 121.187 75.5 121.136C75.5434 121.086 75.5963 121.044 75.6557 121.014C75.7151 120.984 75.7798 120.966 75.8462 120.961C75.9126 120.956 75.9794 120.964 76.0427 120.984C76.1061 121.005 76.1647 121.038 76.2153 121.081L79.1538 123.6L85.9915 116.118C86.0364 116.069 86.0906 116.029 86.1509 116.001C86.2113 115.973 86.2766 115.957 86.3431 115.954C86.4096 115.951 86.4761 115.961 86.5387 115.984C86.6013 116.006 86.6589 116.041 86.708 116.086C86.7572 116.131 86.797 116.185 86.8252 116.246C86.8535 116.306 86.8695 116.371 86.8725 116.438C86.8755 116.504 86.8653 116.571 86.8426 116.633C86.8199 116.696 86.7851 116.754 86.7402 116.803L79.5713 124.647C79.5238 124.699 79.4659 124.74 79.4014 124.769C79.3369 124.797 79.2672 124.812 79.1967 124.812Z" fill="white"/>
<path d="M81.1255 62.5373C81.068 62.5373 81.0129 62.5145 80.9723 62.4739C80.9317 62.4332 80.9088 62.3781 80.9088 62.3207V47.2356C80.9088 47.1782 80.9317 47.1231 80.9723 47.0824C81.0129 47.0418 81.068 47.019 81.1255 47.019C81.1829 47.019 81.238 47.0418 81.2787 47.0824C81.3193 47.1231 81.3421 47.1782 81.3421 47.2356V62.3207C81.3421 62.3781 81.3193 62.4332 81.2787 62.4739C81.238 62.5145 81.1829 62.5373 81.1255 62.5373Z" fill="#292A2E"/>
<path d="M88.6681 54.9949H73.5831C73.5256 54.9949 73.4705 54.9721 73.4299 54.9314C73.3892 54.8908 73.3664 54.8357 73.3664 54.7783C73.3664 54.7208 73.3892 54.6657 73.4299 54.6251C73.4705 54.5844 73.5256 54.5616 73.5831 54.5616H88.6681C88.7256 54.5616 88.7807 54.5844 88.8213 54.6251C88.8619 54.6657 88.8847 54.7208 88.8847 54.7783C88.8847 54.8357 88.8619 54.8908 88.8213 54.9314C88.7807 54.9721 88.7256 54.9949 88.6681 54.9949Z" fill="#292A2E"/>
<path d="M36.9995 64.4875L39.4177 60.7259C39.4708 60.6433 39.5406 60.5726 39.6225 60.5184C39.7045 60.4641 39.7969 60.4276 39.8937 60.411C39.9906 60.3945 40.0898 60.3982 40.1852 60.4221C40.2805 60.446 40.3698 60.4895 40.4474 60.5498C40.5871 60.6656 40.6789 60.8292 40.7049 61.0088C40.7309 61.1884 40.6893 61.3712 40.5882 61.5219L40.0698 62.3287L42.8645 60.5403C43.1717 60.336 43.6793 60.2818 43.8857 60.6417C43.9742 60.7749 44.0149 60.9343 44.0012 61.0936C43.9876 61.253 43.9203 61.4031 43.8103 61.5193C43.8129 61.5216 43.8152 61.5242 43.8173 61.5271C43.8186 61.5296 43.8196 61.5322 43.8203 61.5349L44.2943 61.2199C44.3821 61.1616 44.4818 61.1236 44.5861 61.1087C44.6904 61.0938 44.7968 61.1024 44.8974 61.1338C44.9979 61.1653 45.0903 61.2187 45.1675 61.2904C45.2448 61.362 45.3052 61.45 45.3442 61.5479C45.4025 61.7033 45.4056 61.874 45.3531 62.0315C45.3007 62.1889 45.1957 62.3236 45.0558 62.4129L44.8541 62.547C44.8555 62.5546 44.8555 62.5624 44.8541 62.57C45.0113 62.5111 45.1844 62.51 45.3424 62.567C45.5003 62.6239 45.6329 62.7352 45.7163 62.8809C45.8029 63.043 45.8252 63.2319 45.7788 63.4097C45.7323 63.5875 45.6205 63.7413 45.4657 63.8404L44.9648 64.1732C44.9752 64.1734 44.9854 64.1762 44.9945 64.1812C45.0037 64.1862 45.0114 64.1933 45.0172 64.202C45.0238 64.2125 45.027 64.2247 45.0266 64.2371C45.1811 64.2235 45.3359 64.261 45.4671 64.344C45.5982 64.4269 45.6985 64.5507 45.7525 64.6961C45.8061 64.8502 45.8062 65.0178 45.7526 65.1718C45.6991 65.3258 45.5952 65.4573 45.4577 65.545L41.2318 68.3537C40.6407 68.7467 39.9456 68.9542 39.2357 68.9495C38.5258 68.9448 37.8335 68.7283 37.2476 68.3275C36.7425 67.9819 36.392 67.453 36.2706 66.8531C36.1493 66.2532 36.2666 65.6297 36.5976 65.1149L36.9995 64.4875Z" fill="#E98862"/>
<g opacity="0.2">
<path opacity="0.2" d="M41.0538 63.3027C41.0632 63.3169 41.078 63.3268 41.0947 63.3303C41.1115 63.3337 41.1289 63.3304 41.1432 63.3211L43.799 61.617C43.8136 61.6076 43.8239 61.5929 43.8275 61.5759C43.8312 61.559 43.828 61.5413 43.8187 61.5268C43.8093 61.5122 43.7945 61.502 43.7776 61.4983C43.7607 61.4946 43.743 61.4978 43.7284 61.5072L41.0726 63.2113C41.0654 63.2159 41.0591 63.2219 41.0542 63.2289C41.0493 63.2359 41.0458 63.2439 41.044 63.2522C41.0422 63.2606 41.042 63.2693 41.0435 63.2777C41.045 63.2861 41.0482 63.2942 41.0529 63.3014L41.0538 63.3027Z" fill="#0C0C0C"/>
</g>
<g opacity="0.2">
<path opacity="0.2" d="M41.7722 64.4955C41.7816 64.5098 41.7964 64.5197 41.8131 64.5231C41.8299 64.5266 41.8473 64.5233 41.8616 64.514L44.8255 62.6108C44.8328 62.6061 44.8391 62.6002 44.844 62.5931C44.8489 62.5861 44.8524 62.5781 44.8542 62.5697C44.8561 62.5613 44.8562 62.5526 44.8547 62.5442C44.8531 62.5357 44.8499 62.5276 44.8452 62.5204C44.8354 62.5063 44.8207 62.4965 44.8039 62.4929C44.7871 62.4893 44.7696 62.4921 44.7549 62.5009L41.7904 64.4032C41.7831 64.4079 41.7768 64.4139 41.7719 64.4209C41.7669 64.4279 41.7635 64.4359 41.7616 64.4443C41.7598 64.4527 41.7596 64.4614 41.7612 64.4699C41.7627 64.4783 41.766 64.4864 41.7706 64.4936L41.7722 64.4955Z" fill="#0C0C0C"/>
</g>
<g opacity="0.2">
<path opacity="0.2" d="M42.5438 65.7904C42.5533 65.8046 42.568 65.8144 42.5847 65.8179C42.6014 65.8213 42.6188 65.8181 42.6331 65.8088L44.9975 64.2923C45.0121 64.283 45.0224 64.2682 45.026 64.2513C45.0297 64.2344 45.0265 64.2167 45.0171 64.2021C45.0078 64.1875 44.993 64.1773 44.9761 64.1736C44.9592 64.1699 44.9415 64.1731 44.9269 64.1825L42.5625 65.699C42.5552 65.7036 42.549 65.7096 42.5441 65.7167C42.5391 65.7237 42.5357 65.7317 42.5339 65.7401C42.5321 65.7485 42.5319 65.7572 42.5335 65.7656C42.5351 65.7741 42.5383 65.7821 42.543 65.7893L42.5438 65.7904Z" fill="#0C0C0C"/>
</g>
<path d="M16.1288 58.3862L27.3186 76.3578L20.2892 75.2146L36.6471 62.5754L42.6078 70.2898L26.2499 82.929C25.7437 83.3202 25.1654 83.6078 24.5479 83.7755C23.9305 83.9432 23.2861 83.9876 22.6516 83.9062C22.017 83.8248 21.4046 83.6193 20.8495 83.3012C20.2944 82.9832 19.8073 82.5589 19.4162 82.0527C19.3873 82.0148 19.3584 81.9766 19.3295 81.9381L19.2199 81.7864L6.84808 64.6067L16.1288 58.3862Z" fill="#367CFF"/>
<path d="M8.3598 87.0136C8.3598 87.0136 8.40681 85.7584 8.39685 88.6057C8.3598 99.2259 8.17544 111.357 7.72526 118.455C7.00145 129.867 5.14548 165.845 5.14548 165.845L14.9624 165.763L24.4774 86.582L8.3598 87.0136Z" fill="#262626"/>
<path d="M19.4458 99.5372C19.4458 99.5372 19.8527 107.244 19.9281 109.054C20.1027 113.238 20.1631 117.571 20.1631 122.483L21.7106 109.605C21.7106 109.605 20.5782 105.571 19.4458 99.5372Z" fill="#0A0A0A"/>
<path d="M35.1979 87.8381C35.1979 87.8381 36.0675 124.136 35.9401 125.91L32.2893 165.57L22.6346 165.748L23.5755 124.475C23.5755 124.475 22.9117 113.09 20.161 102.518C18.7536 97.0926 17.9065 91.5367 17.6332 85.9379L35.1979 87.8381Z" fill="#262626"/>
<path d="M8.25408 87.0125L8.22202 87.0142C8.22202 87.0142 8.24433 86.3951 8.25408 87.0125Z" fill="#333333"/>
<path d="M36.5799 67.6906C36.3775 70.0691 35.3927 84.9084 35.1979 87.8383H8.37064C8.21899 85.1953 7.53874 73.6417 6.96398 68.4746C6.41545 63.5438 6.34114 60.9918 7.13015 59.5342C8.41939 57.1511 10.9398 55.8582 13.3419 55.533C14.8088 55.3346 17.0149 55.1922 17.0149 55.1922C17.0149 55.1922 17.2014 58.9711 21.6556 59.1811C27.7188 59.467 27.3141 55.192 27.344 55.192C28.3262 55.192 33.2852 55.6543 34.5499 56.6275C37.2528 58.7066 37.0097 62.6502 36.5799 67.6906Z" fill="#367CFF"/>
<path d="M29.8031 55.3285C29.7749 55.3248 29.0015 58.2378 22.9598 57.7846C18.7775 57.4713 17.7578 54.6244 17.6618 54.6244C18.1129 54.5287 18.8451 54.4295 19.0453 54.3222C19.3913 54.1628 19.6958 53.9257 19.9352 53.6293C20.1745 53.3328 20.3422 52.9852 20.4251 52.6133C20.614 51.8904 20.7102 49.1074 20.7102 47.7112L27.1453 49.1572C27.0556 50.7322 26.4278 54.3837 28.6285 55.03C28.9948 55.1366 29.3891 55.2351 29.8031 55.3285Z" fill="#E98862"/>
<path d="M26.923 52.2537C24.3859 52.4539 21.1268 51.3828 20.5078 47.998L19.9493 44.9433C19.3301 41.5585 20.6062 38.4893 23.7932 37.9066C26.9802 37.3236 29.8642 39.6319 30.4831 43.0167L30.7305 44.369C30.968 45.6693 31.4496 51.8967 26.923 52.2537Z" fill="#E98862"/>
<path d="M29.2754 49.146C28.8204 46.8578 28.6111 45.3313 28.6354 43.7206C29.2769 42.5956 29.1081 41.3042 28.9623 40.7463C29.4041 41.0268 29.9234 41.16 30.4457 41.1265C30.4457 41.1265 29.3841 36.8693 25.7794 35.7237C25.1165 35.4656 23.4236 35.1398 21.176 35.4481C19.2641 35.7102 14.5517 37.1396 13.8783 42.4456V42.4487C13.8567 42.6246 13.4037 47.5129 12.5016 49.8579C11.2884 53.0107 9.58644 53.9903 9.62956 57.628C9.68458 62.2652 20.96 62.7496 23.4756 62.5798C28.6642 62.2297 31.5605 60.5238 31.598 57.1518C31.6396 53.3731 30.1866 53.7241 29.2754 49.146Z" fill="#0A0A0A"/>
<path d="M72.7293 33.651H37.9187C37.3259 33.651 36.8453 34.1316 36.8453 34.7245V63.2589C36.8453 63.8518 37.3259 64.3324 37.9187 64.3324H72.7293C73.3222 64.3324 73.8028 63.8518 73.8028 63.2589V34.7245C73.8028 34.1316 73.3222 33.651 72.7293 33.651Z" fill="#367CFF"/>
<path opacity="0.3" d="M72.7293 33.651H37.9187C37.3259 33.651 36.8453 34.1316 36.8453 34.7245V63.2589C36.8453 63.8518 37.3259 64.3324 37.9187 64.3324H72.7293C73.3222 64.3324 73.8028 63.8518 73.8028 63.2589V34.7245C73.8028 34.1316 73.3222 33.651 72.7293 33.651Z" fill="white"/>
<path opacity="0.8" d="M49.7348 45.8296C51.2118 45.8296 52.4091 44.6323 52.4091 43.1554C52.4091 41.6784 51.2118 40.4811 49.7348 40.4811C48.2579 40.4811 47.0606 41.6784 47.0606 43.1554C47.0606 44.6323 48.2579 45.8296 49.7348 45.8296Z" fill="white"/>
<path opacity="0.5" d="M53.4171 55.6585L61.1695 47.0101C61.6534 46.47 62.3309 46.1426 63.0547 46.0988C63.7786 46.0551 64.4906 46.2985 65.0361 46.7763L73.8034 54.4524V64.3326H63.2052" fill="white"/>
<path opacity="0.8" d="M63.2053 64.3326L46.3953 49.4356C45.8986 48.9954 45.2596 48.7494 44.596 48.7427C43.9323 48.736 43.2885 48.9691 42.783 49.3992L36.8453 54.4524V64.3326" fill="white"/>
<path d="M72.7291 64.4955H37.9187C37.5914 64.4949 37.2777 64.3646 37.0462 64.1331C36.8148 63.9017 36.6845 63.588 36.6839 63.2607V34.7245C36.6843 34.397 36.8145 34.0831 37.0459 33.8514C37.2774 33.6197 37.5913 33.4892 37.9187 33.4886H72.7291C73.0568 33.489 73.3709 33.6193 73.6026 33.851C73.8344 34.0827 73.9648 34.3968 73.9652 34.7245V63.2589C73.965 63.5867 73.8347 63.9011 73.6029 64.1329C73.3712 64.3648 73.0569 64.4952 72.7291 64.4955ZM37.9187 33.8135C37.6774 33.8141 37.4461 33.9103 37.2756 34.081C37.105 34.2518 37.0091 34.4832 37.0088 34.7245V63.2589C37.0093 63.5001 37.1054 63.7312 37.2759 63.9018C37.4464 64.0723 37.6776 64.1683 37.9187 64.1688H72.7291C72.9704 64.1686 73.2019 64.0727 73.3727 63.9021C73.5435 63.7316 73.6397 63.5003 73.6403 63.2589V34.7245C73.6399 34.483 73.5438 34.2514 73.373 34.0806C73.2022 33.9099 72.9706 33.8138 72.7291 33.8135H37.9187Z" fill="#292A2E"/>
<path d="M58.2441 64.4875L60.6623 60.7259C60.7154 60.6433 60.7852 60.5726 60.8672 60.5184C60.9491 60.4641 61.0415 60.4276 61.1384 60.411C61.2352 60.3945 61.3345 60.3982 61.4298 60.4221C61.5251 60.446 61.6144 60.4895 61.692 60.5498C61.8318 60.6656 61.9236 60.8291 61.9496 61.0087C61.9757 61.1883 61.9341 61.3712 61.833 61.5219L61.3144 62.3287L64.1091 60.5403C64.4163 60.336 64.9241 60.2818 65.1303 60.6417C65.2188 60.7749 65.2596 60.9343 65.2459 61.0936C65.2322 61.253 65.1649 61.4031 65.055 61.5193C65.0576 61.5217 65.06 61.5243 65.0621 61.5271C65.0633 61.5296 65.0642 61.5322 65.0649 61.5349L65.5389 61.2199C65.6267 61.1616 65.7264 61.1236 65.8307 61.1087C65.9351 61.0938 66.0414 61.1024 66.142 61.1338C66.2426 61.1653 66.3349 61.2187 66.4122 61.2904C66.4895 61.362 66.5498 61.45 66.5888 61.5479C66.6471 61.7033 66.6503 61.874 66.5978 62.0315C66.5453 62.1889 66.4403 62.3236 66.3004 62.4129L66.0987 62.547C66.1 62.5546 66.1 62.5624 66.0987 62.57C66.2559 62.5111 66.429 62.51 66.5869 62.567C66.7448 62.6239 66.8773 62.7352 66.9608 62.8809C67.0474 63.043 67.0697 63.2319 67.0232 63.4097C66.9767 63.5875 66.8649 63.7413 66.7101 63.8404L66.2092 64.1732C66.2196 64.1734 66.2298 64.1762 66.2389 64.1812C66.2481 64.1862 66.2559 64.1933 66.2617 64.202C66.2682 64.2125 66.2714 64.2247 66.271 64.2371C66.4256 64.2235 66.5803 64.261 66.7115 64.344C66.8427 64.4269 66.9429 64.5507 66.9969 64.6961C67.0506 64.8502 67.0507 65.0178 66.9972 65.1718C66.9437 65.3259 66.8397 65.4574 66.7021 65.545L62.4763 68.3537C61.8851 68.7467 61.19 68.9542 60.4801 68.9495C59.7702 68.9448 59.0779 68.7283 58.492 68.3275C57.9869 67.9819 57.6364 67.453 57.5151 66.8531C57.3937 66.2532 57.511 65.6297 57.8421 65.1149L58.2441 64.4875Z" fill="#E98862"/>
<g opacity="0.2">
<path opacity="0.2" d="M62.2975 63.3027C62.307 63.3169 62.3217 63.3268 62.3385 63.3303C62.3552 63.3337 62.3727 63.3304 62.387 63.3211L65.0428 61.617C65.05 61.6124 65.0563 61.6064 65.0612 61.5993C65.066 61.5923 65.0695 61.5843 65.0713 61.5759C65.0731 61.5676 65.0733 61.5589 65.0718 61.5505C65.0702 61.542 65.0671 61.534 65.0624 61.5268C65.0578 61.5196 65.0518 61.5133 65.0447 61.5084C65.0377 61.5036 65.0298 61.5001 65.0214 61.4983C65.013 61.4965 65.0043 61.4963 64.9959 61.4978C64.9875 61.4994 64.9794 61.5025 64.9722 61.5072L62.3164 63.2113C62.3091 63.2159 62.3029 63.2219 62.298 63.2289C62.2931 63.2359 62.2896 63.2439 62.2878 63.2522C62.2859 63.2606 62.2858 63.2693 62.2873 63.2777C62.2888 63.2862 62.292 63.2942 62.2967 63.3014L62.2975 63.3027Z" fill="#0C0C0C"/>
</g>
<g opacity="0.2">
<path opacity="0.2" d="M63.0168 64.4955C63.0263 64.5098 63.041 64.5197 63.0577 64.5231C63.0745 64.5266 63.0919 64.5233 63.1062 64.514L66.0701 62.6108C66.0774 62.6061 66.0837 62.6002 66.0886 62.5931C66.0935 62.5861 66.097 62.5781 66.0989 62.5697C66.1007 62.5613 66.1008 62.5526 66.0993 62.5442C66.0977 62.5357 66.0945 62.5276 66.0898 62.5204C66.08 62.5063 66.0653 62.4965 66.0485 62.4929C66.0318 62.4893 66.0142 62.4921 65.9995 62.5009L63.0356 64.4026C63.0284 64.4072 63.0221 64.4132 63.0171 64.4202C63.0122 64.4273 63.0087 64.4352 63.0069 64.4437C63.0051 64.4521 63.0049 64.4607 63.0065 64.4692C63.008 64.4777 63.0112 64.4857 63.0159 64.4929L63.0168 64.4955Z" fill="#0C0C0C"/>
</g>
<g opacity="0.2">
<path opacity="0.2" d="M63.7884 65.7904C63.7979 65.8046 63.8126 65.8144 63.8293 65.8179C63.846 65.8213 63.8634 65.8181 63.8777 65.8088L66.2421 64.2923C66.2567 64.283 66.2669 64.2682 66.2706 64.2513C66.2743 64.2344 66.2711 64.2167 66.2617 64.2021C66.2524 64.1875 66.2376 64.1773 66.2207 64.1736C66.2038 64.1699 66.1861 64.1731 66.1715 64.1825L63.8073 65.699C63.8 65.7036 63.7937 65.7096 63.7888 65.7166C63.7839 65.7237 63.7804 65.7316 63.7786 65.74C63.7767 65.7484 63.7766 65.7571 63.7781 65.7656C63.7797 65.774 63.7829 65.7821 63.7876 65.7893L63.7884 65.7904Z" fill="#0C0C0C"/>
</g>
<path d="M35.3415 57.5311L48.4142 76.1472L41.5345 75.2146L57.8921 62.5754L63.8528 70.2899L47.495 82.929C46.4844 83.71 45.2075 84.063 43.9392 83.9119C42.671 83.7607 41.5128 83.1176 40.7141 82.1209L40.6144 81.9964L26.4044 64.234L35.3415 57.5311Z" fill="#367CFF"/>
</svg>
