<svg width="150" height="105" viewBox="0 0 150 105" fill="none" xmlns="http://www.w3.org/2000/svg">
<path opacity="0.2" d="M44.8589 13.4996L44.7522 13.4727L10.9026 84.3398L130.23 93.5512L130.364 93.5616L134.736 36.0335L134.745 35.9204L44.8589 13.4996ZM79.1378 59.0735L11.3722 83.9805L44.8524 13.8872L79.1378 59.0735ZM79.3366 59.287L129.743 93.2431L11.7342 84.1341L79.3366 59.287ZM79.3989 58.9728L45.1643 13.8525L134.176 36.055L79.3989 58.9728ZM130.124 93.1759L79.6368 59.1648L134.451 36.2316L130.124 93.1759Z" fill="#367CFF"/>
<path d="M149.987 37.2315C149.88 39.9597 149.113 42.6213 147.753 44.9886C146.392 47.356 144.479 49.3589 142.177 50.8262C139.874 52.2934 137.251 53.1813 134.53 53.4141C131.81 53.6468 129.073 53.2175 126.555 52.1628C125.374 51.6677 124.254 51.0384 123.217 50.2872C121.234 48.856 119.584 47.0135 118.379 44.8858V44.8839C117.095 42.6082 116.356 40.0656 116.22 37.4559C116.084 34.8462 116.555 32.2405 117.596 29.8436C118.636 27.4466 120.219 25.3237 122.219 23.6416C124.219 21.9595 126.581 20.764 129.121 20.1491C131.661 19.5342 134.309 19.5166 136.857 20.0977C139.405 20.6788 141.783 21.8427 143.805 23.4981C145.827 25.1535 147.438 27.2552 148.51 29.6381C149.583 32.021 150.089 34.6202 149.987 37.2314L149.987 37.2315Z" fill="white"/>
<path opacity="0.09" d="M149.987 37.2315C149.88 39.9597 149.113 42.6213 147.753 44.9886C146.392 47.356 144.479 49.3589 142.177 50.8262C139.874 52.2934 137.251 53.1813 134.53 53.4141C131.81 53.6468 129.073 53.2175 126.555 52.1628C125.374 51.6677 124.254 51.0384 123.217 50.2872C121.234 48.856 119.584 47.0135 118.379 44.8858V44.8839C117.095 42.6082 116.356 40.0656 116.22 37.4559C116.084 34.8462 116.555 32.2405 117.596 29.8436C118.636 27.4466 120.219 25.3237 122.219 23.6416C124.219 21.9595 126.581 20.764 129.121 20.1491C131.661 19.5342 134.309 19.5166 136.857 20.0977C139.405 20.6788 141.783 21.8427 143.805 23.4981C145.827 25.1535 147.438 27.2552 148.51 29.6381C149.583 32.021 150.089 34.6202 149.987 37.2314L149.987 37.2315Z" fill="#367CFF"/>
<path d="M137.095 23.7047C137.095 23.7047 141.135 23.7542 139.742 29.3227L139.363 29.3413L138.592 29.3788" fill="#0C0C0C"/>
<path d="M132.583 35.1651C132.602 35.1634 132.676 38.6367 136.713 38.4908C139.508 38.3902 140.617 35.4719 140.681 35.4743C140.383 35.3989 139.88 35.286 139.75 35.2099C139.32 34.9572 138.787 34.6908 138.678 33.833C138.616 33.3386 138.852 30.8312 138.828 30.3326L134.513 31.1214C134.532 32.1734 134.856 34.6227 133.373 34.9965C133.126 35.0583 132.861 35.1136 132.583 35.1651Z" fill="#E98862"/>
<path opacity="0.52" d="M134.34 34.0381C134.415 33.8247 134.467 33.6037 134.494 33.3791C134.561 32.8666 134.572 32.3484 134.526 31.8337C135.4 31.7501 136.233 31.423 136.931 30.8895C136.999 31.1854 137.386 32.4849 137.254 32.759C137.005 33.2773 135.897 34.0986 134.34 34.0381Z" fill="#0C0C0C"/>
<path d="M135.319 33.4244C137.011 33.3034 139.051 32.2736 139.122 29.9815L139.186 27.9137C139.257 25.622 138.11 23.7269 135.953 23.6602C133.795 23.5929 132.125 25.4013 132.054 27.693L132.026 28.6085C132.022 28.9231 132.039 29.2376 132.077 29.5499C132.173 30.3757 132.322 31.6313 132.866 32.4886C133.379 33.298 134.239 33.5015 135.319 33.4244Z" fill="#E98862"/>
<path d="M138.967 30.676C139.622 30.6961 140.176 30.0111 140.196 29.3554C140.216 28.6998 139.696 28.3216 139.04 28.3013L138.689 28.7302L138.403 30.6585L138.967 30.676Z" fill="#E98862"/>
<path d="M132.165 30.242C132.284 30.3824 132.435 30.491 132.607 30.5579C132.778 30.6247 132.963 30.6477 133.145 30.6247C133.535 30.5756 133.794 30.7357 134.119 30.7035C134.393 30.6767 134.44 30.5504 134.906 30.5228C136.707 30.4161 138.058 30.3026 138.146 28.0433L139.291 27.0257C139.291 27.0257 139.803 33.2864 136.417 34.1187C134.336 34.6297 132.385 34.4429 132.134 32.4886C131.93 30.9007 132.165 30.242 132.165 30.242Z" fill="#0C0C0C"/>
<path d="M133.018 28.9345C133.165 28.9345 133.284 28.8154 133.284 28.6686C133.284 28.5217 133.165 28.4027 133.018 28.4027C132.871 28.4027 132.752 28.5217 132.752 28.6686C132.752 28.8154 132.871 28.9345 133.018 28.9345Z" fill="#0C0C0C"/>
<path d="M135.394 28.885C135.54 28.885 135.66 28.7659 135.66 28.6191C135.66 28.4722 135.54 28.3532 135.394 28.3532C135.247 28.3532 135.128 28.4722 135.128 28.6191C135.128 28.7659 135.247 28.885 135.394 28.885Z" fill="#0C0C0C"/>
<path d="M138.333 29.61C138.333 29.61 138.171 26.3626 137.191 26.1443C136.538 25.9989 134.933 26.8992 133.467 26.5918C132.825 26.4573 132.211 26.6052 132.144 26.9084C132.117 27.0283 131.609 25.9644 132.641 24.6698C133.463 23.6391 136.135 23.3491 137.323 23.7136C140.614 24.723 139.173 28.4467 139.173 28.4467L139.005 29.5621L138.333 29.61Z" fill="#0C0C0C"/>
<path d="M139.829 26.9915C140.798 26.9915 141.583 26.2062 141.583 25.2375C141.583 24.2687 140.798 23.4834 139.829 23.4834C138.86 23.4834 138.075 24.2687 138.075 25.2375C138.075 26.2062 138.86 26.9915 139.829 26.9915Z" fill="#0C0C0C"/>
<g opacity="0.52">
<path opacity="0.52" d="M134.152 30.5992H134.147C133.936 30.5931 133.582 30.5595 133.587 30.4015C133.59 30.2705 133.989 28.8667 134.034 28.7069C134.038 28.6932 134.047 28.6816 134.06 28.6746C134.072 28.6677 134.087 28.6659 134.101 28.6699C134.115 28.6738 134.126 28.683 134.133 28.6954C134.14 28.7079 134.142 28.7226 134.138 28.7364C133.961 29.3581 133.697 30.3154 133.694 30.404C133.714 30.442 133.931 30.4847 134.15 30.4911C134.165 30.4909 134.178 30.4964 134.189 30.5064C134.199 30.5164 134.205 30.53 134.205 30.5442C134.205 30.5585 134.199 30.5723 134.189 30.5825C134.179 30.5927 134.166 30.5985 134.152 30.5986V30.5992Z" fill="#0C0C0C"/>
</g>
<path d="M133.508 27.7652C133.29 27.7006 133.058 27.6959 132.838 27.7518C132.729 27.7785 132.625 27.8213 132.529 27.879C132.434 27.9355 132.347 28.0038 132.269 28.0822C132.255 28.0943 132.247 28.1113 132.246 28.1293C132.245 28.1474 132.251 28.1652 132.263 28.1787C132.276 28.1922 132.293 28.2003 132.311 28.2013C132.329 28.2023 132.346 28.1961 132.36 28.184L132.364 28.1805C132.437 28.115 132.517 28.059 132.604 28.0136C132.689 27.9685 132.781 27.9364 132.875 27.9187C133.062 27.8821 133.256 27.8956 133.436 27.9578L133.443 27.9604C133.456 27.9653 133.469 27.9676 133.483 27.9672C133.496 27.9669 133.51 27.9638 133.522 27.9582C133.535 27.9525 133.546 27.9445 133.555 27.9345C133.565 27.9245 133.572 27.9128 133.576 27.9C133.581 27.8872 133.583 27.8736 133.583 27.8599C133.582 27.8463 133.579 27.8329 133.573 27.8206C133.567 27.8083 133.559 27.7972 133.549 27.7881C133.538 27.779 133.527 27.772 133.514 27.7675L133.508 27.7652Z" fill="#0C0C0C"/>
<path d="M135.075 27.9581C135.248 27.8785 135.439 27.8462 135.629 27.8646C135.725 27.873 135.819 27.896 135.909 27.9328C135.999 27.9695 136.085 28.0174 136.163 28.0755L136.168 28.0784C136.182 28.088 136.2 28.0915 136.217 28.0884C136.234 28.0853 136.25 28.0757 136.26 28.0616C136.27 28.0475 136.275 28.03 136.273 28.0127C136.27 27.9953 136.262 27.9795 136.248 27.9684C136.163 27.8979 136.069 27.8385 135.969 27.7914C135.868 27.7434 135.761 27.7108 135.65 27.6947C135.425 27.6608 135.195 27.6881 134.984 27.7737C134.959 27.7844 134.939 27.8044 134.929 27.8294C134.919 27.8545 134.919 27.8825 134.93 27.9074C134.94 27.9323 134.96 27.9522 134.985 27.9627C135.009 27.9732 135.037 27.9734 135.063 27.9634L135.068 27.9613L135.075 27.9581Z" fill="#0C0C0C"/>
<path d="M145.847 43.838C145.696 44.9735 145.549 46.5332 145.418 48.1458C144.906 48.6909 144.358 49.2016 143.779 49.6744C143.41 49.9737 143.03 50.2582 142.638 50.5279C140.518 51.9751 138.097 52.9214 135.557 53.2952C133.018 53.6691 130.427 53.4607 127.979 52.6859C127.946 51.188 127.901 49.1674 127.855 47.3163C127.804 45.181 127.751 43.2691 127.723 42.6409C127.607 40.1477 126.946 38.4842 127.446 37.124C127.595 36.7213 127.836 36.3585 128.148 36.0638C129.312 34.9245 132.203 34.9505 133.363 34.9955C133.383 34.9963 133.025 37.6728 136.841 37.6405C139.645 37.6175 139.855 35.2474 139.855 35.2474C139.855 35.2474 141.237 35.3912 142.155 35.5506C143.656 35.8135 144.632 36.3641 145.392 37.1864C146.1 37.9531 146.518 38.767 145.847 43.838Z" fill="#367CFF"/>
<path d="M123.414 35.2594L123.53 32.4035C123.533 32.3407 123.522 32.278 123.499 32.2195C123.476 32.161 123.441 32.1079 123.397 32.0636C123.352 32.0193 123.299 31.9848 123.24 31.9623C123.181 31.9397 123.119 31.9297 123.056 31.9328C122.94 31.9421 122.832 31.9941 122.753 32.0786C122.673 32.163 122.628 32.274 122.625 32.39L122.601 33.0025L121.794 31.0412C121.708 30.8216 121.463 30.607 121.222 30.7195C121.127 30.7568 121.047 30.8252 120.996 30.9136C120.945 31.0021 120.925 31.1053 120.94 31.2064C120.938 31.2067 120.935 31.2072 120.933 31.2079C120.932 31.2087 120.93 31.2097 120.929 31.2108L120.797 30.8722C120.772 30.8095 120.734 30.753 120.685 30.7069C120.636 30.6608 120.577 30.6263 120.513 30.6058C120.448 30.5853 120.381 30.5794 120.314 30.5886C120.247 30.5977 120.183 30.6216 120.127 30.6585C120.039 30.7184 119.975 30.8066 119.945 30.9082C119.914 31.0099 119.92 31.1189 119.96 31.217L120.017 31.3611C120.013 31.3646 120.01 31.3688 120.008 31.3733C119.948 31.2849 119.858 31.2208 119.754 31.1927C119.651 31.1645 119.541 31.1741 119.444 31.2196C119.339 31.2726 119.258 31.3633 119.217 31.4734C119.176 31.5835 119.178 31.705 119.223 31.8136L119.363 32.1716C119.357 32.168 119.351 32.1656 119.344 32.1649C119.338 32.1642 119.331 32.165 119.325 32.1673C119.317 32.1705 119.311 32.1758 119.307 32.1824C119.231 32.1185 119.136 32.0814 119.037 32.0766C118.938 32.0719 118.84 32.0998 118.758 32.1562C118.674 32.2171 118.612 32.3048 118.584 32.405C118.555 32.5053 118.562 32.6122 118.601 32.7085L119.782 35.729C119.947 36.1516 120.234 36.5152 120.608 36.7733C120.981 37.0313 121.422 37.1721 121.876 37.1775C122.267 37.1821 122.645 37.034 122.929 36.7647C123.212 36.4954 123.38 36.1261 123.396 35.7352L123.414 35.2594Z" fill="#E98862"/>
<g opacity="0.2">
<path opacity="0.2" d="M121.728 33.1518C121.718 33.1557 121.707 33.1555 121.697 33.1512C121.687 33.1469 121.679 33.1388 121.675 33.1287L120.91 31.2623C120.908 31.2572 120.907 31.2516 120.906 31.246C120.906 31.2403 120.907 31.2346 120.909 31.2294C120.911 31.2241 120.914 31.2193 120.918 31.2152C120.922 31.2112 120.927 31.208 120.932 31.2058C120.938 31.2037 120.943 31.2026 120.949 31.2027C120.955 31.2028 120.96 31.2041 120.965 31.2064C120.97 31.2087 120.975 31.2121 120.979 31.2163C120.983 31.2205 120.986 31.2254 120.988 31.2307L121.752 33.0971C121.754 33.1021 121.755 33.1076 121.755 33.1131C121.755 33.1185 121.754 33.124 121.752 33.129C121.75 33.1341 121.747 33.1387 121.743 33.1425C121.739 33.1464 121.734 33.1495 121.729 33.1515L121.728 33.1518Z" fill="#0C0C0C"/>
</g>
<g opacity="0.2">
<path opacity="0.2" d="M120.915 33.5117C120.904 33.5157 120.893 33.5155 120.883 33.5111C120.873 33.5067 120.865 33.4986 120.861 33.4884L120.008 31.4056C120.004 31.3954 120.004 31.3841 120.008 31.374C120.013 31.3639 120.021 31.356 120.031 31.3518C120.041 31.3481 120.052 31.3485 120.062 31.3527C120.072 31.3569 120.08 31.3647 120.085 31.3745L120.937 33.4574C120.942 33.4676 120.942 33.4791 120.937 33.4893C120.933 33.4995 120.925 33.5076 120.915 33.5118V33.5117Z" fill="#0C0C0C"/>
</g>
<g opacity="0.2">
<path opacity="0.2" d="M120.035 33.9064C120.025 33.9104 120.014 33.9102 120.004 33.9058C119.994 33.9015 119.986 33.8933 119.982 33.8832L119.301 32.2218C119.297 32.2116 119.297 32.2001 119.301 32.1899C119.306 32.1797 119.314 32.1716 119.324 32.1674C119.334 32.1632 119.346 32.1633 119.356 32.1675C119.366 32.1718 119.374 32.18 119.378 32.1902L120.059 33.8511C120.063 33.8614 120.063 33.8729 120.059 33.8831C120.055 33.8933 120.047 33.9014 120.036 33.9056L120.035 33.9064Z" fill="#0C0C0C"/>
</g>
<path d="M132.868 39.7368L125.918 50.4229C125.665 50.8113 125.326 51.1366 124.928 51.3737C124.336 51.0471 123.764 50.6842 123.216 50.2872C122.049 49.4449 120.994 48.4568 120.077 47.347L118.617 36.0277L124.46 35.0916L125.126 40.54L127.796 36.4363L132.868 39.7368Z" fill="#367CFF"/>
<path d="M133.683 31.1822C134.321 31.2245 134.954 31.0532 135.483 30.6952C135.502 30.6829 135.523 30.6761 135.545 30.6755C135.567 30.6749 135.589 30.6807 135.608 30.6921C135.627 30.7035 135.642 30.72 135.652 30.7398C135.662 30.7596 135.666 30.7817 135.664 30.8037C135.621 31.1803 135.435 31.8729 134.645 31.9612C134.135 32.0181 133.766 31.6263 133.579 31.3658C133.566 31.3477 133.559 31.3264 133.558 31.3043C133.557 31.2822 133.562 31.2602 133.573 31.2409C133.584 31.2216 133.6 31.2059 133.619 31.1955C133.639 31.1851 133.661 31.1805 133.683 31.1822Z" fill="white"/>
<path d="M147.731 45.039C146.704 46.8098 145.365 48.3803 143.779 49.6744C143.41 49.9737 143.03 50.2582 142.638 50.5279L139.923 40.2003L146.037 38.5922L147.731 45.039Z" fill="#367CFF"/>
<path d="M142.698 50.4876C142.678 50.5002 142.657 50.5145 142.638 50.5279C142.619 50.5414 142.599 50.5548 142.58 50.5673L140.511 42.6996L140.642 42.6656L142.698 50.4876Z" fill="#0C0C0C"/>
<path d="M127.872 47.8027C127.855 47.802 127.839 47.7951 127.827 47.7832C127.815 47.7713 127.808 47.7554 127.807 47.7386L127.674 44.8067C127.673 44.7889 127.679 44.7714 127.691 44.7583C127.704 44.7451 127.72 44.7372 127.738 44.7364C127.756 44.7356 127.773 44.7419 127.787 44.754C127.8 44.766 127.808 44.7828 127.808 44.8006L127.942 47.7325C127.943 47.7503 127.936 47.7677 127.924 47.7809C127.912 47.794 127.895 47.8019 127.878 47.8027H127.872Z" fill="#0C0C0C"/>
<path d="M77.59 74.9331C87.106 74.9331 94.8202 67.2189 94.8202 57.7029C94.8202 48.187 87.106 40.4728 77.59 40.4728C68.074 40.4728 60.3598 48.187 60.3598 57.7029C60.3598 67.2189 68.074 74.9331 77.59 74.9331Z" fill="white"/>
<path opacity="0.09" d="M94.8203 57.7025C94.8203 61.1103 93.8098 64.4415 91.9165 67.275C90.0233 70.1084 87.3324 72.3168 84.184 73.6209C81.0356 74.925 77.5713 75.2662 74.229 74.6014C70.8867 73.9366 67.8167 72.2956 65.407 69.8859C62.9974 67.4763 61.3564 64.4062 60.6916 61.0639C60.0267 57.7217 60.3679 54.2573 61.672 51.1089C62.9761 47.9606 65.1845 45.2696 68.018 43.3764C70.8514 41.4831 74.1826 40.4726 77.5904 40.4726C79.8554 40.4642 82.0997 40.9042 84.1939 41.7671C86.2881 42.63 88.1908 43.8989 89.7925 45.5005C91.3941 47.1021 92.6629 49.0048 93.5258 51.099C94.3887 53.1933 94.8287 55.4375 94.8203 57.7025Z" fill="#367CFF"/>
<path d="M69.9631 47.5402C69.9631 47.5402 69.7898 50.1413 69.2045 51.085C67.5199 53.8017 67.0318 56.8579 68.7189 58.455C70.4059 60.0521 81.1666 60.074 81.9818 56.4014C82.6677 53.3094 81.1952 52.977 80.837 50.4264C80.6748 49.2723 80.2287 46.8523 80.2287 46.8523" fill="#0A0A0A"/>
<path d="M79.1965 55.8624C79.1779 55.86 78.9719 59.2802 74.9985 58.9826C72.2479 58.7766 71.2672 55.8581 71.2041 55.8581C71.5007 55.7952 72 55.7035 72.1321 55.6333C72.5652 55.4005 73.1011 55.1584 73.2407 54.3172C73.3214 53.833 73.1846 51.3522 73.2273 50.8617L77.4494 51.8041C77.3905 52.8397 76.9775 55.2416 78.4248 55.6666C78.6648 55.7364 78.9243 55.8011 79.1965 55.8624Z" fill="#E98862"/>
<path opacity="0.5" d="M77.5078 54.6847C77.4417 54.4715 77.3991 54.2518 77.3808 54.0293C77.3344 53.5218 77.3437 53.0107 77.4084 52.5052C76.5503 52.3894 75.7418 52.0353 75.0749 51.483C74.9965 51.7726 74.5653 53.0378 74.6848 53.3131C74.9109 53.8329 75.9707 54.6847 77.5078 54.6847Z" fill="#0C0C0C"/>
<path d="M76.9619 53.6192C75.2972 53.7805 73.1433 53.1143 72.6972 50.8975L72.2946 48.8972C71.8485 46.6804 72.6511 44.6489 74.7383 44.2289C76.8256 43.8088 78.7474 45.2914 79.1935 47.5087L79.3719 48.3942C79.5431 49.2449 79.932 53.3318 76.9619 53.6192Z" fill="#E98862"/>
<path opacity="0.1" d="M75.9036 50.7147C76.1776 50.682 76.3802 50.4926 76.3562 50.2916C76.3322 50.0907 76.0907 49.9542 75.8168 49.9869C75.5429 50.0196 75.3403 50.209 75.3643 50.41C75.3882 50.611 75.6297 50.7474 75.9036 50.7147Z" fill="#0C0C0C"/>
<path opacity="0.1" d="M78.7984 49.9109C78.823 50.1114 79.0644 50.2471 79.3384 50.2154C79.3857 50.2097 79.4324 50.1991 79.4776 50.1839C79.4902 49.9446 79.491 49.7144 79.484 49.5013C79.4079 49.4824 79.329 49.4778 79.2512 49.4879C78.9773 49.52 78.7747 49.7094 78.7984 49.9109Z" fill="#0C0C0C"/>
<path opacity="0.5" d="M77.588 50.531H77.592C77.6765 50.5132 77.76 50.4907 77.8421 50.4638C77.9647 50.4234 78.1246 50.3555 78.1028 50.2447C78.0774 50.1183 77.4572 48.8251 77.3864 48.678C77.3797 48.6659 77.3687 48.6569 77.3556 48.6527C77.3425 48.6485 77.3283 48.6494 77.3159 48.6554C77.3035 48.6614 77.2938 48.6719 77.2889 48.6847C77.284 48.6976 77.2842 48.7118 77.2895 48.7245C77.5541 49.2759 77.9803 50.1808 77.9973 50.2658C77.9839 50.3055 77.7807 50.3829 77.5707 50.4253C77.5574 50.4284 77.5458 50.4364 77.5381 50.4477C77.5305 50.459 77.5275 50.4729 77.5297 50.4864C77.5319 50.4998 77.5391 50.512 77.5499 50.5203C77.5608 50.5287 77.5744 50.5326 77.588 50.5313V50.531Z" fill="#0C0C0C"/>
<path d="M70.6292 49.6153L72.5005 49.2497C73.914 48.658 74.315 46.1952 74.315 46.1952C74.315 46.1952 76.0595 47.8565 80.2287 46.8519C80.2287 46.8519 79.323 41.0317 73.1669 42.7984C71.1818 43.3679 69.7757 45.3913 69.9848 48.0712C70.1313 49.9496 70.6292 49.6153 70.6292 49.6153Z" fill="#0A0A0A"/>
<path d="M72.9627 51.5468C72.3285 51.6744 71.6777 51.0993 71.5506 50.465C71.4235 49.8306 71.8666 49.3773 72.501 49.2497L72.9134 49.6089L73.5086 51.4371L72.9627 51.5468Z" fill="#E98862"/>
<path d="M77.8362 47.6467C77.9949 47.5344 78.1805 47.4661 78.3742 47.449C78.4714 47.4397 78.5695 47.4451 78.6651 47.465C78.7616 47.4847 78.8552 47.5163 78.9438 47.5592L78.9466 47.5604C78.9563 47.5643 78.9672 47.5644 78.977 47.5606C78.9868 47.5567 78.9948 47.5493 78.9993 47.5397C79.0037 47.5302 79.0044 47.5193 79.0011 47.5094C78.9978 47.4994 78.9908 47.491 78.9816 47.486C78.8877 47.4365 78.788 47.3989 78.6847 47.3744C78.5808 47.3491 78.4737 47.3395 78.3669 47.3461C78.1508 47.3581 77.9418 47.4278 77.7617 47.5479C77.7547 47.5523 77.7487 47.5581 77.744 47.5649C77.7393 47.5717 77.7361 47.5794 77.7344 47.5875C77.7327 47.5956 77.7327 47.604 77.7343 47.6121C77.736 47.6202 77.7392 47.6279 77.7439 47.6348C77.7485 47.6416 77.7545 47.6474 77.7615 47.6519C77.7684 47.6564 77.7762 47.6594 77.7844 47.6608C77.7925 47.6622 77.8009 47.662 77.8089 47.6601C77.817 47.6582 77.8246 47.6547 77.8313 47.6498L77.8326 47.6489L77.8362 47.6467Z" fill="#0C0C0C"/>
<path d="M76.1269 47.8829C75.9144 47.8407 75.6945 47.8562 75.4901 47.928C75.389 47.9628 75.2938 48.0127 75.2076 48.0759C75.1217 48.1382 75.044 48.211 74.9762 48.2927C74.9693 48.3008 74.9658 48.3113 74.9665 48.3219C74.9672 48.3326 74.972 48.3425 74.9799 48.3497C74.9877 48.3569 74.9981 48.3607 75.0087 48.3604C75.0194 48.3601 75.0295 48.3557 75.037 48.3481L75.0391 48.3458C75.1044 48.2722 75.1787 48.207 75.2604 48.152C75.3411 48.0969 75.4296 48.0543 75.523 48.0257C75.7085 47.9676 75.9061 47.9595 76.0957 48.0025L76.1004 48.0035C76.1083 48.0056 76.1166 48.0061 76.1248 48.005C76.1329 48.0039 76.1407 48.0011 76.1478 47.9969C76.1549 47.9927 76.161 47.9871 76.1659 47.9805C76.1708 47.9739 76.1743 47.9664 76.1762 47.9584C76.1782 47.9504 76.1785 47.9421 76.1772 47.934C76.1758 47.9259 76.1729 47.9181 76.1686 47.9111C76.1642 47.9042 76.1585 47.8981 76.1518 47.8934C76.1451 47.8887 76.1375 47.8853 76.1294 47.8836L76.1269 47.8829Z" fill="#0C0C0C"/>
<path d="M72.5017 49.2191C73.7596 48.7509 74.1769 47.8822 74.3056 47.2357C74.3887 46.8046 74.3809 46.3609 74.2827 45.9329L74.2437 45.9437C74.3405 46.366 74.348 46.804 74.2656 47.2294C74.1388 47.8651 73.7277 48.72 72.4875 49.1813L72.5017 49.2191Z" fill="#0C0C0C"/>
<path d="M88.4054 55.1813L89.1586 52.626C89.1751 52.5698 89.2032 52.5177 89.2409 52.473C89.2787 52.4283 89.3254 52.392 89.378 52.3663C89.4305 52.3406 89.4879 52.3262 89.5464 52.3239C89.6049 52.3216 89.6632 52.3315 89.7176 52.3529C89.8169 52.3957 89.8968 52.4738 89.9417 52.5721C89.9867 52.6704 89.9935 52.7819 89.9609 52.885L89.7995 53.4329L91.0978 51.943C91.2392 51.7748 91.5203 51.6588 91.6985 51.83C91.7714 51.8914 91.8213 51.9756 91.8402 52.069C91.859 52.1624 91.8456 52.2594 91.8022 52.3442C91.8041 52.3451 91.8059 52.3462 91.8076 52.3476C91.8087 52.3487 91.8097 52.3501 91.8106 52.3515L92.0287 52.092C92.0691 52.044 92.1198 52.0057 92.1769 51.9797C92.234 51.9537 92.2963 51.9409 92.359 51.942C92.4217 51.9431 92.4835 51.9583 92.5396 51.9863C92.5958 52.0143 92.645 52.0544 92.6837 52.1039C92.743 52.1829 92.7734 52.28 92.7697 52.3787C92.7661 52.4775 92.7286 52.5721 92.6636 52.6465L92.5708 52.7569C92.5729 52.7612 92.5741 52.7657 92.5743 52.7704C92.6543 52.7104 92.7531 52.6809 92.8529 52.687C92.9527 52.6931 93.0471 52.7346 93.1192 52.8039C93.1958 52.882 93.2402 52.9862 93.2434 53.0956C93.2466 53.205 93.2084 53.3117 93.1365 53.3942L92.9059 53.6683C92.9118 53.6666 92.9181 53.6665 92.9242 53.6678C92.9302 53.6691 92.9359 53.6718 92.9407 53.6758C92.9461 53.6808 92.95 53.6873 92.9518 53.6945C93.038 53.6609 93.1329 53.6566 93.2218 53.6822C93.3106 53.7079 93.3886 53.762 93.4437 53.8364C93.5 53.9154 93.528 54.0112 93.5231 54.1082C93.5182 54.2052 93.4808 54.2977 93.4168 54.3707L91.4715 56.6839C91.1994 57.0074 90.8368 57.2423 90.4303 57.3584C90.0238 57.4746 89.5919 57.4666 89.1899 57.3357C88.8433 57.2228 88.5544 56.9792 88.3845 56.6566C88.2147 56.3341 88.1773 55.9581 88.2803 55.6084L88.4054 55.1813Z" fill="#E98862"/>
<g opacity="0.2">
<path opacity="0.2" d="M90.5239 53.8259C90.5317 53.8322 90.5417 53.8352 90.5517 53.8344C90.5617 53.8336 90.571 53.8289 90.5777 53.8214L91.8104 52.403C91.8172 52.3952 91.8206 52.385 91.8198 52.3747C91.8191 52.3644 91.8143 52.3549 91.8065 52.3481C91.7987 52.3413 91.7886 52.338 91.7783 52.3387C91.768 52.3394 91.7584 52.3442 91.7517 52.352L90.5189 53.7703C90.5156 53.7742 90.513 53.7787 90.5114 53.7835C90.5098 53.7884 90.5091 53.7935 90.5095 53.7986C90.5099 53.8037 90.5112 53.8087 90.5135 53.8132C90.5158 53.8178 90.519 53.8219 90.5228 53.8252L90.5239 53.8259Z" fill="#0C0C0C"/>
</g>
<g opacity="0.2">
<path opacity="0.2" d="M91.1345 54.3867C91.1423 54.3931 91.1522 54.3962 91.1623 54.3953C91.1723 54.3945 91.1816 54.3898 91.1883 54.3823L92.564 52.7993C92.5673 52.7955 92.5699 52.791 92.5715 52.7861C92.5731 52.7813 92.5738 52.7762 92.5734 52.7711C92.573 52.766 92.5717 52.761 92.5694 52.7564C92.5671 52.7519 92.5639 52.7478 92.5601 52.7444C92.5521 52.738 92.542 52.7349 92.5319 52.7356C92.5217 52.7363 92.5122 52.7409 92.5052 52.7483L91.1304 54.3313C91.1271 54.3351 91.1245 54.3396 91.1229 54.3445C91.1213 54.3493 91.1206 54.3544 91.121 54.3595C91.1214 54.3646 91.1227 54.3696 91.125 54.3742C91.1273 54.3787 91.1305 54.3828 91.1343 54.3862L91.1345 54.3867Z" fill="#0C0C0C"/>
</g>
<g opacity="0.2">
<path opacity="0.2" d="M91.7923 54.9981C91.8001 55.0045 91.81 55.0076 91.8201 55.0067C91.8301 55.0059 91.8394 55.0012 91.8461 54.9937L92.9435 53.7311C92.9496 53.7232 92.9525 53.7133 92.9515 53.7033C92.9506 53.6934 92.9458 53.6842 92.9383 53.6777C92.9308 53.6712 92.921 53.6678 92.9111 53.6682C92.9011 53.6686 92.8917 53.6728 92.8847 53.68L91.7873 54.9427C91.7839 54.9465 91.7814 54.951 91.7798 54.9559C91.7782 54.9607 91.7775 54.9658 91.7779 54.9709C91.7782 54.976 91.7796 54.981 91.7819 54.9856C91.7842 54.9901 91.7873 54.9942 91.7912 54.9976L91.7923 54.9981Z" fill="#0C0C0C"/>
</g>
<path d="M92.9889 56.2967L90.0772 69.5063C90.0705 69.5359 90.0638 69.5668 90.0557 69.5964C89.4018 70.2807 88.6934 70.9108 87.9375 71.4805C87.7855 71.5936 87.6336 71.7052 87.4776 71.8128C87.3811 71.8236 87.2841 71.829 87.187 71.829C86.6681 71.8288 86.1583 71.6922 85.7088 71.4327C85.2594 71.1733 84.8861 70.8002 84.6264 70.3509L79.0773 60.7491L84.2014 57.7892L85.9376 60.7937L87.2099 55.0227L92.9889 56.2967Z" fill="#0CBC8B"/>
<path d="M84.0279 62.3192C84.0104 62.5289 83.9754 62.9029 83.927 63.3951C83.6849 65.9114 83.1187 71.5196 82.8565 74.1113C79.5434 75.1704 75.988 75.2065 72.6541 74.2148H72.6527C70.1906 73.4778 67.925 72.1984 66.0224 70.4706C66.0331 68.1534 65.9995 65.5469 65.8435 63.8712C65.3768 58.864 65.8179 58.0801 66.5428 57.3552C66.602 57.296 66.6639 57.2382 66.7257 57.1817C67.4749 56.5011 68.4149 56.0573 69.7854 55.8716C70.6919 55.7493 72.0556 55.6606 72.0556 55.6606C72.0556 55.6606 72.1712 57.9979 74.9243 58.127C78.6725 58.3033 78.4223 55.6606 78.4412 55.6606C79.3839 55.6606 81.482 55.7198 82.8054 56.3936C82.8067 56.3936 82.8067 56.3936 82.8081 56.3949C83.0746 56.5246 83.317 56.6988 83.5249 56.91C85.0406 58.5158 84.2928 59.2025 84.0279 62.3192Z" fill="#0CBC8B"/>
<path d="M78.146 50.968C77.6051 51.2429 76.988 51.3299 76.3922 51.2151C76.3716 51.2112 76.3503 51.2133 76.3308 51.2211C76.3113 51.2288 76.2944 51.242 76.2821 51.259C76.2698 51.276 76.2626 51.2962 76.2613 51.3171C76.26 51.3381 76.2648 51.359 76.275 51.3773C76.4529 51.6903 76.874 52.2254 77.5967 52.0074C78.0634 51.8666 78.2399 51.3865 78.3052 51.0894C78.3097 51.0688 78.3083 51.0474 78.3011 51.0277C78.2938 51.0079 78.2811 50.9906 78.2643 50.9779C78.2476 50.9651 78.2276 50.9574 78.2066 50.9556C78.1856 50.9539 78.1646 50.9582 78.146 50.968Z" fill="white"/>
<path d="M78.1799 48.5625C78.3242 48.5625 78.4412 48.4455 78.4412 48.3012C78.4412 48.1568 78.3242 48.0398 78.1799 48.0398C78.0356 48.0398 77.9185 48.1568 77.9185 48.3012C77.9185 48.4455 78.0356 48.5625 78.1799 48.5625Z" fill="#0C0C0C"/>
<path d="M75.6684 49.0021C75.8127 49.0021 75.9297 48.8851 75.9297 48.7408C75.9297 48.5965 75.8127 48.4795 75.6684 48.4795C75.5241 48.4795 75.4071 48.5965 75.4071 48.7408C75.4071 48.8851 75.5241 49.0021 75.6684 49.0021Z" fill="#0C0C0C"/>
<path d="M83.45 67.9604C83.4483 67.9605 83.4466 67.9605 83.4449 67.9604C83.4343 67.9589 83.4247 67.9533 83.4182 67.9448C83.4118 67.9362 83.409 67.9255 83.4104 67.9149L83.8724 63.2603C83.873 63.255 83.8747 63.2499 83.8774 63.2453C83.88 63.2407 83.8836 63.2366 83.8879 63.2334C83.8921 63.2302 83.897 63.2279 83.9022 63.2266C83.9074 63.2253 83.9127 63.2251 83.918 63.2259C83.9286 63.2274 83.9382 63.233 83.9446 63.2415C83.9511 63.25 83.9539 63.2608 83.9524 63.2714L83.4905 67.9259C83.489 67.9356 83.4841 67.9444 83.4767 67.9508C83.4692 67.9571 83.4598 67.9605 83.45 67.9604Z" fill="#0C0C0C"/>
<path d="M80.6537 67.7362L83.1787 66.6085C83.2342 66.5838 83.2942 66.571 83.3548 66.5707C83.4155 66.5705 83.4756 66.5829 83.5313 66.6071C83.5869 66.6313 83.6369 66.6668 83.6781 66.7114C83.7193 66.756 83.7507 66.8086 83.7705 66.866C83.8037 66.9732 83.7959 67.0888 83.7487 67.1906C83.7015 67.2923 83.6182 67.3729 83.515 67.4168L82.9735 67.6588L85.0253 67.68C85.2539 67.6783 85.5345 67.8222 85.5194 68.0783C85.52 68.1772 85.4872 68.2734 85.4261 68.3513C85.365 68.4291 85.2794 68.4839 85.1832 68.5068C85.1837 68.5089 85.1841 68.5111 85.1841 68.5132C85.1839 68.5149 85.1836 68.5166 85.1832 68.5182L85.535 68.5158C85.6001 68.5154 85.6645 68.5295 85.7234 68.557C85.7824 68.5846 85.8345 68.625 85.8758 68.6753C85.9172 68.7255 85.9469 68.7843 85.9627 68.8475C85.9785 68.9106 85.98 68.9765 85.9671 69.0403C85.9446 69.1404 85.8884 69.2298 85.8079 69.2934C85.7274 69.3571 85.6275 69.3912 85.5249 69.39L85.3752 69.3911C85.3733 69.3954 85.3705 69.3994 85.3672 69.4028C85.4685 69.4255 85.5584 69.4836 85.6208 69.5665C85.6833 69.6495 85.7142 69.7519 85.7081 69.8556C85.698 69.9688 85.6456 70.074 85.5613 70.1503C85.4771 70.2266 85.3672 70.2683 85.2535 70.2671L84.8816 70.2697C84.8869 70.2734 84.8913 70.2782 84.8943 70.2839C84.8973 70.2896 84.8989 70.2959 84.899 70.3024C84.8987 70.31 84.8962 70.3174 84.8919 70.3236C84.9766 70.369 85.044 70.441 85.0838 70.5285C85.1236 70.616 85.1335 70.7141 85.112 70.8078C85.0876 70.9056 85.0309 70.9923 84.951 71.0539C84.8712 71.1155 84.7729 71.1483 84.6721 71.1471L81.5346 71.1694C81.0957 71.1725 80.6658 71.0445 80.3001 70.8017C79.9344 70.559 79.6495 70.2125 79.482 69.8068C79.3375 69.4569 79.3351 69.0645 79.4753 68.7129C79.6156 68.3613 79.8874 68.0783 80.233 67.9239L80.6537 67.7362Z" fill="#E98862"/>
<g opacity="0.2">
<path opacity="0.2" d="M83.1523 68.4958C83.1523 68.5065 83.1565 68.5167 83.1641 68.5243C83.1716 68.5319 83.1819 68.5361 83.1926 68.5361L85.1438 68.5537C85.1545 68.5538 85.1648 68.5496 85.1724 68.5421C85.18 68.5346 85.1844 68.5244 85.1845 68.5137C85.1845 68.503 85.1804 68.4927 85.1729 68.4851C85.1654 68.4775 85.1552 68.4731 85.1445 68.473L83.193 68.4554C83.1823 68.4554 83.172 68.4597 83.1645 68.4672C83.1569 68.4748 83.1527 68.4851 83.1527 68.4958H83.1523Z" fill="#0C0C0C"/>
</g>
<g opacity="0.2">
<path opacity="0.2" d="M83.1208 69.3565C83.1208 69.3672 83.125 69.3775 83.1326 69.385C83.1402 69.3926 83.1504 69.3969 83.1611 69.3969L85.3385 69.4165C85.3492 69.4165 85.3595 69.4122 85.367 69.4047C85.3746 69.3971 85.3789 69.3868 85.3789 69.3761C85.3785 69.3655 85.3742 69.3554 85.3667 69.3479C85.3592 69.3404 85.3491 69.3361 85.3385 69.3358L83.161 69.3162C83.1503 69.3162 83.14 69.3204 83.1324 69.328C83.1249 69.3355 83.1206 69.3458 83.1206 69.3565H83.1208Z" fill="#0C0C0C"/>
</g>
<g opacity="0.2">
<path opacity="0.2" d="M83.0812 70.2876C83.0812 70.2983 83.0855 70.3085 83.0931 70.3161C83.1006 70.3237 83.1109 70.3279 83.1216 70.3279L84.8585 70.3437C84.8692 70.3437 84.8795 70.3394 84.8871 70.3318C84.8946 70.3243 84.8989 70.314 84.8989 70.3033C84.8989 70.2926 84.8946 70.2824 84.8871 70.2748C84.8795 70.2672 84.8692 70.263 84.8585 70.263L83.1216 70.2474C83.1109 70.2474 83.1006 70.2516 83.0931 70.2592C83.0855 70.2667 83.0812 70.277 83.0812 70.2877V70.2876Z" fill="#0C0C0C"/>
</g>
<path d="M81.3771 72.2324L72.6541 74.2148H72.6527C70.1906 73.4778 67.925 72.1984 66.0224 70.4706C65.8179 70.285 65.618 70.0949 65.4225 69.9002C65.0818 69.5602 64.7559 69.2065 64.4448 68.8393L65.666 59.0161C65.7992 58.2242 66.2415 57.5178 66.8956 57.052C67.5498 56.5863 68.3621 56.3995 69.154 56.5327C69.9458 56.666 70.6523 57.1083 71.118 57.7624C71.5837 58.4165 71.7705 59.2289 71.6373 60.0207L70.8653 69.2441L80.5917 67.0423L81.3771 72.2324Z" fill="#0CBC8B"/>
<path d="M68.8979 69.6064C68.8926 69.6068 68.8873 69.6061 68.8822 69.6045C68.8772 69.6028 68.8725 69.6002 68.8685 69.5967C68.8644 69.5932 68.8611 69.589 68.8587 69.5843C68.8563 69.5795 68.8549 69.5744 68.8545 69.5691C68.8541 69.5638 68.8548 69.5584 68.8564 69.5534C68.8581 69.5483 68.8607 69.5437 68.8642 69.5396C68.8677 69.5356 68.8719 69.5323 68.8766 69.5299C68.8814 69.5275 68.8865 69.5261 68.8918 69.5257L70.8419 69.1088C70.8472 69.108 70.8525 69.1082 70.8577 69.1095C70.8628 69.1108 70.8677 69.113 70.872 69.1162C70.8762 69.1193 70.8798 69.1233 70.8826 69.1278C70.8853 69.1324 70.8871 69.1374 70.8879 69.1427C70.8887 69.1479 70.8885 69.1533 70.8872 69.1584C70.8859 69.1636 70.8836 69.1684 70.8804 69.1726C70.8773 69.1769 70.8733 69.1805 70.8687 69.1832C70.8642 69.186 70.8592 69.1878 70.8539 69.1885L68.9031 69.6054C68.9014 69.6059 68.8997 69.6062 68.8979 69.6064Z" fill="#0C0C0C"/>
<path d="M81.3771 72.2324C81.3793 72.2428 81.3774 72.2535 81.3719 72.2625C81.3664 72.2715 81.3577 72.2781 81.3475 72.2809L72.8733 74.278C72.8195 74.2631 72.7671 74.2484 72.7146 74.2322L81.2883 72.2136L80.5244 67.103L70.8559 69.1888C70.8497 69.1898 70.8433 69.1894 70.8372 69.1875C70.8312 69.1857 70.8256 69.1825 70.821 69.1782C70.817 69.1733 70.814 69.1678 70.8121 69.1618C70.8103 69.1558 70.8096 69.1495 70.8102 69.1432L71.3522 63.8725C71.3532 63.8673 71.3551 63.8623 71.358 63.8579C71.3609 63.8534 71.3647 63.8496 71.369 63.8466C71.3734 63.8435 71.3783 63.8414 71.3835 63.8403C71.3887 63.8392 71.3941 63.8392 71.3993 63.8401C71.4098 63.8418 71.4193 63.8475 71.4256 63.8561C71.4318 63.8647 71.4345 63.8755 71.4329 63.886L70.899 69.1029L80.5419 67.0129C80.5471 67.0114 80.5526 67.0111 80.558 67.0121C80.5633 67.013 80.5684 67.0151 80.5729 67.0183C80.5775 67.0208 80.5815 67.0242 80.5848 67.0283C80.588 67.0325 80.5904 67.0372 80.5917 67.0423L81.3771 72.2324Z" fill="#0C0C0C"/>
<path d="M15.7991 94.7855C24.5247 94.7855 31.5982 87.712 31.5982 78.9864C31.5982 70.2608 24.5247 63.1873 15.7991 63.1873C7.07349 63.1873 0 70.2608 0 78.9864C0 87.712 7.07349 94.7855 15.7991 94.7855Z" fill="white"/>
<path opacity="0.09" d="M15.7991 94.7855C24.5247 94.7855 31.5982 87.712 31.5982 78.9864C31.5982 70.2608 24.5247 63.1873 15.7991 63.1873C7.07349 63.1873 0 70.2608 0 78.9864C0 87.712 7.07349 94.7855 15.7991 94.7855Z" fill="#367CFF"/>
<path d="M11.4482 70.0252C11.4482 70.0252 11.6194 74.7836 14.7954 75.0023L15.3334 68.7275L11.4482 70.0252Z" fill="#0A0A0A"/>
<path d="M12.0599 75.9742C13.099 75.9742 13.9414 75.1318 13.9414 74.0927C13.9414 73.0536 13.099 72.2112 12.0599 72.2112C11.0207 72.2112 10.1783 73.0536 10.1783 74.0927C10.1783 75.1318 11.0207 75.9742 12.0599 75.9742Z" fill="#0A0A0A"/>
<path d="M19.4217 77.2107C19.4049 77.2084 19.219 80.2939 15.6346 80.0249C13.1531 79.8395 12.2685 77.2067 12.2117 77.2067C12.4953 77.1596 12.775 77.0918 13.0486 77.0037C13.4393 76.7938 13.9228 76.5754 14.0487 75.8166C14.1213 75.3792 13.9983 73.1417 14.0361 72.6992L17.8451 73.5495C17.7913 74.4839 17.4193 76.6504 18.7249 77.034C18.942 77.0973 19.176 77.1557 19.4217 77.2107Z" fill="#E98862"/>
<path opacity="0.5" d="M17.8983 76.1483C17.8386 75.9558 17.8002 75.7573 17.7837 75.5565C17.7419 75.0987 17.7503 74.6376 17.8086 74.1816C17.0345 74.0771 16.3051 73.7575 15.7035 73.2593C15.6327 73.5205 15.2438 74.6619 15.3515 74.91C15.5551 75.3802 16.5117 76.1483 17.8983 76.1483Z" fill="#0C0C0C"/>
<path d="M17.3016 75.317C15.793 75.3362 13.9071 74.575 13.6733 72.5485L13.4624 70.7194C13.2286 68.6929 14.1034 66.9268 16.0116 66.7072C17.9196 66.4872 19.5352 67.9653 19.7691 69.992L19.8624 70.8015C19.9521 71.5795 19.9933 75.2828 17.3016 75.317Z" fill="#E98862"/>
<path d="M19.3156 70.7471C19.4463 70.7471 19.5522 70.6412 19.5522 70.5106C19.5522 70.3799 19.4463 70.274 19.3156 70.274C19.185 70.274 19.079 70.3799 19.079 70.5106C19.079 70.6412 19.185 70.7471 19.3156 70.7471Z" fill="#0C0C0C"/>
<path d="M16.8976 71.0236C17.0283 71.0236 17.1342 70.9177 17.1342 70.7871C17.1342 70.6564 17.0283 70.5505 16.8976 70.5505C16.767 70.5505 16.661 70.6564 16.661 70.7871C16.661 70.9177 16.767 71.0236 16.8976 71.0236Z" fill="#0C0C0C"/>
<path opacity="0.5" d="M18.0975 72.5882H18.1013C18.1786 72.5787 18.2553 72.5649 18.3311 72.547C18.4444 72.5194 18.5936 72.471 18.5819 72.3696C18.5685 72.2542 18.1087 71.0448 18.0562 70.9073C18.054 70.9014 18.0505 70.8959 18.0462 70.8913C18.0418 70.8867 18.0366 70.883 18.0307 70.8804C18.0249 70.8778 18.0187 70.8764 18.0123 70.8762C18.006 70.876 17.9996 70.8771 17.9937 70.8793C17.9877 70.8816 17.9823 70.885 17.9777 70.8894C17.9731 70.8938 17.9693 70.899 17.9667 70.9048C17.9641 70.9106 17.9627 70.9169 17.9625 70.9232C17.9624 70.9296 17.9634 70.9359 17.9657 70.9419C18.1619 71.4568 18.4768 72.3031 18.4856 72.3809C18.3646 72.4491 18.229 72.4872 18.0901 72.492C18.0773 72.493 18.0654 72.499 18.0571 72.5088C18.0487 72.5185 18.0446 72.5312 18.0455 72.544C18.0465 72.5568 18.0525 72.5687 18.0623 72.5771C18.072 72.5854 18.0847 72.5896 18.0975 72.5886V72.5882Z" fill="#0C0C0C"/>
<path opacity="0.5" d="M17.7564 73.4316C18.0664 73.4138 18.3678 73.3236 18.6364 73.1681C18.647 73.1615 18.6546 73.1511 18.6578 73.1391C18.6609 73.127 18.6593 73.1142 18.6533 73.1033C18.6473 73.0924 18.6373 73.0843 18.6254 73.0805C18.6135 73.0768 18.6007 73.0778 18.5895 73.0832C18.0093 73.4043 17.4544 73.4228 16.985 73.137C16.9755 73.131 16.9657 73.1254 16.9557 73.1203C16.9441 73.1158 16.9311 73.1159 16.9196 73.1207C16.9081 73.1254 16.8988 73.1345 16.8937 73.1459C16.8886 73.1573 16.8882 73.1702 16.8924 73.1819C16.8966 73.1937 16.9051 73.2034 16.9163 73.209C16.9199 73.2109 16.9261 73.2146 16.9346 73.2199C17.1814 73.3707 17.4675 73.4444 17.7564 73.4316Z" fill="#0C0C0C"/>
<path d="M11.9111 71.2394L13.6209 71.052C14.9361 70.6273 15.4825 68.4429 15.4825 68.4429C15.4825 68.4429 16.661 69.7831 20.1535 69.1712C20.1535 69.1712 20.0182 64.6687 14.7066 65.3026C12.8573 65.5235 11.4627 67.3782 11.4483 69.8032C11.4384 71.5024 11.9111 71.2394 11.9111 71.2394Z" fill="#0A0A0A"/>
<path d="M13.8631 73.1522C13.2832 73.2195 12.7416 72.653 12.6748 72.0731C12.6079 71.4932 13.041 71.1193 13.6209 71.0524L13.9645 71.4064L14.3617 73.0947L13.8631 73.1522Z" fill="#E98862"/>
<path d="M18.4789 69.9203C18.65 69.8256 18.8433 69.7786 19.0387 69.7842C19.1352 69.7863 19.2308 69.803 19.3223 69.8335C19.4133 69.8634 19.5001 69.9047 19.5807 69.9563C19.5887 69.9614 19.5945 69.9695 19.5968 69.9788C19.5991 69.9881 19.5977 69.9979 19.5929 70.0062C19.5882 70.0144 19.5804 70.0206 19.5712 70.0233C19.562 70.026 19.5522 70.025 19.5437 70.0206L19.5413 70.0193C19.4649 69.9739 19.3831 69.9383 19.2978 69.9134C19.2134 69.8882 19.1256 69.8759 19.0375 69.877C18.8621 69.8779 18.6901 69.9251 18.5389 70.014L18.5353 70.0163C18.529 70.0204 18.522 70.0232 18.5147 70.0246C18.5073 70.0259 18.4998 70.0257 18.4925 70.0241C18.4852 70.0224 18.4783 70.0194 18.4722 70.015C18.4662 70.0106 18.461 70.0051 18.4571 69.9987C18.4533 69.9923 18.4507 69.9852 18.4496 69.9778C18.4485 69.9704 18.449 69.9629 18.4509 69.9557C18.4528 69.9484 18.4561 69.9416 18.4607 69.9357C18.4652 69.9298 18.4709 69.9249 18.4775 69.9212L18.4789 69.9203Z" fill="#0C0C0C"/>
<path d="M16.9466 70.2022C16.7794 70.1492 16.6011 70.1415 16.43 70.18C16.3438 70.1988 16.261 70.2305 16.1843 70.2741C16.1068 70.3175 16.035 70.3704 15.9707 70.4316L15.9687 70.4335C15.9614 70.4389 15.9523 70.4415 15.9433 70.4406C15.9342 70.4398 15.9257 70.4357 15.9195 70.429C15.9133 70.4224 15.9097 70.4137 15.9095 70.4046C15.9093 70.3955 15.9124 70.3867 15.9183 70.3797C15.9853 70.3114 16.0607 70.2518 16.1426 70.2023C16.225 70.1521 16.3145 70.1145 16.4081 70.0908C16.5973 70.0418 16.7962 70.0444 16.9841 70.0985C16.9913 70.1003 16.9982 70.1036 17.0041 70.1082C17.0101 70.1127 17.015 70.1184 17.0187 70.125C17.0224 70.1315 17.0248 70.1387 17.0256 70.1461C17.0265 70.1536 17.0258 70.1611 17.0237 70.1683C17.0215 70.1755 17.018 70.1822 17.0132 70.1879C17.0084 70.1937 17.0025 70.1985 16.9958 70.2019C16.9892 70.2053 16.9819 70.2074 16.9744 70.208C16.967 70.2085 16.9594 70.2076 16.9523 70.2051H16.9509L16.9466 70.2022Z" fill="#0C0C0C"/>
<path opacity="0.52" d="M17.7888 73.8898C17.8449 73.8874 17.9007 73.8804 17.9556 73.8686C17.9678 73.8656 17.9784 73.858 17.9851 73.8473C17.9917 73.8366 17.994 73.8238 17.9914 73.8115C17.9888 73.7992 17.9816 73.7884 17.9711 73.7813C17.9607 73.7743 17.948 73.7715 17.9356 73.7737C17.8499 73.7988 17.7598 73.8052 17.6714 73.7927C17.583 73.7801 17.4983 73.7489 17.4229 73.7009C17.413 73.6928 17.4002 73.689 17.3874 73.6902C17.3746 73.6915 17.3628 73.6978 17.3547 73.7078C17.3466 73.7177 17.3427 73.7305 17.344 73.7433C17.3453 73.7561 17.3516 73.7678 17.3616 73.776C17.4866 73.8622 17.6376 73.9024 17.7888 73.8898Z" fill="#0C0C0C"/>
<path opacity="0.1" d="M16.5699 72.6257C16.8187 72.617 17.0152 72.462 17.0088 72.2795C17.0024 72.0971 16.7956 71.9562 16.5468 71.9649C16.2981 71.9736 16.1016 72.1286 16.108 72.3111C16.1144 72.4935 16.3212 72.6344 16.5699 72.6257Z" fill="#0C0C0C"/>
<path opacity="0.1" d="M19.2321 72.122C19.2391 72.3043 19.4458 72.4448 19.6946 72.4366C19.7376 72.4351 19.7803 72.4291 19.8221 72.4187C19.8515 72.2046 19.8696 71.9978 19.8794 71.8057C19.8124 71.7829 19.7418 71.7727 19.6711 71.7758C19.4228 71.7842 19.2264 71.9387 19.2321 72.122Z" fill="#0C0C0C"/>
<path d="M24.7751 80.4605C24.7643 81.5378 24.3945 82.8222 24.2627 84.3742C24.2277 84.7884 23.3386 85.9867 23.2095 87.3195C23.0468 89.0168 23.4087 91.6635 23.4571 92.8081C20.958 94.1909 18.131 94.8711 15.2765 94.7764C12.4219 94.6816 9.64622 93.8156 7.24431 92.2701C7.17975 89.3301 7.10309 85.7003 7.00492 84.8301C6.68618 81.9574 6.77225 80.1404 7.2322 79.2905C7.984 77.9025 9.32218 77.4789 10.7222 77.2879C11.5776 77.1723 12.862 77.0902 12.862 77.0902C12.862 77.0902 12.9709 79.2918 15.5666 79.4142C19.0996 79.581 18.8642 77.0902 18.8817 77.0902C20.1634 77.0902 22.5923 77.3968 23.523 78.0316C24.5101 78.7027 24.7872 79.4989 24.7751 80.4605Z" fill="#FFC239"/>
<path d="M12.5688 82.1363L7.77554 92.5964C5.93517 91.5099 4.33393 90.0619 3.06839 88.3398L7.06678 79.6141L12.5688 82.1363Z" fill="#FFC239"/>
<path d="M28.647 88.1816C27.708 89.4917 26.5747 90.6509 25.2861 91.6192C24.862 91.9394 24.4217 92.2374 23.9668 92.5122L19.0471 81.6965L24.5559 79.1896L28.647 88.1816Z" fill="#FFC239"/>
<path d="M48.6795 32.8987C57.7642 32.8987 65.1288 25.5341 65.1288 16.4493C65.1288 7.36462 57.7642 0 48.6795 0C39.5948 0 32.2301 7.36462 32.2301 16.4493C32.2301 25.5341 39.5948 32.8987 48.6795 32.8987Z" fill="white"/>
<path opacity="0.09" d="M48.6795 32.8987C57.7642 32.8987 65.1288 25.5341 65.1288 16.4493C65.1288 7.36462 57.7642 0 48.6795 0C39.5948 0 32.2301 7.36462 32.2301 16.4493C32.2301 25.5341 39.5948 32.8987 48.6795 32.8987Z" fill="#367CFF"/>
<path d="M51.8602 6.59916C51.8602 6.59916 52.9018 5.47025 52.8212 3.32002C52.759 1.65517 51.4523 2.97761 51.4523 2.97761C51.4523 2.97761 51.3956 1.77931 50.5646 2.04963C49.7336 2.31996 49.4781 3.63581 49.4781 3.63581" fill="#0C0C0C"/>
<path d="M46.1823 2.98433C46.1823 2.98433 42.0339 4.20348 44.6008 9.6592L44.9797 9.61643L45.7487 9.52982" fill="#0C0C0C"/>
<path d="M52.0611 15.3184C52.0423 15.316 51.8325 18.7963 47.7893 18.4924C44.9903 18.2827 43.9923 15.313 43.9281 15.313C44.2299 15.2489 44.6028 15.1516 44.751 15.1182C45.0741 15.0432 45.3667 14.8716 45.5898 14.6263C45.813 14.381 45.9562 14.0736 46.0003 13.7449C46.0822 13.2516 45.9433 10.7277 45.9861 10.2286L50.2825 11.1876C50.2225 12.2418 49.8024 14.6856 51.275 15.1182C51.5202 15.1898 51.7842 15.2557 52.0611 15.3184Z" fill="#E98862"/>
<path opacity="0.52" d="M50.3429 14.1196C50.2756 13.9027 50.2323 13.6791 50.2136 13.4528C50.1664 12.9363 50.1759 12.4162 50.2417 11.9018C49.3685 11.784 48.5458 11.4235 47.8672 10.8614C47.7873 11.1561 47.3486 12.4436 47.47 12.7236C47.6997 13.2529 48.7787 14.1196 50.3429 14.1196Z" fill="#0C0C0C"/>
<path d="M49.6415 13.0115C47.9469 13.1639 45.7594 12.4714 45.3209 10.2125L44.9251 8.1743C44.4865 5.91487 45.3174 3.85381 47.4442 3.44092C49.571 3.0279 51.5163 4.55047 51.955 6.80936L52.1298 7.71165C52.1847 8.0225 52.2182 8.33672 52.2301 8.65214C52.2681 9.48598 52.3225 10.7533 51.9218 11.6901C51.5436 12.5748 50.7244 12.9143 49.6415 13.0115Z" fill="#E98862"/>
<path opacity="0.5" d="M49.8977 10.7783C50.2081 10.7725 50.5127 10.6938 50.7871 10.5486C50.793 10.5459 50.7984 10.542 50.8028 10.5372C50.8072 10.5324 50.8107 10.5267 50.8128 10.5205C50.815 10.5143 50.8159 10.5078 50.8155 10.5013C50.8151 10.4947 50.8133 10.4883 50.8104 10.4825C50.8074 10.4766 50.8033 10.4715 50.7983 10.4672C50.7933 10.463 50.7875 10.4599 50.7813 10.4579C50.775 10.456 50.7684 10.4554 50.7619 10.4561C50.7554 10.4568 50.7491 10.4588 50.7434 10.462C50.1516 10.7607 49.5963 10.7579 49.1381 10.4547C49.1289 10.4483 49.1193 10.4424 49.1094 10.437C49.1037 10.4342 49.0975 10.4325 49.0912 10.4321C49.0848 10.4317 49.0784 10.4325 49.0724 10.4346C49.0664 10.4366 49.0608 10.4399 49.056 10.4441C49.0513 10.4483 49.0474 10.4534 49.0446 10.4591C49.0417 10.4648 49.0401 10.471 49.0397 10.4774C49.0393 10.4837 49.0401 10.4901 49.0422 10.4961C49.0442 10.5021 49.0474 10.5077 49.0517 10.5125C49.0559 10.5173 49.061 10.5212 49.0667 10.524C49.0703 10.526 49.0762 10.53 49.0846 10.5355C49.3254 10.6956 49.6085 10.7801 49.8977 10.7783Z" fill="#0C0C0C"/>
<path opacity="0.52" d="M49.9126 11.2378C49.9688 11.2377 50.0248 11.2327 50.0801 11.2231C50.0863 11.222 50.0923 11.2197 50.0977 11.2163C50.1031 11.2129 50.1078 11.2085 50.1115 11.2033C50.1151 11.1981 50.1178 11.1923 50.1192 11.1861C50.1206 11.1799 50.1207 11.1734 50.1197 11.1672C50.1186 11.1609 50.1163 11.1549 50.1129 11.1495C50.1095 11.1441 50.1051 11.1395 50.0999 11.1358C50.0948 11.1321 50.0889 11.1295 50.0827 11.1281C50.0765 11.1267 50.0701 11.1265 50.0638 11.1276C49.9772 11.1493 49.8869 11.1523 49.7991 11.1363C49.7112 11.1204 49.6277 11.086 49.5542 11.0353C49.5445 11.0271 49.5321 11.0231 49.5194 11.024C49.5068 11.0249 49.495 11.0308 49.4866 11.0403C49.4783 11.0498 49.474 11.0622 49.4746 11.0748C49.4753 11.0875 49.4809 11.0994 49.4902 11.1079C49.6117 11.1988 49.761 11.2447 49.9126 11.2378Z" fill="#0C0C0C"/>
<path d="M51.4459 8.28082C51.5933 8.28082 51.7128 8.16136 51.7128 8.01399C51.7128 7.86663 51.5933 7.74716 51.4459 7.74716C51.2986 7.74716 51.1791 7.86663 51.1791 8.01399C51.1791 8.16136 51.2986 8.28082 51.4459 8.28082Z" fill="#0C0C0C"/>
<path d="M48.8514 8.58409C48.9987 8.58409 49.1182 8.46462 49.1182 8.31726C49.1182 8.16989 48.9987 8.05043 48.8514 8.05043C48.704 8.05043 48.5845 8.16989 48.5845 8.31726C48.5845 8.46462 48.704 8.58409 48.8514 8.58409Z" fill="#0C0C0C"/>
<path d="M45.5866 10.875C44.9403 11.0005 44.2821 10.4107 44.1565 9.76438C44.0309 9.11802 44.4858 8.65995 45.1321 8.53447L45.549 8.90284L46.1421 10.7671L45.5866 10.875Z" fill="#E98862"/>
<path d="M46.0427 9.7173C46.0427 9.7173 45.6816 6.47408 46.6172 6.10046C47.2403 5.85152 48.9754 6.48524 50.3785 5.94513C50.9923 5.70869 51.6244 5.75684 51.7401 6.04613C51.7859 6.16058 51.8728 4.38007 50.6424 3.2634C49.6627 2.37442 47.016 2.55235 45.897 3.10456C42.7988 4.63358 45.024 8.69935 45.024 8.69935L45.3697 9.77742L46.0427 9.7173Z" fill="#0C0C0C"/>
<g opacity="0.52">
<path opacity="0.52" d="M50.2955 9.97512H50.2997C50.5081 9.93478 50.8532 9.84507 50.8242 9.6892C50.7993 9.55995 50.1786 8.23334 50.1082 8.08258C50.1052 8.07616 50.1009 8.0704 50.0957 8.06562C50.0904 8.06084 50.0843 8.05714 50.0776 8.05473C50.071 8.05232 50.0639 8.05125 50.0568 8.05157C50.0497 8.0519 50.0428 8.05361 50.0363 8.05662C50.0299 8.05964 50.0242 8.06388 50.0194 8.06912C50.0146 8.07436 50.0109 8.08049 50.0085 8.08716C50.0061 8.09383 50.005 8.1009 50.0053 8.10799C50.0057 8.11507 50.0074 8.12202 50.0104 8.12844C50.2856 8.71589 50.7011 9.62128 50.7181 9.70937C50.7046 9.74972 50.4959 9.82759 50.2802 9.86888C50.2659 9.871 50.2531 9.8787 50.2445 9.89029C50.2359 9.90188 50.2323 9.91641 50.2344 9.93068C50.2365 9.94494 50.2442 9.95778 50.2558 9.96637C50.2674 9.97496 50.2819 9.97859 50.2962 9.97647L50.2955 9.97512Z" fill="#0C0C0C"/>
</g>
<path d="M50.4429 6.72449C50.6515 6.62451 50.8831 6.58269 51.1135 6.60345C51.2265 6.61296 51.3374 6.63935 51.4426 6.68173C51.5464 6.72302 51.6447 6.77724 51.735 6.84311C51.7517 6.8547 51.7633 6.87234 51.7673 6.89232C51.7714 6.9123 51.7675 6.93305 51.7565 6.95022C51.7455 6.96738 51.7283 6.97962 51.7085 6.98435C51.6887 6.98908 51.6678 6.98594 51.6502 6.97559L51.6442 6.97344C51.5623 6.92116 51.4742 6.87936 51.3819 6.84903C51.2912 6.81874 51.1964 6.80237 51.1007 6.80048C50.9121 6.79523 50.7255 6.83991 50.5598 6.93L50.5529 6.9339C50.5394 6.9416 50.5246 6.94657 50.5092 6.94852C50.4938 6.95047 50.4781 6.94937 50.4631 6.94528C50.4482 6.94119 50.4341 6.93419 50.4219 6.92468C50.4096 6.91517 50.3993 6.90333 50.3916 6.88985C50.3839 6.87637 50.3789 6.8615 50.377 6.84609C50.375 6.83069 50.3761 6.81505 50.3802 6.80007C50.3843 6.78509 50.3913 6.77106 50.4008 6.75879C50.4103 6.74651 50.4222 6.73623 50.4356 6.72853L50.4429 6.72449Z" fill="#0C0C0C"/>
<path d="M48.9131 7.13792C48.7314 7.08709 48.5396 7.0851 48.357 7.13214C48.2641 7.15523 48.1754 7.19228 48.0936 7.24202C48.0102 7.29209 47.9334 7.3524 47.865 7.42156L47.8607 7.42586C47.846 7.44013 47.8262 7.44808 47.8057 7.44801C47.7852 7.44795 47.7655 7.43987 47.7509 7.42551C47.7362 7.41114 47.7278 7.39162 47.7273 7.37112C47.7269 7.35061 47.7344 7.33073 47.7484 7.31572C47.8216 7.23123 47.9053 7.15635 47.9973 7.09287C48.0905 7.02812 48.1928 6.97767 48.3009 6.94318C48.4089 6.90756 48.5213 6.88693 48.635 6.88185C48.7513 6.87545 48.868 6.88559 48.9815 6.91198C49.0121 6.91911 49.0385 6.93808 49.0551 6.96472C49.0716 6.99135 49.0769 7.02347 49.0698 7.054C49.0626 7.08453 49.0437 7.11098 49.017 7.12752C48.9904 7.14407 48.9583 7.14936 48.9277 7.14222L48.9207 7.14034L48.9131 7.13792Z" fill="#0C0C0C"/>
<path d="M49.7314 4.57579C50.1928 4.38882 50.3437 3.68674 50.0684 3.00765C49.7932 2.32855 49.1961 1.92961 48.7348 2.11658C48.2734 2.30355 48.1225 3.00564 48.3977 3.68473C48.6729 4.36382 49.27 4.76277 49.7314 4.57579Z" fill="#0C0C0C"/>
<path d="M57.6492 18.9148C57.6653 20.0297 57.2295 21.2832 57.0843 22.9804C57.0547 23.3247 56.9848 24.0833 56.892 25.0718C56.74 26.7085 56.5248 28.972 56.3365 31.0122C53.6439 32.4255 50.6125 33.0658 47.5784 32.8621C44.5442 32.6584 41.6256 31.6187 39.146 29.8583C39.0868 29.8139 39.0277 29.7708 38.9685 29.7292C38.8111 27.4227 38.6255 25.0018 38.4561 23.4727C38.1373 20.6175 37.7029 19.1959 37.9464 18.2356C37.9659 18.1539 37.9919 18.0738 38.0244 17.9963C38.7251 16.2963 40.9562 15.5378 42.4679 15.3333C43.3905 15.2083 44.7785 15.1182 44.7785 15.1182C44.7785 15.1182 44.8955 17.4959 47.6969 17.6277C51.511 17.808 51.2568 15.1182 51.2757 15.1182C51.893 15.1182 55.2566 15.5674 56.0971 16.1161C56.2381 16.2076 56.3729 16.3082 56.5006 16.4173C56.8658 16.7219 57.1584 17.1042 57.3571 17.5363C57.5558 17.9683 57.6556 18.4393 57.6492 18.9148Z" fill="#383838"/>
<path d="M43.6057 20.639L39.146 29.8583C39.0868 29.8139 39.0277 29.7708 38.9685 29.7291C37.2397 28.4615 35.7735 26.8701 34.6514 25.0435L37.9464 18.2356L38.0768 17.9653L43.6057 20.639Z" fill="#383838"/>
<path d="M43.1753 21.7001L39.1191 29.8381C39.0922 29.8179 39.0667 29.7991 39.0398 29.7816L43.0906 21.6584C43.0964 21.6471 43.1064 21.6385 43.1185 21.6345C43.1306 21.6305 43.1437 21.6313 43.1552 21.6369C43.1662 21.6426 43.1745 21.6525 43.1783 21.6643C43.1821 21.6762 43.181 21.689 43.1753 21.7001Z" fill="white"/>
<path d="M63.7416 23.0719C62.9331 24.9042 61.7979 26.5739 60.3914 27.9996L56.892 25.0718L52.4471 21.3518L56.5006 16.4173L56.5127 16.4025L63.7416 23.0719Z" fill="#383838"/>
<path d="M56.9459 25.1077C56.9573 25.1071 56.9682 25.1024 56.9764 25.0945C56.9846 25.0865 56.9897 25.0759 56.9907 25.0645L57.2216 22.3572C57.2227 22.3447 57.2188 22.3323 57.2107 22.3227C57.2026 22.3131 57.1911 22.3071 57.1786 22.306C57.1661 22.3051 57.1538 22.3091 57.1443 22.3171C57.1347 22.3251 57.1287 22.3366 57.1275 22.349L56.8966 25.0564C56.8955 25.0689 56.8995 25.0813 56.9075 25.0909C56.9156 25.1004 56.9271 25.1064 56.9396 25.1075L56.9459 25.1077Z" fill="white"/>
<path d="M126.135 104.129C134.8 104.129 141.824 97.1046 141.824 88.4397C141.824 79.7748 134.8 72.7505 126.135 72.7505C117.47 72.7505 110.446 79.7748 110.446 88.4397C110.446 97.1046 117.47 104.129 126.135 104.129Z" fill="white"/>
<path opacity="0.09" d="M110.446 88.4393C110.446 91.5423 111.366 94.5756 113.09 97.1556C114.814 99.7357 117.264 101.747 120.131 102.934C122.997 104.122 126.152 104.432 129.195 103.827C132.239 103.222 135.034 101.727 137.228 99.5332C139.423 97.3391 140.917 94.5436 141.522 91.5002C142.128 88.4569 141.817 85.3023 140.629 82.4356C139.442 79.5688 137.431 77.1185 134.851 75.3946C132.271 73.6706 129.238 72.7505 126.135 72.7505C124.072 72.7429 122.029 73.1435 120.122 73.9293C118.215 74.715 116.482 75.8703 115.024 77.3287C113.566 78.787 112.41 80.5196 111.625 82.4265C110.839 84.3333 110.438 86.3769 110.446 88.4393Z" fill="#367CFF"/>
<path d="M133.254 79.7819C133.004 82.6869 133.236 83.6719 134.442 85.3363C135.46 86.7396 129.671 85.5468 127.109 85.0906L129.37 78.4847C129.37 78.4847 133.342 78.7618 133.254 79.7819Z" fill="#0A0A0A"/>
<path d="M124.418 78.5732C123.662 81.3893 123.747 82.2605 122.268 83.7394C121.042 84.9651 125.819 85.2143 128.382 85.6596L128.512 78.6796C128.512 78.6796 124.683 77.5843 124.418 78.5732Z" fill="#0A0A0A"/>
<path d="M124.672 86.764C124.689 86.7617 124.877 89.8761 128.495 89.6045C130.999 89.4169 131.892 86.7595 131.95 86.7595C131.664 86.7119 131.381 86.6435 131.105 86.5547C130.711 86.3427 130.223 86.1222 130.096 85.3564C130.022 84.9149 130.146 82.6565 130.108 82.2093L126.264 83.0675C126.317 84.0108 126.694 86.1976 125.376 86.5845C125.156 86.6491 124.92 86.708 124.672 86.764Z" fill="#E98862"/>
<path opacity="0.5" d="M126.21 85.6914C126.27 85.4973 126.309 85.2972 126.325 85.0947C126.368 84.6325 126.359 84.1672 126.3 83.7068C127.082 83.6014 127.818 83.2789 128.425 82.7759C128.497 83.0396 128.889 84.1916 128.781 84.4421C128.575 84.9158 127.609 85.6914 126.21 85.6914Z" fill="#0C0C0C"/>
<path d="M126.707 84.7212C128.223 84.8678 130.184 84.2615 130.59 82.2429L130.957 80.4215C131.363 78.403 130.632 76.5532 128.732 76.1707C126.831 75.7882 125.081 77.139 124.675 79.1572L124.513 79.9641C124.357 80.7381 124.002 84.4597 126.707 84.7212Z" fill="#E98862"/>
<path d="M132.791 80.9965L131.081 80.8091C127.736 80.194 126.917 77.4944 126.917 77.4944C126.917 77.4944 125.513 79.3679 124.322 78.9377C124.322 78.9377 124.706 74.42 129.995 75.2139C132.074 75.5258 133.254 77.2488 133.254 79.5599C133.254 81.2589 132.791 80.9965 132.791 80.9965Z" fill="#0A0A0A"/>
<path opacity="0.1" d="M128.161 81.7979C128.183 81.6149 127.998 81.4424 127.749 81.4127C127.499 81.3829 127.279 81.5071 127.257 81.6901C127.236 81.8731 127.42 82.0455 127.67 82.0753C127.919 82.1051 128.139 81.9809 128.161 81.7979Z" fill="#0C0C0C"/>
<path opacity="0.1" d="M125.035 81.3445C125.013 81.5272 124.793 81.6513 124.544 81.6219C124.501 81.6166 124.458 81.607 124.417 81.5931C124.405 81.3752 124.405 81.1657 124.411 80.9716C124.48 80.9543 124.552 80.9501 124.623 80.9592C124.872 80.9887 125.056 81.1611 125.035 81.3445Z" fill="#0C0C0C"/>
<path opacity="0.5" d="M126.137 81.9093H126.133C126.056 81.8932 125.98 81.8729 125.906 81.8485C125.794 81.8111 125.648 81.7499 125.668 81.6489C125.691 81.5339 126.256 80.3563 126.32 80.2225C126.323 80.2165 126.327 80.2111 126.332 80.2067C126.336 80.2022 126.342 80.1987 126.348 80.1965C126.354 80.1942 126.361 80.1932 126.367 80.1935C126.374 80.1938 126.38 80.1955 126.386 80.1983C126.392 80.2011 126.397 80.2051 126.402 80.21C126.406 80.2149 126.409 80.2207 126.412 80.2269C126.414 80.2331 126.414 80.2396 126.414 80.2461C126.413 80.2527 126.412 80.259 126.409 80.2649C126.168 80.7662 125.78 81.5908 125.764 81.6683C125.88 81.747 126.013 81.7968 126.152 81.8134C126.165 81.816 126.176 81.8232 126.183 81.8335C126.19 81.8439 126.193 81.8566 126.191 81.869C126.189 81.8814 126.182 81.8926 126.172 81.9002C126.162 81.9078 126.149 81.9113 126.137 81.9099V81.9093Z" fill="#0C0C0C"/>
<path d="M130.348 82.8341C130.926 82.9503 131.518 82.4268 131.635 81.8491C131.751 81.2715 131.347 80.8588 130.769 80.7426L130.394 81.0696L129.852 82.7342L130.348 82.8341Z" fill="#E98862"/>
<path d="M125.911 79.2828C125.84 79.2323 125.762 79.1916 125.68 79.1618C125.597 79.1305 125.509 79.111 125.421 79.1035C125.332 79.0951 125.243 79.1 125.156 79.1182C125.068 79.1361 124.983 79.1649 124.902 79.2041L124.9 79.2052C124.891 79.2083 124.881 79.2081 124.873 79.2046C124.864 79.201 124.857 79.1944 124.853 79.186C124.849 79.1776 124.849 79.1681 124.851 79.1592C124.854 79.1503 124.86 79.1427 124.868 79.1379C124.953 79.0929 125.044 79.0587 125.138 79.0361C125.233 79.0131 125.33 79.0045 125.428 79.0106C125.625 79.0215 125.815 79.0851 125.979 79.1947C125.991 79.2033 125.999 79.2161 126.002 79.2306C126.004 79.245 126.001 79.2598 125.993 79.2719C125.984 79.284 125.972 79.2925 125.957 79.2954C125.943 79.2983 125.928 79.2955 125.916 79.2876L125.915 79.2867L125.911 79.2828Z" fill="#0C0C0C"/>
<path d="M127.467 79.498C127.661 79.4595 127.861 79.4737 128.047 79.539C128.139 79.5706 128.226 79.616 128.305 79.6735C128.383 79.7302 128.454 79.7964 128.516 79.8708C128.522 79.8781 128.526 79.8878 128.525 79.8977C128.525 79.9076 128.52 79.917 128.513 79.9236C128.506 79.9303 128.496 79.9338 128.486 79.9334C128.476 79.9329 128.467 79.9286 128.46 79.9212L128.458 79.9192C128.399 79.8522 128.331 79.7929 128.257 79.7428C128.183 79.6926 128.102 79.6538 128.017 79.6278C127.848 79.5748 127.668 79.5675 127.496 79.6065L127.492 79.6076C127.477 79.6112 127.462 79.6088 127.449 79.6011C127.436 79.5934 127.427 79.5809 127.424 79.5664C127.42 79.552 127.422 79.5367 127.43 79.5239C127.438 79.5111 127.45 79.502 127.465 79.4984L127.467 79.498Z" fill="#0C0C0C"/>
<path d="M118.845 102.335C118.229 102.066 117.767 101.778 116.714 100.985C115.954 100.414 115.248 99.7754 114.604 99.0765L120.012 88.7861L120.247 88.3391L125.125 90.9034L120.893 98.9553L120.874 98.9908L120.911 99.1341" fill="#EA394A"/>
<path d="M136.83 94.0568C136.688 95.5827 136.657 97.9559 136.667 100.066C134.628 101.916 132.138 103.196 129.447 103.778C126.756 104.36 123.96 104.223 121.339 103.381C121.018 100.199 120.541 95.5229 120.272 92.6436C120 89.6611 119.198 88.6761 121.385 87.2478C122.59 86.6344 124.501 86.5805 125.359 86.5805C125.068 89.4075 131.026 89.7554 131.174 86.5805C135.63 86.9972 137.693 87.1007 136.83 94.0568Z" fill="#EA394A"/>
<path d="M125.629 82.3071C126.121 82.5575 126.683 82.6367 127.226 82.5321C127.244 82.5285 127.264 82.5304 127.282 82.5375C127.299 82.5445 127.315 82.5566 127.326 82.5721C127.337 82.5876 127.344 82.606 127.345 82.6251C127.346 82.6442 127.342 82.6633 127.332 82.68C127.171 82.965 126.787 83.4522 126.129 83.2537C125.704 83.1254 125.543 82.6889 125.483 82.4179C125.479 82.3991 125.48 82.3795 125.487 82.3614C125.494 82.3434 125.505 82.3276 125.521 82.3159C125.536 82.3042 125.554 82.2972 125.573 82.2956C125.593 82.2941 125.612 82.298 125.629 82.3071Z" fill="white"/>
<path d="M125.598 80.1168C125.729 80.1168 125.836 80.0103 125.836 79.8789C125.836 79.7475 125.729 79.6409 125.598 79.6409C125.467 79.6409 125.36 79.7475 125.36 79.8789C125.36 80.0103 125.467 80.1168 125.598 80.1168Z" fill="#0C0C0C"/>
<path d="M127.885 80.517C128.016 80.517 128.123 80.4105 128.123 80.2791C128.123 80.1477 128.016 80.0412 127.885 80.0412C127.753 80.0412 127.647 80.1477 127.647 80.2791C127.647 80.4105 127.753 80.517 127.885 80.517Z" fill="#0C0C0C"/>
<path d="M120.799 97.7797H120.804C120.813 97.7784 120.822 97.7732 120.828 97.7654C120.834 97.7577 120.836 97.7478 120.835 97.7382L120.414 93.5C120.414 93.4952 120.412 93.4905 120.41 93.4863C120.407 93.4821 120.404 93.4784 120.4 93.4755C120.396 93.4725 120.392 93.4704 120.387 93.4693C120.382 93.4681 120.378 93.4679 120.373 93.4687C120.368 93.4693 120.363 93.4709 120.359 93.4733C120.355 93.4758 120.351 93.479 120.348 93.4828C120.346 93.4867 120.343 93.4911 120.342 93.4958C120.341 93.5004 120.341 93.5053 120.341 93.5101L120.762 97.7484C120.763 97.7572 120.768 97.7652 120.775 97.771C120.781 97.7768 120.79 97.7799 120.799 97.7797Z" fill="#0C0C0C"/>
<path d="M120.249 94.552H115.955V99.8185H120.249V94.552Z" fill="white"/>
<path d="M118.491 97.1853C118.491 96.8375 118.594 96.4975 118.787 96.2084C118.98 95.9192 119.255 95.6939 119.576 95.5609C119.898 95.4278 120.251 95.3931 120.593 95.461C120.934 95.5289 121.247 95.6964 121.493 95.9424C121.739 96.1884 121.906 96.5017 121.974 96.8429C122.042 97.184 122.007 97.5376 121.874 97.8589C121.741 98.1802 121.515 98.4548 121.226 98.648C120.937 98.8412 120.597 98.9443 120.249 98.9443C119.783 98.9438 119.336 98.7583 119.006 98.4285C118.676 98.0987 118.491 97.6516 118.491 97.1853ZM119.211 97.1853C119.211 97.3907 119.272 97.5914 119.386 97.7621C119.5 97.9329 119.662 98.066 119.852 98.1445C120.041 98.2231 120.25 98.2437 120.452 98.2036C120.653 98.1636 120.838 98.0647 120.983 97.9195C121.128 97.7743 121.227 97.5893 121.267 97.3879C121.307 97.1865 121.287 96.9777 121.208 96.788C121.13 96.5983 120.997 96.4361 120.826 96.322C120.655 96.2079 120.454 96.147 120.249 96.147C119.974 96.1474 119.71 96.2569 119.515 96.4515C119.321 96.6462 119.211 96.91 119.211 97.1853Z" fill="white"/>
<path d="M120.215 97.837C120.229 97.7479 120.275 97.6668 120.343 97.6077C120.411 97.5487 120.498 97.5156 120.588 97.5143C120.586 97.5106 120.584 97.5066 120.583 97.5023L120.455 97.4746C120.366 97.4569 120.286 97.409 120.228 97.339C120.17 97.269 120.138 97.1811 120.137 97.0902C120.138 97.0332 120.152 96.9771 120.177 96.926C120.202 96.8748 120.238 96.8299 120.283 96.7944C120.327 96.7589 120.379 96.7338 120.435 96.7208C120.49 96.7079 120.548 96.7074 120.604 96.7194L120.905 96.7845C120.905 96.7834 120.905 96.7824 120.905 96.7812C120.906 96.7787 120.907 96.7764 120.908 96.7742C120.83 96.7372 120.766 96.6747 120.727 96.5969C120.689 96.5191 120.678 96.4305 120.696 96.3455C120.729 96.1224 120.997 96.049 121.193 96.0913L121.974 96.2312L121.71 96.0564C121.627 95.9987 121.569 95.9117 121.547 95.8128C121.526 95.7139 121.543 95.6105 121.595 95.5235C121.623 95.4796 121.66 95.4418 121.703 95.4126C121.746 95.3834 121.795 95.3634 121.847 95.3537C121.898 95.344 121.951 95.3448 122.002 95.3562C122.053 95.3676 122.101 95.3892 122.143 95.4198L125.293 99.0242L124.594 98.7069C124.377 99.0261 124.069 99.2733 123.711 99.4166C123.352 99.56 122.959 99.593 122.582 99.5114L120.874 99.1392C120.785 99.1215 120.704 99.0737 120.647 99.0036C120.589 98.9336 120.557 98.8457 120.556 98.7548C120.557 98.6728 120.585 98.5934 120.634 98.528C120.684 98.4627 120.753 98.4149 120.832 98.3917C120.829 98.3859 120.828 98.3796 120.829 98.3734C120.83 98.3675 120.832 98.362 120.836 98.3573C120.84 98.3526 120.844 98.3489 120.85 98.3465L120.535 98.2784C120.435 98.2591 120.347 98.2027 120.288 98.1208C120.228 98.0388 120.202 97.9374 120.215 97.837Z" fill="#E98862"/>
<path opacity="0.2" d="M121.476 96.9115C121.484 96.9097 121.491 96.9051 121.497 96.8986C121.502 96.892 121.505 96.8838 121.505 96.8754C121.504 96.867 121.501 96.8589 121.496 96.8525C121.49 96.8462 121.483 96.8419 121.475 96.8404L120.947 96.7511C120.942 96.7501 120.937 96.7501 120.933 96.7511C120.928 96.752 120.923 96.7539 120.919 96.7566C120.915 96.7594 120.912 96.7629 120.909 96.767C120.906 96.7711 120.905 96.7757 120.904 96.7805C120.903 96.7853 120.903 96.7902 120.904 96.7949C120.905 96.7997 120.908 96.8041 120.91 96.8081C120.913 96.812 120.917 96.8153 120.921 96.8177C120.925 96.8202 120.93 96.8218 120.935 96.8224L121.462 96.9117C121.467 96.9125 121.472 96.9124 121.476 96.9115Z" fill="#0C0C0C"/>
<path opacity="0.2" d="M121.349 97.6577C121.357 97.656 121.364 97.6515 121.369 97.6449C121.375 97.6384 121.377 97.6302 121.377 97.6218C121.377 97.6134 121.374 97.6053 121.369 97.5989C121.363 97.5925 121.356 97.5882 121.347 97.5867L120.625 97.4586C120.62 97.4575 120.615 97.4573 120.61 97.4582C120.605 97.4591 120.601 97.4609 120.597 97.4636C120.593 97.4663 120.589 97.4698 120.586 97.4739C120.584 97.4781 120.582 97.4827 120.581 97.4875C120.58 97.4923 120.58 97.4973 120.581 97.5021C120.582 97.5068 120.585 97.5113 120.587 97.5153C120.59 97.5192 120.594 97.5226 120.598 97.525C120.603 97.5275 120.607 97.5291 120.612 97.5297L121.335 97.658C121.339 97.6588 121.344 97.6587 121.349 97.6577Z" fill="#0C0C0C"/>
<path opacity="0.2" d="M121.216 98.4668C121.224 98.4651 121.232 98.4605 121.237 98.4538C121.242 98.4472 121.245 98.4389 121.244 98.4304C121.244 98.422 121.241 98.4139 121.235 98.4075C121.23 98.4012 121.222 98.397 121.214 98.3957L120.871 98.3432C120.862 98.3424 120.853 98.345 120.845 98.3507C120.838 98.3564 120.833 98.3647 120.832 98.3738C120.83 98.3829 120.833 98.3923 120.838 98.3999C120.843 98.4075 120.851 98.4127 120.86 98.4147L121.203 98.4672C121.207 98.4679 121.212 98.4678 121.216 98.4668Z" fill="#0C0C0C"/>
<path d="M139.018 97.3915C137.086 100.17 134.309 102.252 131.099 103.327L131.098 103.326C130.385 103.187 123.586 100.502 122.686 100.325L123.671 95.734C126.198 96.2369 130.807 98.1754 133.348 98.6802L131.555 90.5507C131.49 90.1916 131.497 89.8231 131.576 89.4668C131.654 89.1104 131.802 88.7731 132.012 88.4746C132.222 88.176 132.489 87.9221 132.798 87.7275C133.107 87.5329 133.451 87.4015 133.811 87.341C134.171 87.2805 134.539 87.292 134.894 87.3749C135.25 87.4578 135.585 87.6104 135.881 87.8239C136.177 88.0374 136.428 88.3075 136.618 88.6186C136.809 88.9297 136.936 89.2755 136.992 89.6361L139.018 97.3915Z" fill="#EA394A"/>
<path d="M135.274 99.2786C135.284 99.2785 135.292 99.2749 135.299 99.2686C135.306 99.2623 135.31 99.2537 135.31 99.2446C135.311 99.2354 135.308 99.2264 135.303 99.2191C135.297 99.2119 135.289 99.207 135.28 99.2055L133.369 98.5572C133.364 98.5565 133.359 98.5566 133.355 98.5578C133.35 98.5589 133.345 98.561 133.342 98.5639C133.338 98.5668 133.334 98.5704 133.332 98.5746C133.329 98.5787 133.328 98.5834 133.327 98.5882C133.326 98.5978 133.328 98.6076 133.334 98.6154C133.34 98.6232 133.349 98.6284 133.358 98.6299L135.269 99.2781C135.271 99.2785 135.273 99.2787 135.274 99.2786Z" fill="#0C0C0C"/>
<path d="M133.398 98.5883C133.399 98.5998 133.396 98.6113 133.389 98.6202C133.384 98.6242 133.379 98.6271 133.374 98.6288C133.368 98.6305 133.362 98.6309 133.357 98.63L123.732 95.7892L122.767 100.308L131.055 103.341C131.03 103.349 131.003 103.358 130.977 103.366C130.959 103.372 130.94 103.378 130.921 103.383L122.713 100.37C122.704 100.367 122.696 100.361 122.691 100.353C122.686 100.345 122.684 100.335 122.686 100.326L123.671 95.7344C123.672 95.7298 123.674 95.7254 123.677 95.7216C123.68 95.7178 123.683 95.7147 123.688 95.7124C123.692 95.7095 123.696 95.7076 123.701 95.7068C123.706 95.706 123.711 95.7062 123.716 95.7075L133.318 98.552L132.231 94.0703C132.229 94.0607 132.232 94.051 132.237 94.0432C132.243 94.0355 132.252 94.0303 132.261 94.0287C132.266 94.0278 132.271 94.0278 132.276 94.0288C132.28 94.0297 132.285 94.0316 132.289 94.0344C132.293 94.0371 132.296 94.0406 132.299 94.0447C132.301 94.0487 132.303 94.0533 132.304 94.058L133.398 98.5883Z" fill="#0C0C0C"/>
<path d="M7.89012 92.7318C7.88116 92.7318 7.8723 92.73 7.86403 92.7266C7.85588 92.7231 7.84849 92.7181 7.84228 92.7119C7.83607 92.7056 7.83116 92.6981 7.82782 92.69C7.82449 92.6818 7.8228 92.673 7.82285 92.6642C7.8229 92.6554 7.82469 92.6466 7.82812 92.6385L10.4633 86.3749C10.4703 86.3584 10.4834 86.3454 10.5 86.3387C10.5165 86.332 10.535 86.3321 10.5515 86.339C10.5679 86.346 10.5809 86.3592 10.5877 86.3757C10.5944 86.3922 10.5943 86.4107 10.5873 86.4272L7.95212 92.6905C7.947 92.7028 7.93839 92.7132 7.92736 92.7205C7.91633 92.7279 7.90337 92.7318 7.89012 92.7318Z" fill="#0C0C0C"/>
<path d="M23.3966 92.803H23.3936C23.3848 92.8033 23.376 92.802 23.3677 92.799C23.3594 92.796 23.3517 92.7914 23.3452 92.7854C23.3387 92.7795 23.3334 92.7723 23.3297 92.7643C23.3259 92.7563 23.3238 92.7476 23.3234 92.7388L23.0297 86.3325C23.0294 86.3148 23.0359 86.2978 23.0478 86.2847C23.0597 86.2717 23.0761 86.2636 23.0937 86.2622C23.1025 86.2617 23.1113 86.2631 23.1197 86.2661C23.128 86.2691 23.1356 86.2737 23.1422 86.2797C23.1487 86.2856 23.154 86.2928 23.1577 86.3008C23.1615 86.3088 23.1636 86.3175 23.164 86.3263L23.4578 92.7326C23.4586 92.75 23.4527 92.767 23.4413 92.7801C23.4299 92.7932 23.4139 92.8014 23.3966 92.803Z" fill="#0C0C0C"/>
</svg>
