<svg width="150" height="110" viewBox="0 0 150 110" fill="none" xmlns="http://www.w3.org/2000/svg">
<path d="M87.6971 48.2157C87.6971 48.2157 87.4735 36.2598 98.2826 36.2598C109.678 36.2598 107.568 28.1691 118.561 28.8295C125.991 29.2764 127.918 37.1238 132.191 38.2833C136.463 39.4428 140.486 40.8499 140.486 47.9894L87.6971 48.2157Z" fill="white"/>
<path d="M111.055 107.898C111.055 107.898 110.89 99.0778 118.864 99.0778C127.271 99.0778 125.714 93.1087 133.824 93.5961C139.306 93.9259 140.727 99.7155 143.88 100.571C147.033 101.426 150 102.465 150 107.732L111.055 107.898Z" fill="white"/>
<path d="M0.000311842 67.4742C0.000311842 67.4742 -0.197972 56.8514 9.40534 56.8514C19.5296 56.8514 17.6547 49.6633 27.4207 50.2508C34.0213 50.6478 35.7335 57.6199 39.5302 58.6501C43.327 59.6803 46.9002 60.9304 46.9002 67.2735L0.000311842 67.4742Z" fill="white"/>
<path opacity="0.1" d="M87.6971 48.2157C87.6971 48.2157 87.4735 36.2598 98.2826 36.2598C109.678 36.2598 107.568 28.1691 118.561 28.8295C125.991 29.2764 127.918 37.1238 132.191 38.2833C136.463 39.4428 140.486 40.8499 140.486 47.9894L87.6971 48.2157Z" fill="#367CFF"/>
<path opacity="0.1" d="M111.055 107.898C111.055 107.898 110.89 99.0778 118.864 99.0778C127.271 99.0778 125.714 93.1087 133.824 93.5961C139.306 93.9259 140.727 99.7155 143.88 100.571C147.033 101.426 150 102.465 150 107.732L111.055 107.898Z" fill="#367CFF"/>
<path opacity="0.1" d="M0.000311842 67.4742C0.000311842 67.4742 -0.197972 56.8514 9.40534 56.8514C19.5296 56.8514 17.6547 49.6633 27.4207 50.2508C34.0213 50.6478 35.7335 57.6199 39.5302 58.6501C43.327 59.6803 46.9002 60.9304 46.9002 67.2735L0.000311842 67.4742Z" fill="#367CFF"/>
<path d="M112.312 22.4435C112.228 22.3097 112.173 22.1603 112.149 22.0044C112.126 21.8486 112.134 21.6896 112.174 21.537C112.214 21.3845 112.284 21.2417 112.381 21.1173C112.478 20.9929 112.599 20.8896 112.737 20.8135C113.009 20.6757 113.324 20.6464 113.617 20.7316C113.911 20.8168 114.16 21.0102 114.316 21.2726L115.145 22.603L114.744 17.9273C114.658 17.3277 114.934 16.5382 115.612 16.4851C116.157 16.4061 116.601 15.6733 117.254 15.9956C117.26 15.9939 122.38 20.0277 122.46 20.5831L122.776 27.9845C123.119 30.3413 115.11 29.8689 115.11 29.8689L112.312 22.4435Z" fill="#E98862"/>
<g opacity="0.1">
<path opacity="0.1" d="M112.312 22.4435C112.228 22.3097 112.173 22.1603 112.149 22.0044C112.126 21.8486 112.134 21.6896 112.174 21.537C112.214 21.3845 112.284 21.2417 112.381 21.1173C112.478 20.9929 112.599 20.8896 112.737 20.8135C113.009 20.6757 113.324 20.6464 113.617 20.7316C113.911 20.8168 114.16 21.0102 114.316 21.2726L115.145 22.603L114.744 17.9273C114.658 17.3277 114.934 16.5382 115.612 16.4851C116.157 16.4061 116.601 15.6733 117.254 15.9956C117.26 15.9939 122.38 20.0277 122.46 20.5831L122.776 27.9845C123.119 30.3413 115.11 29.8689 115.11 29.8689L112.312 22.4435Z" fill="#0C0C0C"/>
</g>
<path d="M57.5799 58.7506C57.5799 58.7506 57.1202 65.649 55.5682 68.1509C51.1003 75.3559 49.8059 83.4612 54.2802 87.696C58.7544 91.9309 87.2926 91.9902 89.4547 82.2503C91.2748 74.0504 87.3686 73.1686 86.4183 66.4047C85.9884 63.3439 84.8053 56.926 84.8053 56.926" fill="#0A0A0A"/>
<path d="M82.0678 80.8222C82.0184 80.8158 81.4719 89.8863 70.9344 89.0956C63.6394 88.5491 61.0383 80.8087 60.8702 80.8087C61.657 80.6415 62.9814 80.3985 63.3306 80.2122C64.4794 79.5948 65.9002 78.9526 66.2708 76.7218C66.4849 75.4371 66.1222 68.8586 66.2338 67.5571L77.4315 70.0564C77.275 72.8037 76.1799 79.173 80.0182 80.3002C80.6576 80.488 81.3456 80.6593 82.0678 80.8222Z" fill="#E98862"/>
<path opacity="0.5" d="M77.5893 77.6985C77.4139 77.1333 77.301 76.5505 77.2525 75.9606C77.1293 74.6146 77.1539 73.259 77.3257 71.9183C75.05 71.6111 72.906 70.6717 71.1374 69.207C70.9294 69.9748 69.786 73.3303 70.1027 74.06C70.7005 75.4394 73.5127 77.6985 77.5893 77.6985Z" fill="#0C0C0C"/>
<path d="M76.1414 74.8724C71.7264 75.3007 66.0143 73.5337 64.831 67.6545L63.7633 62.3496C62.5798 56.4705 64.7085 51.083 70.2442 49.9686C75.7799 48.8552 80.8766 52.7879 82.0599 58.667L82.5327 61.0156C82.9867 63.2715 84.0181 74.1103 76.1414 74.8724Z" fill="#E98862"/>
<path d="M79.2816 67.8415C77.8471 68.5708 76.2106 68.8015 74.6305 68.4969C74.5757 68.4865 74.5192 68.4919 74.4674 68.5125C74.4157 68.5331 74.3709 68.568 74.3383 68.6132C74.3057 68.6583 74.2866 68.7118 74.2833 68.7674C74.28 68.823 74.2927 68.8784 74.3198 68.9271C74.7908 69.7573 75.9082 71.1755 77.8249 70.5973C79.0627 70.2239 79.5306 68.9504 79.7041 68.1629C79.7159 68.1084 79.7119 68.0517 79.6926 67.9994C79.6733 67.9471 79.6395 67.9014 79.5951 67.8677C79.5508 67.8339 79.4977 67.8135 79.4422 67.8089C79.3866 67.8042 79.3309 67.8155 79.2816 67.8415Z" fill="white"/>
<path d="M79.3713 61.4619C79.7541 61.4619 80.0644 61.1516 80.0644 60.7688C80.0644 60.386 79.7541 60.0756 79.3713 60.0756C78.9885 60.0756 78.6782 60.386 78.6782 60.7688C78.6782 61.1516 78.9885 61.4619 79.3713 61.4619Z" fill="#0C0C0C"/>
<path d="M72.7108 62.628C73.0936 62.628 73.4039 62.3177 73.4039 61.9349C73.4039 61.5521 73.0936 61.2418 72.7108 61.2418C72.328 61.2418 72.0176 61.5521 72.0176 61.9349C72.0176 62.3177 72.328 62.628 72.7108 62.628Z" fill="#0C0C0C"/>
<path opacity="0.1" d="M73.335 67.1686C74.0615 67.0819 74.599 66.5797 74.5354 66.0468C74.4718 65.5139 73.8313 65.1522 73.1048 65.2389C72.3782 65.3255 71.8408 65.8278 71.9044 66.3607C71.968 66.8936 72.6085 67.2553 73.335 67.1686Z" fill="#0C0C0C"/>
<path opacity="0.1" d="M81.012 65.0378C81.0762 65.5699 81.7173 65.9312 82.4441 65.8455C82.5696 65.8305 82.6933 65.8024 82.813 65.7618C82.8469 65.1273 82.8488 64.5168 82.8302 63.9518C82.6284 63.9014 82.4191 63.8891 82.2128 63.9156C81.4861 64.0014 80.949 64.5034 81.012 65.0378Z" fill="#0C0C0C"/>
<path opacity="0.5" d="M77.8015 66.6826L77.8124 66.6809C78.0368 66.6341 78.2584 66.575 78.4762 66.5038C78.8013 66.395 79.2257 66.2164 79.1674 65.9224C79.1002 65.5873 77.4544 62.1578 77.2675 61.7683C77.2511 61.7342 77.2218 61.708 77.1861 61.6955C77.1505 61.683 77.1113 61.6852 77.0772 61.7016C77.0431 61.718 77.017 61.7472 77.0045 61.7829C76.9919 61.8186 76.9941 61.8578 77.0105 61.8918C77.7122 63.3524 78.8424 65.7537 78.8878 65.9794C78.8522 66.0845 78.3131 66.2899 77.7565 66.4021C77.7197 66.4086 77.6869 66.4293 77.6653 66.4597C77.6436 66.4902 77.6347 66.528 77.6407 66.5649C77.6466 66.6018 77.6668 66.6349 77.697 66.657C77.7271 66.6792 77.7647 66.6886 77.8017 66.6832L77.8015 66.6826Z" fill="#0C0C0C"/>
<path d="M59.3465 64.2539L64.3092 63.2846C68.0579 61.7169 69.1213 55.1836 69.1213 55.1836C69.1213 55.1836 73.748 59.5895 84.8053 56.9253C84.8053 56.9253 82.4034 41.4895 66.0764 46.1749C60.8118 47.6856 57.0829 53.0517 57.6375 60.1591C58.0262 65.14 59.3465 64.2539 59.3465 64.2539Z" fill="#0A0A0A"/>
<path d="M65.5353 69.3766C63.8531 69.7151 62.127 68.1898 61.788 66.5072C61.449 64.8246 62.6265 63.6227 64.3087 63.2841L65.4025 64.2368L66.9811 69.0849L65.5353 69.3766Z" fill="#E98862"/>
<path d="M78.46 59.033C78.8809 58.7353 79.3732 58.5545 79.8867 58.509C80.1444 58.4845 80.4042 58.4989 80.6576 58.5519C80.9134 58.6041 81.1616 58.6882 81.3965 58.8022L81.404 58.8056C81.4301 58.8171 81.4596 58.8179 81.4862 58.808C81.5129 58.798 81.5346 58.778 81.5467 58.7523C81.5588 58.7265 81.5603 58.697 81.551 58.6702C81.5417 58.6433 81.5222 58.6211 81.4967 58.6084C81.2479 58.4769 80.9834 58.3773 80.7096 58.312C80.4339 58.245 80.1497 58.2198 79.8666 58.2373C79.2931 58.2691 78.7385 58.454 78.2606 58.7726C78.2247 58.7971 78.2 58.8347 78.1919 58.8774C78.1838 58.92 78.1929 58.9641 78.2174 59C78.2418 59.0359 78.2794 59.0607 78.3221 59.0688C78.3647 59.0769 78.4089 59.0677 78.4448 59.0433L78.4486 59.0405L78.46 59.033Z" fill="#0C0C0C"/>
<path d="M73.9268 59.6595C73.3633 59.5476 72.78 59.5888 72.2378 59.779C71.9698 59.8713 71.7171 60.0033 71.4883 60.1707C71.2604 60.3358 71.0542 60.5289 70.8746 60.7456C70.8556 60.767 70.8459 60.7951 70.8474 60.8237C70.8489 60.8522 70.8616 60.8791 70.8828 60.8984C70.9039 60.9177 70.9318 60.9279 70.9604 60.9268C70.989 60.9257 71.0161 60.9134 71.0357 60.8925L71.0414 60.8865C71.2147 60.6913 71.4118 60.5186 71.6282 60.3726C71.8422 60.2265 72.0771 60.1137 72.3249 60.0379C72.8168 59.8836 73.3407 59.8623 73.8435 59.976L73.856 59.979C73.8981 59.9892 73.9426 59.9823 73.9797 59.9597C74.0167 59.9371 74.0433 59.9007 74.0535 59.8586C74.0637 59.8164 74.0568 59.7719 74.0342 59.7349C74.0116 59.6978 73.9752 59.6713 73.933 59.661L73.9268 59.6595Z" fill="#0C0C0C"/>
<path d="M64.3124 63.2032C67.6485 61.9612 68.7554 59.6576 69.0965 57.9433C69.3171 56.8 69.2965 55.6232 69.0359 54.4883L68.9327 54.5165C69.1892 55.6367 69.209 56.7981 68.9907 57.9264C68.6543 59.6126 67.5629 61.8794 64.2751 63.103L64.3124 63.2032Z" fill="#0C0C0C"/>
<path d="M26.3319 38.1067L24.1414 31.1074C24.0932 30.9536 24.0136 30.8116 23.9075 30.6902C23.8014 30.5689 23.6713 30.471 23.5253 30.4027C23.3793 30.3345 23.2207 30.2974 23.0596 30.2937C22.8985 30.2901 22.7384 30.3201 22.5895 30.3817C22.3182 30.5041 22.102 30.7229 21.9827 30.9956C21.8635 31.2684 21.8499 31.5757 21.9444 31.8579L22.4142 33.3588L18.7705 29.3171C18.3733 28.8605 17.5928 28.5546 17.1112 29.034C16.9135 29.2063 16.78 29.4405 16.7325 29.6985C16.685 29.9565 16.7264 30.2229 16.8498 30.4543C16.8445 30.4569 16.8396 30.4602 16.835 30.464C16.8321 30.4673 16.8294 30.4709 16.8269 30.4747L16.2145 29.7708C16.1009 29.6405 15.9597 29.5371 15.8012 29.4683C15.6426 29.3994 15.4707 29.3668 15.298 29.3729C15.1252 29.3789 14.956 29.4234 14.8027 29.5031C14.6493 29.5829 14.5157 29.6958 14.4115 29.8338C14.2518 30.0542 14.1726 30.3228 14.1873 30.5946C14.202 30.8664 14.3095 31.1249 14.492 31.3269L14.7526 31.6267C14.7475 31.6383 14.7445 31.6507 14.7436 31.6633C14.5205 31.5017 14.2472 31.4248 13.9726 31.4463C13.698 31.4677 13.44 31.5862 13.2447 31.7804C13.0373 31.9992 12.9201 32.2881 12.9163 32.5895C12.9126 32.891 13.0227 33.1827 13.2246 33.4065L13.8721 34.1504C13.8555 34.1464 13.8382 34.1464 13.8216 34.1503C13.805 34.1542 13.7896 34.1621 13.7766 34.1731C13.7618 34.187 13.7515 34.205 13.7468 34.2247C13.5082 34.1361 13.2471 34.1284 13.0037 34.2026C12.7602 34.2768 12.5479 34.429 12.3993 34.6356C12.2477 34.8559 12.1748 35.1209 12.1926 35.3878C12.2104 35.6546 12.3177 35.9076 12.4972 36.1059L17.9603 42.3826C18.7247 43.2606 19.7338 43.8903 20.8583 44.1911C21.9828 44.492 23.1715 44.4502 24.2722 44.0713C25.2212 43.7443 26.0054 43.0602 26.458 42.1642C26.9107 41.2683 26.9962 40.2312 26.6964 39.2733L26.3319 38.1067Z" fill="#E98862"/>
<g opacity="0.2">
<path opacity="0.2" d="M20.4363 34.4729C20.415 34.4913 20.3874 34.5006 20.3593 34.4988C20.3313 34.497 20.3051 34.4842 20.2864 34.4633L16.8269 30.6152C16.8079 30.594 16.7981 30.5662 16.7996 30.5378C16.8011 30.5095 16.8138 30.4829 16.8349 30.4639C16.856 30.4449 16.8838 30.435 16.9122 30.4366C16.9406 30.4381 16.9672 30.4508 16.9862 30.4719L20.4461 34.32C20.4651 34.3411 20.4749 34.3689 20.4734 34.3973C20.472 34.4256 20.4593 34.4522 20.4382 34.4712L20.4363 34.4729Z" fill="#0C0C0C"/>
</g>
<g opacity="0.2">
<path opacity="0.2" d="M18.7812 36.0457C18.76 36.0641 18.7324 36.0733 18.7043 36.0715C18.6763 36.0697 18.6501 36.057 18.6314 36.036L14.7706 31.7414C14.7516 31.7203 14.7418 31.6926 14.7432 31.6642C14.7447 31.6359 14.7574 31.6093 14.7785 31.5903C14.8001 31.5722 14.8277 31.5629 14.8558 31.5644C14.8839 31.5659 14.9104 31.5781 14.9299 31.5984L18.7911 35.8928C18.8101 35.9139 18.8199 35.9417 18.8184 35.97C18.817 35.9984 18.8043 36.025 18.7832 36.044L18.7812 36.0457Z" fill="#0C0C0C"/>
</g>
<g opacity="0.2">
<path opacity="0.2" d="M16.9984 37.7596C16.9771 37.7779 16.9495 37.7872 16.9214 37.7854C16.8934 37.7835 16.8672 37.7707 16.8485 37.7497L13.7689 34.3249C13.7499 34.3038 13.7401 34.276 13.7416 34.2476C13.7431 34.2193 13.7558 34.1926 13.7769 34.1736C13.798 34.1547 13.8259 34.1448 13.8542 34.1463C13.8826 34.1478 13.9092 34.1606 13.9282 34.1817L17.0085 37.6078C17.0274 37.6289 17.0372 37.6567 17.0357 37.685C17.0342 37.7134 17.0215 37.74 17.0003 37.7589L16.9984 37.7596Z" fill="#0C0C0C"/>
</g>
<path d="M111.523 25.4398L104.511 59.2869L80.6353 83.4057L93.1716 95.0803L116.843 68.0537L116.985 67.8939C117.82 66.9336 118.402 65.7803 118.679 64.5385L126.715 28.7177L111.523 25.4398Z" fill="#367CFF"/>
<path d="M70.5776 86.8393C63.2779 86.4952 62.9707 80.2987 62.9707 80.2987C62.9707 80.2987 59.3536 80.5323 56.9491 80.8578C53.0123 81.3903 50.4156 82.7252 48.3488 84.7918C46.4263 86.7145 46.9717 92.712 46.9717 92.712L48.9012 132.84H92.9587L95.0418 92.9328C95.0418 92.9328 97.4086 87.8686 93.3857 83.6122C90.4682 80.5261 82.9366 80.2987 79.9045 80.2987C79.855 80.2987 80.5195 87.308 70.5776 86.8393Z" fill="#367CFF"/>
<path d="M36.2804 66.0016L28.3863 37.7694L13.4586 42.0978L22.5842 72.493C23.0016 73.8706 23.794 75.1049 24.8728 76.0578L25.0227 76.1891L49.0672 97.3237L59.9294 84.0774L36.2804 66.0016Z" fill="#367CFF"/>
<path d="M113.227 16.9772L112.865 17.2234C111.948 17.8494 110.916 18.2885 109.828 18.5156C108.741 18.7427 107.62 18.7534 106.528 18.5471C105.437 18.3408 104.396 17.9215 103.467 17.3132C102.537 16.7048 101.737 15.9193 101.111 15.0016L97.7293 10.0426C97.6847 9.97717 97.6534 9.90361 97.6373 9.82612C97.6211 9.74862 97.6203 9.6687 97.635 9.59091C97.6498 9.51312 97.6797 9.439 97.723 9.37276C97.7664 9.30653 97.8224 9.24949 97.8878 9.20489L111.228 0.10479C111.36 0.0147293 111.522 -0.019192 111.679 0.0104803C111.836 0.0401527 111.975 0.130991 112.066 0.263032L115.449 5.22293C116.075 6.14061 116.514 7.17261 116.741 8.25999C116.968 9.34737 116.979 10.4688 116.772 11.5603C116.566 12.6518 116.147 13.692 115.538 14.6214C114.93 15.5509 114.144 16.3513 113.227 16.9772Z" fill="#0CBC8B"/>
<path d="M106.555 7.42782L108.581 8.57127C108.595 8.57908 108.611 8.58341 108.627 8.58389C108.642 8.58438 108.658 8.581 108.672 8.57406L110.763 7.55287C110.78 7.54494 110.798 7.54173 110.816 7.5436C110.834 7.54547 110.851 7.55235 110.866 7.56346C110.88 7.57458 110.891 7.58949 110.898 7.60653C110.904 7.62357 110.906 7.64206 110.902 7.65994L110.441 9.94042C110.438 9.95599 110.438 9.9721 110.443 9.98736C110.447 10.0026 110.455 10.0166 110.466 10.028L112.084 11.7008C112.096 11.7139 112.105 11.7303 112.109 11.7482C112.113 11.766 112.112 11.7846 112.105 11.8018C112.099 11.819 112.088 11.8342 112.074 11.8455C112.06 11.8569 112.043 11.864 112.024 11.8661L109.713 12.1325C109.697 12.1343 109.682 12.1399 109.669 12.1488C109.656 12.1578 109.645 12.1698 109.638 12.1839L108.545 14.2395C108.537 14.2556 108.524 14.269 108.508 14.2781C108.492 14.2873 108.474 14.2918 108.456 14.2913C108.438 14.2907 108.42 14.2851 108.405 14.275C108.39 14.2649 108.378 14.2508 108.37 14.2342L107.403 12.1181C107.396 12.1037 107.386 12.091 107.373 12.0813C107.361 12.0715 107.346 12.065 107.331 12.0622L105.039 11.6595C105.021 11.6563 105.005 11.6482 104.991 11.636C104.977 11.6238 104.967 11.6081 104.962 11.5905C104.957 11.573 104.957 11.5544 104.962 11.5368C104.967 11.5192 104.977 11.5033 104.99 11.4909L106.703 9.91708C106.715 9.90632 106.724 9.89291 106.729 9.878C106.734 9.86309 106.736 9.84712 106.734 9.83143L106.409 7.5276C106.406 7.50927 106.408 7.49049 106.416 7.47346C106.423 7.45643 106.435 7.44184 106.45 7.43139C106.466 7.42094 106.484 7.41506 106.502 7.41442C106.521 7.41379 106.539 7.41844 106.555 7.42782Z" fill="#FAFAFA"/>
<path d="M113.778 14.541L112.087 15.6943L111.744 15.9273L110.395 16.8481C110.395 16.8481 119.586 25.2482 119.148 35.4444L123.18 32.6943L123.523 32.4614L127.896 29.4783C118.243 26.1642 113.778 14.541 113.778 14.541Z" fill="#0CBC8B"/>
<path d="M129.086 26.228L115.689 35.3655C115.328 35.6115 115.235 36.1034 115.481 36.4641L118.505 40.8976C118.751 41.2583 119.243 41.3513 119.604 41.1052L133.001 31.9678C133.362 31.7217 133.454 31.2299 133.208 30.8692L130.185 26.4357C129.939 26.075 129.447 25.982 129.086 26.228Z" fill="#0CBC8B"/>
<path d="M103.516 18.9075C102.869 19.3508 102.114 19.6135 101.332 19.6688C100.549 19.7241 99.7653 19.5699 99.0618 19.2221C98.3582 18.8743 97.76 18.3455 97.3286 17.6899C96.8971 17.0343 96.648 16.2756 96.6069 15.4919C96.5658 14.7081 96.7341 13.9276 97.0946 13.2305C97.4551 12.5333 97.9947 11.9448 98.658 11.5253C99.3213 11.1058 100.084 10.8705 100.869 10.8435C101.653 10.8166 102.43 10.9991 103.121 11.3721C103.788 11.7321 104.351 12.2575 104.756 12.8979C105.161 13.5383 105.395 14.2721 105.434 15.0288C105.474 15.7856 105.319 16.5398 104.983 17.2191C104.647 17.8983 104.142 18.4798 103.516 18.9075ZM99.3983 12.8905C98.8808 13.2439 98.493 13.7569 98.2941 14.3512C98.0952 14.9455 98.096 15.5885 98.2964 16.1823C98.4968 16.776 98.8859 17.288 99.4043 17.6401C99.9227 17.9923 100.542 18.1653 101.168 18.1328C101.794 18.1003 102.392 17.8641 102.871 17.4602C103.35 17.0563 103.684 16.5068 103.822 15.8955C103.96 15.2841 103.894 14.6445 103.635 14.074C103.375 13.5035 102.936 13.0334 102.385 12.7355C101.921 12.4854 101.397 12.3676 100.87 12.3949C100.343 12.4223 99.8342 12.5937 99.3983 12.8905Z" fill="#0CBC8B"/>
<path d="M118.474 8.70704C118.314 8.81626 118.147 8.9149 117.974 9.00232C116.928 9.53079 115.714 9.62195 114.601 9.25576C113.487 8.88957 112.565 8.09601 112.036 7.04967C111.508 6.00333 111.417 4.78991 111.783 3.67635C112.149 2.56279 112.943 1.64031 113.989 1.11184C114.99 0.606416 116.146 0.500663 117.223 0.816018C118.3 1.13137 119.216 1.84424 119.786 2.81013C120.357 3.77602 120.539 4.92267 120.295 6.01767C120.051 7.11266 119.401 8.07407 118.474 8.70704ZM114.358 2.68741C113.903 2.99924 113.547 3.43561 113.333 3.94432C113.119 4.45304 113.057 5.01256 113.153 5.55597C113.249 6.09938 113.499 6.60367 113.874 7.00852C114.249 7.41337 114.732 7.70164 115.267 7.83886C115.801 7.97608 116.364 7.95643 116.888 7.78227C117.411 7.6081 117.874 7.2868 118.219 6.85678C118.565 6.42676 118.78 5.90624 118.837 5.35747C118.895 4.8087 118.794 4.25491 118.545 3.76234C118.375 3.42566 118.14 3.12577 117.854 2.87979C117.568 2.6338 117.237 2.44655 116.879 2.32871C116.52 2.21088 116.142 2.16478 115.766 2.19304C115.39 2.22129 115.023 2.32336 114.687 2.49341C114.573 2.55084 114.463 2.61564 114.358 2.68741Z" fill="#0CBC8B"/>
<path d="M117.548 22.3765C117.426 22.209 117.362 22.0063 117.366 21.7992C117.37 21.5921 117.442 21.3919 117.57 21.2291C117.555 21.221 117.514 21.2116 117.529 21.1863L116.816 21.5332C116.609 21.64 116.369 21.668 116.142 21.6119C115.915 21.5559 115.717 21.4196 115.582 21.2283C115.456 21.0351 115.406 20.8019 115.442 20.5738C115.478 20.3458 115.597 20.1392 115.776 19.994C115.768 19.9913 115.763 19.9816 115.755 19.9761L115.462 20.1187C115.266 20.2185 115.041 20.2474 114.826 20.2006C114.611 20.1538 114.418 20.034 114.281 19.8617C114.198 19.7519 114.139 19.6248 114.111 19.4897C114.082 19.3546 114.084 19.2149 114.116 19.0805C114.148 18.9462 114.209 18.8206 114.295 18.7129C114.382 18.6051 114.491 18.5179 114.615 18.4574L115.291 18.1283C115.289 18.1251 115.284 18.1247 115.282 18.1208C115.281 18.117 115.282 18.1108 115.281 18.1058C115.076 18.1539 114.86 18.1308 114.669 18.0403C114.479 17.9498 114.325 17.7972 114.232 17.6076C113.961 17.133 114.361 16.5924 114.799 16.3797L116.228 15.8166C116.448 15.7298 116.687 15.6988 116.922 15.7265C117.157 15.7542 117.382 15.8396 117.577 15.9752C119.26 17.1474 123.584 20.3137 122.189 20.9927L118.754 22.6642C118.549 22.7571 118.32 22.7791 118.102 22.727C117.883 22.6749 117.689 22.5516 117.548 22.3765Z" fill="#E98862"/>
<path d="M6.65076 86.1272L5.05527 86.7508L7.30571 92.5083L8.9012 91.8847L6.65076 86.1272Z" fill="#367CFF"/>
<path d="M136.067 68.4938L131.943 73.0987L133.219 74.2416L137.343 69.6367L136.067 68.4938Z" fill="#367CFF"/>
<path d="M117.159 89.1036L116.132 90.4749L121.079 94.1809L122.106 92.8097L117.159 89.1036Z" fill="#0CBC8B"/>
<path d="M42.804 40.1518L38.3019 44.3882L39.4758 45.6358L43.9779 41.3993L42.804 40.1518Z" fill="#367CFF"/>
<path d="M92.6696 32.9657L91.1844 33.8195L94.2655 39.1789L95.7506 38.3251L92.6696 32.9657Z" fill="#367CFF"/>
<path d="M32.0947 106.679L28.7957 111.907L30.2444 112.821L33.5434 107.594L32.0947 106.679Z" fill="#0CBC8B"/>
<path d="M137.525 104.691L135.884 105.183L137.659 111.104L139.3 110.612L137.525 104.691Z" fill="#367CFF"/>
<path d="M72.3463 19.6473L70.8612 20.501L73.9421 25.8603L75.4272 25.0066L72.3463 19.6473Z" fill="#0CBC8B"/>
</svg>
