<svg width="198" height="195" viewBox="0 0 198 195" fill="none" xmlns="http://www.w3.org/2000/svg">
<path d="M59.4016 172.994C58.87 172.852 58.5804 172.762 58.5771 172.761C58.5429 172.751 58.5059 172.747 58.4683 172.751C58.4308 172.755 58.3934 172.765 58.3582 172.783C58.3231 172.8 58.2909 172.824 58.2635 172.853C58.2362 172.881 58.2141 172.914 58.1987 172.949C58.1833 172.985 58.1747 173.022 58.1736 173.058C58.1725 173.095 58.1787 173.131 58.1921 173.163C58.2054 173.196 58.2255 173.224 58.2512 173.248C58.277 173.271 58.3079 173.288 58.3421 173.299C58.3543 173.303 58.6439 173.392 59.1878 173.536C59.2583 173.555 59.3373 173.545 59.4074 173.507C59.4775 173.469 59.533 173.407 59.5617 173.335C59.5904 173.263 59.5899 173.186 59.5603 173.122C59.5308 173.057 59.4746 173.011 59.4041 172.992L59.4016 172.994Z" fill="#292A2E"/>
<path d="M108.323 96.246C107.949 95.8367 107.572 95.4282 107.193 95.0205C107.169 94.9951 107.14 94.9753 107.107 94.962C107.074 94.9488 107.038 94.9425 107 94.9434C106.925 94.9453 106.849 94.9767 106.79 95.0307C106.731 95.0847 106.693 95.1568 106.685 95.2313C106.677 95.3058 106.7 95.3764 106.748 95.4277C107.125 95.8334 107.501 96.241 107.875 96.6505L107.89 96.6644C107.94 96.7128 108.01 96.7373 108.085 96.7327C108.16 96.7281 108.234 96.6947 108.291 96.6398C108.348 96.5848 108.383 96.5127 108.389 96.4391C108.395 96.3655 108.372 96.2962 108.324 96.2462L108.323 96.246Z" fill="#292A2E"/>
<path d="M82.5988 69.182C82.2801 68.7242 81.9705 68.2608 81.6802 67.807C81.6424 67.7479 81.58 67.7091 81.5067 67.6993C81.4335 67.6894 81.3554 67.7093 81.2897 67.7545C81.2239 67.7997 81.1759 67.8665 81.1561 67.9403C81.1364 68.0141 81.1466 68.0887 81.1844 68.1478C81.4784 68.6078 81.7912 69.0755 82.1134 69.5391C82.1232 69.553 82.1344 69.5658 82.1469 69.5774C82.1955 69.6212 82.2615 69.6435 82.3321 69.64C82.4027 69.6365 82.4729 69.6074 82.5292 69.5583C82.5854 69.5092 82.6237 69.4437 82.6367 69.3743C82.6497 69.3049 82.6364 69.2366 82.5995 69.1826L82.5988 69.182Z" fill="#292A2E"/>
<path d="M87.8672 75.5381L87.8379 75.5112C87.461 75.121 87.0892 74.7254 86.7326 74.3343C86.6854 74.2825 86.6165 74.2542 86.5411 74.2555C86.4657 74.2568 86.3899 74.2876 86.3305 74.3411C86.2711 74.3947 86.2329 74.4666 86.2243 74.541C86.2157 74.6155 86.2374 74.6864 86.2847 74.7381C86.6442 75.1319 87.0191 75.5311 87.397 75.9229L87.4292 75.9525L87.4388 75.9614C87.4891 76.0102 87.5599 76.0348 87.6356 76.0296C87.7114 76.0245 87.7859 75.99 87.8427 75.9339C87.8996 75.8777 87.9341 75.8044 87.9388 75.7301C87.9434 75.6558 87.9178 75.5867 87.8675 75.5378L87.8672 75.5381Z" fill="#292A2E"/>
<path d="M80.4021 65.6775C80.131 65.1913 79.8699 64.6974 79.6255 64.2101C79.5939 64.147 79.5361 64.1022 79.4649 64.0856C79.3937 64.0689 79.315 64.0818 79.246 64.1214C79.1769 64.161 79.1233 64.2241 79.0968 64.2967C79.0704 64.3693 79.0733 64.4455 79.1049 64.5086C79.3524 65.0022 79.617 65.5019 79.8915 65.994C79.9258 66.0555 79.9855 66.0978 80.0576 66.1115C80.1297 66.1253 80.2083 66.1095 80.276 66.0675C80.3437 66.0256 80.395 65.9609 80.4186 65.8877C80.4423 65.8146 80.4364 65.739 80.4021 65.6775Z" fill="#292A2E"/>
<path d="M90.7799 78.4966C90.3842 78.1004 89.9939 77.7078 89.609 77.3189C89.5851 77.2935 89.5555 77.2739 89.522 77.2612C89.4885 77.2484 89.4519 77.2428 89.4142 77.2447C89.3766 77.2466 89.3387 77.256 89.3029 77.2722C89.267 77.2884 89.234 77.3112 89.2057 77.3392C89.148 77.3945 89.1123 77.4674 89.1063 77.5418C89.1003 77.6162 89.1246 77.686 89.1739 77.7359C89.5592 78.1261 89.9503 78.5197 90.3473 78.9166L90.3547 78.9235C90.4053 78.9719 90.4763 78.996 90.5521 78.9904C90.6279 78.9847 90.7022 78.9498 90.7587 78.8933C90.8152 78.8368 90.8493 78.7634 90.8534 78.6892C90.8576 78.615 90.8315 78.546 90.7808 78.4975L90.7799 78.4966Z" fill="#292A2E"/>
<path d="M78.5858 61.9441C78.3715 61.4277 78.1695 60.903 77.9849 60.3848C77.9581 60.3219 77.9062 60.2747 77.8398 60.253C77.7735 60.2313 77.6977 60.2367 77.6282 60.2681C77.5587 60.2995 77.5007 60.3545 77.4662 60.4218C77.4317 60.489 77.4233 60.5634 77.4428 60.6297C77.6297 61.1554 77.8351 61.6879 78.0525 62.2119C78.0655 62.2436 78.085 62.2716 78.1099 62.2945C78.1551 62.3363 78.2159 62.3592 78.2819 62.3594C78.3478 62.3596 78.4148 62.337 78.4713 62.2955C78.5278 62.254 78.5702 62.1963 78.5913 62.1322C78.6124 62.0681 78.6108 62.0016 78.5868 61.9443L78.5858 61.9441Z" fill="#292A2E"/>
<path d="M85.1057 72.4652C84.7536 72.0418 84.4046 71.6083 84.0689 71.1769C84.0258 71.1215 83.9595 71.0882 83.8847 71.0844C83.81 71.0805 83.7328 71.1064 83.6701 71.1564C83.6075 71.2064 83.5646 71.2763 83.5508 71.3508C83.5371 71.4253 83.5535 71.4983 83.5967 71.5537C83.9352 71.9897 84.2874 72.4268 84.6423 72.8542C84.6494 72.8617 84.657 72.8688 84.6651 72.8752C84.7148 72.921 84.783 72.944 84.8559 72.9394C84.9288 72.9348 85.0008 72.9031 85.0571 72.8506C85.1134 72.7982 85.1499 72.7291 85.1589 72.6574C85.1679 72.5857 85.1489 72.517 85.1057 72.4652Z" fill="#292A2E"/>
<path d="M105.479 93.2014C105.095 92.7995 104.711 92.3991 104.326 92.0002C104.278 91.9498 104.208 91.9232 104.132 91.9264C104.057 91.9295 103.982 91.9621 103.923 92.0169C103.865 92.0717 103.829 92.1443 103.822 92.2187C103.815 92.2931 103.839 92.3632 103.887 92.4136C104.272 92.8124 104.655 93.2121 105.037 93.6128L105.048 93.6229C105.098 93.672 105.169 93.6968 105.245 93.692C105.321 93.6871 105.395 93.653 105.452 93.597C105.509 93.541 105.544 93.4678 105.549 93.3935C105.554 93.3192 105.529 93.2499 105.479 93.2008L105.479 93.2014Z" fill="#292A2E"/>
<path d="M102.585 90.2135C102.195 89.817 101.805 89.4224 101.415 89.0299L101.407 89.0228C101.357 88.9741 101.286 88.9499 101.21 88.9553C101.134 88.9608 101.06 88.9955 101.003 89.0519C100.947 89.1083 100.912 89.1816 100.908 89.2559C100.904 89.3301 100.93 89.3992 100.98 89.4478C101.37 89.8406 101.759 90.2345 102.147 90.6295L102.156 90.6374C102.206 90.6862 102.277 90.7106 102.353 90.7052C102.429 90.6999 102.503 90.6652 102.56 90.609C102.616 90.5527 102.651 90.4793 102.655 90.4051C102.66 90.3308 102.634 90.2617 102.584 90.213L102.585 90.2135Z" fill="#292A2E"/>
<path d="M99.6517 87.2646C99.257 86.8716 98.8632 86.4807 98.4704 86.0921C98.4457 86.0677 98.4157 86.0489 98.382 86.037C98.3484 86.025 98.3117 86.02 98.2742 86.0223C98.2367 86.0246 98.1991 86.0341 98.1635 86.0503C98.1278 86.0665 98.0949 86.089 98.0666 86.1166C98.0382 86.1443 98.015 86.1765 97.9983 86.2113C97.9816 86.2462 97.9716 86.2831 97.969 86.3199C97.9665 86.3567 97.9713 86.3927 97.9832 86.4258C97.9952 86.459 98.0141 86.4886 98.0388 86.513C98.431 86.901 98.8243 87.2915 99.2188 87.6844L99.2256 87.6906C99.2762 87.7391 99.3472 87.7631 99.423 87.7575C99.4987 87.7518 99.5731 87.7169 99.6296 87.6604C99.6861 87.604 99.7202 87.5305 99.7243 87.4563C99.7285 87.3821 99.7024 87.3131 99.6517 87.2646Z" fill="#292A2E"/>
<path d="M77.2368 57.9851C77.0919 57.4392 76.9632 56.8867 76.8516 56.341C76.8445 56.3061 76.8302 56.2737 76.8096 56.2458C76.7889 56.218 76.7623 56.1951 76.7312 56.1786C76.7001 56.1621 76.6652 56.1522 76.6284 56.1495C76.5916 56.1468 76.5537 56.1514 76.5168 56.163C76.4799 56.1746 76.4448 56.193 76.4134 56.2171C76.382 56.2412 76.355 56.2706 76.3339 56.3035C76.3129 56.3365 76.2981 56.3723 76.2905 56.4091C76.283 56.4458 76.2827 56.4827 76.2898 56.5177C76.4021 57.0727 76.5337 57.6354 76.6813 58.1905C76.6903 58.2248 76.7065 58.2562 76.7288 58.2827C76.7512 58.3092 76.7792 58.3305 76.8115 58.3452C76.8437 58.36 76.8794 58.3679 76.9166 58.3686C76.9537 58.3692 76.9916 58.3626 77.0281 58.3492C77.0646 58.3357 77.0989 58.3156 77.1292 58.29C77.1594 58.2644 77.1849 58.2338 77.2043 58.2C77.2237 58.1662 77.2365 58.1298 77.2421 58.0929C77.2477 58.0561 77.2459 58.0194 77.2368 57.9851Z" fill="#292A2E"/>
<path d="M93.731 81.4231L92.5475 80.254C92.4965 80.2067 92.4263 80.1829 92.3512 80.1875C92.2761 80.192 92.2019 80.2246 92.1438 80.2786C92.0866 80.3345 92.0515 80.4076 92.0462 80.4819C92.0409 80.5563 92.0659 80.6258 92.1156 80.6753C92.507 81.0625 92.9019 81.4524 93.3003 81.8449L93.3061 81.8502C93.3569 81.8985 93.4281 81.9223 93.5038 81.9164C93.5796 81.9106 93.6538 81.8754 93.7102 81.8188C93.7665 81.7621 93.8003 81.6886 93.8042 81.6144C93.8081 81.5402 93.7818 81.4714 93.731 81.4231Z" fill="#292A2E"/>
<path d="M96.3455 26.9761C96.9235 26.7996 97.5166 26.6344 98.1089 26.4839C98.1472 26.4755 98.1843 26.4597 98.2181 26.4376C98.2519 26.4155 98.2816 26.3874 98.3056 26.3551C98.3295 26.3229 98.3472 26.287 98.3575 26.2496C98.3678 26.2123 98.3705 26.1743 98.3655 26.1379C98.3605 26.1015 98.3478 26.0674 98.3283 26.0377C98.3088 26.008 98.2828 25.9832 98.2519 25.965C98.2211 25.9467 98.1859 25.9353 98.1485 25.9313C98.1111 25.9274 98.0723 25.9311 98.0344 25.9421C97.4328 26.0948 96.8298 26.2632 96.2424 26.4425C96.2055 26.4538 96.1702 26.4718 96.1387 26.4957C96.1071 26.5195 96.0798 26.5486 96.0585 26.5814C96.0371 26.6142 96.022 26.6499 96.0141 26.6867C96.0061 26.7234 96.0055 26.7603 96.0122 26.7954C96.019 26.8305 96.0329 26.863 96.0533 26.8911C96.0736 26.9192 96.1 26.9424 96.1309 26.9592C96.1617 26.9761 96.1965 26.9863 96.2332 26.9893C96.27 26.9923 96.3079 26.9881 96.3448 26.9768L96.3455 26.9761Z" fill="#292A2E"/>
<path d="M83.8413 33.6438L83.8558 33.6572C83.9047 33.7024 83.972 33.7252 84.0439 33.721C84.1158 33.7168 84.187 33.6858 84.2429 33.6344C84.6992 33.2214 85.1802 32.8148 85.6721 32.4264C85.735 32.3768 85.7783 32.307 85.7925 32.2326C85.8067 32.1581 85.7906 32.085 85.7478 32.0293C85.7051 31.9736 85.6391 31.9399 85.5644 31.9357C85.4896 31.9314 85.4124 31.9569 85.3495 32.0065C84.8452 32.4045 84.3525 32.8212 83.8849 33.2448C83.8552 33.2715 83.8306 33.303 83.8123 33.3376C83.7941 33.3722 83.7826 33.4091 83.7785 33.4463C83.7745 33.4834 83.7779 33.52 83.7887 33.5539C83.7995 33.5878 83.8174 33.6184 83.8413 33.6438Z" fill="#292A2E"/>
<path d="M81.0908 37.0547C81.4627 36.5681 81.8604 36.0856 82.2744 35.6201C82.3007 35.5906 82.3214 35.5571 82.3353 35.5214C82.3492 35.4857 82.3562 35.4486 82.3557 35.4121C82.3553 35.3756 82.3474 35.3406 82.3326 35.3089C82.3178 35.2772 82.2964 35.2495 82.2695 35.2275C82.2426 35.2054 82.2109 35.1894 82.176 35.1802C82.1411 35.1711 82.1039 35.1692 82.0663 35.1744C82.0288 35.1796 81.9917 35.192 81.9572 35.2108C81.9226 35.2296 81.8914 35.2545 81.8651 35.284C81.44 35.7621 81.0308 36.2577 80.649 36.7576C80.6052 36.8153 80.5823 36.8839 80.5844 36.9509C80.5864 37.0179 80.6134 37.0787 80.6604 37.1221C80.6686 37.1307 80.6774 37.1388 80.6867 37.1463C80.7159 37.1659 80.7495 37.179 80.7857 37.185C80.8218 37.191 80.8597 37.1897 80.8973 37.1812C80.9348 37.1727 80.9713 37.1571 81.0045 37.1354C81.0377 37.1137 81.067 37.0863 81.0908 37.0547Z" fill="#292A2E"/>
<path d="M89.696 29.4581C89.6652 29.3947 89.6081 29.3493 89.5373 29.3319C89.4665 29.3146 89.3878 29.3266 89.3186 29.3655C88.7616 29.6779 88.2115 30.0083 87.6834 30.3474C87.6502 30.3688 87.6208 30.3958 87.5969 30.4271C87.5729 30.4583 87.5549 30.4931 87.5439 30.5294C87.5329 30.5658 87.529 30.603 87.5326 30.6389C87.5361 30.6748 87.547 30.7088 87.5646 30.7388C87.5822 30.7689 87.6062 30.7944 87.6351 30.814C87.6641 30.8336 87.6975 30.8468 87.7334 30.8529C87.7693 30.8591 87.8071 30.858 87.8445 30.8498C87.8819 30.8415 87.9182 30.8263 87.9514 30.8049C88.4676 30.4731 89.0057 30.15 89.5521 29.8453C89.5865 29.826 89.6176 29.8006 89.6435 29.7707C89.6694 29.7407 89.6896 29.7068 89.703 29.6708C89.7163 29.6348 89.7226 29.5975 89.7214 29.561C89.7202 29.5245 89.7116 29.4895 89.696 29.4581Z" fill="#292A2E"/>
<path d="M79.5423 39.3465C79.5622 39.3129 79.5757 39.2767 79.5819 39.2399C79.5881 39.203 79.587 39.1663 79.5785 39.1318C79.5701 39.0972 79.5545 39.0656 79.5327 39.0386C79.5109 39.0116 79.4832 38.9899 79.4514 38.9746C79.4195 38.9593 79.384 38.9507 79.347 38.9494C79.3099 38.9481 79.272 38.9541 79.2354 38.967C79.1988 38.9799 79.1642 38.9994 79.1336 39.0246C79.103 39.0497 79.077 39.0799 79.057 39.1134C78.7366 39.6524 78.4344 40.2103 78.1584 40.7706C78.1413 40.8053 78.1309 40.8421 78.1279 40.8789C78.1249 40.9157 78.1293 40.9518 78.1408 40.9851C78.1524 41.0183 78.1709 41.0482 78.1952 41.0729C78.2196 41.0976 78.2493 41.1167 78.2827 41.129C78.3162 41.1414 78.3527 41.1468 78.3901 41.1449C78.4275 41.1431 78.4652 41.134 78.5009 41.1182C78.5367 41.1024 78.5698 41.0802 78.5984 41.0528C78.627 41.0255 78.6505 40.9935 78.6676 40.9588C78.9357 40.4136 79.2304 39.871 79.5423 39.3465Z" fill="#292A2E"/>
<path d="M116.777 156.425C116.411 156.927 116.034 157.43 115.651 157.917C115.605 157.974 115.58 158.044 115.582 158.112C115.583 158.179 115.611 158.241 115.659 158.285C115.666 158.292 115.674 158.299 115.682 158.306C115.74 158.346 115.815 158.36 115.89 158.345C115.966 158.329 116.036 158.285 116.085 158.223C116.473 157.73 116.857 157.22 117.229 156.708C117.252 156.676 117.269 156.641 117.278 156.604C117.288 156.568 117.291 156.53 117.286 156.495C117.281 156.459 117.269 156.426 117.25 156.397C117.232 156.367 117.207 156.343 117.177 156.324C117.147 156.306 117.113 156.294 117.077 156.289C117.041 156.284 117.003 156.286 116.966 156.296C116.928 156.305 116.892 156.321 116.86 156.344C116.827 156.366 116.799 156.394 116.776 156.426L116.777 156.425Z" fill="#292A2E"/>
<path d="M118.347 154.119C118.311 154.176 118.294 154.241 118.299 154.303C118.303 154.365 118.33 154.421 118.374 154.462C118.389 154.475 118.405 154.487 118.423 154.496C118.454 154.513 118.489 154.523 118.526 154.526C118.563 154.529 118.601 154.524 118.638 154.513C118.675 154.501 118.71 154.483 118.741 154.459C118.773 154.434 118.799 154.405 118.82 154.372C119.154 153.851 119.485 153.311 119.808 152.77C119.848 152.702 119.861 152.625 119.844 152.555C119.826 152.486 119.781 152.429 119.716 152.399C119.652 152.368 119.574 152.365 119.5 152.391C119.426 152.418 119.362 152.47 119.322 152.538C119.005 153.073 118.677 153.605 118.347 154.119Z" fill="#292A2E"/>
<path d="M91.6741 28.4629C91.6857 28.4962 91.7043 28.526 91.7288 28.5506C91.7533 28.5751 91.7832 28.594 91.8168 28.606C91.8504 28.6181 91.887 28.6231 91.9245 28.6208C91.962 28.6185 91.9996 28.6089 92.0352 28.5926C92.589 28.3418 93.163 28.1003 93.7414 27.875C93.8147 27.8464 93.8771 27.7917 93.9149 27.7229C93.9528 27.6541 93.9629 27.5768 93.9432 27.5081C93.9334 27.4741 93.9166 27.4432 93.8937 27.4171C93.8708 27.3911 93.8422 27.3705 93.8097 27.3564C93.7439 27.328 93.6658 27.3281 93.5925 27.3567C93.0039 27.5869 92.4194 27.8316 91.8538 28.0883C91.8181 28.1043 91.7851 28.1267 91.7567 28.1542C91.7283 28.1818 91.7051 28.2139 91.6883 28.2487C91.6716 28.2836 91.6618 28.3205 91.6593 28.3572C91.6568 28.394 91.6619 28.4299 91.6741 28.4629Z" fill="#292A2E"/>
<path d="M76.5605 47.7769C76.5658 47.7401 76.5638 47.7035 76.5545 47.6693C76.5452 47.635 76.5289 47.6039 76.5063 47.5775C76.4609 47.5242 76.3931 47.4938 76.318 47.4929C76.2429 47.492 76.1666 47.5207 76.1059 47.5727C76.0451 47.6247 76.0049 47.6957 75.9942 47.7702C75.9107 48.358 75.8452 48.9568 75.803 49.5549C75.8005 49.5916 75.8053 49.6276 75.8173 49.6607C75.8293 49.6938 75.8482 49.7233 75.8729 49.7477C75.8976 49.772 75.9276 49.7907 75.9613 49.8027C75.9949 49.8146 76.0315 49.8195 76.069 49.8172C76.1064 49.8149 76.144 49.8054 76.1796 49.7892C76.2152 49.7729 76.2481 49.7504 76.2764 49.7227C76.3047 49.6951 76.3278 49.6629 76.3445 49.6281C76.3612 49.5932 76.3711 49.5564 76.3736 49.5196C76.415 48.9356 76.4773 48.3494 76.5605 47.7769Z" fill="#292A2E"/>
<path d="M102.838 25.2991C102.837 25.2254 102.806 25.159 102.752 25.1144C102.697 25.0699 102.624 25.0508 102.548 25.0614C101.941 25.1472 101.333 25.247 100.737 25.3552C100.7 25.3621 100.663 25.3761 100.629 25.3963C100.595 25.4165 100.565 25.4426 100.54 25.4731C100.49 25.5347 100.464 25.6103 100.468 25.6835C100.472 25.7566 100.507 25.8212 100.563 25.863C100.62 25.9049 100.694 25.9206 100.77 25.9067C101.356 25.7988 101.957 25.7015 102.556 25.6171C102.593 25.6121 102.631 25.5999 102.665 25.5812C102.7 25.5625 102.731 25.5375 102.758 25.5079C102.784 25.4783 102.805 25.4446 102.818 25.4087C102.832 25.3729 102.839 25.3356 102.838 25.2991Z" fill="#292A2E"/>
<path d="M76.4596 53.825C76.3996 53.2544 76.3583 52.679 76.3374 52.1133C76.3317 52.0423 76.2977 51.9798 76.2425 51.9389C76.1874 51.898 76.1152 51.8819 76.0413 51.8939C75.9673 51.906 75.8973 51.9453 75.8458 52.0036C75.7944 52.0619 75.7654 52.1347 75.7652 52.2067C75.7867 52.7843 75.8288 53.3721 75.8901 53.9539C75.8977 54.0264 75.9351 54.0891 75.9939 54.1283C76.0527 54.1674 76.1282 54.1798 76.2037 54.1627C76.2792 54.1456 76.3486 54.1005 76.3966 54.0371C76.4446 53.9738 76.4673 53.8975 76.4596 53.825Z" fill="#292A2E"/>
<path d="M77.617 43.4627C77.6427 43.3899 77.6389 43.3139 77.6065 43.2513C77.5742 43.1886 77.5158 43.1446 77.4444 43.1287C77.373 43.1129 77.2943 43.1267 77.2256 43.1669C77.157 43.2072 77.104 43.2707 77.0784 43.3434C76.8752 43.921 76.6928 44.5135 76.5361 45.104C76.5165 45.1778 76.5269 45.2524 76.5649 45.3114C76.5837 45.3406 76.6087 45.3651 76.6385 45.3835C76.6684 45.4019 76.7024 45.4139 76.7387 45.4186C76.775 45.4234 76.8128 45.4209 76.8501 45.4114C76.8873 45.4018 76.9232 45.3853 76.9557 45.3629C76.9882 45.3404 77.0167 45.3124 77.0395 45.2805C77.0624 45.2485 77.0791 45.2133 77.0888 45.1768C77.2416 44.6016 77.4191 44.0248 77.617 43.4627Z" fill="#292A2E"/>
<path d="M111.086 99.3524C110.723 98.9334 110.358 98.5164 109.99 98.1013C109.967 98.0753 109.939 98.0548 109.906 98.0408C109.873 98.0268 109.837 98.0197 109.8 98.0199C109.763 98.02 109.725 98.0274 109.689 98.0416C109.653 98.0559 109.619 98.0767 109.589 98.1029C109.559 98.1291 109.534 98.1601 109.516 98.1943C109.497 98.2284 109.485 98.2649 109.48 98.3018C109.475 98.3387 109.478 98.3752 109.488 98.4092C109.498 98.4432 109.515 98.4741 109.538 98.5001C109.904 98.9139 110.268 99.3295 110.629 99.7469L110.649 99.765C110.699 99.8098 110.768 99.8317 110.84 99.8262C110.913 99.8208 110.984 99.7885 111.04 99.7358C111.096 99.6832 111.132 99.6141 111.14 99.5427C111.149 99.4713 111.13 99.4029 111.087 99.3513L111.086 99.3524Z" fill="#292A2E"/>
<path d="M107.325 24.925C107.332 24.8506 107.308 24.7806 107.26 24.7302C107.211 24.6798 107.141 24.6532 107.065 24.6562C106.462 24.6818 105.855 24.7189 105.259 24.7668C105.221 24.7699 105.184 24.7801 105.148 24.7969C105.113 24.8137 105.08 24.8369 105.053 24.865C105.025 24.8931 105.002 24.9256 104.986 24.9607C104.97 24.9959 104.961 25.0328 104.959 25.0696C104.957 25.1063 104.963 25.1421 104.975 25.1749C104.988 25.2077 105.007 25.2369 105.033 25.2607C105.058 25.2846 105.088 25.3027 105.122 25.314C105.156 25.3253 105.193 25.3295 105.231 25.3265C105.819 25.2792 106.419 25.2425 107.015 25.217C107.052 25.2157 107.09 25.2071 107.126 25.1917C107.162 25.1763 107.196 25.1544 107.224 25.1272C107.253 25.1 107.277 25.0682 107.294 25.0335C107.312 24.9988 107.322 24.9619 107.325 24.925Z" fill="#292A2E"/>
<path d="M96.6949 84.3396L95.5087 83.1727C95.4839 83.1484 95.4538 83.1297 95.4202 83.1178C95.3865 83.106 95.3498 83.1011 95.3123 83.1034C95.2748 83.1058 95.2372 83.1154 95.2016 83.1317C95.166 83.1479 95.1331 83.1706 95.1049 83.1983C95.0766 83.226 95.0535 83.2582 95.0368 83.2931C95.0202 83.328 95.0103 83.3649 95.0078 83.4017C95.0053 83.4385 95.0103 83.4744 95.0223 83.5075C95.0344 83.5406 95.0533 83.5702 95.0781 83.5945L96.2639 84.7611L96.2697 84.7664C96.3205 84.8148 96.3916 84.8387 96.4673 84.8328C96.5431 84.827 96.6173 84.7919 96.6737 84.7353C96.7301 84.6787 96.764 84.6052 96.768 84.531C96.7719 84.4568 96.7456 84.388 96.6949 84.3396Z" fill="#292A2E"/>
<path d="M122.694 146.264C122.727 146.293 122.767 146.313 122.812 146.322C122.857 146.331 122.904 146.329 122.951 146.315C122.998 146.302 123.042 146.277 123.079 146.244C123.117 146.211 123.146 146.171 123.165 146.126C123.407 145.564 123.645 144.989 123.871 144.417C123.885 144.382 123.892 144.344 123.892 144.308C123.892 144.271 123.884 144.236 123.87 144.204C123.855 144.172 123.834 144.144 123.807 144.122C123.78 144.1 123.748 144.083 123.714 144.074C123.679 144.065 123.641 144.062 123.604 144.067C123.566 144.072 123.529 144.085 123.494 144.103C123.459 144.122 123.428 144.147 123.401 144.176C123.375 144.205 123.354 144.239 123.34 144.275C123.115 144.841 122.88 145.41 122.641 145.967C122.618 146.02 122.611 146.076 122.62 146.129C122.63 146.182 122.656 146.229 122.694 146.264Z" fill="#292A2E"/>
<path d="M94.8403 172.76C94.8332 172.725 94.8187 172.692 94.7979 172.664C94.777 172.636 94.7501 172.614 94.7188 172.598C94.6874 172.581 94.6523 172.572 94.6153 172.57C94.5783 172.567 94.5403 172.573 94.5034 172.585C93.9224 172.773 93.3306 172.952 92.7438 173.118C92.671 173.142 92.6067 173.191 92.5643 173.255C92.5219 173.32 92.5048 173.395 92.5165 173.465C92.5283 173.534 92.5679 173.593 92.6272 173.629C92.6865 173.665 92.7607 173.675 92.8343 173.657C93.4283 173.488 94.0271 173.306 94.6163 173.116C94.6532 173.104 94.6884 173.086 94.7198 173.061C94.7511 173.037 94.778 173.007 94.7989 172.974C94.8197 172.941 94.8341 172.905 94.8412 172.868C94.8483 172.831 94.848 172.794 94.8403 172.76Z" fill="#292A2E"/>
<path d="M85.6276 174.605C85.0362 174.689 84.4334 174.764 83.8363 174.831C83.7987 174.835 83.7614 174.846 83.7265 174.864C83.6915 174.882 83.6596 174.906 83.6326 174.935C83.6055 174.963 83.5839 174.996 83.5689 175.032C83.5539 175.067 83.5458 175.104 83.5451 175.141C83.5444 175.178 83.5512 175.213 83.5649 175.245C83.5787 175.278 83.5992 175.306 83.6252 175.329C83.6513 175.352 83.6825 175.369 83.7169 175.379C83.7513 175.389 83.7884 175.392 83.826 175.388C84.429 175.322 85.0382 175.245 85.6356 175.161C85.6733 175.156 85.7104 175.143 85.7449 175.124C85.7795 175.105 85.8107 175.08 85.8369 175.051C85.8631 175.021 85.8837 174.988 85.8976 174.952C85.9115 174.916 85.9184 174.879 85.9178 174.842C85.9173 174.806 85.9093 174.771 85.8944 174.739C85.8795 174.707 85.858 174.68 85.831 174.658C85.804 174.636 85.7721 174.62 85.7372 174.611C85.7022 174.602 85.6649 174.6 85.6273 174.605L85.6276 174.605Z" fill="#292A2E"/>
<path d="M124.293 141.717C124.28 141.753 124.275 141.79 124.277 141.826C124.278 141.863 124.288 141.897 124.304 141.928C124.32 141.959 124.343 141.986 124.37 142.007C124.398 142.028 124.431 142.043 124.466 142.05C124.502 142.058 124.539 142.059 124.577 142.052C124.614 142.046 124.651 142.032 124.685 142.012C124.719 141.992 124.749 141.966 124.775 141.936C124.8 141.905 124.819 141.871 124.832 141.835C125.032 141.264 125.229 140.68 125.416 140.098C125.44 140.025 125.434 139.949 125.4 139.888C125.365 139.826 125.306 139.784 125.233 139.77C125.161 139.757 125.083 139.772 125.015 139.814C124.948 139.856 124.896 139.921 124.873 139.994C124.687 140.571 124.492 141.151 124.293 141.717Z" fill="#292A2E"/>
<path d="M126.786 131.252C126.784 131.178 126.753 131.112 126.699 131.067C126.644 131.023 126.571 131.004 126.495 131.015C126.419 131.026 126.347 131.065 126.294 131.125C126.241 131.185 126.212 131.26 126.213 131.333C126.221 131.913 126.21 132.497 126.181 133.067C126.179 133.104 126.185 133.139 126.197 133.172C126.21 133.205 126.23 133.234 126.255 133.258C126.28 133.282 126.31 133.3 126.344 133.311C126.378 133.323 126.415 133.327 126.453 133.324C126.49 133.321 126.528 133.311 126.563 133.294C126.598 133.277 126.631 133.254 126.659 133.226C126.687 133.198 126.709 133.165 126.725 133.13C126.741 133.095 126.751 133.058 126.752 133.021C126.782 132.439 126.794 131.844 126.786 131.252Z" fill="#292A2E"/>
<path d="M90.4024 174C90.3946 173.927 90.3572 173.865 90.2984 173.826C90.2397 173.787 90.1643 173.774 90.0889 173.791C89.5032 173.924 88.9018 174.051 88.3056 174.164C88.2681 174.171 88.2315 174.185 88.1977 174.206C88.164 174.226 88.1339 174.252 88.1091 174.283C88.0843 174.314 88.0654 174.348 88.0533 174.384C88.0412 174.42 88.0362 174.457 88.0386 174.494C88.0411 174.53 88.0509 174.564 88.0675 174.595C88.0841 174.626 88.1072 174.652 88.1354 174.672C88.1637 174.693 88.1965 174.707 88.2321 174.714C88.2677 174.722 88.3053 174.722 88.3428 174.714C88.9471 174.599 89.5532 174.471 90.1465 174.338C90.184 174.329 90.2205 174.314 90.2538 174.293C90.287 174.271 90.3164 174.244 90.3403 174.213C90.3641 174.181 90.3818 174.146 90.3925 174.11C90.4032 174.073 90.4066 174.036 90.4024 174Z" fill="#292A2E"/>
<path d="M126.486 135.683C126.497 135.609 126.479 135.537 126.434 135.483C126.389 135.429 126.321 135.398 126.246 135.397C126.171 135.395 126.095 135.423 126.034 135.475C125.972 135.526 125.932 135.597 125.92 135.672C125.831 136.252 125.719 136.839 125.591 137.413C125.582 137.45 125.581 137.487 125.588 137.522C125.594 137.558 125.608 137.59 125.628 137.619C125.648 137.647 125.674 137.671 125.705 137.688C125.735 137.705 125.77 137.715 125.807 137.719C125.844 137.722 125.882 137.718 125.919 137.707C125.956 137.696 125.991 137.679 126.023 137.655C126.055 137.631 126.082 137.602 126.104 137.57C126.126 137.537 126.141 137.501 126.149 137.465C126.28 136.875 126.393 136.276 126.486 135.683Z" fill="#292A2E"/>
<path d="M110.955 163.389C110.932 163.363 110.903 163.343 110.87 163.329C110.837 163.316 110.801 163.309 110.764 163.31C110.726 163.311 110.688 163.319 110.652 163.334C110.616 163.349 110.582 163.37 110.553 163.397C110.09 163.817 109.612 164.231 109.134 164.627C109.103 164.652 109.077 164.682 109.057 164.716C109.038 164.75 109.024 164.786 109.018 164.823C109.012 164.86 109.014 164.896 109.022 164.931C109.031 164.965 109.047 164.997 109.069 165.024C109.077 165.031 109.085 165.039 109.094 165.046C109.141 165.089 109.205 165.112 109.275 165.11C109.344 165.108 109.413 165.081 109.47 165.034C109.956 164.631 110.441 164.211 110.912 163.784C110.941 163.757 110.966 163.726 110.984 163.692C111.002 163.658 111.013 163.621 111.017 163.585C111.021 163.548 111.018 163.512 111.007 163.478C110.996 163.445 110.979 163.414 110.955 163.389Z" fill="#292A2E"/>
<path d="M114.26 160.404C114.287 160.375 114.308 160.341 114.323 160.306C114.337 160.27 114.344 160.233 114.344 160.196C114.343 160.159 114.335 160.124 114.32 160.093C114.304 160.061 114.282 160.034 114.255 160.012C114.228 159.99 114.196 159.974 114.161 159.965C114.127 159.955 114.089 159.953 114.052 159.959C114.014 159.964 113.977 159.976 113.942 159.995C113.908 160.014 113.877 160.039 113.851 160.069C113.435 160.536 113.005 160.998 112.573 161.444C112.517 161.501 112.485 161.575 112.482 161.649C112.479 161.723 112.506 161.791 112.558 161.838C112.609 161.886 112.681 161.909 112.757 161.902C112.832 161.895 112.906 161.859 112.962 161.802C113.402 161.348 113.839 160.879 114.26 160.404Z" fill="#292A2E"/>
<path d="M107.306 166.389C107.287 166.36 107.261 166.336 107.231 166.318C107.2 166.3 107.166 166.289 107.129 166.285C107.093 166.281 107.055 166.285 107.017 166.296C106.98 166.306 106.945 166.324 106.913 166.347C106.41 166.711 105.89 167.069 105.37 167.412C105.303 167.456 105.254 167.522 105.232 167.596C105.211 167.669 105.219 167.744 105.255 167.805C105.267 167.823 105.281 167.841 105.297 167.855C105.34 167.895 105.398 167.918 105.461 167.92C105.523 167.922 105.588 167.903 105.644 167.866C106.172 167.517 106.7 167.153 107.212 166.783C107.244 166.76 107.272 166.732 107.294 166.699C107.316 166.667 107.332 166.632 107.341 166.595C107.35 166.558 107.351 166.521 107.345 166.486C107.339 166.45 107.326 166.417 107.306 166.389Z" fill="#292A2E"/>
<path d="M120.71 150.437C120.731 150.456 120.755 150.472 120.782 150.482C120.815 150.496 120.851 150.502 120.889 150.502C120.926 150.501 120.964 150.493 121 150.478C121.036 150.463 121.07 150.442 121.099 150.415C121.128 150.388 121.152 150.357 121.17 150.322C121.455 149.778 121.739 149.219 122.011 148.657C122.045 148.587 122.051 148.51 122.027 148.443C122.003 148.376 121.952 148.324 121.884 148.3C121.816 148.275 121.738 148.28 121.666 148.312C121.594 148.344 121.534 148.402 121.5 148.472C121.23 149.028 120.951 149.582 120.669 150.119C120.64 150.174 120.628 150.234 120.636 150.291C120.643 150.348 120.669 150.399 120.71 150.437Z" fill="#292A2E"/>
<path d="M99.1801 171.087C99.1687 171.054 99.1504 171.024 99.1262 170.999C99.1019 170.974 99.0723 170.955 99.0389 170.942C99.0055 170.929 98.969 170.924 98.9315 170.926C98.894 170.927 98.8563 170.936 98.8205 170.952C98.2582 171.198 97.6813 171.436 97.1069 171.66C97.0336 171.688 96.9712 171.743 96.9333 171.812C96.8954 171.88 96.8852 171.958 96.9048 172.026C96.9145 172.061 96.9313 172.091 96.9542 172.118C96.9771 172.144 97.0057 172.164 97.0382 172.178C97.0708 172.192 97.1067 172.2 97.144 172.2C97.1813 172.2 97.2192 172.192 97.2555 172.178C97.8399 171.952 98.423 171.71 98.9937 171.46C99.0296 171.445 99.0628 171.423 99.0916 171.395C99.1204 171.368 99.1441 171.336 99.1614 171.302C99.1787 171.267 99.1893 171.23 99.1925 171.193C99.1957 171.157 99.1915 171.12 99.1801 171.087Z" fill="#292A2E"/>
<path d="M103.359 168.964C103.343 168.932 103.321 168.905 103.294 168.883C103.267 168.861 103.235 168.846 103.199 168.838C103.164 168.829 103.126 168.828 103.089 168.834C103.051 168.84 103.014 168.854 102.98 168.873C102.442 169.177 101.892 169.477 101.338 169.761C101.267 169.797 101.211 169.858 101.18 169.929C101.15 170.001 101.149 170.078 101.177 170.143C101.205 170.208 101.26 170.256 101.329 170.276C101.399 170.297 101.478 170.288 101.548 170.252C102.111 169.963 102.671 169.659 103.213 169.351C103.248 169.332 103.279 169.307 103.305 169.277C103.331 169.247 103.351 169.213 103.365 169.177C103.379 169.141 103.385 169.103 103.384 169.067C103.383 169.03 103.374 168.995 103.359 168.964Z" fill="#292A2E"/>
<path d="M113.755 102.538C113.406 102.107 113.054 101.678 112.698 101.25C112.651 101.201 112.585 101.174 112.513 101.174C112.44 101.175 112.367 101.202 112.308 101.252C112.249 101.302 112.209 101.369 112.195 101.441C112.182 101.512 112.197 101.583 112.237 101.637C112.591 102.063 112.942 102.491 113.29 102.92C113.297 102.928 113.306 102.936 113.315 102.943C113.364 102.99 113.432 103.013 113.505 103.009C113.578 103.006 113.651 102.974 113.708 102.922C113.765 102.869 113.801 102.8 113.811 102.728C113.82 102.656 113.801 102.587 113.757 102.535L113.755 102.538Z" fill="#292A2E"/>
<path d="M63.6122 173.942C63.0396 173.834 62.467 173.718 61.9106 173.598C61.839 173.583 61.7603 173.597 61.6918 173.637C61.6233 173.678 61.5706 173.742 61.5453 173.815C61.5201 173.888 61.5243 173.964 61.5571 174.026C61.5898 174.088 61.6485 174.132 61.7201 174.148C62.2808 174.268 62.8587 174.384 63.4352 174.494C63.471 174.5 63.5086 174.5 63.5461 174.492C63.5835 174.484 63.62 174.47 63.6535 174.449C63.687 174.428 63.7168 174.401 63.7412 174.371C63.7656 174.34 63.7842 174.305 63.7958 174.269C63.8074 174.233 63.8119 174.195 63.8089 174.159C63.806 174.123 63.7957 174.089 63.7786 174.059C63.7616 174.028 63.7381 174.002 63.7096 173.982C63.681 173.962 63.6479 173.948 63.6122 173.942Z" fill="#292A2E"/>
<path d="M122.444 116.828C122.49 116.871 122.552 116.895 122.62 116.895C122.687 116.894 122.755 116.87 122.812 116.827C122.869 116.783 122.911 116.723 122.93 116.657C122.949 116.591 122.944 116.524 122.917 116.467C122.676 115.97 122.421 115.466 122.158 114.967C122.143 114.935 122.12 114.907 122.092 114.885C122.064 114.863 122.031 114.847 121.995 114.839C121.959 114.83 121.921 114.83 121.883 114.836C121.844 114.843 121.807 114.857 121.772 114.877C121.738 114.898 121.707 114.925 121.681 114.956C121.656 114.987 121.637 115.022 121.624 115.059C121.612 115.096 121.608 115.134 121.61 115.171C121.613 115.208 121.624 115.243 121.642 115.274C121.902 115.768 122.155 116.268 122.393 116.759C122.405 116.785 122.423 116.809 122.444 116.828Z" fill="#292A2E"/>
<path d="M120.817 113.161C120.85 113.14 120.88 113.113 120.904 113.081C120.928 113.05 120.946 113.016 120.957 112.979C120.969 112.943 120.972 112.905 120.969 112.869C120.965 112.833 120.954 112.8 120.936 112.77C120.659 112.294 120.369 111.811 120.075 111.336C120.038 111.276 119.976 111.236 119.903 111.225C119.83 111.215 119.752 111.233 119.685 111.278C119.619 111.322 119.57 111.389 119.55 111.462C119.529 111.536 119.538 111.611 119.575 111.671C119.868 112.143 120.155 112.623 120.431 113.095C120.448 113.125 120.472 113.151 120.501 113.171C120.53 113.191 120.563 113.204 120.599 113.21C120.635 113.217 120.673 113.215 120.711 113.207C120.748 113.199 120.785 113.183 120.818 113.162L120.817 113.161Z" fill="#292A2E"/>
<path d="M118.718 109.23C118.413 108.774 118.096 108.311 117.775 107.852C117.734 107.794 117.67 107.758 117.596 107.751C117.522 107.744 117.445 107.766 117.38 107.814C117.316 107.861 117.27 107.929 117.253 108.004C117.236 108.078 117.249 108.152 117.289 108.209C117.609 108.665 117.923 109.125 118.227 109.578C118.266 109.637 118.329 109.674 118.403 109.683C118.476 109.691 118.554 109.67 118.619 109.624C118.684 109.578 118.731 109.51 118.75 109.436C118.768 109.362 118.757 109.288 118.718 109.23Z" fill="#292A2E"/>
<path d="M67.9146 174.62C67.3401 174.548 66.7575 174.467 66.1835 174.379C66.1234 174.37 66.0592 174.381 66.0009 174.411C65.9426 174.44 65.8933 174.487 65.8606 174.543C65.8279 174.599 65.8136 174.661 65.8198 174.721C65.8261 174.781 65.8526 174.834 65.8952 174.873C65.9307 174.906 65.976 174.927 66.0261 174.934C66.6054 175.022 67.1923 175.103 67.7708 175.176C67.8443 175.186 67.9223 175.165 67.9878 175.12C68.0533 175.074 68.1009 175.007 68.1201 174.933C68.1393 174.859 68.1285 174.784 68.0902 174.726C68.0519 174.667 67.9891 174.629 67.9157 174.619L67.9146 174.62Z" fill="#292A2E"/>
<path d="M116.31 105.826C115.985 105.391 115.645 104.943 115.303 104.497C115.261 104.441 115.194 104.408 115.12 104.403C115.045 104.399 114.968 104.425 114.905 104.475C114.842 104.524 114.799 104.594 114.785 104.669C114.771 104.743 114.787 104.816 114.83 104.872C115.172 105.316 115.509 105.761 115.831 106.195C115.84 106.206 115.85 106.217 115.86 106.227C115.91 106.27 115.976 106.291 116.046 106.286C116.116 106.281 116.186 106.252 116.241 106.202C116.297 106.153 116.334 106.088 116.347 106.019C116.359 105.95 116.345 105.882 116.309 105.828L116.31 105.826Z" fill="#292A2E"/>
<path d="M76.7009 175.198C76.112 175.197 75.5148 175.188 74.9261 175.171C74.8512 175.169 74.7746 175.197 74.7131 175.248C74.6517 175.299 74.6104 175.37 74.5984 175.444C74.5864 175.518 74.6047 175.591 74.6492 175.645C74.6937 175.699 74.7608 175.73 74.8358 175.732C75.4291 175.749 76.03 175.757 76.6249 175.76C76.7001 175.76 76.7762 175.731 76.8365 175.678C76.8969 175.626 76.9364 175.554 76.9465 175.48C76.9566 175.405 76.9364 175.334 76.8903 175.281C76.8443 175.228 76.7761 175.199 76.7009 175.198Z" fill="#292A2E"/>
<path d="M81.1558 175.062C80.5683 175.103 79.9652 175.133 79.3688 175.155C79.2952 175.161 79.2231 175.195 79.1675 175.249C79.1119 175.303 79.0771 175.374 79.0703 175.446C79.0635 175.518 79.0854 175.586 79.1312 175.637C79.1771 175.687 79.2434 175.715 79.3164 175.716C79.9185 175.693 80.5256 175.662 81.1204 175.622C81.1961 175.617 81.2707 175.583 81.3277 175.527C81.3846 175.471 81.4193 175.397 81.4241 175.323C81.4289 175.249 81.4034 175.179 81.3532 175.13C81.303 175.081 81.2322 175.057 81.1565 175.062L81.1558 175.062Z" fill="#292A2E"/>
<path d="M126.128 128.917C126.168 128.956 126.222 128.98 126.281 128.985C126.341 128.99 126.403 128.975 126.458 128.944C126.513 128.912 126.559 128.866 126.589 128.81C126.618 128.755 126.63 128.694 126.622 128.636C126.562 128.071 126.481 127.492 126.387 126.917C126.384 126.879 126.373 126.843 126.354 126.812C126.336 126.78 126.31 126.753 126.279 126.733C126.248 126.713 126.213 126.7 126.175 126.696C126.136 126.691 126.096 126.694 126.057 126.705C126.018 126.716 125.981 126.734 125.948 126.759C125.914 126.784 125.886 126.815 125.864 126.85C125.842 126.884 125.827 126.922 125.82 126.961C125.813 127 125.814 127.039 125.823 127.075C125.917 127.639 125.995 128.208 126.055 128.764C126.06 128.824 126.086 128.878 126.128 128.917Z" fill="#292A2E"/>
<path d="M72.2815 175.042C71.7033 175.004 71.1124 174.958 70.5261 174.906C70.4519 174.899 70.3741 174.922 70.3098 174.97C70.2456 175.018 70.2001 175.086 70.1834 175.161C70.1667 175.235 70.1801 175.309 70.2207 175.366C70.2614 175.423 70.3259 175.459 70.4001 175.466C70.9913 175.52 71.5869 175.566 72.168 175.606C72.2424 175.611 72.3197 175.586 72.3828 175.537C72.4458 175.488 72.4895 175.418 72.5043 175.344C72.5191 175.27 72.5037 175.197 72.4615 175.141C72.4193 175.085 72.3538 175.051 72.2793 175.046L72.2815 175.042Z" fill="#292A2E"/>
<path d="M125.37 124.711C125.413 124.75 125.47 124.773 125.532 124.775C125.595 124.777 125.659 124.759 125.714 124.723C125.77 124.687 125.815 124.635 125.841 124.576C125.867 124.517 125.873 124.453 125.859 124.395C125.724 123.853 125.571 123.298 125.405 122.747C125.384 122.679 125.335 122.625 125.269 122.597C125.203 122.57 125.125 122.571 125.052 122.6C124.979 122.63 124.917 122.685 124.88 122.754C124.843 122.823 124.833 122.901 124.854 122.969C125.018 123.512 125.168 124.059 125.302 124.594C125.313 124.639 125.337 124.679 125.37 124.711Z" fill="#292A2E"/>
<path d="M124.106 120.679C124.149 120.723 124.21 120.749 124.276 120.751C124.343 120.753 124.411 120.732 124.469 120.691C124.526 120.65 124.57 120.591 124.591 120.527C124.613 120.462 124.611 120.395 124.586 120.337C124.391 119.819 124.182 119.289 123.961 118.765C123.932 118.701 123.877 118.655 123.808 118.636C123.74 118.616 123.663 118.625 123.593 118.66C123.524 118.695 123.467 118.754 123.436 118.824C123.405 118.894 123.402 118.969 123.427 119.034C123.646 119.554 123.854 120.076 124.046 120.589C124.059 120.623 124.079 120.654 124.106 120.679Z" fill="#292A2E"/>
<path d="M110.681 24.6364C110.379 24.6286 110.079 24.6226 109.78 24.6182C109.743 24.6178 109.705 24.6246 109.669 24.6383C109.632 24.652 109.598 24.6723 109.568 24.6981C109.538 24.7238 109.512 24.7545 109.493 24.7884C109.474 24.8223 109.461 24.8587 109.456 24.8955C109.451 24.9324 109.453 24.969 109.462 25.0032C109.471 25.0374 109.488 25.0686 109.51 25.095C109.533 25.1214 109.561 25.1424 109.593 25.1569C109.626 25.1714 109.661 25.1791 109.699 25.1796C109.995 25.1823 110.293 25.1884 110.59 25.1976C110.627 25.1987 110.665 25.1925 110.702 25.1793C110.738 25.1662 110.773 25.1465 110.803 25.1212C110.834 25.0959 110.86 25.0655 110.879 25.0319C110.899 24.9983 110.912 24.962 110.918 24.9251C110.924 24.8883 110.923 24.8516 110.914 24.8171C110.905 24.7827 110.89 24.7511 110.868 24.7243C110.846 24.6975 110.818 24.6759 110.786 24.6608C110.754 24.6457 110.718 24.6374 110.681 24.6364Z" fill="#292A2E"/>
<path d="M115.828 17.5882L109.972 25.277L147.31 28.7285L115.828 17.5882Z" fill="#0CBC8B"/>
<path opacity="0.2" d="M115.828 17.5882L109.972 25.277L147.31 28.7285L115.828 17.5882Z" fill="#0A0A0A"/>
<path d="M115.419 20.771L109.977 25.2744L138.873 27.4957L115.419 20.771Z" fill="#0CBC8B"/>
<path opacity="0.1" d="M115.419 20.771L109.977 25.2744L138.873 27.4957L115.419 20.771Z" fill="#0A0A0A"/>
<path d="M116.64 11.7886L147.314 28.7257L112.889 33.3056L115.418 20.7708L147.314 28.7257L115.832 17.5854L116.64 11.7886Z" fill="#0CBC8B"/>
</svg>
