<svg width="150" height="101" viewBox="0 0 150 101" fill="none" xmlns="http://www.w3.org/2000/svg">
<g clip-path="url(#clip0_42:3642)">
<path d="M118.427 0H88.5469V38.8925H118.427V0Z" fill="#F4F4F4"/>
<path d="M118.427 38.8925H119.396V3.8147e-06H118.427V38.8925Z" fill="#F4F4F4"/>
<path opacity="0.05" d="M118.427 38.8925H119.396V3.8147e-06H118.427V38.8925Z" fill="#292A2E"/>
<path opacity="0.05" d="M112.984 7.08482H93.9899V31.8079H112.984V7.08482Z" fill="#292A2E"/>
<path opacity="0.03" d="M112.984 7.08482H111.994V31.8079H112.984V7.08482Z" fill="#292A2E"/>
<path d="M142.864 48.4568H118.427V73.1182H142.864V48.4568Z" fill="#F4F4F4"/>
<path opacity="0.05" d="M138.412 52.9493H122.879V68.6259H138.412V52.9493Z" fill="#292A2E"/>
<path d="M142.864 73.1182H143.833V48.4568H142.864V73.1182Z" fill="#F4F4F4"/>
<path opacity="0.05" d="M142.864 73.1182H143.833V48.4568H142.864V73.1182Z" fill="#292A2E"/>
<path opacity="0.03" d="M138.412 52.9493H137.422V68.6259H138.412V52.9493Z" fill="#292A2E"/>
<path d="M66.0918 3.61067H3.4707V66.2317H66.0918V3.61067Z" fill="#F4F4F4"/>
<path d="M3.47089 3.61067H2.75311V66.2317H3.47089V3.61067Z" fill="#F4F4F4"/>
<path opacity="0.05" d="M3.47089 3.61067H2.75311V66.2317H3.47089V3.61067Z" fill="#292A2E"/>
<path opacity="0.05" d="M18.641 46.7617V30.3781H32.0616V39.8966H52.8504V56.7504H61.6859V66.2317H52.8504H51.1483H6.48315V46.7617H18.641Z" fill="#292A2E"/>
<path opacity="0.34" d="M30.339 32.1569H20.5659V33.9358H30.339V32.1569Z" fill="#FFFFFA"/>
<path opacity="0.34" d="M30.339 35.8432H20.5659V37.6221H30.339V35.8432Z" fill="#FFFFFA"/>
<path opacity="0.34" d="M30.339 39.5294H20.5659V41.3082H30.339V39.5294Z" fill="#FFFFFA"/>
<path opacity="0.34" d="M10.0176 48.4886H8.21619V50.2674H10.0176V48.4886Z" fill="#FFFFFA"/>
<path opacity="0.34" d="M10.0176 52.1747H8.21619V53.9536H10.0176V52.1747Z" fill="#FFFFFA"/>
<path opacity="0.34" d="M10.0176 55.8611H8.21619V57.6399H10.0176V55.8611Z" fill="#FFFFFA"/>
<path opacity="0.34" d="M13.35 48.4886H11.5486V50.2674H13.35V48.4886Z" fill="#FFFFFA"/>
<path opacity="0.34" d="M13.35 52.1747H11.5486V53.9536H13.35V52.1747Z" fill="#FFFFFA"/>
<path opacity="0.34" d="M13.35 55.8611H11.5486V57.6399H13.35V55.8611Z" fill="#FFFFFA"/>
<path opacity="0.34" d="M16.5924 48.4886H14.791V50.2674H16.5924V48.4886Z" fill="#FFFFFA"/>
<path opacity="0.34" d="M16.5924 52.1747H14.791V53.9536H16.5924V52.1747Z" fill="#FFFFFA"/>
<path opacity="0.34" d="M16.5924 55.8611H14.791V57.6399H16.5924V55.8611Z" fill="#FFFFFA"/>
<path d="M3.4707 34.57H16.0712V3.61067H17.1132V34.57H51.1483V3.61067H52.1903V34.57H66.0919V35.612H52.1903V66.2317H51.1483V35.612H17.1132V66.2317H16.0712V35.612H3.4707V34.57Z" fill="white"/>
<path d="M68.5864 66.1562H0.976166V68.2387H68.5864V66.1562Z" fill="#F4F4F4"/>
<path opacity="0.1" d="M68.5864 66.1562H0.976166V68.2387H68.5864V66.1562Z" fill="#292A2E"/>
<path opacity="0.1" d="M0.976168 66.1562H0V68.2387H0.976168V66.1562Z" fill="#292A2E"/>
<path opacity="0.1" d="M0.976168 66.1562H0V68.2387H0.976168V66.1562Z" fill="#292A2E"/>
<path d="M45.6975 34.577C45.6975 34.577 48.4102 32.228 48.7856 27.2172C49.0762 23.3368 45.6975 26.0645 45.6975 26.0645C45.6975 26.0645 45.8795 23.2684 43.8796 23.6785C41.8797 24.0886 40.943 27.0761 40.943 27.0761" fill="#0C0C0C"/>
<path d="M33.4641 24.7026C33.4641 24.7026 23.517 26.448 28.0485 39.7816H30.7468" fill="#0C0C0C"/>
<path d="M44.6667 53.6436C44.6224 53.6378 44.1326 61.7668 34.689 61.0581C28.1514 60.5682 25.8203 53.6321 25.6705 53.6321C26.3754 53.4823 27.5624 53.2645 27.8754 53.0974C28.9048 52.5442 30.1786 51.9685 30.5103 49.9694C30.7017 48.8173 30.3773 42.9225 30.477 41.7565L40.5123 43.9965C40.3721 46.4587 39.3908 52.1667 42.8305 53.1769C43.4029 53.344 44.0194 53.4977 44.6667 53.6436Z" fill="#E98862"/>
<path opacity="0.52" d="M40.653 50.8441C40.4959 50.3375 40.3947 49.8153 40.3511 49.2867C40.2408 48.0803 40.2629 46.8656 40.4168 45.6641C38.3771 45.3887 36.4555 44.5468 34.8703 43.234C34.6842 43.9222 33.6593 46.9292 33.9431 47.5833C34.4793 48.8196 36.9998 50.8441 40.653 50.8441Z" fill="#0C0C0C"/>
<path d="M38.8719 48.88C34.8979 48.7905 30.0028 46.6115 29.5754 41.254L29.1903 36.4197C28.7629 31.0624 31.2312 26.4946 36.2745 26.0922C41.319 25.6896 45.4359 29.7311 45.8629 35.0893L46.0337 37.2295C46.0795 37.9654 46.0751 38.7035 46.0206 39.4387C45.8907 41.3834 45.6856 44.3396 44.5105 46.4086C43.4009 48.3629 41.4107 48.9374 38.8719 48.88Z" fill="#E98862"/>
<path d="M44.3663 38.3755C44.7105 38.3755 44.9896 38.0965 44.9896 37.7523C44.9896 37.4081 44.7105 37.129 44.3663 37.129C44.0221 37.129 43.7431 37.4081 43.7431 37.7523C43.7431 38.0965 44.0221 38.3755 44.3663 38.3755Z" fill="#0C0C0C"/>
<path d="M38.6433 38.4146C38.9875 38.4146 39.2666 38.1356 39.2666 37.7914C39.2666 37.4472 38.9875 37.1681 38.6433 37.1681C38.2991 37.1681 38.0201 37.4472 38.0201 37.7914C38.0201 38.1356 38.2991 38.4146 38.6433 38.4146Z" fill="#0C0C0C"/>
<path d="M30.0188 42.8611C28.4858 42.9835 27.1115 41.4427 26.99 39.9097C26.8685 38.3767 28.043 37.4321 29.5759 37.3104L30.4478 38.2744L31.3369 42.7565L30.0188 42.8611Z" fill="#E98862"/>
<path d="M31.38 40.2934C31.38 40.2934 31.3897 32.6714 33.6589 32.0487C35.1703 31.634 39.0319 33.5584 42.4296 32.6714C43.9162 32.2832 45.3706 32.5601 45.5637 33.2617C45.6407 33.5395 46.3069 29.4302 43.7431 26.5163C41.7022 24.1966 35.5119 23.9171 32.7705 24.9071C25.1799 27.646 29.2819 37.6652 29.2819 37.6652L29.8018 40.258L31.38 40.2934Z" fill="#0C0C0C"/>
<g opacity="0.52">
<path opacity="0.52" d="M41.284 42.1321H41.2938C41.7879 42.0936 42.6125 41.975 42.5838 41.6053C42.5597 41.299 41.4671 38.0578 41.3418 37.6893C41.3302 37.6588 41.3072 37.6339 41.2776 37.6199C41.248 37.606 41.2142 37.6041 41.1833 37.6145C41.1523 37.625 41.1266 37.6471 41.1116 37.6761C41.0965 37.7051 41.0933 37.7388 41.1026 37.7702C41.588 39.2055 42.3156 41.4166 42.332 41.6248C42.2902 41.7158 41.7856 41.8408 41.273 41.8805C41.2399 41.8821 41.2087 41.8967 41.1862 41.9212C41.1638 41.9456 41.1519 41.978 41.1532 42.0111C41.1544 42.0443 41.1687 42.0757 41.1929 42.0984C41.2171 42.1211 41.2493 42.1334 41.2825 42.1325L41.284 42.1321Z" fill="#0C0C0C"/>
</g>
<path d="M42.3892 34.5307C42.8929 34.3541 43.4349 34.3165 43.9581 34.4217C44.2155 34.4719 44.4639 34.5604 44.695 34.6844C44.9237 34.8059 45.1362 34.9557 45.3275 35.1303C45.3588 35.1576 45.3784 35.196 45.382 35.2374C45.3856 35.2788 45.3729 35.32 45.3467 35.3523C45.3205 35.3846 45.2828 35.4055 45.2416 35.4105C45.2003 35.4155 45.1587 35.4043 45.1255 35.3792L45.1153 35.3715C44.9379 35.2266 44.7431 35.1046 44.5354 35.0082C44.3307 34.9122 44.1128 34.8477 43.8888 34.8168C43.4463 34.7525 42.9946 34.8062 42.5796 34.9726L42.5638 34.9791C42.5345 34.9929 42.5027 35.0007 42.4703 35.0019C42.438 35.0031 42.4057 34.9977 42.3754 34.9862C42.3452 34.9746 42.3176 34.9571 42.2942 34.9346C42.2709 34.9121 42.2524 34.8851 42.2398 34.8553C42.2271 34.8255 42.2206 34.7934 42.2207 34.761C42.2207 34.7286 42.2273 34.6966 42.24 34.6668C42.2528 34.637 42.2714 34.6101 42.2947 34.5877C42.3181 34.5653 42.3458 34.5478 42.3761 34.5363L42.3892 34.5307Z" fill="#0C0C0C"/>
<path d="M38.7307 35.0246C38.3156 34.8584 37.864 34.8048 37.4215 34.8692C37.1976 34.9 36.9796 34.9645 36.775 35.0606C36.5672 35.1569 36.3723 35.279 36.195 35.4239L36.1852 35.4314C36.1521 35.4563 36.1106 35.4674 36.0694 35.4624C36.0283 35.4573 35.9907 35.4366 35.9645 35.4044C35.9384 35.3723 35.9257 35.3313 35.9291 35.2899C35.9325 35.2486 35.9518 35.2103 35.9829 35.1829C36.1741 35.0081 36.3866 34.8582 36.6153 34.7367C36.8465 34.6127 37.0949 34.5241 37.3524 34.4739C37.8756 34.3687 38.4175 34.4063 38.9212 34.5829C38.9799 34.6055 39.0275 34.6502 39.0538 34.7074C39.08 34.7647 39.0827 34.8299 39.0615 34.8892C39.0402 34.9485 38.9965 34.997 38.9398 35.0245C38.8832 35.052 38.818 35.0561 38.7583 35.0361L38.7465 35.0317L38.7307 35.0246Z" fill="#0C0C0C"/>
<path d="M41.8891 43.3873C40.4518 43.5532 39.0001 43.2355 37.7634 42.4843C37.7206 42.4584 37.6712 42.4453 37.6211 42.4465C37.5711 42.4477 37.5224 42.4631 37.4808 42.491C37.4391 42.5188 37.4063 42.558 37.3861 42.6038C37.366 42.6496 37.3593 42.7003 37.3668 42.7498C37.5045 43.597 38.0022 45.1428 39.7986 45.2553C40.9588 45.3279 41.7517 44.401 42.1445 43.792C42.1718 43.7498 42.1865 43.7006 42.1868 43.6503C42.1871 43.5999 42.173 43.5506 42.1462 43.508C42.1193 43.4654 42.0809 43.4315 42.0353 43.4101C41.9898 43.3887 41.9391 43.3808 41.8891 43.3873Z" fill="white"/>
<path d="M41.286 29.3245C42.4057 29.0111 42.9395 27.421 42.4783 25.7728C42.017 24.1247 40.7354 23.0426 39.6156 23.356C38.4958 23.6694 37.962 25.2595 38.4233 26.9077C38.8845 28.5558 40.1662 29.6379 41.286 29.3245Z" fill="#0C0C0C"/>
<path d="M34.5015 59.031C27.9375 58.7216 27.6612 53.1501 27.6612 53.1501C27.6612 53.1501 24.4088 53.3604 22.2468 53.6528C18.7072 54.1317 16.3721 55.332 14.5139 57.1903C12.7851 58.919 11.7327 60.7893 12.8465 72.7301C13.6529 81.3762 13.0853 100.394 13.0853 100.394H52.7C52.7 100.394 55.0757 75.467 55.4067 71.5749C56.0388 64.145 56.5519 57.6725 55.0093 56.1298C51.838 52.9586 45.6134 53.1501 42.8875 53.1505C42.8432 53.1505 43.4406 59.4523 34.5015 59.031Z" fill="#367CFF"/>
<path d="M92.3164 100.137L63.7052 100.279C62.3325 100.18 61.0168 99.69 59.913 98.8679C58.8093 98.0458 57.9635 96.9254 57.4753 95.6386L43.3638 64.332C42.6844 62.5416 42.744 60.5548 43.5295 58.8084C44.3151 57.0621 45.7622 55.6993 47.5525 55.0199C51.2811 53.6049 54.9621 54.5562 56.3769 58.2841L69.3414 86.2081L92.8957 86.5903C92.8957 86.5903 92.4935 100.15 92.3164 100.137Z" fill="#367CFF"/>
<path d="M54.8466 73.312C54.8482 73.2864 54.8599 73.2626 54.879 73.2457C54.8982 73.2287 54.9234 73.2201 54.9489 73.2217C54.9744 73.2234 54.9983 73.235 55.0152 73.2542C55.0321 73.2734 55.0407 73.2986 55.0391 73.3241L54.2337 86.191C54.2323 86.2141 54.2225 86.236 54.2062 86.2525C54.1899 86.269 54.1683 86.2791 54.1451 86.2809C54.1406 86.2812 54.136 86.2812 54.1315 86.2809C54.1188 86.2801 54.1065 86.2769 54.0951 86.2713C54.0837 86.2657 54.0736 86.258 54.0652 86.2485C54.0569 86.239 54.0504 86.2279 54.0463 86.216C54.0422 86.204 54.0406 86.1913 54.0414 86.1787" fill="#0C0C0C"/>
<path d="M59.7253 87.1104L53.9232 85.0766L54.7561 85.0188C55.0246 84.9949 55.274 84.87 55.454 84.6692C55.6339 84.4684 55.7309 84.2069 55.7253 83.9373C55.7177 83.7983 55.6818 83.6622 55.6198 83.5375C55.5579 83.4128 55.4712 83.302 55.365 83.2119C55.2588 83.1218 55.1353 83.0543 55.0022 83.0135C54.869 82.9727 54.7289 82.9595 54.5905 82.9746L44.3257 84.0656L44.5922 87.3643C44.675 88.3889 45.062 89.3654 45.7035 90.1686C46.345 90.9718 47.2117 91.5651 48.1926 91.8724L52.638 93.2571C52.8676 93.3336 53.1165 93.3284 53.3427 93.2424C53.5689 93.1563 53.7584 92.9948 53.8791 92.785C53.984 92.5934 54.025 92.3733 53.9961 92.1568C53.9671 91.9402 53.8697 91.7386 53.7181 91.5813C53.7316 91.5715 53.7422 91.5582 53.7487 91.5428C53.754 91.5284 53.7557 91.513 53.7538 91.4978C53.7518 91.4826 53.7462 91.4681 53.7374 91.4556L54.5568 91.7124C54.8123 91.7983 55.0909 91.7839 55.3363 91.6722C55.5816 91.5605 55.7754 91.3598 55.8784 91.1107C55.9627 90.8849 55.9647 90.6366 55.8839 90.4094C55.8032 90.1823 55.645 89.9909 55.4371 89.8689C55.4466 89.8637 55.4551 89.8569 55.4621 89.8486L55.7991 89.9542C56.0286 90.0306 56.2776 90.0254 56.5038 89.9393C56.7299 89.8533 56.9194 89.6918 57.0402 89.4821C57.1677 89.2495 57.2001 88.9767 57.1308 88.7207C57.0614 88.4647 56.8956 88.2456 56.6682 88.1093C56.67 88.1025 56.6711 88.0955 56.6714 88.0885L59.0876 88.9356C59.2078 88.9795 59.3355 88.999 59.4633 88.9931C59.5911 88.9872 59.7165 88.956 59.8322 88.9013C59.9478 88.8465 60.0515 88.7694 60.1371 88.6743C60.2227 88.5792 60.2886 88.4681 60.3309 88.3473C60.3732 88.2266 60.3911 88.0986 60.3836 87.9709C60.3761 87.8432 60.3433 87.7182 60.2872 87.6032C60.231 87.4883 60.1526 87.3856 60.0564 87.3012C59.9603 87.2168 59.8483 87.1523 59.727 87.1115L59.7253 87.1104Z" fill="#E98862"/>
<path opacity="0.2" d="M56.5754 88.1824C56.5641 88.1825 56.553 88.1805 56.5424 88.1766L54.2052 87.3268C54.1928 87.3229 54.1813 87.3165 54.1714 87.3081C54.1615 87.2996 54.1535 87.2893 54.1477 87.2776C54.1419 87.2659 54.1386 87.2532 54.1379 87.2403C54.1372 87.2273 54.1391 87.2143 54.1435 87.2021C54.1479 87.1898 54.1548 87.1786 54.1637 87.1691C54.1726 87.1596 54.1833 87.152 54.1952 87.1468C54.2071 87.1416 54.2199 87.1388 54.233 87.1386C54.246 87.1385 54.2589 87.141 54.2709 87.146L56.6083 87.9959C56.6294 88.0037 56.6472 88.0187 56.6584 88.0382C56.6696 88.0578 56.6737 88.0807 56.6697 88.1029C56.6658 88.1251 56.6542 88.1452 56.637 88.1598C56.6197 88.1743 56.5979 88.1823 56.5754 88.1824Z" fill="#0A0A0A"/>
<path opacity="0.2" d="M55.3932 89.8814C55.3822 89.8814 55.3714 89.8795 55.361 89.8758L53.5188 89.2211C53.4956 89.212 53.4768 89.1942 53.4664 89.1715C53.456 89.1488 53.4549 89.1229 53.4632 89.0993C53.4716 89.0758 53.4888 89.0564 53.5111 89.0453C53.5335 89.0342 53.5593 89.0322 53.5831 89.0398L55.4254 89.6934C55.4467 89.7011 55.4647 89.716 55.4762 89.7355C55.4876 89.7551 55.4918 89.7781 55.4879 89.8005C55.4841 89.8228 55.4725 89.8431 55.4551 89.8577C55.4378 89.8723 55.4159 89.8804 55.3932 89.8804V89.8814Z" fill="#0A0A0A"/>
<path opacity="0.2" d="M53.6592 91.6056C53.6474 91.6055 53.6357 91.6034 53.6247 91.5992L52.762 91.2702C52.7388 91.2605 52.7204 91.2423 52.7105 91.2193C52.7006 91.1963 52.7001 91.1704 52.709 91.147C52.7179 91.1236 52.7356 91.1046 52.7582 91.094C52.7809 91.0834 52.8069 91.0821 52.8305 91.0903L53.6934 91.4194C53.7144 91.4274 53.732 91.4425 53.743 91.4622C53.754 91.4818 53.7578 91.5046 53.7537 91.5267C53.7496 91.5488 53.738 91.5688 53.7207 91.5832C53.7034 91.5976 53.6817 91.6055 53.6592 91.6056Z" fill="#0A0A0A"/>
<path d="M48.6268 94.2914L12.6534 100.255C11.5444 100.375 10.4225 100.237 9.37572 99.8516C8.32896 99.4659 7.38582 98.8428 6.62029 98.0314C5.85476 97.2199 5.28768 96.2421 4.96353 95.1747C4.63938 94.1073 4.56699 92.9792 4.75203 91.8791L12.4229 61.1501C12.7406 59.2617 13.7955 57.5769 15.3554 56.4662C16.9153 55.3556 18.8526 54.9101 20.741 55.2278C22.6293 55.5455 24.3142 56.6003 25.4248 58.1603C26.5355 59.7202 26.9809 61.6574 26.6632 63.5458L20.7802 84.9628L46.9198 81.392L48.6268 94.2914Z" fill="#367CFF"/>
<path d="M16.091 85.635C16.0668 85.6348 16.0436 85.6255 16.0259 85.6089C16.0083 85.5924 15.9975 85.5698 15.9957 85.5457C15.994 85.5216 16.0013 85.4977 16.0164 85.4788C16.0314 85.4599 16.053 85.4473 16.0769 85.4436L20.5607 84.7722C20.5733 84.7701 20.5861 84.7706 20.5984 84.7736C20.6107 84.7766 20.6223 84.782 20.6325 84.7895C20.6428 84.7971 20.6514 84.8066 20.6578 84.8175C20.6643 84.8284 20.6686 84.8405 20.6703 84.853C20.674 84.8783 20.6676 84.904 20.6524 84.9245C20.6372 84.945 20.6145 84.9587 20.5892 84.9624L16.1054 85.6338C16.1006 85.6346 16.0958 85.635 16.091 85.635Z" fill="#0C0C0C"/>
<path d="M13.6548 100.394C13.6292 100.396 13.6041 100.387 13.5849 100.37C13.5657 100.353 13.554 100.329 13.5524 100.304C13.5507 100.278 13.5593 100.253 13.5762 100.234C13.5931 100.215 13.6169 100.203 13.6425 100.201L48.4252 94.2185L46.7392 81.511L20.7802 84.9628C20.7653 84.9647 20.7502 84.9631 20.736 84.9581C20.7218 84.9532 20.7089 84.945 20.6984 84.9343C20.6879 84.9235 20.6801 84.9103 20.6756 84.8959C20.6711 84.8815 20.6701 84.8662 20.6726 84.8513L23.4815 72.7328C23.4835 72.7202 23.4879 72.7082 23.4945 72.6974C23.5012 72.6866 23.51 72.6772 23.5203 72.6698C23.5306 72.6624 23.5423 72.6572 23.5547 72.6544C23.5671 72.6517 23.5799 72.6514 23.5924 72.6536C23.6049 72.6557 23.6169 72.6603 23.6276 72.667C23.6383 72.6737 23.6476 72.6825 23.6549 72.6928C23.6623 72.7031 23.6675 72.7148 23.6703 72.7271C23.6731 72.7395 23.6735 72.7523 23.6714 72.7647L20.884 84.7552L46.8114 81.3069C46.8241 81.3052 46.837 81.3061 46.8494 81.3094C46.8618 81.3128 46.8734 81.3187 46.8835 81.3266C46.8936 81.3345 46.902 81.3444 46.9082 81.3556C46.9145 81.3669 46.9184 81.3792 46.9198 81.392L48.6268 94.292C48.6295 94.317 48.6224 94.3421 48.6068 94.3619C48.5913 94.3817 48.5686 94.3947 48.5436 94.3979L13.6673 100.393C13.6631 100.394 13.659 100.394 13.6548 100.394Z" fill="#0C0C0C"/>
<path d="M76.2761 96.8745L85.6958 67.919C85.8613 67.4101 86.1836 66.9667 86.6166 66.6522C87.0495 66.3378 87.5709 66.1684 88.106 66.1684H126.482C126.882 66.1684 127.277 66.2631 127.633 66.4448C127.989 66.6264 128.298 66.8899 128.533 67.2135C128.768 67.5372 128.923 67.912 128.986 68.3071C129.048 68.7023 129.016 69.1066 128.892 69.487L119.473 98.4426C119.307 98.9513 118.985 99.3946 118.552 99.709C118.119 100.023 117.598 100.193 117.063 100.193H78.6862C78.2862 100.193 77.8918 100.098 77.5354 99.9166C77.179 99.735 76.8706 99.4716 76.6355 99.1479C76.4004 98.8242 76.2453 98.4495 76.1828 98.0544C76.1204 97.6593 76.1523 97.255 76.2761 96.8745Z" fill="#292A2E"/>
<path d="M83.9601 97.8451H58.2712C57.6311 97.8451 57.1122 98.3641 57.1122 99.0042V99.0338C57.1122 99.674 57.6311 100.193 58.2712 100.193H83.9601C84.6002 100.193 85.1191 99.674 85.1191 99.0338V99.0042C85.1191 98.3641 84.6002 97.8451 83.9601 97.8451Z" fill="#292A2E"/>
<path d="M102.584 88.6183C104.807 88.6183 106.609 86.8163 106.609 84.5933C106.609 82.3704 104.807 80.5683 102.584 80.5683C100.361 80.5683 98.5592 82.3704 98.5592 84.5933C98.5592 86.8163 100.361 88.6183 102.584 88.6183Z" fill="white"/>
<path d="M146.363 55.4267H103.992L98.5602 59.4958V38.4627C98.5602 37.5237 98.9333 36.6232 99.5973 35.9592C100.261 35.2952 101.162 34.9222 102.101 34.9222H146.363C147.302 34.9222 148.203 35.2952 148.867 35.9592C149.531 36.6232 149.904 37.5237 149.904 38.4627V51.8863C149.904 52.8253 149.531 53.7258 148.867 54.3897C148.203 55.0537 147.302 55.4267 146.363 55.4267Z" fill="white"/>
<path d="M98.5602 59.5921C98.5452 59.592 98.5305 59.5885 98.5171 59.5819C98.5011 59.5738 98.4877 59.5616 98.4783 59.5464C98.4689 59.5312 98.4639 59.5136 98.4639 59.4958V38.4627C98.465 37.4985 98.8486 36.5741 99.5304 35.8923C100.212 35.2105 101.137 34.827 102.101 34.8259H146.363C147.327 34.827 148.252 35.2105 148.934 35.8923C149.615 36.5741 149.999 37.4985 150 38.4627V51.8861C149.999 52.8503 149.615 53.7747 148.934 54.4565C148.252 55.1383 147.327 55.5218 146.363 55.523H104.024L98.618 59.5728C98.6013 59.5853 98.581 59.5921 98.5602 59.5921ZM102.101 35.0184C101.188 35.0195 100.312 35.3827 99.6664 36.0284C99.0207 36.6741 98.6575 37.5496 98.6565 38.4627V59.3034L103.935 55.3497C103.952 55.3372 103.972 55.3304 103.993 55.3304H146.363C147.276 55.3294 148.152 54.9662 148.798 54.3205C149.443 53.6748 149.806 52.7993 149.807 51.8861V38.4627C149.806 37.5496 149.443 36.6741 148.798 36.0284C148.152 35.3827 147.276 35.0195 146.363 35.0184H102.101Z" fill="#292A2E"/>
<path d="M146.229 44.9395H118.479C118.443 44.9395 118.408 44.9252 118.383 44.8997C118.357 44.8741 118.343 44.8395 118.343 44.8034C118.343 44.7673 118.357 44.7327 118.383 44.7072C118.408 44.6816 118.443 44.6673 118.479 44.6673H146.229C146.265 44.6673 146.299 44.6816 146.325 44.7072C146.35 44.7327 146.365 44.7673 146.365 44.8034C146.365 44.8395 146.35 44.8741 146.325 44.8997C146.299 44.9252 146.265 44.9395 146.229 44.9395Z" fill="#367CFF"/>
<path d="M146.229 48.3424H118.479C118.461 48.3424 118.444 48.3389 118.427 48.3321C118.411 48.3252 118.396 48.3152 118.383 48.3026C118.37 48.2899 118.36 48.2749 118.353 48.2584C118.347 48.2419 118.343 48.2242 118.343 48.2063C118.343 48.1884 118.347 48.1707 118.353 48.1542C118.36 48.1377 118.37 48.1227 118.383 48.1101C118.396 48.0974 118.411 48.0874 118.427 48.0806C118.444 48.0737 118.461 48.0702 118.479 48.0702H146.229C146.246 48.0702 146.264 48.0737 146.281 48.0806C146.297 48.0874 146.312 48.0974 146.325 48.1101C146.337 48.1227 146.347 48.1377 146.354 48.1542C146.361 48.1707 146.365 48.1884 146.365 48.2063C146.365 48.2242 146.361 48.2419 146.354 48.2584C146.347 48.2749 146.337 48.2899 146.325 48.3026C146.312 48.3152 146.297 48.3252 146.281 48.3321C146.264 48.3389 146.246 48.3424 146.229 48.3424Z" fill="#367CFF"/>
<path d="M133.57 51.7452H118.479C118.443 51.7452 118.408 51.7308 118.383 51.7053C118.357 51.6798 118.343 51.6451 118.343 51.609C118.343 51.5729 118.357 51.5383 118.383 51.5128C118.408 51.4873 118.443 51.4729 118.479 51.4729H133.57C133.588 51.4729 133.606 51.4764 133.622 51.4833C133.639 51.4901 133.654 51.5001 133.666 51.5128C133.679 51.5254 133.689 51.5404 133.696 51.557C133.703 51.5735 133.706 51.5912 133.706 51.609C133.706 51.6269 133.703 51.6446 133.696 51.6611C133.689 51.6777 133.679 51.6927 133.666 51.7053C133.654 51.7179 133.639 51.728 133.622 51.7348C133.606 51.7416 133.588 51.7452 133.57 51.7452Z" fill="#367CFF"/>
<path d="M108.532 52.6014C112.305 52.6014 115.364 49.5424 115.364 45.769C115.364 41.9955 112.305 38.9366 108.532 38.9366C104.758 38.9366 101.699 41.9955 101.699 45.769C101.699 49.5424 104.758 52.6014 108.532 52.6014Z" fill="#292A2E"/>
<path d="M120.44 38.3686L120.997 39.808L122.538 39.8921L121.34 40.8662L121.736 42.3578L120.44 41.5201L119.144 42.3578L119.54 40.8662L118.343 39.8921L119.884 39.808L120.44 38.3686Z" fill="#367CFF"/>
<path d="M125.949 38.3686L126.505 39.808L128.046 39.8921L126.849 40.8662L127.245 42.3578L125.949 41.5201L124.653 42.3578L125.049 40.8662L123.852 39.8921L125.392 39.808L125.949 38.3686Z" fill="#367CFF"/>
<path d="M131.457 38.3686L132.014 39.808L133.555 39.8921L132.357 40.8662L132.753 42.3578L131.457 41.5201L130.161 42.3578L130.557 40.8662L129.36 39.8921L130.901 39.808L131.457 38.3686Z" fill="#367CFF"/>
<path d="M136.966 38.3686L137.522 39.808L139.063 39.8921L137.866 40.8662L138.262 42.3578L136.966 41.5201L135.67 42.3578L136.066 40.8662L134.869 39.8921L136.409 39.808L136.966 38.3686Z" fill="#367CFF"/>
<path d="M142.474 38.3686L143.031 39.808L144.572 39.8921L143.375 40.8662L143.77 42.3578L142.474 41.5201L141.178 42.3578L141.574 40.8662L140.377 39.8921L141.918 39.808L142.474 38.3686Z" fill="#367CFF"/>
<path d="M88.3615 23.5131H73.0624C71.9873 23.5131 71.1157 24.3847 71.1157 25.4599V36.6567C71.1157 37.7319 71.9873 38.6035 73.0624 38.6035H88.3615C89.4366 38.6035 90.3082 37.7319 90.3082 36.6567V25.4599C90.3082 24.3847 89.4366 23.5131 88.3615 23.5131Z" fill="#292A2E"/>
<path d="M85.5458 32.1613H85.4767C85.6918 32.2071 85.8845 32.3256 86.0223 32.497C86.1601 32.6683 86.2345 32.882 86.233 33.1019C86.2276 33.3569 86.1218 33.5994 85.9387 33.7769C85.7556 33.9545 85.5099 34.0526 85.2549 34.0501H85.0949C85.2913 34.1173 85.4605 34.2467 85.5768 34.4187C85.6931 34.5907 85.7501 34.7959 85.7393 35.0032C85.7226 35.2504 85.612 35.4819 85.4302 35.6501C85.2483 35.8184 85.009 35.9107 84.7612 35.9081H84.4664L78.5748 35.9029L78.5832 28.3685C79.1609 27.4794 80.1767 25.977 80.1767 25.977C80.3339 25.7276 80.5837 25.5508 80.8712 25.4856C81.1587 25.4204 81.4603 25.472 81.7098 25.6292C81.9592 25.7864 82.136 26.0362 82.2012 26.3237C82.2664 26.6112 82.2148 26.9129 82.0576 27.1623L81.304 28.3587L82.1926 28.3601H82.8243L85.7431 28.3633C85.9931 28.3614 86.2341 28.456 86.4159 28.6274C86.5978 28.7989 86.7064 29.0339 86.7191 29.2835C86.7238 29.4115 86.7026 29.5391 86.6569 29.6588C86.6112 29.7784 86.5419 29.8877 86.4531 29.98C86.3643 30.0723 86.2578 30.1458 86.14 30.1961C86.0222 30.2464 85.8955 30.2724 85.7674 30.2727C85.9825 30.3185 86.1752 30.437 86.3131 30.6083C86.451 30.7796 86.5256 30.9932 86.5243 31.2131C86.5187 31.4681 86.4129 31.7106 86.2297 31.8881C86.0466 32.0656 85.8008 32.1638 85.5458 32.1613Z" fill="white"/>
<path d="M78.5827 28.3323V28.3678L78.5769 35.9022V35.9087L75.4296 35.9035L75.4356 28.327L78.5827 28.3323Z" fill="#367CFF"/>
<path opacity="0.65" d="M77.0062 30.3166C77.3652 30.3166 77.6563 30.0255 77.6563 29.6664C77.6563 29.3073 77.3652 29.0162 77.0062 29.0162C76.6471 29.0162 76.356 29.3073 76.356 29.6664C76.356 30.0255 76.6471 30.3166 77.0062 30.3166Z" fill="white"/>
<path d="M108.532 27.1205C112.983 27.1205 116.592 23.5123 116.592 19.0613C116.592 14.6103 112.983 11.002 108.532 11.002C104.081 11.002 100.473 14.6103 100.473 19.0613C100.473 23.5123 104.081 27.1205 108.532 27.1205Z" fill="#367CFF"/>
<path d="M112.655 19.0474C112.659 19.5912 112.555 20.1304 112.35 20.6339C112.144 21.1374 111.841 21.5953 111.458 21.9811C111.074 22.367 110.619 22.6732 110.117 22.8822C109.615 23.0912 109.076 23.1988 108.532 23.1988C107.988 23.1988 107.45 23.0912 106.948 22.8822C106.446 22.6732 105.99 22.367 105.607 21.9811C105.224 21.5953 104.92 21.1374 104.715 20.6339C104.509 20.1304 104.405 19.5912 104.409 19.0474H112.655Z" fill="white"/>
<path d="M105.622 16.529C106.01 16.529 106.324 16.2146 106.324 15.8268C106.324 15.439 106.01 15.1246 105.622 15.1246C105.234 15.1246 104.92 15.439 104.92 15.8268C104.92 16.2146 105.234 16.529 105.622 16.529Z" fill="#0C0C0C"/>
<path d="M111.443 16.529C111.83 16.529 112.145 16.2146 112.145 15.8268C112.145 15.439 111.83 15.1246 111.443 15.1246C111.055 15.1246 110.74 15.439 110.74 15.8268C110.74 16.2146 111.055 16.529 111.443 16.529Z" fill="#0C0C0C"/>
<path d="M108.532 46.0784C110.11 46.0784 111.389 44.799 111.389 43.2207C111.389 41.6425 110.11 40.3631 108.532 40.3631C106.953 40.3631 105.674 41.6425 105.674 43.2207C105.674 44.799 106.953 46.0784 108.532 46.0784Z" fill="white"/>
<path d="M113.953 49.9286C113.315 50.7597 112.494 51.4329 111.554 51.8962C110.614 52.3595 109.58 52.6004 108.532 52.6004C107.484 52.6004 106.45 52.3595 105.511 51.8962C104.571 51.4329 103.75 50.7597 103.111 49.9286C103.785 49.1525 104.618 48.5301 105.553 48.1036C106.489 47.6771 107.504 47.4564 108.532 47.4564C109.56 47.4564 110.576 47.6771 111.511 48.1036C112.447 48.5301 113.279 49.1525 113.953 49.9286Z" fill="white"/>
<path d="M108.532 52.6977C107.161 52.6977 105.822 52.2914 104.682 51.5301C103.543 50.7687 102.655 49.6866 102.13 48.4206C101.606 47.1546 101.468 45.7614 101.736 44.4174C102.003 43.0733 102.663 41.8387 103.632 40.8697C104.601 39.9007 105.836 39.2408 107.18 38.9735C108.524 38.7061 109.917 38.8433 111.183 39.3677C112.449 39.8921 113.531 40.7802 114.292 41.9196C115.054 43.059 115.46 44.3986 115.46 45.769C115.458 47.6059 114.727 49.367 113.428 50.666C112.13 51.9649 110.368 52.6956 108.532 52.6977ZM108.532 39.0328C107.199 39.0328 105.897 39.4278 104.789 40.168C103.681 40.9081 102.818 41.9602 102.308 43.191C101.798 44.4219 101.665 45.7763 101.925 47.083C102.185 48.3897 102.826 49.59 103.768 50.5321C104.71 51.4742 105.91 52.1157 107.217 52.3757C108.524 52.6356 109.878 52.5022 111.109 51.9924C112.34 51.4825 113.392 50.6192 114.132 49.5114C114.872 48.4036 115.267 47.1013 115.267 45.769C115.265 43.9831 114.555 42.2709 113.292 41.0081C112.03 39.7452 110.317 39.0349 108.532 39.0328Z" fill="#292A2E"/>
<path d="M124.444 97.2844C124.417 97.2845 124.39 97.2768 124.367 97.2624C124.344 97.2479 124.325 97.2273 124.313 97.2028L120.48 89.3411C120.464 89.3065 120.462 89.2669 120.475 89.2309C120.487 89.1948 120.514 89.1652 120.548 89.1485C120.582 89.1317 120.622 89.1292 120.658 89.1414C120.694 89.1536 120.724 89.1795 120.742 89.2136L124.575 97.0754C124.583 97.0925 124.588 97.1112 124.589 97.1302C124.59 97.1493 124.588 97.1684 124.581 97.1865C124.575 97.2045 124.565 97.2212 124.553 97.2355C124.54 97.2498 124.525 97.2615 124.508 97.2698C124.488 97.2795 124.466 97.2845 124.444 97.2844Z" fill="#292A2E"/>
<path d="M130.923 96.8274C130.891 96.8274 130.86 96.8167 130.835 96.7971C130.809 96.7775 130.791 96.75 130.783 96.719L126.347 79.7858C126.342 79.7671 126.34 79.7475 126.342 79.7282C126.345 79.7088 126.351 79.69 126.36 79.673C126.37 79.656 126.383 79.6411 126.398 79.6292C126.413 79.6173 126.431 79.6086 126.45 79.6037C126.469 79.5988 126.489 79.5977 126.508 79.6005C126.527 79.6033 126.546 79.61 126.562 79.6201C126.579 79.6303 126.593 79.6436 126.605 79.6595C126.616 79.6753 126.624 79.6933 126.629 79.7123L131.064 96.646C131.07 96.6675 131.07 96.6901 131.066 96.7119C131.062 96.7337 131.052 96.7542 131.039 96.7718C131.025 96.7894 131.008 96.8037 130.988 96.8135C130.968 96.8232 130.946 96.8283 130.923 96.8282V96.8274Z" fill="#292A2E"/>
<path d="M139.384 97.5783C139.365 97.5783 139.346 97.5744 139.328 97.5667C139.31 97.5593 139.294 97.5484 139.281 97.5348C139.268 97.5212 139.257 97.5051 139.25 97.4874C139.243 97.4697 139.239 97.4507 139.239 97.4316C139.239 97.4126 139.243 97.3937 139.251 97.3761L143.836 86.5778C143.852 86.5436 143.88 86.517 143.916 86.5035C143.951 86.49 143.99 86.4907 144.024 86.5054C144.059 86.5201 144.087 86.5478 144.101 86.5825C144.116 86.6172 144.117 86.6562 144.103 86.6914L139.518 97.4897C139.507 97.516 139.488 97.5384 139.465 97.5541C139.441 97.5699 139.413 97.5783 139.384 97.5783Z" fill="#292A2E"/>
<path d="M131.088 100.08C131.076 100.08 131.064 100.078 131.053 100.075C131.034 100.071 131.017 100.062 131.001 100.051C130.986 100.04 130.973 100.025 130.963 100.009C130.953 99.9927 130.947 99.9746 130.944 99.9557C130.941 99.9369 130.942 99.9176 130.947 99.8991L136.275 78.5852C136.284 78.5478 136.308 78.5156 136.341 78.4958C136.374 78.476 136.413 78.4701 136.451 78.4795C136.488 78.4888 136.52 78.5127 136.54 78.5457C136.56 78.5788 136.566 78.6184 136.557 78.6558L131.229 99.9698C131.221 100.001 131.203 100.029 131.177 100.049C131.152 100.069 131.12 100.08 131.088 100.08Z" fill="#292A2E"/>
<path d="M140.319 86.2056C142.928 84.9645 143.871 81.4949 142.426 78.4561C140.98 75.4173 137.693 73.96 135.084 75.2011C132.475 76.4422 131.532 79.9118 132.978 82.9506C134.423 85.9894 137.71 87.4467 140.319 86.2056Z" fill="#0CBC8B"/>
<path opacity="0.4" d="M140.319 86.2056C142.928 84.9645 143.871 81.4949 142.426 78.4561C140.98 75.4173 137.693 73.96 135.084 75.2011C132.475 76.4422 131.532 79.9118 132.978 82.9506C134.423 85.9894 137.71 87.4467 140.319 86.2056Z" fill="white"/>
<path d="M146.15 92.2123C147.719 91.5804 148.38 89.5506 147.626 87.6784C146.872 85.8063 144.989 84.8009 143.42 85.4327C141.851 86.0645 141.19 88.0944 141.944 89.9665C142.698 91.8386 144.582 92.8441 146.15 92.2123Z" fill="#0CBC8B"/>
<path d="M129.221 83.6393C130.088 80.7791 128.902 77.8879 126.571 77.1817C124.241 76.4755 121.649 78.2217 120.782 81.0819C119.915 83.9422 121.102 86.8334 123.432 87.5396C125.763 88.2458 128.355 86.4996 129.221 83.6393Z" fill="#0CBC8B"/>
<path d="M122.361 90.7322C122.668 88.9013 121.862 87.2404 120.561 87.0225C119.26 86.8047 117.957 88.1123 117.65 89.9432C117.344 91.7741 118.149 93.435 119.45 93.6529C120.751 93.8707 122.054 92.5631 122.361 90.7322Z" fill="#0CBC8B"/>
<path d="M143.661 94.6398H121.029V100.28H143.661V94.6398Z" fill="#292A2E"/>
<path opacity="0.3" d="M143.661 94.6398H121.029V100.28H143.661V94.6398Z" fill="white"/>
<path d="M138.176 95.9364C140.1 95.1612 140.913 92.6805 139.992 90.3957C139.071 88.1109 136.765 86.8871 134.842 87.6623C132.918 88.4374 132.105 90.9181 133.026 93.2029C133.947 95.4877 136.253 96.7116 138.176 95.9364Z" fill="#0CBC8B"/>
<path d="M127.911 95.3897C129.826 95.3897 131.378 93.8374 131.378 91.9225C131.378 90.0076 129.826 88.4553 127.911 88.4553C125.996 88.4553 124.444 90.0076 124.444 91.9225C124.444 93.8374 125.996 95.3897 127.911 95.3897Z" fill="#0CBC8B"/>
<path opacity="0.68" d="M146.15 92.2123C147.719 91.5804 148.38 89.5506 147.626 87.6784C146.872 85.8063 144.989 84.8009 143.42 85.4327C141.851 86.0645 141.19 88.0944 141.944 89.9665C142.698 91.8386 144.582 92.8441 146.15 92.2123Z" fill="white"/>
<path opacity="0.68" d="M129.221 83.6393C130.088 80.7791 128.902 77.8879 126.571 77.1817C124.241 76.4755 121.649 78.2217 120.782 81.0819C119.915 83.9422 121.102 86.8334 123.432 87.5396C125.763 88.2458 128.355 86.4996 129.221 83.6393Z" fill="white"/>
<path opacity="0.68" d="M122.361 90.7322C122.668 88.9013 121.862 87.2404 120.561 87.0225C119.26 86.8047 117.957 88.1123 117.65 89.9432C117.344 91.7741 118.149 93.435 119.45 93.6529C120.751 93.8707 122.054 92.5631 122.361 90.7322Z" fill="white"/>
<path opacity="0.68" d="M138.176 95.9364C140.1 95.1612 140.913 92.6805 139.992 90.3957C139.071 88.1109 136.765 86.8871 134.842 87.6623C132.918 88.4374 132.105 90.9181 133.026 93.2029C133.947 95.4877 136.253 96.7116 138.176 95.9364Z" fill="white"/>
<path opacity="0.4" d="M127.911 95.3897C129.826 95.3897 131.378 93.8374 131.378 91.9225C131.378 90.0076 129.826 88.4553 127.911 88.4553C125.996 88.4553 124.444 90.0076 124.444 91.9225C124.444 93.8374 125.996 95.3897 127.911 95.3897Z" fill="white"/>
<path d="M139.048 89.0034C136.416 89.7387 135.031 87.588 135.031 87.588L135.033 87.5852C136.437 87.1666 137.993 87.7552 139.048 89.0034Z" fill="#292A2E"/>
<path d="M122.425 89.8841C121.13 89.388 120.056 88.4423 119.401 87.2197C119.756 87.0302 120.163 86.9613 120.561 87.0235C121.656 87.2059 122.4 88.4135 122.425 89.8841Z" fill="#292A2E"/>
<path d="M128.53 88.5109C127.521 89.42 126.26 90.0021 124.913 90.1806C125.271 89.5646 125.811 89.074 126.458 88.7752C127.105 88.4765 127.829 88.3842 128.53 88.5109Z" fill="#292A2E"/>
<path d="M147.795 100.586H0.286319C0.235254 100.586 0.186281 100.566 0.150174 100.53C0.114066 100.494 0.0937805 100.445 0.0937805 100.394C0.0937805 100.343 0.114066 100.294 0.150174 100.258C0.186281 100.222 0.235254 100.201 0.286319 100.201H147.795C147.846 100.201 147.895 100.222 147.931 100.258C147.968 100.294 147.988 100.343 147.988 100.394C147.988 100.445 147.968 100.494 147.931 100.53C147.895 100.566 147.846 100.586 147.795 100.586Z" fill="#292A2E"/>
</g>
<defs>
<clipPath id="clip0_42:3642">
<rect width="150" height="100.586" fill="white"/>
</clipPath>
</defs>
</svg>
